<svg xmlns="http://www.w3.org/2000/svg" viewBox="0 0 52.13 42.31"><defs><style>.cls-1{fill:#247455;}</style></defs><title>arrows</title><g id="Layer_2" data-name="Layer 2"><g id="Layer_1-2" data-name="Layer 1"><path class="cls-1" d="M47.6,21.16l4.22-5.63a1.54,1.54,0,0,0,.15-1.6,1.52,1.52,0,0,0-1.37-.84H42.42a1.51,1.51,0,0,0-1.22.61l-4.91,6.54a1.52,1.52,0,0,0,0,1.83l4.91,6.55a1.54,1.54,0,0,0,1.22.61H50.6a1.53,1.53,0,0,0,1.22-2.45Z"/><path class="cls-1" d="M29.08,19.63h3.53a11.57,11.57,0,1,0,0,3.05H29.08a8.07,8.07,0,1,1,0-3.05Z"/><path class="cls-1" d="M38.76,30.45l-3.67-4.89a14.62,14.62,0,1,1,0-8.81l3.67-4.89a4.51,4.51,0,0,1,.93-.92,21.16,21.16,0,1,0,0,20.43,4.51,4.51,0,0,1-.93-.92Z"/><path class="cls-1" d="M21.16,19.63h4.77a5,5,0,1,0,0,3.05H21.16a1.53,1.53,0,1,1,0-3.05Z"/></g></g></svg>