<svg xmlns="http://www.w3.org/2000/svg" viewBox="0 0 20.71 10.92"><defs><style>.cls-1{fill:#fff;}</style></defs><title>back_1</title><g id="Layer_2" data-name="Layer 2"><g id="Layer_1-2" data-name="Layer 1"><path class="cls-1" d="M0,5.57a.3.3,0,0,1,.07-.32L5.53.08A.31.31,0,0,1,6,.09a.28.28,0,0,1,0,.4L1,5.17H20.41a.3.3,0,0,1,.3.29.29.29,0,0,1-.3.28H1L6,10.43a.28.28,0,0,1,0,.4.31.31,0,0,1-.43,0h0L.09,5.66Z"/><path class="cls-1" d="M5.75,10.92a.3.3,0,0,0,.3-.29.25.25,0,0,0-.09-.2l-5.23-5L6,.49A.28.28,0,0,0,6,.08a.31.31,0,0,0-.42,0L.09,5.25a.28.28,0,0,0,0,.41l5.44,5.17A.31.31,0,0,0,5.75,10.92Z"/><path class="cls-1" d="M.3,5.74H20.41a.29.29,0,0,0,.3-.28.3.3,0,0,0-.3-.29H.3a.3.3,0,0,0-.3.29A.29.29,0,0,0,.3,5.74Z"/></g></g></svg>