<svg xmlns="http://www.w3.org/2000/svg" viewBox="0 0 53.46 53.46"><defs><style>.cls-1{fill:#231f20;}</style></defs><title>Asset 9</title><g id="Layer_2" data-name="Layer 2"><g id="Layer_1-2" data-name="Layer 1"><path class="cls-1" d="M49.14,34.94a1.52,1.52,0,0,1-1.1-.46,1.56,1.56,0,0,1,0-2.21,7.85,7.85,0,0,0,0-11.08A1.56,1.56,0,1,1,50.25,19a11,11,0,0,1,0,15.5,1.53,1.53,0,0,1-1.11.46Z"/><path class="cls-1" d="M44.71,30.51a1.52,1.52,0,0,1-1.1-.46,1.56,1.56,0,0,1,0-2.21,1.57,1.57,0,0,0,0-2.22,1.56,1.56,0,0,1,2.21-2.21,4.7,4.7,0,0,1,0,6.64,1.53,1.53,0,0,1-1.11.46Z"/><path class="cls-1" d="M4.31,34.94a1.52,1.52,0,0,1-1.1-.46,11,11,0,0,1,0-15.5,1.56,1.56,0,0,1,2.21,2.21,7.85,7.85,0,0,0,0,11.08,1.56,1.56,0,0,1,0,2.21A1.53,1.53,0,0,1,4.31,34.94Z"/><path class="cls-1" d="M8.74,30.51a1.52,1.52,0,0,1-1.1-.46,4.68,4.68,0,0,1,0-6.64,1.56,1.56,0,0,1,2.21,2.21,1.57,1.57,0,0,0,0,2.22,1.56,1.56,0,0,1,0,2.21A1.54,1.54,0,0,1,8.74,30.51Z"/><path class="cls-1" d="M26.73,53.46a7.31,7.31,0,0,0,6.6-4.18H20.12A7.32,7.32,0,0,0,26.73,53.46Z"/><path class="cls-1" d="M30.38,4.78V3.65a3.66,3.66,0,0,0-7.31,0V4.78a17.32,17.32,0,0,1,7.31,0Z"/><path class="cls-1" d="M9.1,43H7.94a1.57,1.57,0,1,0,0,3.13H45.52a1.57,1.57,0,1,0,0-3.13H44.36a29.75,29.75,0,0,1-1.83-4.18H10.93A31,31,0,0,1,9.1,43Z"/><path class="cls-1" d="M40.82,28.86V21.61a14.1,14.1,0,0,0-28.19,0v7.25a29.75,29.75,0,0,1-.79,6.85H41.62A29.76,29.76,0,0,1,40.82,28.86Z"/></g></g></svg>