<svg xmlns="http://www.w3.org/2000/svg" viewBox="0 0 315.68 230.33"><defs><style>.cls-1{fill:#f0f0f0;}.cls-2{fill:#fff;}.cls-3{fill:#2c3540;}.cls-4{fill:#de8e0d;}.cls-5{fill:#ffd500;}.cls-6{fill:#cfcfcf;}.cls-7{fill:#246b1f;}.cls-8{fill:#3a9e32;}.cls-9{fill:#cc8100;}.cls-10{fill:#bfbfbf;}.cls-11{fill:#dbdbdb;}.cls-12{fill:#9e5e09;}.cls-13{fill:#ffb700;}.cls-14{fill:#b09080;}.cls-15{fill:#d6bfb6;}</style></defs><title>files and folders0</title><g id="Layer_2" data-name="Layer 2"><g id="Layer_1-2" data-name="Layer 1"><rect class="cls-1" x="212.17" y="113.04" width="28.57" height="54.58"/><rect class="cls-2" x="210.56" y="113.04" width="28.58" height="54.58"/><polygon class="cls-1" points="181.99 167.62 181.99 125.95 198.06 113.04 210.56 113.04 210.56 167.62 181.99 167.62"/><polygon class="cls-2" points="198.06 125.95 181.99 125.95 198.06 113.04 198.06 125.95"/><rect class="cls-3" x="187.53" y="147.63" width="46.06" height="5.9"/><rect class="cls-3" x="187.53" y="156.48" width="46.06" height="5.9"/><rect class="cls-3" x="187.53" y="137.37" width="23.03" height="5.91"/><rect class="cls-3" x="210.56" y="137.37" width="23.03" height="5.91"/><rect class="cls-3" x="187.53" y="127.12" width="23.03" height="5.9"/><rect class="cls-3" x="210.56" y="127.12" width="23.03" height="5.9"/><rect class="cls-1" x="205.24" y="113.04" width="28.57" height="54.58"/><rect class="cls-2" x="203.63" y="113.04" width="28.57" height="54.58"/><polygon class="cls-1" points="175.06 167.62 175.06 125.95 191.12 113.04 203.63 113.04 203.63 167.62 175.06 167.62"/><polygon class="cls-2" points="191.12 125.95 175.06 125.95 191.12 113.04 191.12 125.95"/><rect class="cls-3" x="180.6" y="147.63" width="46.06" height="5.9"/><rect class="cls-3" x="180.6" y="156.48" width="46.06" height="5.9"/><rect class="cls-3" x="180.6" y="137.37" width="23.03" height="5.91"/><rect class="cls-3" x="203.63" y="137.37" width="23.03" height="5.91"/><rect class="cls-3" x="180.6" y="127.12" width="23.03" height="5.9"/><rect class="cls-3" x="203.63" y="127.12" width="23.03" height="5.9"/><rect class="cls-1" x="198.62" y="88.03" width="28.57" height="54.58"/><rect class="cls-2" x="197.02" y="88.03" width="28.57" height="54.58"/><polygon class="cls-1" points="168.44 142.61 168.44 100.94 184.51 88.03 197.02 88.03 197.02 142.61 168.44 142.61"/><polygon class="cls-2" points="184.51 100.94 168.44 100.94 184.51 88.03 184.51 100.94"/><rect class="cls-3" x="173.99" y="122.62" width="46.06" height="5.91"/><rect class="cls-3" x="173.99" y="131.47" width="46.06" height="5.9"/><rect class="cls-3" x="173.99" y="112.37" width="23.03" height="5.9"/><rect class="cls-3" x="197.02" y="112.37" width="23.03" height="5.9"/><rect class="cls-3" x="173.99" y="102.11" width="23.03" height="5.9"/><rect class="cls-3" x="197.02" y="102.11" width="23.03" height="5.9"/><rect class="cls-1" x="191.75" y="113.04" width="28.58" height="54.58"/><rect class="cls-2" x="190.15" y="113.04" width="28.57" height="54.58"/><polygon class="cls-1" points="161.57 167.62 161.57 125.95 177.64 113.04 190.15 113.04 190.15 167.62 161.57 167.62"/><polygon class="cls-2" points="177.64 125.95 161.57 125.95 177.64 113.04 177.64 125.95"/><rect class="cls-3" x="167.11" y="147.63" width="46.06" height="5.9"/><rect class="cls-3" x="167.11" y="156.48" width="46.06" height="5.9"/><rect class="cls-3" x="167.11" y="137.37" width="23.03" height="5.91"/><rect class="cls-3" x="190.15" y="137.37" width="23.03" height="5.91"/><rect class="cls-3" x="167.11" y="127.12" width="23.03" height="5.9"/><rect class="cls-3" x="190.15" y="127.12" width="23.03" height="5.9"/><rect class="cls-1" x="185.13" y="113.04" width="28.57" height="54.58"/><rect class="cls-2" x="183.53" y="113.04" width="28.58" height="54.58"/><polygon class="cls-1" points="154.96 167.62 154.96 125.95 171.02 113.04 183.53 113.04 183.53 167.62 154.96 167.62"/><polygon class="cls-2" points="171.02 125.95 154.96 125.95 171.02 113.04 171.02 125.95"/><rect class="cls-3" x="160.5" y="147.63" width="46.06" height="5.9"/><rect class="cls-3" x="160.5" y="156.48" width="46.06" height="5.9"/><rect class="cls-3" x="160.5" y="137.37" width="23.03" height="5.91"/><rect class="cls-3" x="183.53" y="137.37" width="23.03" height="5.91"/><rect class="cls-3" x="160.5" y="127.12" width="23.03" height="5.9"/><rect class="cls-3" x="183.53" y="127.12" width="23.03" height="5.9"/><rect class="cls-4" x="178.53" y="135.26" width="65.67" height="48.57"/><rect class="cls-1" x="178.26" y="113.04" width="28.58" height="54.58"/><rect class="cls-2" x="176.66" y="113.04" width="28.58" height="54.58"/><polygon class="cls-1" points="148.09 167.62 148.09 125.95 164.15 113.04 176.66 113.04 176.66 167.62 148.09 167.62"/><polygon class="cls-2" points="164.15 125.95 148.09 125.95 164.15 113.04 164.15 125.95"/><rect class="cls-3" x="153.63" y="147.63" width="46.06" height="5.9"/><rect class="cls-3" x="153.63" y="156.48" width="46.06" height="5.9"/><rect class="cls-3" x="153.63" y="137.37" width="23.03" height="5.91"/><rect class="cls-3" x="176.66" y="137.37" width="23.03" height="5.91"/><rect class="cls-3" x="153.63" y="127.12" width="23.03" height="5.9"/><rect class="cls-3" x="176.66" y="127.12" width="23.03" height="5.9"/><path class="cls-5" d="M161.86,135.26v.26a5,5,0,0,0,5.12,4.84h19.31a5,5,0,0,0,5.12-4.84c0-.09,0-.18,0-.26h18.9v48.56H144.63V135.26Z"/><path class="cls-2" d="M155.48,164.17a1.82,1.82,0,0,0,1.86,1.75h40.24a1.81,1.81,0,0,0,1.86-1.75v-9.71a1.8,1.8,0,0,0-1.86-1.75H157.34a1.81,1.81,0,0,0-1.86,1.75Z"/><rect class="cls-3" x="60.09" y="171.24" width="46.06" height="5.9"/><rect class="cls-3" x="60.09" y="180.1" width="46.06" height="5.9"/><rect class="cls-3" x="60.09" y="160.99" width="23.03" height="5.91"/><rect class="cls-3" x="83.12" y="160.99" width="23.03" height="5.91"/><rect class="cls-3" x="53.16" y="171.24" width="46.06" height="5.9"/><rect class="cls-3" x="53.16" y="180.1" width="46.06" height="5.9"/><rect class="cls-3" x="53.16" y="160.99" width="23.03" height="5.91"/><rect class="cls-3" x="76.19" y="160.99" width="23.03" height="5.91"/><rect class="cls-3" x="39.67" y="171.24" width="46.06" height="5.9"/><rect class="cls-3" x="39.67" y="180.1" width="46.06" height="5.9"/><rect class="cls-3" x="62.7" y="160.99" width="23.03" height="5.91"/><rect class="cls-3" x="33.05" y="171.24" width="46.06" height="5.9"/><rect class="cls-3" x="33.05" y="180.1" width="46.06" height="5.9"/><rect class="cls-3" x="56.08" y="160.99" width="23.03" height="5.91"/><rect class="cls-4" x="24.74" y="158.87" width="92.01" height="48.57"/><rect class="cls-3" x="26.18" y="171.24" width="46.06" height="5.9"/><rect class="cls-3" x="26.18" y="180.1" width="46.06" height="5.9"/><path class="cls-5" d="M34.42,158.87c0,.08,0,.17,0,.26A5,5,0,0,0,39.53,164H58.84A5,5,0,0,0,64,159.13v-.26H82.85v48.56H17.19V158.87Z"/><path class="cls-2" d="M28,187.78a1.81,1.81,0,0,0,1.86,1.75H70.14A1.81,1.81,0,0,0,72,187.78v-9.71a1.81,1.81,0,0,0-1.86-1.75H29.89A1.81,1.81,0,0,0,28,178.07Z"/><rect class="cls-6" x="178.03" y="187.95" width="79.98" height="15.19"/><rect class="cls-7" x="175.73" y="203.14" width="84.56" height="3.92"/><rect class="cls-7" x="175.73" y="183.82" width="84.56" height="4.12"/><rect class="cls-1" x="221.5" y="195.55" width="36.5" height="7.59"/><rect class="cls-7" x="130.35" y="183.82" width="84.57" height="23.24"/><rect class="cls-8" x="130.35" y="183.82" width="80.25" height="23.24"/><path class="cls-7" d="M135.94,193.5a7.87,7.87,0,0,1,9.59-5.19,7.36,7.36,0,0,1,5.49,9.08,7.86,7.86,0,0,1-9.59,5.19A7.36,7.36,0,0,1,135.94,193.5Z"/><path class="cls-2" d="M137.43,193.88a6.32,6.32,0,0,1,7.7-4.17,5.92,5.92,0,0,1,4.41,7.3,6.35,6.35,0,0,1-7.71,4.17A5.91,5.91,0,0,1,137.43,193.88Z"/><rect class="cls-2" x="155.67" y="186.85" width="50.56" height="17.19"/><path class="cls-9" d="M234.88,153.06a2.85,2.85,0,0,0,2.93,2.78h0a2.85,2.85,0,0,0,2.93-2.78V142.2a2.86,2.86,0,0,0-2.93-2.78h0a2.86,2.86,0,0,0-2.93,2.78Z"/><path class="cls-9" d="M227.34,178.38a2.1,2.1,0,0,0,2.16,2.05h0a2.11,2.11,0,0,0,2.17-2.05v-8.71a2.11,2.11,0,0,0-2.17-2h0a2.11,2.11,0,0,0-2.16,2Z"/><path class="cls-9" d="M214.39,163.87a2.1,2.1,0,0,0,2.16,2h0a2.1,2.1,0,0,0,2.17-2V150.58a2.11,2.11,0,0,0-2.17-2.05h0a2.12,2.12,0,0,0-2.16,2.05Z"/><rect class="cls-10" x="65.12" y="205.63" width="250.55" height="24.7" transform="translate(380.8 435.95) rotate(-180)"/><rect class="cls-11" y="205.63" width="250.55" height="24.7" transform="translate(250.55 435.95) rotate(-180)"/><polygon class="cls-12" points="80.28 16.25 80.28 0 99.43 0 102.97 5.7 138.79 5.7 138.79 16.25 80.28 16.25"/><polygon class="cls-9" points="78.17 16.25 78.17 0 97.32 0 100.86 5.7 136.68 5.7 136.68 16.25 78.17 16.25"/><polygon class="cls-12" points="62.77 16.25 62.77 0 81.92 0 85.46 5.7 121.28 5.7 121.28 16.25 62.77 16.25"/><polygon class="cls-4" points="60.66 16.25 60.66 0 79.81 0 83.35 5.7 119.17 5.7 119.17 16.25 60.66 16.25"/><polygon class="cls-9" points="45.26 16.25 45.26 0 64.41 0 67.95 5.7 103.77 5.7 103.77 16.25 45.26 16.25"/><polygon class="cls-13" points="43.15 16.25 43.15 0 62.29 0 65.84 5.7 101.65 5.7 101.65 16.25 43.15 16.25"/><polygon class="cls-4" points="27.75 16.25 27.75 0 46.9 0 50.44 5.7 86.25 5.7 86.25 16.25 27.75 16.25"/><polygon class="cls-5" points="25.63 16.25 25.63 0 44.78 0 48.33 5.7 84.14 5.7 84.14 16.25 25.63 16.25"/><rect class="cls-14" x="43.27" y="16.25" width="99.68" height="20.98"/><rect class="cls-15" x="12.93" y="16.25" width="67.35" height="20.98"/><polygon class="cls-12" points="157.1 16.25 157.1 0 176.25 0 179.79 5.7 215.61 5.7 215.61 16.25 157.1 16.25"/><polygon class="cls-9" points="154.99 16.25 154.99 0 174.14 0 177.68 5.7 213.5 5.7 213.5 16.25 154.99 16.25"/><polygon class="cls-12" points="139.59 16.25 139.59 0 158.74 0 162.28 5.7 198.1 5.7 198.1 16.25 139.59 16.25"/><polygon class="cls-4" points="137.48 16.25 137.48 0 156.63 0 160.17 5.7 195.99 5.7 195.99 16.25 137.48 16.25"/><polygon class="cls-9" points="122.08 16.25 122.08 0 141.23 0 144.77 5.7 180.59 5.7 180.59 16.25 122.08 16.25"/><polygon class="cls-13" points="119.97 16.25 119.97 0 139.12 0 142.66 5.7 178.48 5.7 178.48 16.25 119.97 16.25"/><polygon class="cls-4" points="104.57 16.25 104.57 0 123.72 0 127.26 5.7 163.08 5.7 163.08 16.25 104.57 16.25"/><polygon class="cls-5" points="102.46 16.25 102.46 0 121.6 0 125.15 5.7 160.96 5.7 160.96 16.25 102.46 16.25"/><rect class="cls-14" x="120.1" y="16.25" width="99.68" height="20.98"/><rect class="cls-15" x="89.75" y="16.25" width="67.35" height="20.98"/><polygon class="cls-12" points="236.64 16.25 236.64 0 255.79 0 259.33 5.7 295.15 5.7 295.15 16.25 236.64 16.25"/><polygon class="cls-9" points="234.53 16.25 234.53 0 253.68 0 257.22 5.7 293.04 5.7 293.04 16.25 234.53 16.25"/><polygon class="cls-12" points="219.13 16.25 219.13 0 238.28 0 241.82 5.7 277.64 5.7 277.64 16.25 219.13 16.25"/><polygon class="cls-4" points="217.02 16.25 217.02 0 236.16 0 239.71 5.7 275.52 5.7 275.52 16.25 217.02 16.25"/><polygon class="cls-9" points="201.62 16.25 201.62 0 220.77 0 224.31 5.7 260.13 5.7 260.13 16.25 201.62 16.25"/><polygon class="cls-13" points="199.5 16.25 199.5 0 218.65 0 222.2 5.7 258.01 5.7 258.01 16.25 199.5 16.25"/><polygon class="cls-4" points="184.11 16.25 184.11 0 203.26 0 206.79 5.7 242.61 5.7 242.61 16.25 184.11 16.25"/><polygon class="cls-5" points="181.99 16.25 181.99 0 201.14 0 204.68 5.7 240.5 5.7 240.5 16.25 181.99 16.25"/><rect class="cls-14" x="199.63" y="16.25" width="99.68" height="20.98"/><rect class="cls-15" x="169.29" y="16.25" width="67.35" height="20.98"/><rect class="cls-10" x="65.12" y="37.09" width="250.55" height="24.7" transform="translate(380.8 98.88) rotate(-180)"/><rect class="cls-11" y="37.09" width="250.55" height="24.7" transform="translate(250.55 98.88) rotate(-180)"/></g></g></svg>