<svg xmlns="http://www.w3.org/2000/svg" viewBox="0 0 95 95"><defs><style>.cls-1{fill:none;stroke:#247455;stroke-miterlimit:10;stroke-width:5px;}.cls-2{fill:#247455;}</style></defs><title>chest pain</title><g id="Layer_2" data-name="Layer 2"><g id="Layer_1-2" data-name="Layer 1"><circle class="cls-1" cx="47.5" cy="47.5" r="45"/><path class="cls-2" d="M66.94,39.31l-1.66-1.66,5.5-3.43-.84-1.35-7.19,4.5,1.51,1.51-2.57,1.28a12.66,12.66,0,0,1,1.7.93Z"/><path class="cls-2" d="M63.12,32.75H60.4l2-5.27-1.49-.56-2.78,7.42h2l-2.82,4.23,1.55.54Z"/><path class="cls-2" d="M46.57,33.51A19.32,19.32,0,0,0,58.5,24H34.64A19.32,19.32,0,0,0,46.57,33.51Zm0-5.52c1.78,0,3.17,1.05,3.17,2.38H48.15c0-.32-.61-.79-1.58-.79s-1.59.47-1.59.79H43.4C43.4,29,44.79,28,46.57,28Z"/><path class="cls-2" d="M63.39,41.09,58,43.77l-.71-1.42,4.37-2.19c-.38-.17-.77-.34-1.18-.48l-1.63-.57-1.34,2-1.32-.88,1.11-1.67-2.81-1a4.75,4.75,0,0,1-3.18-4.3,20.61,20.61,0,0,1-4.57,1.8l-.2.06-.2-.06a20.88,20.88,0,0,1-4.58-1.8,4.75,4.75,0,0,1-3.18,4.3l-6,2.08a13.5,13.5,0,0,0-9,12.74V62.89A7.15,7.15,0,0,0,30.71,70h2.86l11-10.26,3.49-.59a3.88,3.88,0,0,0,2.15-1.1l6.36-6.36a.88.88,0,0,0,.26-.63A.89.89,0,0,0,56,50.2a.88.88,0,0,0-.63.26L50.3,55.52,49.18,54.4l5.06-5.06,1.58-1.59a.88.88,0,0,0-.62-1.52.92.92,0,0,0-.63.26l-6.65,6.65L46.8,52l6.65-6.65L55,43.79a.89.89,0,0,0-1.26-1.26l-2.38,2.38-5.85,5.85-1.12-1.12,5.85-5.85a.89.89,0,0,0-.63-1.52.85.85,0,0,0-.62.26l-4,4L41.58,50l0,0-1.13-1.12.05,0L43.4,45.9v-.36a3.85,3.85,0,0,0-1.71-3.2.45.45,0,0,0-.67.36v.82a5.39,5.39,0,0,1-1.6,3.84l-1.21,1.21a4,4,0,0,0-1.16,2.81v3.11L27.3,64.24l-1.12-1.12L31.5,57.8V55.94a7.24,7.24,0,0,0-2.15-5.18l1.12-1.12a8.83,8.83,0,0,1,2.62,6.3v.28l2.37-2.38V51.38a5.51,5.51,0,0,1,1.63-3.93l1.21-1.21a3.81,3.81,0,0,0,1.13-2.72V42.7A2,2,0,0,1,42.57,41a5.42,5.42,0,0,1,2.29,3.42l3-3a2.47,2.47,0,0,1,4,.74l.75-.74a2.47,2.47,0,0,1,3.54,3.45,2.47,2.47,0,0,1,1.48,2.26,2.44,2.44,0,0,1-.68,1.7,2.5,2.5,0,0,1,1.47,2.27,2.45,2.45,0,0,1-.72,1.75L51.38,59.2a5.54,5.54,0,0,1-3,1.55l-3,.5L35.9,70H60.05V55.94a8.86,8.86,0,0,1,2.61-6.3l1.12,1.12a7.28,7.28,0,0,0-2.14,5.18V70h7.93V52.42a13.48,13.48,0,0,0-6.18-11.33Z"/></g></g></svg>