<svg xmlns="http://www.w3.org/2000/svg" viewBox="0 0 53.99 53.93"><defs><style>.cls-1{fill:#231f20;}</style></defs><title>Asset 12</title><g id="Layer_2" data-name="Layer 2"><g id="Layer_1-2" data-name="Layer 1"><path class="cls-1" d="M41.57,3.16a10.79,10.79,0,0,0-15.26,0L15.75,13.72,31,29,41.57,18.42A10.8,10.8,0,0,0,41.57,3.16ZM30.74,9.4l-4.8,4.74h0a1.39,1.39,0,1,1-1.93-2l4.82-4.74h0a1.38,1.38,0,1,1,1.92,2Z"/><path class="cls-1" d="M13.77,15.69,3.15,26.33A10.81,10.81,0,1,0,18.48,41.58L29.06,31Z"/><path class="cls-1" d="M51.77,36.67l-15,15a10.73,10.73,0,0,0,15-15Z"/><path class="cls-1" d="M43.27,32.49a10.73,10.73,0,0,0-8.51,17.26l15-15A10.61,10.61,0,0,0,43.27,32.49Z"/></g></g></svg>