<svg xmlns="http://www.w3.org/2000/svg" viewBox="0 0 95 95"><defs><style>.cls-1{fill:none;stroke:#247455;stroke-miterlimit:10;stroke-width:5px;}.cls-2{fill:#247455;}</style></defs><title>cough</title><g id="Layer_2" data-name="Layer 2"><g id="Layer_1-2" data-name="Layer 1"><circle class="cls-1" cx="47.5" cy="47.5" r="45"/><g id="Corona_Virus_Symptoms_Cough" data-name="Corona Virus Symptoms Cough"><g id="Glyph"><path class="cls-2" d="M37.77,47.74H36.28a.75.75,0,0,1,0-1.5h1.49a.75.75,0,0,1,0,1.5Z"/><path class="cls-2" d="M40.77,54.47a.74.74,0,0,1-.75-.75V52.23a.75.75,0,1,1,1.49,0v1.49A.74.74,0,0,1,40.77,54.47Z"/><path class="cls-2" d="M37,52.23A.75.75,0,0,1,36.5,51L38,49.45a.75.75,0,0,1,1.06,1.06h0L37.55,52a.74.74,0,0,1-.52.22Z"/><path class="cls-2" d="M30.29,65v5.15h7.13c-.11-1.28-.23-2.92-.37-5a13.17,13.17,0,0,0,2.22-8.45,2.25,2.25,0,0,0-4.49,0V58.4a.55.55,0,0,1-1.08.18l-1.13-3.39.9-3.6c.63-2.52-2.64-3.91-3.13-2.62C28,55.27,28,55,28.07,55.39Z"/><path class="cls-2" d="M60.31,53.27C59,55.22,48.25,57.46,46.2,57.06c-1.89,3-4.15,7.78-3.92,13.12h8.21V63.53A5.24,5.24,0,1,1,61,63.38v6.8h4.47l0-2.69A21.7,21.7,0,0,0,60.31,53.27Z"/><path class="cls-2" d="M66,28.29a5.1,5.1,0,0,0-3.91-3.18c-4.27-8-21.89,4.11-24.39-.29a.74.74,0,0,0-1.41.29c-.24,3.43.75,8,3.72,10.11v4.65c-2.15,2.89-2.53,2.94-2.42,3.51s.53.54,2.53,1.85l.47,1.58a.75.75,0,0,0,.83.52c1.64-.23,1.89.17,2.14.79L41.89,49a.77.77,0,0,0-.38.89A3.63,3.63,0,0,0,45,52.4a16.4,16.4,0,0,0,3.3-.71h0v2.43c-.18.22-.48.59-.86,1.1a33.48,33.48,0,0,0,12.83-4V50.09a32.82,32.82,0,0,0,6.15-12.31c.88-3.72.75-7.09-.37-9.49Z"/></g></g></g></g></svg>