<svg xmlns="http://www.w3.org/2000/svg" xmlns:xlink="http://www.w3.org/1999/xlink" viewBox="0 0 114.15 125.58"><defs><style>.cls-1{fill:none;}.cls-2{isolation:isolate;}.cls-3{clip-path:url(#clip-path);}.cls-4{fill:#0d9383;}.cls-5{fill:#231f20;}.cls-6{fill:#8a2f17;}.cls-14,.cls-6{opacity:0.5;}.cls-14,.cls-6,.cls-9{mix-blend-mode:multiply;}.cls-7{fill:#fdb48c;}.cls-8{fill:#d7d8d5;}.cls-9{fill:#dcb890;opacity:0.55;}.cls-10{fill:#fdfaee;}.cls-11{fill:#321413;}.cls-12{fill:#633837;}.cls-13{fill:#ce7959;}.cls-14{fill:#995235;}.cls-15{fill:#dbdbdb;}</style><clipPath id="clip-path"><circle class="cls-1" cx="57.08" cy="57.08" r="57.08"/></clipPath></defs><title>face0</title><g class="cls-2"><g id="Layer_2" data-name="Layer 2"><g id="Layer_1-2" data-name="Layer 1"><g class="cls-3"><circle class="cls-4" cx="57.08" cy="57.08" r="57.08"/><path class="cls-5" d="M25.13,110.07l-.2.7a1.67,1.67,0,0,1-.37-.5A5.61,5.61,0,0,0,25.13,110.07Z"/><path class="cls-5" d="M96.12,109.61s-.69.17-2,.45h0l-.14,0c-.34-1.83-.72-3.67-1.15-5.45l-3.77-.29a54.47,54.47,0,0,1-5.66,3.37c-.36.2-.72.38-1.08.55,0,.15.05.29.08.41l-.33-.29a4.09,4.09,0,0,1-.47.23c.25.67.47,1.36.69,2.09-.49.13-1.25.32-2.26.55.11.36.21.72.31,1.09-2.67.34-5.6.66-8.77.93-2.64.23-5.45.42-8.38.55l-1.18,0-1.2,0c-1.05,0-2.12.06-3.2.07l-1.08,0v0H54.42v0l-1.08,0h-.55L52,114l-3.06-.1-1.25-.05-.09-.12-.3-.39a56.21,56.21,0,0,1-9.81-2.62h0a56.36,56.36,0,0,1-5.8-2.51c-.67-.32-1.33-.67-2-1l-.18.15c-.26.21-.53.42-.79.61.06-.35.13-.74.2-1.19-.81-.46-1.61-.94-2.39-1.44s-1.79-1.18-2.66-1.8l-7.52,1.78c.09-.45.19-1,.29-1.51.26-1.46.55-3.29.85-5.58,1-7.21,2.07-19,3.19-38.1a82.87,82.87,0,0,1,3.95-22C27.27,30.34,30.94,25,34.83,21.24A28.79,28.79,0,0,1,54.35,13H56.6a28.85,28.85,0,0,1,19.94,8.67A41.05,41.05,0,0,1,86,37.08a81.17,81.17,0,0,1,4.32,23c1.26,21.62,2.52,33.8,3.54,40.67.21,1.34.4,2.48.58,3.45,0,.2.07.4.11.58C95.45,109.51,96.07,109.61,96.12,109.61Z"/><path class="cls-6" d="M81.6,108.62c.25.67.47,1.36.69,2.09-.49.13-1.25.32-2.26.55-2,.44-4.85,1-8.43,1.54-1.78.26-3.74.5-5.83.69l-.18,0c-1.13.11-2.3.2-3.51.28l-1.28.08c-1,0-2.1.09-3.19.12l-1.08,0H54.42l-1.08,0-.81,0L52,114c-1,0-2-.09-3-.16-.46,0-.92-.05-1.37-.09l-.3-.39a56.21,56.21,0,0,1-9.81-2.62h0a56.36,56.36,0,0,1-5.8-2.51c-.67-.32-1.33-.67-2-1l-.18.15c-.26.21-.53.42-.79.61.06-.35.13-.74.2-1.19.2-1.21.42-2.82.66-4.92l0-.31c.69-6.1,1.54-16.28,2.38-33.2.09-1.85.23-3.6.4-5.26l.15-1.3h0c.16-1.29.34-2.53.55-3.7a43.29,43.29,0,0,1,4.19-13.18c.11-.22.22-.43.34-.63l0,0C44.55,32,55.28,34.94,55.47,35s17.41-4.84,22.34,22.59c.16.89.31,1.82.45,2.78.1.79.2,1.6.29,2.44.19,1.72.33,3.55.43,5.48.88,17.58,1.75,27.88,2.46,33.89,0,.12,0,.23,0,.34.32,2.74.61,4.56.84,5.75,0,.15.05.29.08.41l-.33-.29A4.09,4.09,0,0,1,81.6,108.62Z"/><path class="cls-7" d="M82.29,110.71c-.49.13-1.25.32-2.26.55.11.36.21.72.31,1.09-2.67.34-5.6.66-8.77.93-2.64.23-5.45.42-8.38.55l-1.23.11-.77,1-.34-.94c-1.25.09-2.5.13-3.77.13q-.93,0-1.86,0c-.82,0-1.63-.07-2.43-.13L52,114l-3.06-.1L48.53,115l-.86-1.14-.09-.12-.3-.39a56.21,56.21,0,0,1-9.81-2.62h0a56.36,56.36,0,0,1-5.8-2.51c-.67-.32-1.33-.67-2-1,1.25-1,2.53-2.12,3.75-3.17s2.37-2,3.37-2.79h0c.29-.22.57-.42.84-.59a7.22,7.22,0,0,1,1-.56,8.35,8.35,0,0,0,2.25-1.38,14.33,14.33,0,0,0,4-6.21c.17-.47.32-.94.46-1.41a37.43,37.43,0,0,0,1.32-7.58c.13-1.69.12-2.79.12-2.79H64.7s0,.86.1,2.24a42.84,42.84,0,0,0,1.08,7,28.39,28.39,0,0,0,.81,2.74,15.45,15.45,0,0,0,3.69,6.17,8.68,8.68,0,0,0,2,1.43.38.38,0,0,0,.13.06,5.12,5.12,0,0,0,.53.25,9.22,9.22,0,0,1,2.2,1.39c1.83,1.46,3.87,3.66,6,5.67l.86.8a4.09,4.09,0,0,1-.47.23C81.85,109.29,82.07,110,82.29,110.71Z"/><path class="cls-4" d="M52,113.92l-.09-8.28,2.72-7.55h.5L55.22,114v.1c-.82,0-1.63-.07-2.43-.13L52,114Z"/><path class="cls-8" d="M96.19,125.58l-.09-.12a0,0,0,0,1,0,0,.62.62,0,0,0,0-.09c0-.06,0-.13,0-.22s0-.46-.06-.64,0-.37.14.7A3.42,3.42,0,0,1,96.19,125.58Z"/><path class="cls-9" d="M64.7,76.94c0,.13,0,.38,0,.73v.08c0,.36,0,.81.08,1.34v.1c0,.54.1,1.16.18,1.83v.09c.08.68.18,1.42.31,2.18l0,.12c.13.77.29,1.57.49,2.38l0,.12c.19.81.42,1.63.69,2.44l0,.12a22,22,0,0,0,.94,2.37l.07.13c.18.37.37.74.57,1.1-.57.24-6.77,2.73-11.89,2.73-7.48,0-11.27-2.2-12.75-3.12,3.25-6.06,3.25-14.85,3.25-14.85H64.7v.11Z"/><path class="cls-7" d="M32.23,36.55c.62-3.51,3-6.47,6-8.9,5-4.06,11.11-8.25,17.17-8.25s12.12,4.19,17.17,8.25c3,2.43,5.39,5.39,6,8.9,0,0,1.48,25.63-5.35,36.2C68,81,61.3,87.35,55.41,87.35S42.86,81,37.58,72.75C30.75,62.18,32.23,36.55,32.23,36.55Z"/><path class="cls-10" d="M71.47,54.33a4.94,4.94,0,1,1-4.94-4.71A4.83,4.83,0,0,1,71.47,54.33Z"/><path class="cls-11" d="M68.34,57.72a12.86,12.86,0,0,1-2.6.29,4.78,4.78,0,0,1-3.69-1.72,5,5,0,0,0,9-.14A6.06,6.06,0,0,1,68.34,57.72Z"/><path class="cls-12" d="M69.43,54.57a2.9,2.9,0,1,1-2.9-2.87A2.89,2.89,0,0,1,69.43,54.57Z"/><path class="cls-11" d="M68.29,54.57a1.76,1.76,0,1,1-1.76-1.74A1.75,1.75,0,0,1,68.29,54.57Z"/><path class="cls-7" d="M63.29,52.9a10,10,0,0,1,3.52-.48,8.77,8.77,0,0,1,4.65,1.69c-.12-2.5-1.07-5.25-4.89-5.5s-4.7,2.86-4.95,5.24A4.14,4.14,0,0,1,63.29,52.9Z"/><path class="cls-11" d="M63.29,52.9a10,10,0,0,1,3.52-.48,8.77,8.77,0,0,1,4.65,1.69c1.35-.54,2.56-1.63,2.44-2.76a5,5,0,0,1-3.31-.09,9.8,9.8,0,0,0-3.8-1.13c-3.69-.24-4.92,1.34-5.17,3.72A4.14,4.14,0,0,1,63.29,52.9Z"/><path class="cls-10" d="M64.68,53.88a.57.57,0,1,0,.56-.57A.57.57,0,0,0,64.68,53.88Z"/><path class="cls-10" d="M40.56,54.33a4.94,4.94,0,1,0,4.94-4.71A4.83,4.83,0,0,0,40.56,54.33Z"/><path class="cls-11" d="M43.69,57.72a12.86,12.86,0,0,0,2.6.29A4.78,4.78,0,0,0,50,56.29a5,5,0,0,1-9-.14A6.06,6.06,0,0,0,43.69,57.72Z"/><path class="cls-12" d="M42.6,54.57a2.9,2.9,0,1,0,2.9-2.87A2.89,2.89,0,0,0,42.6,54.57Z"/><path class="cls-11" d="M43.74,54.57a1.76,1.76,0,1,0,1.76-1.74A1.75,1.75,0,0,0,43.74,54.57Z"/><path class="cls-7" d="M48.74,52.9a10,10,0,0,0-3.52-.48,8.74,8.74,0,0,0-4.65,1.69c.12-2.5,1.07-5.25,4.89-5.5s4.69,2.86,4.95,5.24A4.14,4.14,0,0,0,48.74,52.9Z"/><path class="cls-11" d="M48.74,52.9a10,10,0,0,0-3.52-.48,8.74,8.74,0,0,0-4.65,1.69c-1.36-.54-2.56-1.63-2.44-2.76a5,5,0,0,0,3.3-.09,9.86,9.86,0,0,1,3.8-1.13c3.69-.24,4.92,1.34,5.18,3.72A4.14,4.14,0,0,0,48.74,52.9Z"/><path class="cls-10" d="M44.63,53.88a.58.58,0,0,1-.57.58.58.58,0,1,1,.57-.58Z"/><path class="cls-13" d="M56,67.51l-.4,0a4.93,4.93,0,0,1-3.24-1.42,2,2,0,0,1-.33-1.57,6.8,6.8,0,0,1,1.24-2.07A12.86,12.86,0,0,0,55,59.64a21.37,21.37,0,0,0,1.05-5.58.5.5,0,0,1,.51-.47.49.49,0,0,1,.47.51A22.59,22.59,0,0,1,55.92,60a13,13,0,0,1-1.85,3A7.54,7.54,0,0,0,53,64.69a.93.93,0,0,0,.16.79,3.83,3.83,0,0,0,2.56,1,2.62,2.62,0,0,0,1.88-.46.16.16,0,0,0,0-.17.48.48,0,0,1,.92-.3,1.13,1.13,0,0,1-.2,1.09A3.21,3.21,0,0,1,56,67.51Z"/><path class="cls-5" d="M61.53,44.73a2,2,0,0,1-2.09-.84c-.37-.68-.87-1.75-.68-2.06.56-.93,9.8-.77,10.15-.63s4.83,3,4.69,3.6-5-1.06-5.53-1A63.19,63.19,0,0,1,61.53,44.73Z"/><path class="cls-5" d="M49.29,44.73a2,2,0,0,0,2.09-.84c.37-.68.87-1.75.68-2.06-.57-.93-9.8-.77-10.15-.63s-4.83,3-4.69,3.6,5.05-1.06,5.53-1A63.19,63.19,0,0,0,49.29,44.73Z"/><path class="cls-13" d="M60.37,72.07c-1.42-.54-3.71-1-4.74,1.14-1-2.16-3.32-1.68-4.74-1.14a24,24,0,0,1-4.63.8,13,13,0,0,0,9.37,3,13,13,0,0,0,9.37-3A24,24,0,0,1,60.37,72.07Z"/><path class="cls-13" d="M55.65,76A47.75,47.75,0,0,1,48.07,75s3.55,4.48,7.58,4.48S63.23,75,63.23,75A47.75,47.75,0,0,1,55.65,76Z"/><path class="cls-5" d="M55.3,17.37v0C95.06,17.37,86,44.9,82.89,53.94a55.46,55.46,0,0,1-3.8,8c-1.43,2.66-1-.43-1-.43,1.94-15-2.2-25.67-2.2-25.67C71.68,25,55.3,23.57,55.3,23.57S45.08,33.18,34.69,35.85c0,0-4.14,10.72-2.2,25.67,0,0,.46,3.09-1,.43a55.46,55.46,0,0,1-3.8-8C24.61,44.9,15.55,17.37,55.3,17.37Z"/><path class="cls-14" d="M28,32.6a15.42,15.42,0,0,1,5.33-7.77A33,33,0,0,0,28,32.6Z"/><polygon class="cls-15" points="72.99 99.39 72.87 99.55 72.5 100.03 72.36 100.22 62.08 113.8 62.01 113.89 61.96 113.94 61.19 114.97 60.85 114.03 60.81 113.92 60.8 113.88 55.11 98.09 55.77 97.58 59.87 94.47 65.88 89.89 66.84 89.16 69.06 87.47 71.81 95.81 72.83 98.92 72.86 98.99 72.99 99.39"/><polygon class="cls-15" points="54.61 98.09 51.89 105.64 49.03 113.58 48.95 113.8 48.92 113.88 48.53 114.97 47.67 113.83 47.58 113.7 47.28 113.31 37.64 100.59 37.08 99.86 36.73 99.39 36.86 98.98 37.57 96.84 40.66 87.47 44.23 90.19 45.34 91.03 49.29 94.05 53.95 97.58 54.61 98.09"/><circle class="cls-1" cx="57.08" cy="57.08" r="57.08"/></g></g></g></g></svg>