<svg xmlns="http://www.w3.org/2000/svg" viewBox="0 0 315.88 703.49"><defs><style>.cls-1{isolation:isolate;}.cls-2{fill:#fff;}.cls-3{fill:#e3e2df;}.cls-4{fill:#f1f0ee;}.cls-5{fill:#f0efed;}.cls-5,.cls-7{mix-blend-mode:multiply;}.cls-6,.cls-7{fill:#bfe5e6;}.cls-8{fill:#bfbfc7;}.cls-9{fill:#f6f6f8;}.cls-10{fill:#a0a0ac;}.cls-11{opacity:0.3;}</style></defs><title>Asset 6</title><g class="cls-1"><g id="Layer_2" data-name="Layer 2"><g id="Layer_1-2" data-name="Layer 1"><rect class="cls-2" width="315.88" height="703.49"/><rect class="cls-3" x="-182.02" y="228.25" width="679.91" height="270.57" transform="translate(521.47 205.6) rotate(90)"/><rect class="cls-4" x="112.74" y="523.01" width="90.39" height="270.57" transform="translate(816.23 500.36) rotate(90)"/><polygon class="cls-5" points="293.23 23.58 28.95 23.58 22.65 23.58 22.65 39.3 22.65 703.49 28.95 703.49 28.95 39.3 293.23 39.3 293.23 23.58"/><rect class="cls-2" x="-28.75" y="179.63" width="268.93" height="103.19" transform="translate(336.94 125.51) rotate(90)"/><rect class="cls-6" x="61.07" y="104.62" width="89.28" height="253.21"/><rect class="cls-7" x="61.07" y="104.62" width="89.28" height="253.21"/><polygon class="cls-5" points="150.35 104.62 68.37 104.62 61.07 104.62 61.07 117.57 61.07 357.82 68.37 357.82 68.37 117.57 150.35 117.57 150.35 104.62"/><path class="cls-8" d="M72.05,492.74h0A18,18,0,0,1,54.12,474.8V418.31a18,18,0,0,1,17.93-17.93h0A18,18,0,0,1,90,418.31V474.8A18,18,0,0,1,72.05,492.74Z"/><rect class="cls-9" x="66.39" y="424.62" width="62.61" height="14.42" rx="1.87"/><path class="cls-10" d="M72.05,472.35h0a3,3,0,0,1-3-3v-13a3,3,0,0,1,3-2.95h0a3,3,0,0,1,3,2.95v13A3,3,0,0,1,72.05,472.35Z"/><g class="cls-11"><polygon class="cls-2" points="61.07 198.94 61.07 305.38 150.35 217.39 150.35 110.95 61.07 198.94"/><polygon class="cls-2" points="150.35 248.64 61.07 336.62 61.07 357.82 71.14 357.82 150.35 279.76 150.35 248.64"/></g></g></g></g></svg>