<svg xmlns="http://www.w3.org/2000/svg" viewBox="0 0 53.73 51.42"><title>Asset 7</title><g id="Layer_2" data-name="Layer 2"><g id="Layer_1-2" data-name="Layer 1"><path d="M47.24,14.46h3.11V25.71H47.24Z"/><path d="M6.43,8H0V49.59l6.43-22.5Z"/><path d="M9.25,28.92,2.82,51.42h45l5.89-22.5Z"/><path d="M22.5,8a3.76,3.76,0,0,0-3.75,3.75v2.15a3.76,3.76,0,0,0,3.75,3.74,3.75,3.75,0,0,0,3.75-3.74V11.78A3.77,3.77,0,0,0,22.5,8Z"/><path d="M16.08,25.71H28.93V22.62a3.83,3.83,0,0,0-1.3-2.87L27,19.22a7,7,0,0,1-4.52,1.67A6.9,6.9,0,0,1,18,19.22l-.61.53a3.8,3.8,0,0,0-1.3,2.87Z"/><path d="M43.92,14.46V0H9.64V25.71h3.22V22.62a7,7,0,0,1,2.4-5.29l.82-.72a6.82,6.82,0,0,1-.54-2.68V11.78A7,7,0,0,1,28.07,7.61h0a6.91,6.91,0,0,1,1.4,4.17v2.15a7,7,0,0,1-.54,2.68l.81.72a7,7,0,0,1,2.4,5.29v3.09H44V14.46Zm-3.21,1.61h-5.9V12.85h5.9Zm0-6.43H31.6V6.43h9.11Z"/></g></g></svg>