<svg xmlns="http://www.w3.org/2000/svg" viewBox="0 0 95 95"><defs><style>.cls-1{fill:none;stroke:#247455;stroke-miterlimit:10;stroke-width:5px;}.cls-2{fill:#247455;}</style></defs><title>fever</title><g id="Layer_2" data-name="Layer 2"><g id="Layer_1-2" data-name="Layer 1"><circle class="cls-1" cx="47.5" cy="47.5" r="45"/><path class="cls-2" d="M47.64,33.8a1.14,1.14,0,0,0-2.28,0v3.78h2.28Z"/><path class="cls-2" d="M54.85,49.81v-16a8.35,8.35,0,0,0-16.7,0v16L38,50A10.8,10.8,0,0,0,46.5,67.47h0a10.81,10.81,0,0,0,8.35-17.66Zm-2.3,7.08a6,6,0,0,1-6,5.84h-.09A6.07,6.07,0,0,1,41.71,53,5.64,5.64,0,0,1,42.9,51.8v-18a3.61,3.61,0,0,1,7.21,0v18a5.9,5.9,0,0,1,1.06,1A6,6,0,0,1,52.55,56.89Z"/><path class="cls-2" d="M49.27,54.38a3.67,3.67,0,0,0-1-.84l-.63-.36V40.05H45.36V53.18l-.62.36a3.45,3.45,0,0,0-1.08.93,3.64,3.64,0,0,0,.17,4.61,3.59,3.59,0,0,0,5.27.08A3.64,3.64,0,0,0,49.27,54.38Z"/></g></g></svg>