<svg xmlns="http://www.w3.org/2000/svg" viewBox="0 0 55.41 50"><defs><style>.cls-1{fill:#231f20;}</style></defs><title>Asset 6</title><g id="Layer_2" data-name="Layer 2"><g id="Layer_1-2" data-name="Layer 1"><path class="cls-1" d="M27.69,4.6C15.61-6,.26,3.32,0,15.9a16.31,16.31,0,0,0,2.71,9.21H14.65l2.13-3.54a1.62,1.62,0,0,1,2.76,0l4.48,7,6.53-13.8a1.63,1.63,0,0,1,2.9-.07l5.6,10.4H52.67c10.1-15.77-9.85-33.74-25-20.51Z"/><path class="cls-1" d="M36.65,27.5l-4.54-8.43L25.69,32.62a1.62,1.62,0,0,1-2.83.18l-4.65-7.31L17,27.57a1.62,1.62,0,0,1-1.39.79H5.28c.32.33-1.4-1.38,21.27,21.17a1.62,1.62,0,0,0,2.29,0L50.11,28.36h-12a1.62,1.62,0,0,1-1.43-.86Z"/></g></g></svg>