<svg xmlns="http://www.w3.org/2000/svg" xmlns:xlink="http://www.w3.org/1999/xlink" viewBox="0 0 204.48 698.35">
<style type="text/css" >
      <!-- <![CDATA[

  .walikng{
    animation: walikng 0.5s;animation-iteration-count:20;animation-direction: alternate;
    animation-delay: 0.1s;

}
  .walikngback{
    animation: walikngback 0.5s;animation-iteration-count:20;animation-direction: alternate;
    animation-delay: 0.1s;

}

  @keyframes walikng {
  from {transform: rotate(5.4deg);}
  to {transform: rotate(0deg);}
}
 @keyframes walikngback {
  from {transform: rotate(-10deg);}
  to {transform: rotate(-2deg);}
}


      ]]> -->
    </style>
<defs><style>.cls-1,.cls-21{fill:none;}.cls-2{fill:#d4583f;}.cls-3{fill:#fdb48c;}.cls-4{fill:#fff;}.cls-5{fill:#e9f0f5;}.cls-6{fill:#3f2d23;}.cls-7{fill:#f2b3c2;}.cls-8{fill:#e59f7c;}.cls-9{fill:#1d1309;}.cls-10{fill:#231f20;}.cls-11{fill:#ec8940;}.cls-12{fill:#fad0da;}.cls-13{fill:#844526;}.cls-14{fill:#252d59;}.cls-15,.cls-18{fill:#001e3b;}.cls-16{opacity:0.25;}.cls-17{clip-path:url(#clip-path);}.cls-18,.cls-19{fill-rule:evenodd;}.cls-19,.cls-20{fill:#5cd3f5;}.cls-20{opacity:0.1;}.cls-21{stroke:#eaa27d;stroke-miterlimit:10;}.cls-22{opacity:0.05;}</style><clipPath id="clip-path"><polygon class="cls-1" points="125.75 299 42.91 299 26.01 179.16 108.85 179.17 125.75 299"/></clipPath></defs><title>Asset 3</title><g id="Layer_2" data-name="Layer 2"><g id="Layer_1-2" data-name="Layer 1"><polygon class="cls-2" points="78.63 129 61.47 98.16 59.57 66.25 68.15 26.89 84.35 12 116 16.19 136.79 48.16 107.24 116.41 78.63 129"/><path class="cls-2" d="M190,260.77,204.48,484s-11.44-8-22.88,8-22.88,8-22.88,8l5.39-233.93Z"/><path class="cls-3 walikngback" d="M56.05,471.74s1.58,14,7,38.94,8.79,74.25,9.24,102.77.56,28.08-1.81,32.83-25,20.83-31.32,24.22-8.56,4.87-8.56,6.91,6.12,8.15,21,6.11,19.36-10.87,27.37-13.92,14.42-2.49,15.43-9.51S91,650.92,91,640.73s9.24-61.23,13.53-87.49-2-51.39-7.36-64.67-8-18-8.42-23.54-7.66-13.44-18.18-13.59S54.92,459,56.05,471.74Z"/><path class="cls-4 walikngback" d="M41.16,316.93s1.72,86.33,10.49,160.67S64.28,597.36,62,637.91c0,0,18.71,8.11,46.16,0,0,0-2-47.7,0-76.85s7.3-37.81-4.69-86.41c0,0,2.88-129.86,7.59-159.21H41.57Z"/><path class="cls-5 walikngback" d="M85.57,315.44c-1,10.73-2,25-1.31,36.6,0,0,4.25,78.66,8.93,134.7,0,0,12.6,78.4,4.84,153.54a90.93,90.93,0,0,0,10.13-2.37s-2-47.7,0-76.85,7.3-37.81-4.69-86.41c0,0,2.88-129.86,7.59-159.21Z"/><path class="cls-6 walikngback" d="M57,660.16a4.21,4.21,0,0,0-4.51,0c-2,1.21-10.84,6.78-15.57,9.66s-8.62,4.7-9,6.11.56,6.11,6.87,8.38,16.11,2.49,25.64-1.64,14.19-8.89,19.21-10.92,12.11-3.12,14.25-6,2.48-4.42,2.09-6.68-.5-5.39-2.82-7.11a13,13,0,0,1-6,11.13,60.94,60.94,0,0,1-17.75,7.35c-2.31.46-2.44-.08-3.49-1.5C63.72,666,60.71,662.22,57,660.16Z"/><path class="cls-3 walikngback" d="M6.66,343.34c-.35.53-.74,1.23-1.16,2-1,3.31-1.81,8.32-2.16,10.21-.45,2.39.82,7.22.35,9.11s.07,3.43.49,3.43,1.54-1.71,1.92-3.72c0,0,.17,2.19.28,3.06s1.39,1,2.19-.83a9.08,9.08,0,0,0,.82-3.86,31.6,31.6,0,0,1,.67-3.57,19.26,19.26,0,0,1,.26,4.35,14,14,0,0,0,.22,4.16c.15.47,1.75-.14,2.09-1.83s.22-2,.41-3.24.3-3.49.67-4.85c0,0,.22,2.59.21,4s.7,2.11.81,3.19,0,2.33.38,2.48,1.7-.53,1.86-2.5a33,33,0,0,0-.25-4.3c0-1.19-.19-4.85,1.06-7.71s8.65-8.11,13.26-15.17,1.83-11.37,3-14.65l-5.15.86S9,339.87,6.66,343.34Z"/><path class="cls-3 walikngback" d="M61.16,230.61c-5.2-1.07-11.3,3.48-14.3,11.92s-22.51,69.63-24.61,75a40.68,40.68,0,0,1-2.64,5c-.34.48-5.45,7.61-8.57,10.07s-7.38,8.5-7.8,9.81a76.08,76.08,0,0,1-2.35,7.8c-1.15,2.78-1.23,3.94,0,4.17s3.7-.62,5.23-4.48,2.54-5.33,3.08-5.64,8.23-1.31,12.3-4.4,6.85-9.27,8.54-12.43a11.6,11.6,0,0,1,3.7-4.22l.29,0,0-.17c1.3-3.3,34.7-58.38,38.08-70.32s3.89-17.4,3.89-17.4Z"/><path class="cls-3 walikng " d="M121.72,479.12s1.62,14.37,7.15,39.86,9,76,9.46,105.19.58,28.74-1.84,33.6-25.61,21.32-32.07,24.79-8.76,5-8.76,7.07,6.26,8.34,21.47,6.26,19.82-11.12,28-14.25,14.76-2.55,15.8-9.73-3.46-9.39-3.46-19.82,9.45-62.67,13.84-89.55-2-52.6-7.54-66.19-8.15-18.39-8.61-24.1-7.84-13.75-18.61-13.9S120.57,466.07,121.72,479.12Z"/><path class="cls-4 walikng" d="M97.43,352s8.92,78.26,16.91,133.92c0,0,18.64,83.78,13.47,161.94,0,0,18.82,9.27,47.74-4a323.64,323.64,0,0,1,0-65.38c3.69-35.33,2.07-60.5-14.34-102,0,0,4.45-84.77,7.55-108.39s4.65-46.48-6.28-68.72h-65S94.91,330.42,97.43,352Z"/><path class="cls-6   walikng" d="M122.72,672a4.27,4.27,0,0,0-4.61,0c-2,1.24-11.09,6.93-15.94,9.89s-8.82,4.81-9.22,6.26.57,6.24,7,8.57,16.49,2.55,26.24-1.68,14.53-9.1,19.67-11.18,12.39-3.19,14.59-6.14,2.53-4.52,2.13-6.84-.51-5.52-2.88-7.28a13.33,13.33,0,0,1-6.17,11.4,62.89,62.89,0,0,1-18.17,7.53c-2.36.46-2.51-.09-3.58-1.54C129.58,677.93,126.49,674.09,122.72,672Z"/><path class="cls-7" d="M63.06,253.38S51.15,252,33.85,239.25c0,0,21.72-90.86,30-97Z"/><path class="cls-3" d="M91.34,105.83v13.33c0,2.9-3.06,5.22-5.71,7.42s-6.8,6.48-6.8,6.48,2.19,28.29,9.91,41.49c0,0,30.45-24.46,47.64-46.76,0,0-10.79-8.92-12-12s-1.61-7.35-1.61-11.81,1.33-19.7,1.33-19.7Z"/><path class="cls-8" d="M121.14,93.11a61.51,61.51,0,0,0,2.77-8.7L91.34,105.83v13.33h0C100.41,115.88,115.09,107.94,121.14,93.11Z"/><path class="cls-3" d="M65.33,39.11c-1.83,4.63-2.92,9-2.23,20.93s1.29,15.52,1.3,20,.16,9.27,3.39,14.06,7.07,10.12,9.15,13,5.92,5,12.92,3.48,27.6-9.35,35.06-27.65,7.32-47.26-6.42-55.77c-16-9.92-32.43-8.49-43.15-.77A28.79,28.79,0,0,0,65.33,39.11Z"/><path class="cls-4" d="M95.16,63.54s-6.77,1.68-6.71,7.68a14.2,14.2,0,0,0,9,1.65,7.25,7.25,0,0,0,6.23-5.42S101.48,62.88,95.16,63.54Z"/><path d="M101.22,67.94a4.63,4.63,0,1,1-4.63-4.66A4.64,4.64,0,0,1,101.22,67.94Z"/><path class="cls-9" d="M99.5,67.94A2.52,2.52,0,1,1,97,65.41,2.53,2.53,0,0,1,99.5,67.94Z"/><path class="cls-10" d="M83.49,63.05c.54.51,2.79.17,4.58-.81,2.34-1.27,6.34-4.13,10.06-3.36A21.83,21.83,0,0,1,102,60.13a13.44,13.44,0,0,0-5.42-3.51c-3-.84-7.3-.06-9.58.87S82.41,60.85,83.49,63.05Z"/><path class="cls-10" d="M88,70.09s2.52-5.6,7.9-6.14A6.75,6.75,0,0,1,103,68.09l-.29,1.82a6,6,0,0,0,2.25-2.31A8.89,8.89,0,0,0,96,62.27C88.45,62.85,88,70.09,88,70.09Z"/><path class="cls-4" d="M64.29,66.51a6.75,6.75,0,0,0,1.29,4.17c1.5,2.17,5,2.26,7,1,0,0,.36-3.42-1.05-5.15S66.39,64.57,64.29,66.51Z"/><path class="cls-9" d="M71.24,68.85A1.61,1.61,0,1,1,69.65,67,1.73,1.73,0,0,1,71.24,68.85Z"/><path class="cls-10" d="M72.76,70.68s-.3-4.41-3.8-4.87c-3.23-.42-4.47,1.57-4.47,1.57l0,1.24a3.31,3.31,0,0,1-1.21-2,5.36,5.36,0,0,1,5.85-2.14C73.66,65.35,72.76,70.68,72.76,70.68Z"/><path class="cls-11" d="M76.11,78.56a10.93,10.93,0,0,1-.23,3.91c-.51,1.41-1.37,2.37-1.24,3.35.21,1.46,1.94,1.8,1.94,3.28a2.5,2.5,0,0,0-1-.9c-.49-.17-2.5-1.25-2.5-2.66s1.37-2.06,2-3.42A14.48,14.48,0,0,0,76.11,78.56Z"/><path class="cls-11" d="M78.39,88.46s-.37-1.36.35-1.39,2.16,1.39,2.16,1.39S79,87.71,78.39,88.46Z"/><path class="cls-11" d="M92,93.73a32.14,32.14,0,0,0-9,0c-4.54.74-6.54,3-6.54,3a21.22,21.22,0,0,1,6-1.64c2.75-.31,10.15,0,10.15,0A2.7,2.7,0,0,0,92,93.73Z"/><path class="cls-4" d="M81.94,140.83s23.87,3.7,36.79,0L88.28,172Z"/><path class="cls-12" d="M83.13,128.82a110.5,110.5,0,0,0,5.36,36.28s29.66-23.82,46-41.25c0,0,18.68,12.92,27.14,22.54S173.74,163.19,168,182s-8.09,50.51-6,67.42,22.65,208.2,21.35,211.91S120.87,489.86,79.5,489.86c-43.62,0-49-16.22-49-19.46S42.65,281.32,45.26,259.85s-.31-36-1.87-41.05-9.25-15.87-6.9-28.27S48.21,168.63,50,161.3s3-15.29,7.73-19.08S83.13,128.82,83.13,128.82Z"/><path class="cls-7" d="M137.89,174.55s-6,28.34,1.37,65.75c3.1-8,10.35-24.83,14.75-33.31Z"/><path class="cls-3" d="M173,239.5c-8.9.64-41.14,8.18-71,8.52a33,33,0,0,1-3.49-.23A12.32,12.32,0,0,1,97,254.86c.17.23.34.46.49.7a10.43,10.43,0,0,1,3.4,5.66,4.74,4.74,0,0,1,.92-.13c3.53-.13,67.17,8.44,79.42,6.76s13.58-17.38,13.58-17.38l.28-5.11C194,240.15,181.91,238.87,173,239.5Z"/><path class="cls-12" d="M167.16,148.88c8.67,8.59,7.76,13.12,17.3,41.12A202.87,202.87,0,0,1,195,244.92s-26.28,4.55-47-3.09c0,0-6.6-17-8.73-44-1.89-23.87-3.33-36.33,1.51-47.24S160.6,142.39,167.16,148.88Z"/><path class="cls-13" d="M74.62,22.23a95.84,95.84,0,0,0,6.56,8.64c9.76,11.58,29.29,30,50.84,23.92C132,54.79,132.38-13.56,74.62,22.23Z"/><path class="cls-13" d="M60.44,53.25s2.15,7,22.35-20.36L74.62,22.23,64.49,30.58Z"/><path d="M72.33,68.85a3.1,3.1,0,1,1-3.06-3.56A3.34,3.34,0,0,1,72.33,68.85Z"/><path class="cls-10" d="M72.29,63.32a5.61,5.61,0,0,0-.84-3.75c-.94-1.26-3.69-2.55-5.19-2a5.55,5.55,0,0,0-2.46,2.16A3.74,3.74,0,0,1,66,58.8c1.19,0,1.53,2.38,2.54,3.27A4.45,4.45,0,0,0,72.29,63.32Z"/><path class="cls-14" d="M88.84,62.72H88.1a9.47,9.47,0,0,0-1.83.23,7.1,7.1,0,0,0-1.23.41,2.92,2.92,0,0,0-1,.71c0,.06-.11.11-.11.18s-.11.3-.16.46-.11.5-.14.85a15.67,15.67,0,0,0-.13,2.12,9.75,9.75,0,0,0,.83,4.56,6.58,6.58,0,0,0,4.06,3,38.35,38.35,0,0,0,5.89.45c1,0,2-.15,3-.21l1.52-.13a7,7,0,0,0,.72-.07l.75-.19a7.57,7.57,0,0,0,4.08-3.6,5,5,0,0,0,.42-1.17c.09-.5.18-1,.29-1.48a12.74,12.74,0,0,0,.2-1.4,8.78,8.78,0,0,0,.11-1.35,7.6,7.6,0,0,0,0-1.27,1.32,1.32,0,0,0-.31-.94,4.17,4.17,0,0,0-.38-.26l-.47-.22a4.6,4.6,0,0,1-.52-.19,8.7,8.7,0,0,0-2.2-.4c-.74-.05-1.61-.05-2.37-.07l-4.21-.11c-1.26,0-2.36,0-3.26,0H88.84Zm0-1.76h10.3c.79,0,1.56,0,2.44,0a10.38,10.38,0,0,1,2.7.45l.68.24.67.33a6.88,6.88,0,0,1,.66.44,3.46,3.46,0,0,1,.64.73l.15.32,0,.08,0,0s.07.21,0,.12v.06l0,.19.08.8a9.57,9.57,0,0,1-.06,1.52,11.33,11.33,0,0,1-.19,1.51,13.75,13.75,0,0,1-.28,1.5l-.36,1.47a6.94,6.94,0,0,1-.69,1.54,8.26,8.26,0,0,1-2.18,2.45,8.42,8.42,0,0,1-3,1.5l-.76.15a6.75,6.75,0,0,1-.84.06l-1.57.07c-1,0-2.1.14-3.11.11l-3-.12-1.51-.08a12.42,12.42,0,0,1-1.5-.2,7.74,7.74,0,0,1-4.87-3.36,6.91,6.91,0,0,1-.63-1.33l-.19-.62c-.07-.33-.08-.46-.12-.7a22,22,0,0,1-.26-2.48,17.58,17.58,0,0,1,0-2.31,7.81,7.81,0,0,1,.16-1.14c0-.16.09-.32.13-.47a1.93,1.93,0,0,1,.3-.59,4,4,0,0,1,1.59-1.3,9.21,9.21,0,0,1,1.5-.57A11.15,11.15,0,0,1,88,61l.74,0Z"/><path class="cls-14" d="M68.78,63.56h-.52a13.26,13.26,0,0,0-1.36.07,10.89,10.89,0,0,0-2,.38,2.81,2.81,0,0,0-.88.4c.07-.3-.1.5-.16.92s-.08.92-.1,1.45,0,1.11,0,1.69A15.61,15.61,0,0,0,64,72a5.32,5.32,0,0,0,1.88,3.08,2,2,0,0,0,.78.34l1.07.15c.71.06,1.39.11,2.11.1A16.37,16.37,0,0,0,72,75.51l.26,0h.06l.13,0a4.6,4.6,0,0,0,.49-.18,3.92,3.92,0,0,0,.66-.54,6,6,0,0,0,1.54-3.33,13.21,13.21,0,0,0,.1-1.8c0-.6,0-1.18-.07-1.75a11.49,11.49,0,0,0-.58-3c-.08-.31-.45-.42-.64-.52a9.61,9.61,0,0,0-1.15-.37,17,17,0,0,0-2.11-.32c-.59,0-1.06,0-1.38,0h-.49Zm0-1.58h.54c.35,0,.87,0,1.52.09a16.19,16.19,0,0,1,2.36.39,10.35,10.35,0,0,1,1.44.5,4,4,0,0,1,.82.53l.14.14.07.06v0h0l.08.1,0,.05.21.45a12,12,0,0,1,.52,3.45c0,.6,0,1.23,0,1.87a13.88,13.88,0,0,1-.2,1.95,7.5,7.5,0,0,1-2,3.83,4.06,4.06,0,0,1-1.08.78c-.18.08-.34.12-.51.18l-.13,0-.11,0H72.4l-.29,0a17,17,0,0,1-2.25.16c-.74,0-1.53,0-2.27-.08l-1.07-.14A3.09,3.09,0,0,1,65.27,76a6.64,6.64,0,0,1-2.44-3.63,16.7,16.7,0,0,1-.52-3.79c0-.6,0-1.17-.05-1.74s0-1.16.05-1.7c0-.27.07-.51.1-.76l0-.18V64c0-.15,0-.07,0-.11a1.63,1.63,0,0,1,.35-.53,3.84,3.84,0,0,1,1.48-.77,12.52,12.52,0,0,1,2.37-.49c.65-.08,1.17-.1,1.53-.11h.53Z"/><path class="cls-14" d="M101.69,61s5.54.58,6.43.73c.73.13.69.44.69.7V64c0,.78-1.18.68-1.59,1.37a6.76,6.76,0,0,1-.74,1s.3-3.34-.76-3.93A31.71,31.71,0,0,0,101.69,61Z"/><path class="cls-14" d="M65.74,62.2s-3.43.75-4,.85-.43.27-.43.43v1c0,.48.73.42,1,.85a4.76,4.76,0,0,0,.46.64s-.19-2.07.47-2.44S65.74,62.2,65.74,62.2Z"/><path class="cls-14" d="M83.48,66.87c0,1,1.65,1.37,1.65,2.9s-.66,2.53.21,4.16a4.21,4.21,0,0,1-1.86-2.84C83.14,69.1,83,67.56,83.48,66.87Z"/><path class="cls-14" d="M76.26,65.41a2,2,0,0,0,1.6.79h2a2.41,2.41,0,0,0,2.43-1.57l.46,1.45-.26,4.69s-1.54-2.46-2.67-2.46H77.94a1.66,1.66,0,0,0-1.46,1.45L75.94,68Z"/><path class="cls-14" d="M123.28,68.66c-2.24-.08-15.11-4-15.16-4.16s.28-2.7.28-2.7l15.49,5.56"/><path class="cls-2" d="M129.55,70.1c-.61,3.24-10,53.05-36,77.89C93.54,148,118.56,146.33,129.55,70.1ZM149,125.52c.55-.68,15.56,6.85,18,10.7A78.44,78.44,0,0,1,178.74,174s-17.36-35.24-65.62-16.13C74,173.34,57.61,192.71,52.78,199.51,51.64,201.09,35.73,202,35.73,202c-2-6.36,3.18-11.41,3.81-19,2.46-29.39,30.09-65.33,30.09-65.33C53.9,104.17,59,68.93,59.39,58.07S62-5.18,114,.42,174.16,39.94,173.44,61s-17.55,51.05-17.55,51.05ZM125.56,60a66,66,0,0,0,.61-11c-.72-25.06-17.3-35.73-32.63-35.16C83.1,14.31,75,21.37,69.63,34c-3.58,8.4-5.94,19.25-6.95,32.28C60.11,98.9,81,118.66,81,118.66,96.67,132.18,121.17,93,125.56,60ZM53.9,189.81s4.76-32.61,12.44-48.74C66.34,141.07,51.34,168.74,53.9,189.81Z"/><polygon class="cls-2" points="80.54 119 88.17 155 116 150.2 135.84 100 139.65 70 128.14 69.32 116.96 95.06 98.18 116.2 80.54 119"/><polygon class="cls-2" points="71.96 141 53.84 195 49.13 186.97 53.61 162.1 64.33 142 73.87 141 71.96 141"/><polygon class="cls-15" points="125.75 299 42.91 299 26.01 179.16 108.85 179.17 125.75 299"/><g class="cls-16"><g class="cls-17"><polygon class="cls-18" points="136 300.72 33.64 300.72 19.25 178.67 121.62 178.67 136 300.72"/><path class="cls-19" d="M68.48,200c-8,2.68-10.13,9.11,0,10.55,5.88-2.73,7.28-3.48,13.85-.38,9.72-2.75,6.64-4.3-.58-10.65,2.29-1.8,6,.93,11.55,5.47,4.3,3.35-12.2,11.17-13.87,10.87l.91,5.62c7.88-.35,21.08-.81,16-10.83-.51-5.83,3.87-.78,3.49,6-1,6.44-12.14,6.78-19.16,7.27-.34,1.11.92,3.49.59,4.6,8.13,1.6,17.86,4.16,22.85-5.1l.76,3.92c-4.15,6.87-16.82,5.24-22.89,4.66.3,1.82.31,2.31.61,4.12,7.53,2,16.46,8.7,24-3.48l1.1,4.81c-6.77,8.8-16.54,5.09-24.69,2.23.21.95.37,2.75.57,3.71,5.46,4.51,19.52,14,25.26-.8l.79,4.66c-6.05,9-14,6-20,3.17l.66,3.36c4.16,7.82,17.42,10.56,20.11-1.09L111,257c-1.3,5.05-8.21,7.32-14,5.59,1,5,9.61,10.86,14.87,1.33l.8,4.93c-3,1.5-6.54,2.84-9.6,4.33,1.59,5.19,5.23,6,9.5-.78.11,1,.38,2.09.5,3.05-1.46,2.14-4,3.69-5.45,5.83-.65,2.82,1.38,3.57,5.26.75-.27,1.16.9,1.19.51,1.76-1.27,1.85-3.44,2.38-4.7,4.22-8.56-15.57-13.77-25.5-24.36-36-2.22.22-4.34.11-6.55.31-6.7,9.79-13,20.6-14.8,35.48a26.64,26.64,0,0,1-6.12-3.89c.31-.4-.72-2.11-.27-2,1.38.47,3.5,2.75,4.61,2.88.81.1,0-3,.69-3.1-3.13-3.1-5.72-4.5-7.6-6.47l-.56-3c2.69,2.92,5.47,5.81,8.78,6.11.24-3,1.42-4.56,1.78-6.13-5.92.77-8.89-1.77-11.41-5.1l-.41-3.53c4.17,5.1,6.28,7.35,13.37,4.21,0-1.17,2.39-5.17,2.43-6.35-10.26,4.33-13-1.35-16.75-4.77L51,252.53c3.37,4.46,11.61,13.66,20.44,1.95L71,250.75c-6.77,3.75-14.12,4.27-20.82-4l-.59-3.85c11.39,13.71,19.6,6,26.79.64-.31-1.07-.26-2.64-.56-3.71-10.39,5.92-19.13,2.49-25.85-2.07l-.71-4.49c7.57,7.84,17.65,8.3,26.19,2.42-.22-1.07-.37-2.8-.58-3.87-11.63,3.55-19.23.18-24.46-5.14l-.54-4.18c6.43,8.93,15.56,9,24.67,6-.27-1.5-.53-3-.79-4.48-9.27,1.22-17.62-1.22-20.7-7.17-1.75-5.21-1.35-10.59,1.79-8.55-2.73,8.32,4.13,15.55,18.58,13.12-.19-.86-.73-4.55-.92-5.4-6.83-2.95-15.07-4.8-14.37-10.3,2.06-5.4,5.32-7.76,10.37-5.67Z"/><path class="cls-20" d="M111.89,236.29l24.48,41.35-4.31-36.48S106.3,185.87,80.81,188l-1.1-9.33H61.14l1.06,9c-26.52,0-41.44,52.77-41.44,52.77L25,276.26l20-47.35c5.29,46.61,3.8,59.17,3.1,71.87h77.22C120.24,272.48,116.27,271.67,111.89,236.29Z"/><path class="cls-20" d="M111.89,236.29l24.48,41.35-4.31-36.48S106.3,185.87,80.81,188l-1.1-9.33H61.14l1.06,9c-26.52,0-41.44,52.77-41.44,52.77L25,276.26l20-47.35c5.29,46.61,3.8,59.17,3.1,71.87h77.22C120.24,272.48,116.27,271.67,111.89,236.29Z"/></g></g><path class="cls-3" d="M99.64,247.85S91,241.3,85.33,241.28s-11-.73-11.8.13.69,4.53,7.45,4.51c-10,1.61-22.77,1.53-23.25,4.36a1.4,1.4,0,0,0,1.59,1.79s-4,.28-3.79,2.19,1.2,1.58,4.21,1.55a70.66,70.66,0,0,1,7.9.61s-8-.88-8.67,0a1.68,1.68,0,0,0,.72,2.78C61,259.62,74.28,261,74.28,261s-7.7-.32-8.47.23-.71,1.83,1.06,2.37,12.92,2.07,13.21,2.13a32.92,32.92,0,0,0,10.42-.36c4.56-1.1,6.1-2.3,9.42-2.91,1.87-.35,11.52-.37,11.52-.37,3.42-.36,2.18-14.7-1.23-14.34l-3.25,0Z"/><path class="cls-21" d="M80.68,246A67,67,0,0,1,88,245.5"/><path class="cls-21" d="M59.32,252.07s12-.41,16.66.24"/><path class="cls-21" d="M66.49,256.27s9.37.56,11,1.73"/><path class="cls-21" d="M74.28,261s4.13.65,5.09,1.76"/><polygon class="cls-3" points="128.21 247 107.78 247.78 107.78 262.13 130.74 264.23 128.3 246.26 128.21 247"/><path class="cls-22" d="M190.44,267.74s-2.39,12.09-25.64,7l-44.59-11.57L181.6,268s7.14-2,8.58-5Z"/></g></g></svg>