<svg xmlns="http://www.w3.org/2000/svg" viewBox="0 0 644.98 822.22">
  <style type="text/css">
    <![CDATA[

       .up{
    animation: up 0.2s;animation-iteration-count:infinite;animation-direction: alternate;

  }
  .down{
    animation: down 0.2s;animation-iteration-count:infinite;animation-direction: alternate;
    animation-delay: 3s;

}
  @keyframes up {
  from {transform: translate(0px, 0px);}
  to {transform: translate(0px, -2px);}
}
  @keyframes down {
  from {transform: translate(0px, 0px);}
  to {transform: translate(0px, 3px);}
}

      ]]>
  </style>
  <defs>
    <style>.cls-1{isolation:isolate;}.cls-2{fill:#231f20;}.cls-3{fill:#8a2f17;}.cls-22,.cls-26,.cls-3,.cls-6,.cls-7{opacity:0.5;}.cls-17,.cls-22,.cls-25,.cls-26,.cls-3{mix-blend-mode:multiply;}.cls-4{fill:#fdb48c;}.cls-5,.cls-6{fill:#0d9383;}.cls-7{fill:#394f6d;}.cls-8{fill:#fff;}.cls-9{fill:#d3d4d1;opacity:0.4;}.cls-10{fill:#dbdbdb;}.cls-11{fill:#edeee9;}.cls-12{fill:#d7d8d5;}.cls-13{fill:#7e533d;}.cls-14{fill:#66422f;}.cls-15{fill:#fbbd90;opacity:0.7;}.cls-16{fill:#936149;}.cls-17{fill:#dcb890;opacity:0.55;}.cls-18{fill:#fdfaee;}.cls-19{fill:#321413;}.cls-20{fill:#633837;}.cls-21{fill:#ce7959;}.cls-22{fill:#995235;}.cls-23{fill:#32324c;}.cls-24{fill:#b77b5c;}.cls-25,.cls-26{fill:#fbd1b5;}.cls-27{fill:#828282;}</style>
  </defs>
  <title>Asset 10</title>
  <g class="cls-1">
    <g id="Layer_2" data-name="Layer 2">
      <g id="Layer_1-2" data-name="Layer 1">
        <path class="cls-2" d="M431.56,262.87c-59-.65-103-11.45-103-11.45s7.59,1.27,15.18-128.9C350.47,7,416.54,0,431.37,0h5.87c14.83,0,80.9,7,87.64,122.52,7.59,130.17,15.19,128.9,15.19,128.9s-44.05,10.8-103,11.45v0l-2.74,0-2.75,0Z" />
        <path class="cls-3" d="M432.45,262.87c-39.81-.51-69.54-9-69.54-9s5.12-7.06,10.25-109.92c5.09-102.19,60.44-86.82,61.15-86.62.7-.2,56.05-15.57,61.14,86.62,5.13,102.86,10.25,109.92,10.25,109.92s-29.73,8.53-69.54,9v0h-3.71Z" />
        <path class="cls-4" d="M465.49,277.49c-5.29,3.92-10.71,7.95-15.08,12.93-1.62,1.88-3.28,3.72-5,5.56a97.25,97.25,0,0,1-23.79-5.25c-18.44-6.86-36.27-20.56-49.35-35.34-4.94-5.59-15.16,4.4-18.44-2.27,10.85-3,28.56-23.29,36.71-26.63,21.63-8.89,21.1-50.39,21.1-50.39h46.63s0,42.8,21.63,51.68c10.34,4.25,24.58,25.88,38.34,30.08C505.37,272.78,482.84,264.63,465.49,277.49Z" />
        <path class="cls-5" d="M291.48,822.22h278l.41-.23c6.53-50.29,3-99.66-4.56-145.77l-.1-.58-1-6.09q-1.09-6.37-2.28-12.67c0-.18-.07-.36-.11-.54-2.79-14.84-5.93-29.29-9.17-43.27Q550.85,605.43,549,598c-2.18-9-4.38-17.86-6.53-26.43l-1-3.86-1-4s0-.1,0-.15c-.19-.78-.39-1.55-.58-2.32q-.66-2.62-1.3-5.21l0-.06q-1.26-5.1-2.48-10c-.11-.43-.21-.86-.32-1.29s-.17-.72-.26-1.07c-1.51-6.19-2.95-12.21-4.27-18.05a.14.14,0,0,1,0-.06c-.12-.53-.24-1-.35-1.57-.5-2.17-1-4.31-1.43-6.43h0c-2,1.62-4.39,3.5-7,5.57-2.08,1.67-4.3,3.45-6.66,5.31l-.88.69c-2.47,2-5.08,4-7.79,6C493.84,545.12,478,555.78,463,561.17a65.43,65.43,0,0,1-8.85,2.57L445,541.19l-4.39-10.81-1.27-3.11-2.51-6.17-17.2,37.54s-3.67-.3-9.65-1.3c-.67-.11-1.36-.23-2.09-.37l-1-.17c-1.79-.34-3.73-.73-5.8-1.18-17.68-3.87-44.49-12.38-64.27-30.52-1.31,6.44-2.67,12.76-4.06,19l0,.19c-1.68,7.46-3.4,14.81-5.17,22.11-.24,1-.47,1.93-.71,2.89l0,.13c-.3,1.23-.6,2.47-.91,3.7s-.6,2.46-.91,3.69q-1.91,7.7-3.85,15.37-2.3,9-4.63,18.16c-.55,2.19-1.11,4.39-1.66,6.59-3.47,13.69-6.94,27.64-10.28,42.18q-1.37,5.94-2.71,12h0C290.92,720.78,285.87,740.91,291.48,822.22Z" />
        <path class="cls-6" d="M530.88,524s-52.55,52.9-80,55.3L436,530,424.3,564.3s-59.15-3.3-88.14-36.08l.64-3.12,100-4L529,515Z" />
        <path class="cls-5" d="M436.8,521.1l-17.2,37.53s-50.68-4.07-82.8-33.53c7.16-35.26,11.85-62.72,10.71-72.09-4.28-35.29-30.32-68.93-33.18-83.64s15-76.44,15.34-78.07S320.4,243,320.4,243l40.7-9.62,24.61-9.56,46.35-3.8h1.29l46.2,3.8L511.74,237l34.08,2.61-7.44,50.53s12.84,64,12.84,75.35-26.88,59.24-33.89,78c-2.36,6.3,3.66,34.8,12.15,74.06-8,18-52,46.68-73.33,53Z" />
        <path class="cls-7" d="M407.86,557l5.29,164.6S341.73,712.85,300,679.42l32.7-135.3Z" />
        <path class="cls-8" d="M464.57,424.56l14.27-201.24,24.07,9.15,28,3.75s11.87,45.47,9,56.36c0,0,17.12,57.5,17.6,74.05s-33.77,54-36.15,93.65l6.72,13.07s-1.64,6.53-3.58,12.41c0,0,38.16,114,45.92,166.2C552,662.81,505.26,688.6,461.37,700.24Z" />
        <path class="cls-8" d="M570.48,651.35a113.5,113.5,0,0,1,1.36,14.13s-57.79,32-110.6,45.08l.13-10.93C505.26,688,552,662.19,570.48,651.35Z" />
        <path class="cls-8" d="M293.83,650.73c8.16-52.67,45.74-165,45.74-165-1.95-5.88-3.58-12.41-3.58-12.41l6.72-13.07c-2.38-39.64-39.46-62.24-36.16-93.65,1.74-16.48,17.6-74.05,17.6-74.05-2.85-10.89,8.58-56.36,8.58-56.36l28.48-3.75,24.07-9.15,14.27,201.24,3.19,274.24C381.72,692.91,317.8,673.6,293.83,650.73Z" />
        <path class="cls-8" d="M402.74,698.8l.14,12.38c-52.8-13.07-110.6-45.09-110.6-45.09a120.23,120.23,0,0,1,1.55-15.36C317.8,673.6,381.72,692.91,402.74,698.8Z" />
        <path class="cls-8" d="M478.84,223.32,464.57,424.56S518.8,366.19,516,301.29l-18.55-9.58,21.4-4.36-15.89-54.88Z" />
        <path class="cls-8" d="M385.24,223.32l14.27,201.24s-54.23-58.37-51.37-123.27l18.55-9.58-21.41-4.36,15.9-54.88Z" />
        <path class="cls-9" d="M374.79,579.56s-38.59,1.31-53.92-9.11l-5.43,49.48L334.9,639l35.34-11.91Z" />
        <path class="cls-10" d="M320.54,574.74c20.73,10.55,44,11.45,51.61,11.42l-6.76,39.45-35,9.45-17.32-20.13Z" />
        <path class="cls-10" d="M320.54,574.74l1.54-8.32c14,11.29,51.31,12.51,51.31,12.51l-1.24,7.23C364.51,586.19,341.27,585.29,320.54,574.74Z" />
        <path class="cls-9" d="M322.08,566.42h9.24l-.87,4.73S323.53,567.77,322.08,566.42Z" />
        <path class="cls-9" d="M489.16,575s40.3,1.36,56.31-9.52l5.68,51.67-20.33,20-36.9-12.44Z" />
        <path class="cls-10" d="M545.81,570c-21.64,11-45.91,12-53.89,11.93L499,623.08,535.51,633l18.09-21Z" />
        <path class="cls-10" d="M545.81,570l-1.61-8.68c-14.61,11.78-53.57,13.06-53.57,13.06l1.29,7.55C499.9,581.92,524.17,581,545.81,570Z" />
        <path class="cls-9" d="M544.2,561.28h-9.64l.91,4.93S542.7,562.69,544.2,561.28Z" />
        <path class="cls-5" d="M433.35,221.45l.59,83.67,2.86,216-17.2,37.53s-7.24.35-9.67-1.3l18-39.85L425,241.05l7.07-19.6Z" />
        <path class="cls-11" d="M434.53,517.48a2.71,2.71,0,1,0-2.7,2.48A2.6,2.6,0,0,0,434.53,517.48Z" />
        <path class="cls-11" d="M434.53,461.8a2.71,2.71,0,1,0-2.7,2.47A2.59,2.59,0,0,0,434.53,461.8Z" />
        <path class="cls-11" d="M433.74,415.88a2.72,2.72,0,1,0-2.71,2.47A2.59,2.59,0,0,0,433.74,415.88Z" />
        <ellipse class="cls-11" cx="429.69" cy="369.96" rx="2.7" ry="2.47" />
        <path class="cls-11" d="M432.39,324.68a2.71,2.71,0,1,0-2.7,2.47A2.59,2.59,0,0,0,432.39,324.68Z" />
        <path class="cls-11" d="M432.39,278.13a2.71,2.71,0,1,0-2.7,2.47A2.6,2.6,0,0,0,432.39,278.13Z" />
        <path class="cls-8" d="M531,236.22l44.91,10.5c17.74,6.4,15.22,45.6,15.22,45.6s57,141.18,53.76,160c-3.64,20.89-36,82.78-112,105.62,0,0,19.71-61.69-38.09-83.36,0,0,49.81-.81,75.75-29.15,0,0,11.38-3.3,7.71-14.15s-15.19-54.89-27-96.71l-11.18-42S537.18,261.09,531,236.22Z" />
        <path class="cls-12" d="M494.73,474.57s58.79,26.5,38.09,83.36C532.82,557.93,484.52,534.37,494.73,474.57Z" />
        <polygon class="cls-13" points="560.5 456.42 605.63 350.42 487.4 363.35 434.68 543.05 530.1 525.79 560.5 456.42" />
        <path class="cls-11" d="M585.92,420.21s-43.28,44-93.17,54.36c0,0,38.4,10.84,43.79,51L565.11,503S593.93,448.9,585.92,420.21Z" />
        <polygon class="cls-12" points="358.68 358.36 322.08 359.66 322.08 367.49 362.14 366.6 358.68 358.36" />
        <path class="cls-12" d="M552.62,339.36s-10.89-35.4-12.17-45-.48-1.79-.48-1.79,3,3.31,8.37,18.45c0,0,15.46-45.41,26.35-59.81,0,0-17.63,38.4-17.49,59.44,0,0,6.65-10.81,13.28-16.29C570.48,294.37,554.75,326,552.62,339.36Z" />
        <path class="cls-12" d="M577.23,428.25s18.49-6,37,4.12C614.2,432.37,595.72,412.19,577.23,428.25Z" />
        <path class="cls-12" d="M577.23,428.28s7.31-10.26,16-15.11C593.25,413.17,577.19,414,577.23,428.28Z" />
        <path class="cls-7" d="M564.18,669.55l1.12,6.67s-57.54,40-98.53,44.43V709.13S512,697.22,564.18,669.55Z" />
        <polygon class="cls-14" points="487.4 363.35 490.63 367.49 436.8 542.67 434.68 543.05 487.4 363.35" />
        <path class="cls-4" d="M501,477.9s-.73-18.7-8.29-21.65-16.44-6.16-19.13-7.88-8.87,4.43-2.95,9.84,8.87,9.85,8.06,10.59-23.38-11.62-28-5.81-.35,13.44,1.07,14.91-2.39,3.55-3.14,11.57-6.47,8.63-3.81,18.47,68.66,32.33,91.17,14.65C536.07,522.59,536.07,494.7,501,477.9Z" />
        <path class="cls-15" d="M507.74,481.5s19,26.09,14,46.81c0,0,10.36-1.76,14.31-5.72C536.07,522.59,535.82,497.27,507.74,481.5Z" />
        <path class="cls-8" d="M506.16,471s51.65,19,36.43,83.72l-9.77,3.24s19.83-54.43-31.78-80l-.51-5.22Z" />
        <polygon class="cls-16" points="490.63 367.49 603.55 355.31 605.63 350.42 487.4 363.35 490.63 367.49" />
        <path class="cls-17" d="M458.32,166.39c0,.34,0,1,.05,1.91a1.34,1.34,0,0,1,0,.2c0,.93.1,2.11.2,3.49a2.11,2.11,0,0,1,0,.25c.11,1.41.26,3,.46,4.77l0,.24c.21,1.78.47,3.68.81,5.68,0,.09,0,.19.05.29.34,2,.76,4.08,1.27,6.2,0,.1,0,.2.07.3.51,2.11,1.11,4.25,1.82,6.36,0,.11.07.22.11.33a57.37,57.37,0,0,0,2.46,6.14l.16.34c.47,1,1,1.94,1.49,2.87-1.47.62-17.6,7.1-30.93,7.1-19.47,0-29.33-5.73-33.17-8.12,8.45-15.77,8.46-38.64,8.46-38.64h46.63v.29Z" />
        <path class="cls-4" d="M373.82,61.32c1.62-9.13,7.81-16.84,15.65-23.16,13.13-10.56,28.9-21.48,44.67-21.48S465.68,27.6,478.8,38.16c7.84,6.32,14,14,15.65,23.16,0,0,3.85,66.67-13.91,94.19-13.76,21.31-31.08,38-46.4,38s-32.64-16.67-46.4-38C370,128,373.82,61.32,373.82,61.32Z" />
        <path class="cls-18" d="M475.91,107.56c0,6.77-5.74,12.25-12.83,12.25s-12.84-5.48-12.84-12.25S456,95.31,463.08,95.31,475.91,100.8,475.91,107.56Z" />
        <path class="cls-19" d="M467.78,116.4a33.41,33.41,0,0,1-6.77.74,12.39,12.39,0,0,1-9.6-4.48,13.09,13.09,0,0,0,23.5-.35A15.79,15.79,0,0,1,467.78,116.4Z" />
        <path class="cls-20" d="M470.6,108.2a7.53,7.53,0,1,1-7.52-7.48A7.5,7.5,0,0,1,470.6,108.2Z" />
        <path class="cls-19" d="M467.65,108.2a4.58,4.58,0,1,1-4.57-4.54A4.56,4.56,0,0,1,467.65,108.2Z" />
        <path class="cls-4" d="M454.64,103.86a26.12,26.12,0,0,1,9.15-1.26,22.48,22.48,0,0,1,12.1,4.41c-.31-6.51-2.78-13.67-12.73-14.33-9.6-.64-12.2,7.46-12.86,13.64A10.68,10.68,0,0,1,454.64,103.86Z" />
        <path class="cls-19" d="M454.64,103.86a26.12,26.12,0,0,1,9.15-1.26,22.48,22.48,0,0,1,12.1,4.41c3.53-1.43,6.67-4.25,6.35-7.18,0,0-4.72,1.6-8.6-.25a25.21,25.21,0,0,0-9.88-2.93c-9.6-.64-12.8,3.49-13.46,9.67A10.68,10.68,0,0,1,454.64,103.86Z" />
        <path class="cls-18" d="M458.25,106.41a1.48,1.48,0,1,0,1.47-1.49A1.48,1.48,0,0,0,458.25,106.41Z" />
        <path class="cls-18" d="M395.51,107.56c0,6.77,5.75,12.25,12.84,12.25s12.83-5.48,12.83-12.25-5.74-12.25-12.83-12.25S395.51,100.8,395.51,107.56Z" />
        <path class="cls-19" d="M403.64,116.4a33.43,33.43,0,0,0,6.78.74,12.39,12.39,0,0,0,9.59-4.48,13.09,13.09,0,0,1-23.5-.35A15.79,15.79,0,0,0,403.64,116.4Z" />
        <path class="cls-20" d="M400.82,108.2a7.53,7.53,0,1,0,7.53-7.48A7.51,7.51,0,0,0,400.82,108.2Z" />
        <ellipse class="cls-19" cx="408.35" cy="108.2" rx="4.57" ry="4.55" />
        <path class="cls-4" d="M416.78,103.86a26.12,26.12,0,0,0-9.15-1.26A22.45,22.45,0,0,0,395.54,107c.3-6.51,2.77-13.67,12.72-14.33,9.6-.64,12.21,7.46,12.86,13.64A10.68,10.68,0,0,0,416.78,103.86Z" />
        <path class="cls-19" d="M416.78,103.86a26.12,26.12,0,0,0-9.15-1.26A22.45,22.45,0,0,0,395.54,107c-3.54-1.43-6.68-4.25-6.36-7.18,0,0,4.72,1.6,8.6-.25a25.21,25.21,0,0,1,9.88-2.93c9.6-.64,12.81,3.49,13.46,9.67A10.68,10.68,0,0,0,416.78,103.86Z" />
        <path class="cls-18" d="M406.08,106.41a1.48,1.48,0,1,1-1.47-1.49A1.48,1.48,0,0,1,406.08,106.41Z" />
        <path class="cls-21" d="M435.72,141.85a8.26,8.26,0,0,1-1,0c-2.34-.27-6.54-1.11-8.43-3.7a5.09,5.09,0,0,1-.86-4.06c.26-1.34,1.56-3.13,3.22-5.39s3.65-5,4.48-7.28a56.27,56.27,0,0,0,2.74-14.5,1.29,1.29,0,0,1,1.32-1.22,1.27,1.27,0,0,1,1.21,1.33,58.09,58.09,0,0,1-2.89,15.27c-1,2.64-3,5.44-4.82,7.91-1.23,1.68-2.62,3.58-2.77,4.36a2.53,2.53,0,0,0,.41,2.07c.95,1.3,3.45,2.3,6.68,2.67,1.8.22,4.23-.38,4.89-1.2a.37.37,0,0,0,.09-.43,1.27,1.27,0,1,1,2.41-.78,2.94,2.94,0,0,1-.54,2.83C440.55,141.26,437.79,141.85,435.72,141.85Z" />
        <path class="cls-2" d="M450.06,82.6c-2.25.1-4.34-.2-5.43-2.18-1-1.77-2.26-4.57-1.77-5.38,1.46-2.41,25.5-2,26.41-1.63s12.55,7.7,12.18,9.35S468.34,80,467.07,80.2C466.12,80.34,456,82.34,450.06,82.6Z" />
        <path class="cls-2" d="M418.22,82.6c2.24.1,4.34-.2,5.42-2.18,1-1.77,2.27-4.57,1.78-5.38-1.47-2.41-25.5-2-26.41-1.63s-12.55,7.7-12.19,9.35S399.94,80,401.2,80.2C402.16,80.34,412.23,82.34,418.22,82.6Z" />
        <path id="lady-mouth-up" class="cls-21" d="M447,153.72c-3.68-1.4-9.66-2.64-12.33,3-2.67-5.62-8.64-4.38-12.33-3s-12.06,2.07-12.06,2.07c10.32,9.5,24.39,7.93,24.39,7.93s14.07,1.57,24.39-7.93C459.1,155.79,450.73,155.12,447,153.72Z" />
        <path id="lady-mouth-down" class="cls-21" d="M434.76,164.06s-13.59-.93-19.73-2.84c0,0,9.24,11.66,19.73,11.66s19.72-11.66,19.72-11.66C448.34,163.13,434.76,164.06,434.76,164.06Z" />
        <path class="cls-2" d="M433.86,11.41v0c103.43,0,79.85,71.62,71.76,95.16-2.47,7.18-6.61,14.78-9.87,20.84-3.73,6.91-2.53-1.14-2.53-1.14,5-38.9-5.74-66.79-5.74-66.79-11-28.12-53.62-31.93-53.62-31.93s-26.6,25-53.63,31.93c0,0-10.79,27.89-5.74,66.79,0,0,1.2,8-2.53,1.14-3.26-6.06-7.4-13.66-9.87-20.84C354,83,330.44,11.41,433.86,11.41Z" />
        <path class="cls-22" d="M362.74,51a40.51,40.51,0,0,1,13.87-20.22A87,87,0,0,0,362.74,51Z" />
        <path class="cls-23" d="M511.37,365.23a5.2,5.2,0,1,0,5.26-5.34A5.32,5.32,0,0,0,511.37,365.23Z" />
        <path class="cls-23" d="M494.49,365a5.2,5.2,0,1,0,5.26-5.34A5.31,5.31,0,0,0,494.49,365Z" />
        <path class="cls-4" d="M.5,357.72c.69-1.23,2-1.27,3.18-1A2.91,2.91,0,0,1,4,354.83c.75-1.22,3.07-.31,4.24.15-1.92-1-3.09-2.21-1.26-3.52,4.19-3,11.4-1.36,15.92-.51,8.35,1.55,16.65,3.49,25,5.22a104.41,104.41,0,0,0,12.19,1.92,40.81,40.81,0,0,0,7.08,0c-5.59-3.86-10.41-8.9-10.91-15.77A14,14,0,0,1,58.59,333c.88-1.32,3-3.2,4.65-2a7.63,7.63,0,0,1,2.3,3.37,47.21,47.21,0,0,0,5,9.24c3.49,4.61,8.14,8.6,12.14,12.74S90.86,364,93,369.31a33.54,33.54,0,0,1,2.12,7.8c.94.58,1.89,1.17,2.83,1.73.6.35,1.22.68,1.85,1,2,8.42-1.52,18.08-6.6,25.71a24.23,24.23,0,0,1-3.15,2.76c-.51-.43-1-.89-1.57-1.32a16.52,16.52,0,0,0-6.11-3.46,23.81,23.81,0,0,1-4.57,2.23c-5.66,2-11.14-.95-16.27-3.12-6.4-2.71-13-5-19.65-7.12a42.81,42.81,0,0,1-17.15-5.79A30.92,30.92,0,0,1,16.43,383c-2.52-3.06-3.85-7-6-10.34-2.32-3.66-5.36-6.8-7.93-10.26C1.79,361.35-.31,359.18.5,357.72Z" />
        <path class="cls-4" d="M89.69,408.42l-1.41-1.18a16,16,0,0,0-5.86-3.36,23.6,23.6,0,0,1-4.51,2.19c-5.14,1.82-10-.3-14.73-2.36-.59-.26-1.18-.53-1.76-.77-6.05-2.56-12.22-4.69-19.57-7.08A43.69,43.69,0,0,1,24.58,390a30.81,30.81,0,0,1-8.39-6.85A32.12,32.12,0,0,1,12.45,377a46.55,46.55,0,0,0-2.26-4.17,66.66,66.66,0,0,0-4.76-6.27c-1.06-1.29-2.15-2.61-3.15-4l-.4-.5c-1-1.22-2.44-3.05-1.66-4.46a2.64,2.64,0,0,1,.87-.94,3.33,3.33,0,0,1,2.25-.32,3.08,3.08,0,0,1,.42-1.66c.45-.75,1.48-.88,2.56-.66a1.85,1.85,0,0,1-.53-1.1,2,2,0,0,1,1-1.72c4-2.89,10.5-1.64,15.18-.74l1,.19c5.55,1,11.16,2.24,16.56,3.42,2.81.61,5.61,1.22,8.41,1.81a105.49,105.49,0,0,0,12.16,1.91,42,42,0,0,0,6.11.06c-6.51-4.73-9.88-9.8-10.29-15.5a14.35,14.35,0,0,1,2.37-9.53,7.16,7.16,0,0,1,2-2,2.65,2.65,0,0,1,3.12-.09,7.36,7.36,0,0,1,2.29,3.3l.47,1a42.15,42.15,0,0,0,4.57,8.37,80.76,80.76,0,0,0,8.33,9c1.26,1.23,2.56,2.48,3.78,3.73.65.69,1.32,1.34,2,2,3.25,3.26,6.62,6.62,8.45,11.08a34,34,0,0,1,2.1,7.71l.11.06c.86.54,1.73,1.07,2.6,1.59.56.34,1.13.64,1.83,1l.13.06,0,.14c1.79,7.48-.65,16.92-6.7,26a24.49,24.49,0,0,1-3.16,2.78l-.22.15Zm8.11-29.31c-.88-.51-1.74-1.06-2.62-1.59l-.35-.22,0-.14a34.94,34.94,0,0,0-2.09-7.73c-1.77-4.32-5.1-7.63-8.31-10.85-.69-.66-1.34-1.32-2-2-1.2-1.24-2.5-2.5-3.76-3.72a83.29,83.29,0,0,1-8.4-9,44,44,0,0,1-4.65-8.48l-.46-1a6.65,6.65,0,0,0-2.08-3.05,2,2,0,0,0-2.4.11,6.37,6.37,0,0,0-1.79,1.76,13.51,13.51,0,0,0-2.27,9.13c.42,5.72,3.93,10.79,10.77,15.54l.74.52-.92.07a44,44,0,0,1-7.11,0,106.37,106.37,0,0,1-12.24-1.93c-2.81-.58-5.6-1.2-8.4-1.8-5.42-1.19-11-2.4-16.56-3.43l-1-.19c-4.58-.87-10.9-2.09-14.7.65-.53.39-.8.77-.77,1.13s.4,1,2,1.84l-.27.6C7.33,355,4.92,354,4.32,355A2.61,2.61,0,0,0,4,356.68l0,.43L3.62,357c-1.49-.3-2.32,0-2.83.87-.57,1.05.78,2.72,1.59,3.74.16.19.3.37.41.53,1,1.34,2.09,2.66,3.14,3.93a62.4,62.4,0,0,1,4.8,6.34c.86,1.34,1.59,2.8,2.32,4.22a29.94,29.94,0,0,0,3.64,6.09,29.89,29.89,0,0,0,8.2,6.7A42.81,42.81,0,0,0,42,395.22c7.42,2.41,13.6,4.55,19.68,7.12l1.77.76c4.59,2,9.36,4.09,14.26,2.36a24,24,0,0,0,4.51-2.21h0l.12-.08.14.05a16.86,16.86,0,0,1,6.23,3.52c.45.39.92.77,1.38,1.16a25.71,25.71,0,0,0,2.85-2.52c5.88-8.84,8.29-18.05,6.6-25.32C98.89,379.73,98.33,379.43,97.8,379.11Z" />
        <path class="cls-24" d="M46.56,382.13c3.7.42,7.36-1.76,10.64-3.23a25.79,25.79,0,0,1,9.67-2.69c5.61-.22,11.84,3.07,15.11,7.54.35.47-.43.8-.78.48-4.92-4.53-11-7.64-17.78-6.12-5,1.13-11.59,6.13-16.92,4.38C46.29,382.42,46.34,382.1,46.56,382.13Z" />
        <path class="cls-24" d="M2.69,357c4.23,1.05,7.81,2.65,10.71,6.07,2.64,3.13,4.46,6.75,6.89,10,3.67,4.94,8.34,8.26,14.52,8.89-.15.17-.28.36-.42.52s.23.57.47.39c4-3.07,6-7.78,9.58-11.17a39,39,0,0,1,14.08-8.34c.23-.09.06-.42-.16-.36a34.53,34.53,0,0,0-5.68,1.84.13.13,0,0,0-.13-.14c-4.46.53-9.08-.61-13.42-1.55a81.32,81.32,0,0,1-11.87-3.32c-6.64-2.53-13-5.76-20.28-5.76a.87.87,0,0,0-.38.06h0c-.33.13-.32.42.11.5h0a.59.59,0,0,0,.09.11c3.17,1.64,5.78,4,8.59,6.18s4.91,4.75,7.54,7c1.73,1.48,3.89,2,6,2.77,3.48,1.34,7.41,3,9.92,5.93-1.24,1.72-2.46,3.45-3.8,5.1-3.77-1-7.51-2.46-10.33-5.25s-4.77-6.2-7-9.51c-3.49-5.25-8.11-10.59-15-10.4C2.5,356.59,2.4,357,2.69,357Zm36.73,18.79a19.91,19.91,0,0,0-7-4.78c-3.34-1.48-7.34-2.11-10-4.82a60.39,60.39,0,0,0-7.55-6.56c-2-1.43-4-3.44-6.22-4.65a50.12,50.12,0,0,1,10.47,2.78,108.92,108.92,0,0,0,12,4.46,89.73,89.73,0,0,0,12.36,2.65c2.87.4,6,1,8.81.13a28.64,28.64,0,0,0-8.71,5.83A40.32,40.32,0,0,0,39.42,375.82Z" />
        <path class="cls-24" d="M66.63,369.05c2.22-4.73,2.33-9.39-2-13-2.91-2.4-5.95-4.89-7.15-8.59,0-.13.16-.18.22-.06A23.61,23.61,0,0,0,64.28,355a16.18,16.18,0,0,1,4,4c2,3.24.94,7.42-1.34,10.14C66.81,369.28,66.56,369.21,66.63,369.05Z" />
        <path class="cls-25" d="M4.11,356.5c5.76-.92,10.53,5.06,14.65,9.24,1,1.59,2,3.21,3.06,4.75a24.51,24.51,0,0,0,7.69,7.71,13.42,13.42,0,0,0,7,1.54c-.51.73-1,1.47-1.6,2.18-5.62-.18-10-3.79-13.72-8.14-3-5.23-6.28-10.48-11.09-13.77A13.44,13.44,0,0,0,4.11,356.5Z" />
        <path class="cls-25" d="M19.18,364c-2.24-2.32-4.93-5.24-8-7.12,6.07,2.27,10.1,7.85,16,10.62,3.05,1.41,6.49,1.93,9.58,3.3,2.34,1,4.57.73,6.95.57-1.23,1.83-3.34,3.12-4.68,4.84l-.18.24c0-.05,0-.1,0-.14-1.23-2.42-5.25-3.8-7.56-4.71C26.54,369.66,22.82,367.69,19.18,364Z" />
        <path class="cls-25" d="M61,352.75a18.16,18.16,0,0,1,5.83,5.1A33.28,33.28,0,0,1,61,352.75Z" />
        <path class="cls-26" d="M67,358.09a8.18,8.18,0,0,1,1.28,4.4,15.64,15.64,0,0,1-.42,4.16c-1,3.31-2.53-2.13-2.55-2.19a13.59,13.59,0,0,0-3.52-6.27A45.26,45.26,0,0,0,67,358.09Z" />
        <path class="cls-25" d="M58.31,363.53c-1.53.66-3.08,1.18-4.6,1.73a.82.82,0,0,0-.68-.16c-4.77.86-10.07-.28-14.76-1.33a71.75,71.75,0,0,1-13.19-4.19,66.2,66.2,0,0,0-13.54-4.24c-.46-.17-.94-.3-1.41-.43.88,0,1.77-.05,2.66,0a41.35,41.35,0,0,1,13.48,2.86c6.53,2.35,13.67,5.42,20.73,5.47a27.71,27.71,0,0,0,5.09-.44A18.54,18.54,0,0,1,58.31,363.53Z" />
        <path class="cls-8" d="M102.5,370.31S214.59,413.8,223,414c6.82.2,39.89-108.54,58.69-148.84,4.15-8.9,10.53-15.76,22.25-20.14,8.35-3.12,20.09-7.65,28.4-8.89-2.2,6.36,2.81,74.5-.66,92.3C327,352.37,273.42,494.83,239,490c-20.05-2.83-155.44-71.39-155.44-71.39Z" />
        <path class="cls-23" d="M470.48,212.14a47.64,47.64,0,0,1,11.64,7.23c12,9.62,26.24,29.37,26.35,68.85h-6c-.07-29.09-8.3-51.13-23.77-63.75-2.2-1.79-3-3.48-5.14-4.71C472.73,217,471.54,214.87,470.48,212.14Z" />
        <path class="cls-27" d="M515.54,370.57h.13c6.92-.3,12.24-3.06,15.81-8.22,9.89-14.32,2.21-42.24,1.88-43.42a2.48,2.48,0,0,0-3.09-1.76,2.6,2.6,0,0,0-1.69,3.21c.07.26,7.34,26.69-1.15,39-2.66,3.85-6.58,5.83-12,6.06a2.59,2.59,0,0,0,.07,5.17Z" />
        <path class="cls-27" d="M499.35,370.38a2.52,2.52,0,0,0,2.51-2.42,2.55,2.55,0,0,0-2.32-2.75c-5.82-.38-10.16-2.63-13.28-6.88-8.86-12.07-4.29-35.73-4.24-36a2.59,2.59,0,0,0-1.94-3.06,2.49,2.49,0,0,0-2.94,2c-.21,1.06-5.08,26.2,5.15,40.15,4,5.44,9.69,8.44,16.93,8.92Z" />
        <path class="cls-23" d="M479.83,335.79a5.74,5.74,0,0,0,.71,0,5.66,5.66,0,0,0,4.8-6.32c-.67-6-.83-23.54,6.32-32.2A14.56,14.56,0,0,1,503,291.89c22-.87,23.84,38.65,23.85,39.05a5.48,5.48,0,1,0,10.94-.46,93.88,93.88,0,0,0-4.68-24.36c-7.59-21.85-20.79-26-30.52-25.61a25.21,25.21,0,0,0-19.26,9.33c-11.74,14.24-9,39.84-8.87,40.92A5.56,5.56,0,0,0,479.83,335.79Z" />
        <path class="cls-23" d="M369.72,318.84l5.8-1.49c-11.52-48.52-4.79-71.88,2.89-82.93s16.27-12.36,16.68-12.4l-2.27-5.22c-.52,0-9.76.49-19.11,13.79C361.33,248.18,360,277.87,369.72,318.84Z" />
        <path class="cls-23" d="M358.7,335.39c-.11,10.86,8.26,19.76,18.7,19.88s19-8.58,19.13-19.43-8.26-19.76-18.7-19.88S358.82,324.54,358.7,335.39Z" />
        <path class="cls-10" d="M365.06,335.88A12.57,12.57,0,1,0,377.75,323,12.82,12.82,0,0,0,365.06,335.88Z" />
        <polygon class="cls-10" points="469.64 193.79 433.35 221.45 449.19 265.33 479.87 224.82 469.64 193.79" />
        <polygon class="cls-10" points="395.77 193.79 432.06 221.45 416.23 265.33 385.55 224.82 395.77 193.79" />
      </g>
    </g>
  </g>
</svg>