<svg xmlns="http://www.w3.org/2000/svg" viewBox="0 0 105.72 52.18"><defs><style>.cls-1{opacity:0.5;}.cls-2{fill:#231f20;}</style></defs><title>Asset 10</title><g id="Layer_2" data-name="Layer 2"><g id="Layer_1-2" data-name="Layer 1"><g class="cls-1"><path class="cls-2" d="M8.79,12.87A58.64,58.64,0,0,0,16.6,25.2L19,27.93l.62.68.67.62,1.33,1.26L23,31.74c.46.4.94.78,1.41,1.16,1,.76,1.88,1.57,2.87,2.27l3,2.08c1,.68,2.1,1.24,3.14,1.86.53.3,1.05.62,1.59.91l1.64.79,1.65.78a17.59,17.59,0,0,0,1.67.73l3.39,1.31c1.15.39,2.32.7,3.48,1.06.58.16,1.15.37,1.74.49l1.77.38a35.68,35.68,0,0,0,3.54.69l3.57.5,3.59.23c1.19.11,2.38,0,3.57,0a30.19,30.19,0,0,0,3.56-.15l3.55-.32c1.16-.18,2.33-.33,3.47-.59s2.3-.52,3.44-.8c.56-.15,1.12-.34,1.68-.5A16.36,16.36,0,0,0,82,44.1c8.8-3.12,16.82-8.44,21.43-16.88v0a1.21,1.21,0,0,1,2.24.85,25.27,25.27,0,0,1-3,7.33,31.52,31.52,0,0,1-5.13,6.16,38.87,38.87,0,0,1-13.68,7.91,47.1,47.1,0,0,1-7.62,2c-1.29.25-2.6.38-3.9.53s-2.6.15-3.9.2a33.63,33.63,0,0,1-3.89-.06,35.6,35.6,0,0,1-3.87-.28l-3.84-.52-3.78-.82a70.07,70.07,0,0,1-14.41-5.22,78.09,78.09,0,0,1-12.9-8.06A74.92,74.92,0,0,1,14.88,26.62,74.12,74.12,0,0,1,6.62,13.9a1.2,1.2,0,1,1,2.13-1.1l0,0Z"/><path class="cls-2" d="M.21,17.2a14.93,14.93,0,0,0,2.37-7.08A15.85,15.85,0,0,0,1.4,2.87,2.1,2.1,0,0,1,2.57.15,2.06,2.06,0,0,1,4.4.29L5,.65c2,1.2,4,2.36,6,3.61a23.15,23.15,0,0,1,2.81,2.08c.44.39.88.8,1.31,1.25.2.24.42.46.62.71,0,.07.13.15,0,.13a2.37,2.37,0,0,0-.66.07,1.37,1.37,0,0,0-.65.46,1.3,1.3,0,0,0-.2.39,1,1,0,0,0-.07.52,1.18,1.18,0,0,0,.27.69,1.11,1.11,0,0,0,.65.37,1.25,1.25,0,0,0,1-.22,1.21,1.21,0,0,0,.33-.38,1.4,1.4,0,0,0,.13-.34,1.17,1.17,0,0,0,0-.25,1.1,1.1,0,0,0,0-.18,1.2,1.2,0,1,1-2.37.39,1.46,1.46,0,0,1,0-.22,1.66,1.66,0,0,1,0-.27,1.28,1.28,0,0,1,.14-.37,1.31,1.31,0,0,1,.35-.39,1.33,1.33,0,0,1,1.1-.23,1.41,1.41,0,0,1,.83.48,1.46,1.46,0,0,1,.32.8,1.66,1.66,0,0,1-.08.58,1.37,1.37,0,0,1-.24.43,1.67,1.67,0,0,1-.84.58,2.1,2.1,0,0,1-1.09,0,1.14,1.14,0,0,0-.4-.06l-1-.11a13.05,13.05,0,0,1-1.89-.47A15,15,0,0,1,8,9.05,28.64,28.64,0,0,1,2.17,4.13L5.8,1.91a30.12,30.12,0,0,1-.7,8.59,35,35,0,0,1-2.8,7.89h0a1.21,1.21,0,0,1-2.17-1A.75.75,0,0,1,.21,17.2Z"/></g></g></g></svg>