<svg xmlns="http://www.w3.org/2000/svg" viewBox="0 0 107.62 37.93"><defs><style>.cls-1{opacity:0.5;}.cls-2{fill:#231f20;}</style></defs><title>Asset 11</title><g id="Layer_2" data-name="Layer 2"><g id="Layer_1-2" data-name="Layer 1"><g class="cls-1"><path class="cls-2" d="M10.42,23.25a58.86,58.86,0,0,1,11-9.54L24.6,11.8l.79-.46.82-.41,1.64-.81,1.64-.82c.56-.25,1.13-.46,1.69-.7,1.14-.44,2.25-1,3.41-1.34l3.48-1.11c1.17-.36,2.37-.58,3.55-.87.6-.14,1.19-.29,1.78-.41l1.81-.28L47,4.32a15.69,15.69,0,0,1,1.81-.22l3.63-.27c1.21,0,2.42,0,3.63,0,.6,0,1.21,0,1.81,0L59.7,4a36.06,36.06,0,0,1,3.59.36l3.56.56,3.49.82c1.17.24,2.3.65,3.44,1a30.34,30.34,0,0,1,3.36,1.17l3.3,1.33c1.06.52,2.13,1,3.16,1.58s2,1.16,3.05,1.76c.5.31,1,.65,1.47,1s1,.65,1.43,1c7.52,5.54,13.65,13,15.62,22.37v0a1.21,1.21,0,0,0,2.4-.16,25.12,25.12,0,0,0-.76-7.89,31.35,31.35,0,0,0-3.12-7.38A38.79,38.79,0,0,0,92.88,10a46.72,46.72,0,0,0-6.72-4.09C85,5.3,83.78,4.79,82.58,4.27S80.13,3.38,78.9,3a34,34,0,0,0-3.74-1.07A33.22,33.22,0,0,0,71.38,1L67.55.42,63.7.1A70.44,70.44,0,0,0,48.4.92a77.86,77.86,0,0,0-14.68,4,74.08,74.08,0,0,0-13.48,7,74.65,74.65,0,0,0-11.6,9.78,1.21,1.21,0,1,0,1.73,1.68l0,0Z"/><path class="cls-2" d="M3.47,16.62a15,15,0,0,1,.21,7.46,15.81,15.81,0,0,1-3.22,6.6,2.09,2.09,0,0,0,.33,2.94,2.05,2.05,0,0,0,1.79.4l.71-.17c2.29-.56,4.54-1.09,6.76-1.72A23.78,23.78,0,0,0,13.33,31c.54-.25,1.08-.51,1.62-.82.27-.18.54-.32.8-.51.07-.05.18-.1.06-.12a2.21,2.21,0,0,1-.61-.25,1.23,1.23,0,0,1-.48-.63,1,1,0,0,1-.09-.43,1.29,1.29,0,0,1,.08-.52,1.16,1.16,0,0,1,.47-.58,1,1,0,0,1,.72-.16,1.19,1.19,0,0,1,.88.5,1,1,0,0,1,.21.45.93.93,0,0,1,0,.37,1,1,0,0,1-.05.23c0,.06-.05.12-.07.17a1.21,1.21,0,1,0-2.17-1.05,1.08,1.08,0,0,0-.08.19,1.24,1.24,0,0,0-.06.27,1.38,1.38,0,0,0,0,.4,1.44,1.44,0,0,0,.22.47,1.32,1.32,0,0,0,1,.54,1.52,1.52,0,0,0,.94-.23,1.37,1.37,0,0,0,.53-.67,1.34,1.34,0,0,0,.09-.57,1.3,1.3,0,0,0-.1-.49,1.62,1.62,0,0,0-.64-.79,2.1,2.1,0,0,0-1-.32,1.43,1.43,0,0,1-.4-.05c-.33-.08-.65-.13-1-.19a14.09,14.09,0,0,0-1.94-.1,14.83,14.83,0,0,0-3.76.59,28.66,28.66,0,0,0-6.95,3l2.83,3.17a30.12,30.12,0,0,0,1.82-8.42,35,35,0,0,0-.4-8.37h0a1.22,1.22,0,0,0-1.38-1,1.2,1.2,0,0,0-1,1.38A.47.47,0,0,0,3.47,16.62Z"/></g></g></g></svg>