<svg xmlns="http://www.w3.org/2000/svg" viewBox="0 0 100 100"><defs><style>.cls-1{fill:#247455;}.cls-2{fill:#fff;}</style></defs><title>see_score0</title><g id="Layer_2" data-name="Layer 2"><g id="Layer_1-2" data-name="Layer 1"><circle class="cls-1" cx="50" cy="50" r="50" transform="translate(-10.15 87.17) rotate(-76.72)"/><path class="cls-2" d="M56,36.78l-4.34-1.49v3.32Z"/><path class="cls-2" d="M40,52.48a16.05,16.05,0,0,1,8.26-2.95V31.13a1.68,1.68,0,0,1,3.36,0v.6L61.2,35a1.68,1.68,0,0,1,.1,3.14l-9.69,4.08v7.23a16.25,16.25,0,0,1,11.3,5,17.17,17.17,0,0,1,2-3,18.54,18.54,0,0,0,4-11.54A18.5,18.5,0,0,0,49.71,21.48,18.46,18.46,0,0,0,35.92,51.35a19.94,19.94,0,0,1,1.91,3A15.83,15.83,0,0,1,40,52.48Z"/><path class="cls-2" d="M51.16,52.85H49.39a12.94,12.94,0,0,0-10.15,4.94,21,21,0,0,1,.84,4.62H60.79A19.47,19.47,0,0,1,61.51,58a12.9,12.9,0,0,0-10.35-5.19Z"/><path class="cls-2" d="M40.12,69.1a1.68,1.68,0,0,0,1.68,1.68H59.11a1.68,1.68,0,0,0,1.68-1.68V65.77H40.12Z"/><path class="cls-2" d="M43.16,77.08a1.68,1.68,0,0,0,1.68,1.68H56a1.68,1.68,0,0,0,1.68-1.68V74.14H43.16Z"/></g></g></svg>