<svg xmlns="http://www.w3.org/2000/svg" viewBox="0 0 95 95"><defs><style>.cls-1{fill:none;stroke:#247455;stroke-miterlimit:10;stroke-width:5px;}.cls-2{fill:#247455;}</style></defs><title>loss of appetite</title><g id="Layer_2" data-name="Layer 2"><g id="Layer_1-2" data-name="Layer 1"><circle class="cls-1" cx="47.5" cy="47.5" r="45"/><path class="cls-2" d="M48.1,61.21a12.3,12.3,0,1,0-12.3-12.3A12.32,12.32,0,0,0,48.1,61.21Z"/><path class="cls-2" d="M48.1,64.51a15.6,15.6,0,1,0-15.6-15.6A15.6,15.6,0,0,0,48.1,64.51Zm0-28.81A13.21,13.21,0,1,1,34.89,48.91,13.23,13.23,0,0,1,48.1,35.7Z"/><path class="cls-2" d="M72.38,66l-.91-35a1.36,1.36,0,0,0-1.37-1.36,1.31,1.31,0,0,0-.56.12h0l-.09.06a1.31,1.31,0,0,0-.35.27,13.35,13.35,0,0,0-4.45,8.68c-.4,6.89,2.94,9.68,4.08,12.24l-.91,15c0,.76,1.53,1.37,2.28,1.37S72.38,66.72,72.38,66Z"/><path class="cls-2" d="M21.81,44.63l2.35,1.18a4.15,4.15,0,0,0,.88.3L24.13,66.6c0,.63,1.52,1.14,2.27,1.14s2.28-.51,2.28-1.14L27.77,46a4.29,4.29,0,0,0,.9-.39l1.74-1.07a4.94,4.94,0,0,0,2.21-3.93V31.44a1.37,1.37,0,0,0-2.73,0v8.27h-.76V31.44a1.37,1.37,0,0,0-2.73,0v8.27h-.76V31.44a1.37,1.37,0,0,0-2.73,0v8.27h-.76v-8a1.37,1.37,0,1,0-2.73,0v9A4.6,4.6,0,0,0,21.81,44.63Z"/><line class="cls-1" x1="82.98" y1="19.84" x2="13.39" y2="76.86"/></g></g></svg>