<svg xmlns="http://www.w3.org/2000/svg" viewBox="0 0 49.16 49.16"><defs><style>.cls-1{fill:#231f20;}</style></defs><title>Asset 8</title><g id="Layer_2" data-name="Layer 2"><g id="Layer_1-2" data-name="Layer 1"><path class="cls-1" d="M14.4,23.72v8.16H11.52v-4L8.49,34,5.91,32.67l3.8-7.58a10.71,10.71,0,0,1,1.17-1.85H5.76V20.36h8.5a11,11,0,0,1,2.62-1,8.38,8.38,0,0,0,3.28-1.64V13.15A4.28,4.28,0,0,0,16,8.83,15.84,15.84,0,0,0,0,24.68V49.16H1.44a13.24,13.24,0,0,0,11.3-6.38,8.58,8.58,0,0,1,3.58-3.15,7.11,7.11,0,0,0,3.84-6.36V21.12a10.78,10.78,0,0,1-2.58,1,8.24,8.24,0,0,0-3.18,1.6Z"/><path class="cls-1" d="M26,11.44V0H23.14V11.44a8.08,8.08,0,0,1-3,6.25v3.43a11.11,11.11,0,0,0,4.42-4.29A11.11,11.11,0,0,0,29,21.12V17.69A8,8,0,0,1,26,11.44Z"/><path class="cls-1" d="M33.32,8.83A4.28,4.28,0,0,0,29,13.15v4.54a8.38,8.38,0,0,0,3.28,1.64,11,11,0,0,1,2.62,1h8.5v2.88H38.28a10.71,10.71,0,0,1,1.17,1.85l3.8,7.58L40.67,34l-3-6.06v4H34.76V23.72a8.24,8.24,0,0,0-3.18-1.6,10.78,10.78,0,0,1-2.58-1V33.27a7.13,7.13,0,0,0,3.84,6.36,8.58,8.58,0,0,1,3.58,3.15,13.24,13.24,0,0,0,11.3,6.38h1.44V24.68A15.84,15.84,0,0,0,33.32,8.83Z"/></g></g></svg>