<svg xmlns="http://www.w3.org/2000/svg" viewBox="0 0 639 825.43">
  <style type="text/css">

    <![CDATA[

       .up{
    animation: up 0.2s;animation-iteration-count:infinite;animation-direction: alternate;

  }
  .down{
    animation: down 0.2s;animation-iteration-count:infinite;animation-direction: alternate;
    animation-delay: 2s;

}
  @keyframes up {
  from {transform: translate(0px, 0px);}
  to {transform: translate(0px, -2px);}
}
  @keyframes down {
  from {transform: translate(0px, 0px);}
  to {transform: translate(0px, 3px);}
}

      ]]>
  </style>
  <defs>
    <style>.cls-1{isolation:isolate;}.cls-2{fill:#fdb48c;}.cls-3{fill:#0eb0a2;}.cls-4{fill:#0d9383;}.cls-13,.cls-15,.cls-5{fill:#fff;}.cls-6{fill:#dbdbdb;}.cls-7{fill:#32324c;}.cls-8{fill:#828282;}.cls-15,.cls-9{opacity:0.2;}.cls-10{fill:#231f20;}.cls-11{fill:#ec8940;}.cls-12{fill:#60100e;}.cls-13{opacity:0.3;}.cls-14{fill:#404040;}.cls-16{fill:#b77b5c;}.cls-17,.cls-18{fill:#fbd1b5;mix-blend-mode:multiply;}.cls-18{opacity:0.5;}</style>
  </defs>
  <title>Asset 40</title>
  <g class="cls-1">
    <g id="Layer_2" data-name="Layer 2">
      <g id="Layer_1-2" data-name="Layer 1">
        <path class="cls-2" d="M1.73,582.19c-.44,6.21.94,23.53,2.53,35.47C5,622.94,5.67,627.2,6.33,629a1.59,1.59,0,0,1,.07.2,6.65,6.65,0,0,0,4.12,4,8.08,8.08,0,0,0,1.1.31,6.46,6.46,0,0,1,2.47,2.33c1.44,5.58,6.49,10,11.79,8.78,5.95-1.4,1.91-9.19,1.52-19.38-.37-9.81,5.39-34.88,5.79-36.66l0-.1A18.54,18.54,0,0,0,35.44,595c1.67,3.18,3.92,6.18,5.9,11.76,1.71,4.85,5.06,6.34,7.77,6.66,2.1.26,3.91-1.11,3.78-3-.62-8.6,1.8-25.12-2-31.31-4.24-6.93-8-22-8-22l2.66-12.71L17.71,539,14,550.58S2.36,573.16,1.73,582.19Z" />
        <path class="cls-3" d="M299.53,222.74c0,.08.53,7.51.6,7.59.33.45.68.87,1,1.3a32.43,32.43,0,0,0,9.1,7.49,20.83,20.83,0,0,0,1.88,1l63.61,30.11c.18.1.35.19.5.29l.08.09,1.1,6,9,294.08a10,10,0,0,1-5-6.57L343.66,391.29l10.75,228.26c.3,2,.59,4.06.89,6.2l-43.13-.61-26-.38-61.82-.87-22.89-.31-48.3-.69.11-.56.09-.33L163,391.29l-33.78-114.7,1.12-6,.06-.09.51-.29,62.76-29.7a32.63,32.63,0,0,0,13.77-12.32,33.49,33.49,0,0,0,3.41-7.24Z" />
        <polygon class="cls-4" points="130.21 595.45 130.59 825.43 215.68 824.08 248.83 691.69 286.91 824.08 391.69 825.43 380.94 593.79 130.21 595.45" />
        <path class="cls-5" d="M89.53,242.52C80.14,261.91-4.51,528.3.19,540.44,3.89,550,38.4,556.78,53,559.26a7.41,7.41,0,0,0,8.34-5.21l63.76-215.42.29-1,2.31-7.79s-1,11.17-2.72,29.59c-4.41,48.17-13.28,145.84-19.87,222.38h0v.08c-5.11,59.42-8.83,106.1-8,107,.64.66,9.36,1,21.65,1,25.21.19,65.39-.56,81.68-.89a7.41,7.41,0,0,0,7.26-7.37l2.31-396.43a7.52,7.52,0,0,0-.54-2.82l-10.13-25.1a7.4,7.4,0,0,1-.07-5.36L215,209.62a7.4,7.4,0,0,0-8.64-9.8C174.63,207.33,97,227.12,89.53,242.52Z" />
        <path class="cls-5" d="M511.57,488.49l-.07-.25c-6.7-23.06-19.55-55.13-28.69-83.84-2.75-8.68-5.55-17.41-8.36-26.08-21.12-65.3-42.49-127.48-47-136.48a10.73,10.73,0,0,0-2.16-2.82C410.15,224.11,337,206.21,306,199.14c-6-1.37-11.13,4.24-9,9.8l16.36,42.33a7.15,7.15,0,0,1-.08,5.36l-10.52,25.09a7,7,0,0,0-.56,2.82l1.64,271.12.1,17.11L304.6,681a7.56,7.56,0,0,0,7.54,7.37c16.94.33,58.69,1.08,84.88.89,12.77-.08,21.83-.38,22.5-1,.87-.87-3-47.54-8.29-107v-.08c-.05-.51-.09-1-.14-1.52-6.82-76.32-15.95-173-20.5-220.86-.89-9.24-1.6-16.66-2.09-21.76s-.74-7.84-.74-7.84l1.66,5.4.74,2.4.3,1,57.8,159.34c1.15,3.53,3.78,11.79,7.57,11.17,15.13-2.47,51.15-9.29,55-18.84.07-.18.17-.23.28-.21s.08-.16.12-.25a3.26,3.26,0,0,1,.27-.48C511.52,488.61,511.55,488.55,511.57,488.49Z" />
        <polygon class="cls-6" points="219.47 196.42 170.07 254.64 191.24 257.06 177.13 281.32 207.73 377.56 219.47 196.42" />
        <polygon class="cls-6" points="294.74 196.42 344.14 254.64 322.97 257.06 337.08 281.32 304.15 395.34 294.74 196.42" />
        <path class="cls-7" d="M224.21,181.05a43.41,43.41,0,0,0-10.57,6.51c-10.87,8.67-23.84,26.47-23.93,62.05h5.42c.07-26.22,7.54-46.08,21.6-57.45,2-1.61,2.73-3.14,4.67-4.25C222.17,185.39,223.25,183.51,224.21,181.05Z" />
        <path class="cls-8" d="M183.28,323.82h-.12c-6.29-.27-11.12-2.76-14.36-7.41-9-12.9-2-38.06-1.7-39.13a2.25,2.25,0,0,1,2.8-1.58,2.34,2.34,0,0,1,1.54,2.89c-.07.24-6.67,24.05,1,35.11,2.42,3.47,6,5.25,10.87,5.46a2.33,2.33,0,0,1-.07,4.66Z" />
        <path class="cls-8" d="M198,323.65a2.33,2.33,0,0,1-.16-4.66c5.28-.34,9.22-2.37,12.06-6.2,8-10.87,3.89-32.2,3.85-32.42a2.33,2.33,0,0,1,1.75-2.75,2.27,2.27,0,0,1,2.68,1.81c.19,1,4.61,23.61-4.68,36.18-3.63,4.9-8.8,7.6-15.38,8Z" />
        <path class="cls-7" d="M215.72,292.48a4.73,4.73,0,0,1-.65,0,5.1,5.1,0,0,1-4.36-5.69c.61-5.42.76-21.22-5.74-29a13.33,13.33,0,0,0-10.3-4.82c-20-.78-21.65,34.84-21.67,35.2a5,5,0,1,1-9.93-.42,83.53,83.53,0,0,1,4.25-21.95c6.89-19.69,18.88-23.41,27.72-23.08a23,23,0,0,1,17.5,8.41C223.2,263.9,220.7,287,220.59,288A5,5,0,0,1,215.72,292.48Z" />
        <path class="cls-7" d="M187.5,321.7a4.72,4.72,0,1,1-4.78-4.81A4.8,4.8,0,0,1,187.5,321.7Z" />
        <path class="cls-7" d="M202.83,321.52a4.72,4.72,0,1,1-4.77-4.81A4.8,4.8,0,0,1,202.83,321.52Z" />
        <path class="cls-7" d="M315.73,277.2l-5.27-1.34c10.47-43.72,4.35-64.77-2.63-74.74S293.06,190,292.69,190l2.06-4.7c.47,0,8.87.44,17.36,12.42C323.35,213.53,324.57,240.29,315.73,277.2Z" />
        <path class="cls-7" d="M325.74,292.12c.1,9.79-7.5,17.81-17,17.92s-17.26-7.74-17.37-17.52a17.47,17.47,0,0,1,17-17.92C317.85,274.49,325.63,282.34,325.74,292.12Z" />
        <path class="cls-6" d="M320,292.56a11.41,11.41,0,1,1-11.54-11.63A11.6,11.6,0,0,1,320,292.56Z" />
        <rect class="cls-2" x="220.14" y="143.53" width="76.11" height="80.49" />
        <path class="cls-9" d="M298.53,177c-13,12.82-29.72,20.39-39.75,20.39S232,189.77,219,177c1.64-10.26,2.29-20.95,1.57-25.92H297C296.24,156,296.89,166.69,298.53,177Z" />
        <path class="cls-2" d="M316.84,41c-10.68-18.21-41.65-30.34-58-30.34S211.41,22.78,200.72,41s-3.07,59.19,0,92.59,40.64,56.14,58.07,56.14,55-22.74,58-56.14S327.53,59.2,316.84,41Z" />
        <path class="cls-10" d="M322.58,53.81c0,1.74,0,3.64,0,5.69,0,14.19-.39,35.21-3.45,52.93-1.83-16.62-2.91-41.1-10.71-43.8,1.19-9.92-5.36-24.95-21.78-26.39s-27.82-1.59-27.82-1.59-11.46.15-27.83,1.59S208,58.71,209.17,68.63h0a5.41,5.41,0,0,0-2,1.29c-6,5.93-7,27.46-8.68,42.51a.12.12,0,0,0,0-.11l-.12-.57C195.47,95,195,75.43,195,61.51c0-.68,0-1.36,0-2V53.81c0-13.7,7.78-36.66,18.57-44.95C219,4.67,241.55,0,258.78,0S298.58,4.67,304,8.86C314.77,17.15,322.58,40.11,322.58,53.81Z" />
        <path class="cls-11" d="M252.26,139.83l-1.82-.59c-.3-.11-.6-.22-.89-.36s-.66-.18-.77-.76a2,2,0,0,1,1.91-.76,8.32,8.32,0,0,1,1.92.34,9,9,0,0,1,3.23,2.16c.91.78,2,1.79,2.91,1.88,1.09-.1,2-1.1,3-1.88A9.13,9.13,0,0,1,265,137.7a8.21,8.21,0,0,1,1.93-.34,2.11,2.11,0,0,1,1.89.72c0,.43-.21.43-.33.56a2.61,2.61,0,0,1-.43.24c-.3.14-.59.25-.89.36l-1.81.59,1.74-.75c.28-.13.57-.27.84-.43a2.68,2.68,0,0,0,.56-.43,1.87,1.87,0,0,0-1.55-.42,7.91,7.91,0,0,0-1.8.41,9.59,9.59,0,0,0-3,2.12c-1,.79-1.82,1.89-3.32,2.1a3.44,3.44,0,0,1-2-.84c-.52-.4-1-.83-1.46-1.26a9.67,9.67,0,0,0-3-2.12,7.6,7.6,0,0,0-1.79-.41,2,2,0,0,0-1.55.38c0,.07.32.34.56.48s.55.29.84.42Z" />
        <path class="cls-11" d="M268.24,132.21a4.39,4.39,0,0,1,3.16,2.7,3.19,3.19,0,0,1-.07,2.24,3.71,3.71,0,0,1-1.32,1.64,5.55,5.55,0,0,0,.28-3.52A10.64,10.64,0,0,0,268.24,132.21Z" />
        <path class="cls-11" d="M249.34,132.21a11.12,11.12,0,0,0-2.06,3.06,5.63,5.63,0,0,0,.29,3.52,3.64,3.64,0,0,1-1.32-1.64,3.25,3.25,0,0,1-.08-2.24A4.42,4.42,0,0,1,249.34,132.21Z" />
        <path class="cls-10" d="M317.36,128.25c-7.65,14.76-17.92,26.84-22.31,27.47s-16.44-7.45-22.53-9-10.19-.13-13.73-.13-7.66-1.42-13.75.13-18.13,9.63-22.53,9S207.85,143,200.2,128.25c-.56,5.78,2.62,20.67,4.74,27,2.4,7.1,12.76,21.83,19.32,27.48s26,17.07,34.53,17.2c8.48-.13,28-11.62,34.5-17.2s16.92-20.38,19.33-27.48C314.74,148.92,317.94,134,317.36,128.25Zm-33.22,40.19c-4.84,6.15-8.37,8.46-11.49,9.62s-8.92.26-9.19-2.95-2.41-5.14-4.67-5.14-4.4,1.93-4.68,5.14-6.1,4.11-9.21,2.95-6.65-3.47-11.48-9.62c-5.23-6.68-.29-10.66,2.41-12.33s18.14-3.08,23-2.32c4.82-.76,20.25.65,22.94,2.32S289.37,161.76,284.14,168.44Z" />
        <path class="cls-5" d="M272.2,102.5c2.93-6.19,11-7.65,13.93-7.65,4.05,0,10.82,2.73,13.2,5.28-2.82,5.44-8.52,7.83-12.38,8.39S276.06,107.06,272.2,102.5Z" />
        <path class="cls-12" d="M291.7,101.34A6.67,6.67,0,1,1,285,94.71,6.65,6.65,0,0,1,291.7,101.34Z" />
        <path d="M288.79,101.34A3.75,3.75,0,1,1,285,97.6,3.75,3.75,0,0,1,288.79,101.34Z" />
        <path class="cls-13" d="M285.38,99.55a2.15,2.15,0,1,1-2.14-2.12A2.14,2.14,0,0,1,285.38,99.55Z" />
        <path d="M272.2,102.5a11.16,11.16,0,0,1,5-6.1,17.8,17.8,0,0,1,7.71-2.56,16.71,16.71,0,0,1,8,1.55,17.19,17.19,0,0,1,6.61,4.51l.17.22-.12.16a12.13,12.13,0,0,1-1.65,2c.38-.76.73-1.51,1.06-2.28l.05.4a22.53,22.53,0,0,0-6.79-3.21A19,19,0,0,0,285.13,96a23.21,23.21,0,0,0-7.15,1.8A14,14,0,0,0,272.2,102.5Z" />
        <path class="cls-5" d="M245.36,102.5c-2.93-6.19-11-7.65-13.93-7.65-4,0-10.82,2.73-13.19,5.28,2.8,5.44,8.51,7.83,12.37,8.39S241.51,107.06,245.36,102.5Z" />
        <path class="cls-12" d="M225.87,101.34a6.67,6.67,0,1,0,6.66-6.63A6.64,6.64,0,0,0,225.87,101.34Z" />
        <path d="M228.77,101.34a3.76,3.76,0,1,0,3.76-3.74A3.75,3.75,0,0,0,228.77,101.34Z" />
        <path class="cls-13" d="M232.19,99.55a2.14,2.14,0,1,0,2.13-2.12A2.12,2.12,0,0,0,232.19,99.55Z" />
        <path d="M245.36,102.5a11.1,11.1,0,0,0-5-6.1,17.8,17.8,0,0,0-7.72-2.56,16.71,16.71,0,0,0-8,1.55A17.16,17.16,0,0,0,218,99.9l-.18.22.12.16a12.13,12.13,0,0,0,1.65,2c-.37-.76-.73-1.51-1-2.28l-.05.4a22.31,22.31,0,0,1,6.79-3.21A18.88,18.88,0,0,1,232.44,96a23.09,23.09,0,0,1,7.13,1.8A13.85,13.85,0,0,1,245.36,102.5Z" />
        <path d="M270.27,87.51c-1.09-3.4.68-4.18,3.05-5.29,1.78-.85,17.58-3,21.41-3s9.38,5.41,10.71,8.31c-2.56.16-6.08-1.89-9.92-2.27S278,87.88,275.3,89A3.76,3.76,0,0,1,270.27,87.51Z" />
        <path d="M247.28,87.51c1.1-3.4-.67-4.18-3-5.29-1.78-.85-17.58-3-21.41-3s-9.38,5.41-10.71,8.31c2.56.16,6.09-1.89,9.92-2.27s17.57,2.64,20.22,3.78S247,88.53,247.28,87.51Z" />
        <path class="cls-11" d="M289.61,111.72c3.57-1.68,7-3.42,9.73-6.24a11.43,11.43,0,0,1-4.17,4.2A15.87,15.87,0,0,1,289.61,111.72Z" />
        <path class="cls-11" d="M299.39,97.6c1-.54,1.92-.9,2.83-1.46a21.93,21.93,0,0,1,2.87-1.43A7.36,7.36,0,0,1,299.39,97.6Z" />
        <path class="cls-11" d="M300.18,100.13a31.65,31.65,0,0,1,4-.91,40.63,40.63,0,0,0,4-.74,8.76,8.76,0,0,1-3.88,1.49A16,16,0,0,1,300.18,100.13Z" />
        <path class="cls-11" d="M300.18,102.5a25.39,25.39,0,0,1,2.95,1.14,11.8,11.8,0,0,1,1.38.8,4.94,4.94,0,0,1,1.17,1.11c-1-.4-1.91-.8-2.88-1.22A8.44,8.44,0,0,1,300.18,102.5Z" />
        <path class="cls-11" d="M228,111.72a15.82,15.82,0,0,1-5.55-2,11.35,11.35,0,0,1-4.17-4.2C221,108.3,224.38,110,228,111.72Z" />
        <path class="cls-11" d="M218.17,97.6a7.36,7.36,0,0,1-5.7-2.89,21.33,21.33,0,0,1,2.87,1.43C216.25,96.7,217.18,97.06,218.17,97.6Z" />
        <path class="cls-11" d="M217.38,100.13a16,16,0,0,1-4.15-.16,8.67,8.67,0,0,1-3.87-1.49,39.76,39.76,0,0,0,4,.74A32.55,32.55,0,0,1,217.38,100.13Z" />
        <path class="cls-11" d="M217.38,102.5a8.32,8.32,0,0,1-2.62,1.83c-1,.42-1.88.82-2.89,1.22a5.19,5.19,0,0,1,1.18-1.11,12.68,12.68,0,0,1,1.38-.8A25.39,25.39,0,0,1,217.38,102.5Z" />
        <path class="cls-10" d="M322.54,59.5c0,14.19-.39,35.21-3.45,52.93-1.83-16.62-2.91-41.1-10.71-43.8A39.45,39.45,0,0,1,322.54,59.5Z" />
        <path class="cls-10" d="M209.13,68.63a5.41,5.41,0,0,0-2,1.29c-6,5.82-7,27.3-8.72,42.4l-.12-.57C195.47,95,195,75.43,195,61.51v-2h0A39.49,39.49,0,0,1,209.13,68.63Z" />
        <path class="cls-14" d="M273.8,84.58c-2.68.7-12.69,4.23-15.53,4.23s-12.86-3.53-15.52-4.23c-8.56-2.21-27.3-1.4-35.19,2.11v9.16c1.73.8,3.28,14.58,4.81,18.9,1,2.91,3.48,6,6.35,7,7.64,2.76,16.3,2,22.4.61,3.42-.81,6-2.1,8-5,3.17-4.78,4.32-19.31,9.18-19.31s6,14.53,9.18,19.31c1.95,2.93,4.56,4.22,8,5,6.08,1.44,14.74,2.15,22.4-.61,2.85-1,5.3-4.13,6.34-7,1.54-4.32,3.07-18.1,4.8-18.9V86.69C301.11,83.18,282.35,82.37,273.8,84.58Zm-22,15.39A58.7,58.7,0,0,1,248,113.05c-2.4,5.83-6.25,6.84-9.42,7.54-1.9.42-12.11,1-16.15,0a11.82,11.82,0,0,1-7.78-6.84,55.34,55.34,0,0,1-2.6-16.6c.09-6.53,5-8.07,9.22-9.25,1.63-.45,18.18-1.1,25.39,1.81C252.11,91.91,252.06,97.85,251.79,100Zm50.08,13.78a11.84,11.84,0,0,1-7.79,6.84c-4,1-14.24.42-16.15,0-3.17-.7-7-1.71-9.41-7.54A57.4,57.4,0,0,1,264.77,100c-.3-2.12-.32-8.06,5.1-10.26,7.2-2.91,23.75-2.26,25.37-1.81,4.21,1.18,9.13,2.72,9.22,9.25A55.08,55.08,0,0,1,301.87,113.75Z" />
        <path class="cls-15" d="M275.19,86.37c-3.11.8-14.72,4.9-18,4.9s-14.92-4.1-18-4.9c-9.93-2.57-31.67-1.64-40.82,2.46,0,0,30.89-3.63,40.82-1.06,3.09.81,14.73,4.9,18,4.9s14.91-4.09,18-4.9C285.11,85.2,316,88.83,316,88.83,306.87,84.73,285.11,83.8,275.19,86.37Z" />
        <path class="cls-2" d="M637.92,274.87c-1.14-.75-2.23-.21-3.17.56A2.85,2.85,0,0,0,633.6,274c-1.19-.7-2.76,1.13-3.55,2,1.19-1.71,1.63-3.28-.52-3.57-4.94-.69-10.35,4-13.81,6.76-6.43,5.1-12.64,10.51-19,15.75a100.66,100.66,0,0,1-9.53,7.14,40.27,40.27,0,0,1-6.05,3.19c3-5.83,4.85-12.31,2.18-18.4a13.55,13.55,0,0,0-6.19-6.9c-1.35-.72-4-1.38-4.86.42a7.31,7.31,0,0,0-.44,3.91,45.84,45.84,0,0,1-.06,10.14c-.89,5.51-3.06,11-4.6,16.35-1.51,5.16-3.55,10.27-3,15.75a32.75,32.75,0,0,0,1.72,7.6c-.54.93-1.08,1.86-1.64,2.76-.34.57-.73,1.13-1.12,1.69,2.08,8.11,9.47,14.74,17.25,19a24.54,24.54,0,0,0,3.94.94c.24-.61.49-1.24.74-1.84a16,16,0,0,1,3.65-5.72,23.55,23.55,0,0,0,4.91-.16c5.74-.84,9.07-5.85,12.47-10,4.24-5.21,8.88-10.13,13.56-15a41.51,41.51,0,0,0,12-12.7,29.73,29.73,0,0,0,4-9.54c.78-3.75.11-7.73.42-11.52.33-4.17,1.5-8.22,2.13-12.34C638.47,278.54,639.28,275.74,637.92,274.87Z" />
        <path class="cls-2" d="M584.55,358.86l-.25,0a22.28,22.28,0,0,1-4-.95c-9.28-5-15.62-12-17.48-19.18l0-.14.08-.11c.44-.62.79-1.14,1.12-1.68.51-.84,1-1.68,1.5-2.54l.06-.09a32.52,32.52,0,0,1-1.69-7.53c-.46-4.63.9-9,2.21-13.27.27-.87.54-1.73.79-2.61.48-1.62,1-3.28,1.53-4.89a78,78,0,0,0,3.07-11.41,40.52,40.52,0,0,0,.11-9.21l-.05-1.08a7.11,7.11,0,0,1,.46-3.85,2.56,2.56,0,0,1,2.71-1.33,6.93,6.93,0,0,1,2.59.76,13.92,13.92,0,0,1,6.33,7.07c2.22,5,1.64,10.9-1.78,17.88a42.16,42.16,0,0,0,5.19-2.82,104,104,0,0,0,9.51-7.12l6.36-5.35c4.08-3.45,8.32-7,12.59-10.41l.76-.61c3.58-2.88,8.54-6.86,13.29-6.22a1.92,1.92,0,0,1,1.66,1,1.83,1.83,0,0,1,0,1.19,2.23,2.23,0,0,1,2.48-.6,3,3,0,0,1,1.11,1.22,3.18,3.18,0,0,1,2.07-.73,2.45,2.45,0,0,1,1.16.4c1.31.86.89,3.08.6,4.56,0,.22-.08.43-.11.61-.24,1.61-.58,3.23-.9,4.81a64.42,64.42,0,0,0-1.23,7.5,43.88,43.88,0,0,0,0,4.59,30.82,30.82,0,0,1-.39,7A29.87,29.87,0,0,1,632,313.3a42.21,42.21,0,0,1-12.1,12.8c-5.19,5.36-9.49,10-13.49,14.89-.39.46-.77,1-1.16,1.44-3.09,3.89-6.29,7.91-11.51,8.68a23.23,23.23,0,0,1-4.84.17,15.59,15.59,0,0,0-3.48,5.52c-.22.54-.44,1.09-.67,1.64Zm-21-20.18c1.84,7,8.06,13.74,17.07,18.63a25,25,0,0,0,3.57.86c.23-.54.45-1.08.66-1.61a16.19,16.19,0,0,1,3.72-5.82l.1-.11h.14a23.31,23.31,0,0,0,4.85-.14c5-.74,8.09-4.67,11.1-8.46.39-.5.78-1,1.17-1.45,4-4.95,8.33-9.57,13.57-15a41.19,41.19,0,0,0,12-12.66,28.91,28.91,0,0,0,4-9.42,30.06,30.06,0,0,0,.36-6.84,42.41,42.41,0,0,1,.07-4.65,58.12,58.12,0,0,1,1.23-7.58c.32-1.56.66-3.18.9-4.78a4.78,4.78,0,0,1,.11-.64c.23-1.23.62-3.27-.33-3.9s-1.67-.4-2.81.53l-.32.27-.16-.39a2.62,2.62,0,0,0-1-1.29c-1-.56-2.59,1.32-3.15,2l-.5-.38c1-1.42,1-2.13.88-2.48s-.55-.52-1.18-.61c-4.47-.62-9.31,3.27-12.83,6.09l-.76.6c-4.25,3.39-8.49,7-12.58,10.41-2.12,1.78-4.22,3.58-6.35,5.34a104,104,0,0,1-9.57,7.17,43.06,43.06,0,0,1-6.08,3.21l-.81.36.39-.78c3.7-7.15,4.4-13.06,2.17-18.14a13.12,13.12,0,0,0-6.06-6.76,6.17,6.17,0,0,0-2.33-.69,2,2,0,0,0-2.1,1,6.6,6.6,0,0,0-.4,3.54l.07,1.07a42.29,42.29,0,0,1-.13,9.34A79.23,79.23,0,0,1,569,306c-.52,1.62-1.06,3.28-1.53,4.88-.25.88-.51,1.74-.79,2.61-1.29,4.2-2.64,8.52-2.19,13a33.82,33.82,0,0,0,1.7,7.54l0,.12-.2.35c-.51.85-1,1.71-1.51,2.54C564.25,337.61,563.91,338.11,563.51,338.68Z" />
        <path class="cls-16" d="M609.65,316.51c-3,2-7.08,1.83-10.54,2.05a25.22,25.22,0,0,0-9.47,2.07c-4.89,2.35-8.72,8-9.49,13.27-.09.56.73.49.88.06,2.16-6.1,5.9-11.48,12.41-13.26,4.78-1.29,12.66,0,16.42-3.91C610,316.63,609.83,316.38,609.65,316.51Z" />
        <path class="cls-16" d="M635.48,274.91c-5.93,2.93-7.46,9.57-8.07,15.63-.37,3.82-.48,7.55-1.64,11.26s-3.68,6.6-6.44,9.16c-1.89-.8-3.71-1.73-5.55-2.64.83-3.6,3.42-6.83,5.78-9.55,1.41-1.61,3-3,3.84-5,1.23-3.09,1.88-6.29,3.28-9.36s2.58-6.33,4.54-9.16a.46.46,0,0,0,0-.14h0c.34-.26.21-.51-.12-.47h0a.73.73,0,0,0-.35.12c-6.22,3.28-10.19,8.92-14.71,14.08a78.71,78.71,0,0,1-8.63,8.2c-3.28,2.76-6.71,5.83-10.75,7.39a.11.11,0,0,0,0,.17,33.23,33.23,0,0,0-5.69,1c-.2.05-.2.41,0,.38a37.89,37.89,0,0,1,15.79.75c4.61,1.27,8.46,4.37,13.23,5.2.28.05.55-.41.22-.54s-.39-.17-.59-.25c5-3.33,7.48-8.28,8.37-14.15.6-3.89.52-7.8,1.35-11.65.94-4.23,3.27-7.23,6.41-10C636,275.08,635.71,274.79,635.48,274.91ZM607.1,305.54a27.77,27.77,0,0,0-10.07-1c2.81-.49,5.19-2.45,7.46-4.09a87.5,87.5,0,0,0,9.35-7.85,103.89,103.89,0,0,0,8.2-9.21,48.68,48.68,0,0,1,7.68-7.11c-1.37,2.05-2.19,4.68-3.21,6.78a57.92,57.92,0,0,0-3.47,9c-1,3.5-4.17,5.85-6.35,8.62a19.23,19.23,0,0,0-3.8,7.24A40.18,40.18,0,0,0,607.1,305.54Z" />
        <path class="cls-16" d="M586.61,314.42c-4-3-6.23-7-4.13-12,1.4-3.36,2.87-6.86,2.22-10.56,0-.13-.22-.08-.22,0a22.84,22.84,0,0,1-2.21,9.45,15.43,15.43,0,0,0-1.56,5.23c-.24,3.67,2.54,6.76,5.73,8.05C586.56,314.7,586.74,314.52,586.61,314.42Z" />
        <path class="cls-17" d="M634.29,275.45c-5.33,1.82-6.7,9.08-8.33,14.51-.15,1.82-.24,3.63-.46,5.44a23.71,23.71,0,0,1-3.07,10.05,12.93,12.93,0,0,1-5.31,4.49c.77.39,1.55.78,2.35,1.14,4.71-2.69,6.83-7.76,8-13.15.22-5.83.62-11.78,3.24-16.76A13,13,0,0,1,634.29,275.45Z" />
        <path class="cls-17" d="M624.8,288.63c.86-3,1.84-6.7,3.58-9.67-4.16,4.67-5.08,11.26-8.87,16.29-2,2.58-4.67,4.58-6.68,7.15-1.54,1.93-3.57,2.69-5.68,3.63,1.88,1,4.27,1.14,6.19,2l.26.12c0-.05,0-.09,0-.14,0-2.61,2.77-5.61,4.32-7.43C621.1,296.82,623.38,293.46,624.8,288.63Z" />
        <path class="cls-17" d="M584,298a17.6,17.6,0,0,0-2.67,7A32.35,32.35,0,0,0,584,298Z" />
        <path class="cls-18" d="M581.33,305.24a7.83,7.83,0,0,0,.89,4.33,14.76,14.76,0,0,0,2.24,3.37c2.39,2.34,1.19-3,1.18-3a13.23,13.23,0,0,1,.18-6.95A43.93,43.93,0,0,1,581.33,305.24Z" />
        <path class="cls-17" d="M591.22,305.94c1.59-.13,3.15-.38,4.7-.6a.84.84,0,0,1,.51-.44c4.46-1.42,8.47-4.79,12-7.81a69.1,69.1,0,0,0,9.36-9.53,64.4,64.4,0,0,1,9.64-9.74c.33-.35.68-.69,1-1-.77.37-1.53.76-2.29,1.17a39.79,39.79,0,0,0-10.2,8.53c-4.52,5-9.22,10.81-15.22,14a27,27,0,0,1-4.55,1.93A17.91,17.91,0,0,0,591.22,305.94Z" />
        <path class="cls-5" d="M595.63,368.88c-.33,7.61-36.82,60.69-85.42,122.75a7.07,7.07,0,0,1-9.81,1.52c-20.74-15-26.26-20.48-31-44.5-.46-2.36,1.45-10.83,2.86-12.71l78.14-103.82a7.06,7.06,0,0,1,10-1.54C571.81,339.21,596,358.87,595.63,368.88Z" />
        <path id="man-mouth-up" class="cls-5" d="M271.94,158.62c.21-.24.38-.45.51-.61-1.48.92-6,3.21-14.45,3.21s-13-2.29-14.45-3.21c.13.16.3.37.51.61,1.87,1.43,6.31,4,13.94,4S270.07,160.05,271.94,158.62Z" />
        <path class="cls-11" d="M272.45,158c.36-.23.55-.37.55-.37-4.67.88-7.68-1.06-10.53-1.41A6.86,6.86,0,0,0,258,157a6.86,6.86,0,0,0-4.47-.76c-2.85.35-5.86,2.29-10.53,1.41,0,0,.19.14.55.37,1.48.92,6,3.21,14.45,3.21S271,158.93,272.45,158Z" />
        <path id="man-mouth-down" class="cls-11" d="M271.94,158.62c-1.87,1.43-6.31,4-13.94,4s-12.07-2.6-13.94-4a8.84,8.84,0,0,1-1.06-.92s2.65,9.83,15,9.83,15-9.83,15-9.83A8.84,8.84,0,0,1,271.94,158.62Z" />
      </g>
    </g>
  </g>
</svg>