<svg xmlns="http://www.w3.org/2000/svg" viewBox="0 0 100 100"><defs><style>.cls-1{fill:#247455;}.cls-2{fill:#fff;}</style></defs><title>Asset 20</title><g id="Layer_2" data-name="Layer 2"><g id="Layer_1-2" data-name="Layer 1"><circle class="cls-1" cx="50" cy="50" r="50" transform="translate(-10.15 87.17) rotate(-76.72)"/><path class="cls-2" d="M78.29,39.25a3.59,3.59,0,0,1-1.52,2.32c-.52.35-1,.7-1.54,1.1a1.59,1.59,0,0,1-2.29.06,1.56,1.56,0,0,0-1.76-.23,2.07,2.07,0,0,1-1.83-.08,2.67,2.67,0,0,0-1.47-.27c-.51,0-1-.1-1,.79,0,.52-.62.75-1.09.94a1.48,1.48,0,0,0-1,1.62,4.26,4.26,0,0,1-.92,2.83,6.86,6.86,0,0,0-1.06,2,1.06,1.06,0,0,1-.48.68,4.67,4.67,0,0,0-1.89,2.42,4.08,4.08,0,0,1-1.92,2.13,2.29,2.29,0,0,0-1.17,1.31,3.54,3.54,0,0,1-3,2.43c-1,.15-1.88.54-2.59-.53-.18-.27-.46-.07-.64.13a14.93,14.93,0,0,0-2.3,2.88,1.2,1.2,0,0,0,.81,2,1.17,1.17,0,0,1,1,1.4,2.26,2.26,0,0,0,.93,2.11,5.1,5.1,0,0,1,1.66,3.42c.13,1-.31,1.51-1.38,1.63a16.83,16.83,0,0,1-5,0,1,1,0,0,0-1.25.51c-.47.85-1.62.79-2.19,1.56-.15.2-.42-.09-.44-.32-.06-.64-.45-.86-1-.88A1.57,1.57,0,0,1,40.2,71.5a1.18,1.18,0,0,0-.79-1.17A1.27,1.27,0,0,1,38.5,69c0-.84-.43-1.2-1.36-1.07-1.62.24-3.28.17-4.9.51a1.42,1.42,0,0,1-.65,0c-2.91-.89-5.81-.35-8.71,0-.69.08-1-.21-.95-.83.07-2.42,1.3-4.67,4.3-4.92,1.11-.09,1.54-.46,1.49-1.3,0-.26,0-.56-.31-.64-1.11-.34-1.17-1.28-1.16-2.15a2.81,2.81,0,0,0-1.63-2.73c-1.35-.78-3-3.56-3.2-5.17.38-.12.67.12,1,.25,4.63,1.91,9.38,1.73,14.15.76,1.5-.31,1.62-.58,1.78-2.14a5.34,5.34,0,0,1,.56-2,2.07,2.07,0,0,1,2.17-1.2c1,.11,1.88.11,2.45-1.06.41-.83,1.44-.81,2.22-.55,1.47.49,2.13-.13,2.25-1.73a4.14,4.14,0,0,1,2.1-3.5c1-.58,1.08-1,.45-2-.18-.28-.55-.53-.32-.91s.63-.22,1-.21.82.1,1.22.08c.77-.05,1.32-.35,1.33-1.27a3.36,3.36,0,0,1,.82-2A2.84,2.84,0,0,0,54.83,30a1.44,1.44,0,0,1,.52-2.11A9,9,0,0,1,60.21,26c1.32-.1,2.65-.19,4-.37a6,6,0,0,1,3.59.9,1.5,1.5,0,0,1,.83,1.58,1.17,1.17,0,0,0,.73,1.29l.08,0c2.07.75,4,1.82,6,2.74a2.46,2.46,0,0,0,1.48.25c.75-.16,1.08.15,1.28.86A12.4,12.4,0,0,1,78.29,39.25Z"/></g></g></svg>