<svg xmlns="http://www.w3.org/2000/svg" viewBox="0 0 111.72 90.69"><defs><style>.cls-1{fill:#247455;}.cls-2{fill:#231f20;}</style></defs><title>Asset 33</title><g id="Layer_2" data-name="Layer 2"><g id="Layer_1-2" data-name="Layer 1"><path class="cls-1" d="M102,45.34l9-12.06a3.27,3.27,0,0,0-2.62-5.23H90.92a3.26,3.26,0,0,0-2.62,1.31l-10.52,14a3.29,3.29,0,0,0,0,3.93l10.52,14a3.26,3.26,0,0,0,2.62,1.31h17.53a3.27,3.27,0,0,0,2.62-5.24Z"/><path class="cls-1" d="M62.33,42.07H69.9a24.78,24.78,0,1,0,0,6.55H62.33a17.3,17.3,0,1,1,0-6.55Z"/><path class="cls-2" d="M83.07,65.26,75.21,54.78a31.32,31.32,0,1,1,0-18.88l7.86-10.47a9.83,9.83,0,0,1,2-2,45.35,45.35,0,1,0,0,43.79,9.83,9.83,0,0,1-2-2Z"/><path class="cls-2" d="M45.34,42.07H55.58a10.75,10.75,0,1,0,0,6.55H45.34a3.28,3.28,0,0,1,0-6.55Z"/></g></g></svg>