<svg xmlns="http://www.w3.org/2000/svg" viewBox="0 0 20.71 10.92"><defs><style>.cls-1{fill:#fff;}</style></defs><title>next_1</title><g id="Layer_2" data-name="Layer 2"><g id="Layer_1-2" data-name="Layer 1"><path class="cls-1" d="M20.68,5.57a.28.28,0,0,0-.06-.32L15.18.08a.31.31,0,0,0-.43,0,.27.27,0,0,0,0,.4l4.93,4.68H.3a.3.3,0,0,0-.3.29.29.29,0,0,0,.3.28H19.68l-4.93,4.69a.28.28,0,0,0,0,.4.31.31,0,0,0,.43,0h0l5.44-5.17A.24.24,0,0,0,20.68,5.57Z"/><path class="cls-1" d="M15,10.92a.3.3,0,0,1-.3-.29.25.25,0,0,1,.09-.2l5.23-5-5.23-5a.28.28,0,0,1,0-.41.31.31,0,0,1,.42,0l5.44,5.17a.28.28,0,0,1,0,.41l-5.44,5.17A.31.31,0,0,1,15,10.92Z"/><path class="cls-1" d="M20.41,5.74H.3A.29.29,0,0,1,0,5.46a.3.3,0,0,1,.3-.29H20.41a.3.3,0,0,1,.3.29A.29.29,0,0,1,20.41,5.74Z"/></g></g></svg>