<svg xmlns="http://www.w3.org/2000/svg" viewBox="0 0 33.2 17.51"><defs><style>.cls-1{fill:#fff;}</style></defs><title>Asset 3</title><g id="Layer_2" data-name="Layer 2"><g id="Layer_1-2" data-name="Layer 1"><path class="cls-1" d="M33.16,8.92a.45.45,0,0,0-.1-.5L24.33.13a.51.51,0,0,0-.69,0,.45.45,0,0,0,0,.64l7.9,7.51H.48A.47.47,0,0,0,0,8.75a.48.48,0,0,0,.48.46H31.54l-7.9,7.51a.45.45,0,0,0,0,.65.51.51,0,0,0,.69,0h0l8.73-8.3A.4.4,0,0,0,33.16,8.92Z"/><path class="cls-1" d="M24,17.5A.47.47,0,0,1,23.5,17a.43.43,0,0,1,.14-.32l8.39-8-8.39-8a.44.44,0,0,1,0-.65.5.5,0,0,1,.67,0l8.73,8.29a.47.47,0,0,1,0,.66l-8.73,8.29A.51.51,0,0,1,24,17.5Z"/><path class="cls-1" d="M32.71,9.21H.48A.48.48,0,0,1,0,8.75a.47.47,0,0,1,.48-.46H32.71a.47.47,0,0,1,.49.46A.48.48,0,0,1,32.71,9.21Z"/></g></g></svg>