<svg xmlns="http://www.w3.org/2000/svg" viewBox="0 0 176.54 194.91"><defs><style>.cls-1{isolation:isolate;}.cls-2{fill:#8a5d33;}.cls-3{fill:#e08d53;}.cls-4{fill:#cc7c3a;}.cls-5{mix-blend-mode:multiply;}.cls-6{fill:#cecece;}.cls-7{fill:#377705;}.cls-8{fill:#459b06;}.cls-9{fill:#5ab502;}.cls-10{fill:#86dd2a;}</style></defs><title>Asset 6</title><g class="cls-1"><g id="Layer_2" data-name="Layer 2"><g id="Layer_1-2" data-name="Layer 1"><path class="cls-2" d="M131.05,138.21c0,8.06-16.51,14.59-36.88,14.59s-36.88-6.53-36.88-14.59,16.51-14.59,36.88-14.59S131.05,130.16,131.05,138.21Z"/><path class="cls-3" d="M124.12,194.91H64.42L51.31,133.16h85.92Q130.69,164,124.12,194.91Z"/><path class="cls-4" d="M94.68,133.16H51.31l13.11,61.75H94.68Z"/><g class="cls-5"><path class="cls-6" d="M51.31,133.16q5.05,23.79,10.1,47.59c15.41-23.58,44.74-36.77,73.39-36.13l2.43-11.46Z"/></g><rect class="cls-3" x="49.64" y="132.08" width="89.05" height="11.26"/><rect class="cls-4" x="49.64" y="132.08" width="44.89" height="11.26"/><path class="cls-7" d="M63.37,78.27a3,3,0,0,0-.15,1.44S63.27,79.17,63.37,78.27Z"/><path class="cls-7" d="M130.42,61.08c8.65-.66,14.82,1.6,17.17,5.41.12-5.93-1.33-14.57-7.32-14.83s-9.91-.9-16.91,4.18-14.35,1.87-7.39-1,23.4-7,26.12-4.6c.29-6.32-4.07-12.34-11.47-9.8s-5.86,7.47-10.25,9.58-14.15,7-12.21,1.64S125.79,38,131.76,38.58c-3.62-5.36-15.39-11.22-22.13-8.64s-13.69,6.22-11.58,11.4,5.37,11.81,4.32,12.56l-1.05.74,0,0h0l-.11.07,0,0,0,0c0-.19,0-.37,0-.53,0-.56.07-.82.07-.82l-1.24-.16s0,.34-.07.91c0,.25,0,.56,0,.91-.94,0-2.06-.72-2.53-3.59C96.43,46.14,90.59,31.82,77.65,39S67,55.93,67,55.93s5.08-5.1,11.77-4.79S89.92,58,82.46,57,68,55.35,66.32,60.08C65,63.91,63.78,74.41,63.37,78.27c.48-1.63,2.14-4.62,7.68-8.91C79.85,62.55,90,62.24,86.62,66S72.45,72.49,68.45,76.74s-2.49,14.38-3,19.49c5.14-8.18,8.18-11,13.6-15.8s14-7.25,7.54-1.4S67.84,95.64,70.8,105.25A31.44,31.44,0,0,1,80,115.34s2.68-14.13,3.28-18.51S91.72,82.41,94.19,83,89,94.11,85.67,98.4s-2.72,19.88.48,23.82c1.94-16.7,7.76-30.52,13.81-30.91s-1.25,10.21-5.26,16-5,10.64-1.77,19.48c2.53-10.57,2.72-12.08,7.4-18.92s4-11.18,7.51-11.64-.14,8.64-3.51,16.38,1.25,15.55,4.45,16c3,.41,16-3,18-3.55h0L127,125l.06,0,6.89-8.85s-3.26-6.46-8-7.88,5.49-6.06,11.36,5.23c3.89-6.84,2.86-9.76,2.86-9.76s-5.26-6.28-12.7-5.8-8.88-8.15-2.82-5.37,16.59,11.06,16.59,11.06l3.32-7.08s-6.76-8.38-14.61-9.32-12.12.33-12.13-2,7.06-4.15,14.68-.26a31.83,31.83,0,0,1,11.36,9.53l2.55-12.49s-12.9-6.68-18.35-7.16-4.21-5.27,2.25-4.25,13.73,5.21,15.81,9.14c2-5.59,1.13-12.07-1.43-13.26s-11-2.83-16.23-2S121.78,61.74,130.42,61.08ZM94,65.81c1.17-.47.48,1.16,1.3,1.51-1.28,1.87-4.42,2.47-4.66,1.89C88,66.2,92.47,67.1,94,65.81Zm16.59,4.09-.72-1.74c2-3.51,9.18-5.78,11.07-1.12A12.66,12.66,0,0,1,110.56,69.9Zm5.14,39.26c-3.12,4-1.12,7.24-.62,11.78.13,2-3.6,2.82-4.89,1.31-4.35-4.51-2.26-11.2,1.6-15.73,1.94-2.4,2.3-2,2.84-1.67C115.68,105.78,116.93,107.18,115.7,109.16Z"/><path class="cls-7" d="M40.55,105.9a2.12,2.12,0,0,0-.1,1S40.49,106.55,40.55,105.9Z"/><path class="cls-7" d="M89.42,93.37c6.3-.48,10.8,1.16,12.51,3.94C102,93,101,86.69,96.6,86.5s-7.22-.65-12.32,3-10.46,1.36-5.39-.7,17-5.09,19-3.35c.21-4.61-3-9-8.36-7.15s-4.27,5.45-7.47,7-10.32,5.13-8.91,1.19S86.05,76.54,90.4,77c-2.64-3.91-11.22-8.18-16.13-6.29s-10,4.53-8.44,8.3,3.91,8.61,3.15,9.15l-.77.55,0,0h0l-.08,0,0,0,0,0c0-.15,0-.28,0-.39,0-.41.06-.6.06-.6l-.91-.11s0,.24,0,.66c0,.18,0,.41,0,.66-.68,0-1.49-.52-1.84-2.62C64.65,82.48,60.39,72,51,77.28s-7.75,12.34-7.75,12.34,3.7-3.72,8.57-3.5,8.12,5,2.69,4.25S43.91,89.19,42.7,92.64c-1,2.79-1.85,10.45-2.15,13.26.35-1.19,1.57-3.37,5.61-6.5C52.57,94.44,60,94.22,57.5,97s-10.33,4.74-13.24,7.83S42.44,115.26,42.05,119A44.16,44.16,0,0,1,52,107.47c4-3.52,10.2-5.28,5.5-1S43.81,118.56,46,125.56a23,23,0,0,1,6.71,7.35s2-10.3,2.38-13.49,6.16-10.5,7.95-10.08-3.76,8.11-6.2,11.23-2,14.48.35,17.36c1.41-12.17,5.65-22.24,10.06-22.53s-.91,7.44-3.83,11.64-3.68,7.76-1.29,14.21c1.85-7.71,2-8.81,5.39-13.79S70.43,119.3,73,119s-.1,6.3-2.55,11.94.91,11.33,3.24,11.66c2.15.3,11.64-2.19,13.1-2.58h0l.16-.05h0l5-6.45s-2.39-4.71-5.82-5.74,4-4.41,8.27,3.81c2.84-5,2.09-7.11,2.09-7.11s-3.83-4.58-9.25-4.23-6.48-5.94-2.06-3.91,12.09,8.06,12.09,8.06l2.42-5.16s-4.92-6.11-10.65-6.79-8.83.23-8.84-1.5,5.14-3,10.7-.19a23.25,23.25,0,0,1,8.28,7l1.86-9.11s-9.41-4.86-13.37-5.22-3.08-3.84,1.63-3.09,10,3.8,11.53,6.66c1.47-4.08.82-8.8-1-9.66A27.62,27.62,0,0,0,88,95.81C84.18,96.43,83.12,93.85,89.42,93.37ZM62.86,96.82c.85-.35.35.84.94,1.09-.93,1.37-3.22,1.81-3.39,1.39C58.53,97.1,61.76,97.76,62.86,96.82Zm12.08,3-.51-1.27c1.42-2.56,6.68-4.21,8.06-.82A9.22,9.22,0,0,1,74.94,99.8Zm3.76,28.61c-2.28,2.9-.82,5.27-.46,8.58.09,1.45-2.62,2.06-3.56,1-3.17-3.29-1.65-8.16,1.16-11.47,1.42-1.75,1.68-1.48,2.07-1.21C78.68,126,79.59,127,78.7,128.41Z"/><path class="cls-8" d="M54.91,47.28a1.13,1.13,0,0,1-.28-.67S54.74,46.86,54.91,47.28Z"/><path class="cls-9" d="M97.18,32.81c3-1.81,6.14-7.79,6.41-10.26S99.33,14,93.93,11.14a15.29,15.29,0,0,1,1.21,15.59c-2.13,4.1-5.3,1-3.37-2.2s.16-15.12.16-15.12a62.91,62.91,0,0,0-12.8-5.89s6,5,7.1,11.57S83,24,81.47,22.5s1-2.78,2.26-7.5S76.87,2.14,76.87,2.14C73.72,1.55,72.13,1.32,69,1c4.23,3.54,8.1,8.34,9.21,13.71.93,4.52-5.57-.57-4.07-4.19s-5.22-9-5.22-9S65.36-.28,57.78,0c14.29,5.34,7.65,9.88,6.37,7.05s-9-6-9-6c-3.73.57-5.55.94-9,1.76,0,0-1.9,6.14-1.25,7.63s7,4.87,13.45,5.74,14,3.54,12.63,5-4.11-1.13-10-1.45-6.82-1-14.77-1.82c6.17,3.16,8.9,4.35,13.66,4.66S73.43,26.08,71,27.39C66.26,30,55.09,24,48.37,21.94c3.7,3.34,8.74,7.2,13.14,8.24,3.05.72,11.65,3,10.6,4.4s-8.78-1-10.94-2.72-10.31-5.38-10.31-5.38a8.37,8.37,0,0,1,1.16,7c3.48,5,11.85,5.25,17.19,6.38s-.42,2.69-4.8,1.8-6.81-1.46-12-2.91c1.78,1.8,2.87,6.81,6,8s10.61-.1,13.2,1.5-4.42,3.93-10.8,2c-4-1.24-5.42-2.31-5.92-3,.72,1.79,1.74,7.3,2.34,9.43.74,2.63,6,1.5,11.52-.9s1.59,3.65-3.54,5-8-1.59-8-1.59S53.48,66,60.55,70.09c7.84,4.47,16.81-6.62,18.63-13.72,1.21-4.7,3.07-3.86,3.07-3.86l.73.3c.74.31-2,7.14-5.21,12.33s.88,7.91,5,8.63c7.62,1.34,17.35-9.43,20.69-16.34-5,2.6-14.33.4-16.35-4.59-1.51-3.74,5.46-3.29,8.57-3s2.18,6.33,7.14,5.89c6.66-.58,8.26-10.52,6.82-16-2.88,5.5-11.82,7-17.31,7.26-4.84.22-.75-5.73,4.61-4s8.25-.52,11.25-3.79c4.32-4.73.06-13.82-3.49-18.39,1.81,5.31-.77,10.83-5.12,14C94.63,38.43,94.13,34.63,97.18,32.81ZM77.11,44.54c-.47.54.22,1.5-.6,1.55-1.16-.44-3.83,1.66-2.68-1.29C73.89,44.32,76,43.63,77.11,44.54ZM66.13,14c.23.41.44.71-1.82.74a22.77,22.77,0,0,1-13.68-3.83c-1.38-.9-.78-2.46,1.12-2,4.39,1.17,7,3.11,10.86,2.95A4.34,4.34,0,0,1,66.13,14ZM92.2,34.21c.79,4.74-4.3,5.95-6.48,4,0-.56-.09-1.11-.15-1.66C87.38,34.59,89.61,33.48,92.2,34.21Z"/><path class="cls-8" d="M97.18,32.81c3-1.81,6.14-7.79,6.41-10.26S99.33,14,93.93,11.14a15.29,15.29,0,0,1,1.21,15.59c-2.13,4.1-5.3,1-3.37-2.2s.16-15.12.16-15.12a62.91,62.91,0,0,0-12.8-5.89s6,5,7.1,11.57S83,24,81.47,22.5s1-2.78,2.26-7.5S76.87,2.14,76.87,2.14C73.72,1.55,72.13,1.32,69,1c4.23,3.54,8.1,8.34,9.21,13.71.93,4.52-5.57-.57-4.07-4.19s-5.22-9-5.22-9S65.36-.28,57.78,0c14.29,5.34,7.65,9.88,6.37,7.05s-9-6-9-6c-3.73.57-5.55.94-9,1.76l0,.11c5.35.73,10.41,1.86,14.49,3.87C77.77,18,81.67,32.78,81.76,52.45a1.21,1.21,0,0,1,.49.06l.73.3c.74.31-2,7.14-5.21,12.33s.88,7.91,5,8.63c7.62,1.34,17.35-9.43,20.69-16.34-5,2.6-14.33.4-16.35-4.59-1.51-3.74,5.46-3.29,8.57-3s2.18,6.33,7.14,5.89c6.66-.58,8.26-10.52,6.82-16-2.88,5.5-11.82,7-17.31,7.26-4.84.22-.75-5.73,4.61-4s8.25-.52,11.25-3.79c4.32-4.73.06-13.82-3.49-18.39,1.81,5.31-.77,10.83-5.12,14C94.63,38.43,94.13,34.63,97.18,32.81Zm-5,1.4c.79,4.74-4.3,5.95-6.48,4,0-.56-.09-1.11-.15-1.66C87.38,34.59,89.61,33.48,92.2,34.21Z"/><path class="cls-10" d="M47.07,3l-1-.08,1,.07c.64.05,1.58.14,2.78.34a40.61,40.61,0,0,1,9.31,2.82A36.81,36.81,0,0,1,77,22.44a33.35,33.35,0,0,1,2.3,5.48c.3.94.56,1.86.8,2.78.12.46.22.92.32,1.38s.21.91.3,1.36c.17.91.35,1.8.49,2.68s.27,1.75.36,2.6c.2,1.7.36,3.31.44,4.81.21,3,.24,5.5.28,7.24,0,.75,0,1.35.05,1.79l-.12-.05a1.33,1.33,0,0,0-1.36.38c0-.42,0-.92,0-1.51,0-1.83.08-4.44,0-7.5-.05-1.54-.15-3.19-.32-4.91-.07-.87-.2-1.74-.3-2.64s-.27-1.8-.42-2.72c-.09-.46-.18-.92-.28-1.38s-.18-.93-.29-1.39c-.22-.93-.46-1.86-.73-2.78a32.94,32.94,0,0,0-2.17-5.47A35.8,35.8,0,0,0,59,6.29a39.17,39.17,0,0,0-9.19-2.9C48.65,3.18,47.71,3.08,47.07,3Z"/><path class="cls-10" d="M58.17,63a3.63,3.63,0,0,0,.16.45,7.08,7.08,0,0,0,.59,1.19,5.57,5.57,0,0,0,1.38,1.54,4.11,4.11,0,0,0,3,.81,10.65,10.65,0,0,0,4.93-2.14c.41-.31.86-.62,1.26-1s.8-.69,1.19-1c.8-.72,1.58-1.5,2.33-2.3a50.86,50.86,0,0,0,4.19-5.17c.64-.89,1.26-1.8,1.88-2.64s1.31-1.54,1.94-1.62c1.37,0,2.43,1.2,3,2.73a10.56,10.56,0,0,1,.16,5.51,15.76,15.76,0,0,0-.28,1.57,11.48,11.48,0,0,0-.11,1.48c0,.48,0,.9,0,1.35s.06.84.1,1.23a8.27,8.27,0,0,0,1.2,3.79,3.29,3.29,0,0,0,2.6,1.37,5.35,5.35,0,0,0,1.57-.24,5.88,5.88,0,0,0,1.46-.56,13.79,13.79,0,0,0,1.23-.65l.92-.64.76-.54-.75.48-.91.57c-.35.21-.74.35-1.18.57a5.72,5.72,0,0,1-1.4.45,4.78,4.78,0,0,1-1.45.13,3.3,3.3,0,0,1-2.35-1.49,8.6,8.6,0,0,1-1-3.74c0-.39,0-.8-.07-1.21s0-.85,0-1.3a17.18,17.18,0,0,1,.37-2.84,11.16,11.16,0,0,0-.17-5.92,5.52,5.52,0,0,0-1.29-2.12,3.24,3.24,0,0,0-1-.67,2.5,2.5,0,0,0-.54-.19,2.85,2.85,0,0,0-.66-.06,2.92,2.92,0,0,0-1.42.8,9.93,9.93,0,0,0-1.13,1.3c-.67.92-1.28,1.84-1.92,2.74a50,50,0,0,1-4.08,5.14c-.73.8-1.49,1.54-2.25,2.28-.38.36-.77.72-1.16,1.06s-.78.63-1.17.94a10.12,10.12,0,0,1-4.53,2.11,4.44,4.44,0,0,1-3-.61,5.7,5.7,0,0,1-1.5-1.4A6.87,6.87,0,0,1,58.17,63Z"/><path class="cls-10" d="M56.8,50.33a12,12,0,0,0,.93,1c.34.3.7.59,1.07.88s.77.54,1.19.78.87.45,1.31.68a10.85,10.85,0,0,0,1.46.48l.77.19.81.11a10.75,10.75,0,0,0,1.71.05c.58,0,1.2-.15,1.8-.23s1.23-.34,1.84-.52,1.11-.47,1.84-.81,1.06-.55,1.76-.93,1-.54,1.74-.91,1.15-.6,1.72-.86,1.13-.53,1.7-.76a8.47,8.47,0,0,1,1.65-.52,2.67,2.67,0,0,1,.74,0,1.1,1.1,0,0,1,.29.1c.07,0,.14.17.12.09l.25.28,1.78,0c.59,0,1.18,0,1.78-.07L88.64,49c2.86-.24,4.29-.37,7.14-.65A33.53,33.53,0,0,0,103,47.08a11.59,11.59,0,0,0,3.61-1.88,7.56,7.56,0,0,0,1.62-1.81,7,7,0,0,0,1-2.77,6.61,6.61,0,0,1-1.06,2.63,6.8,6.8,0,0,1-1.61,1.64A10.42,10.42,0,0,1,103,46.48a34.24,34.24,0,0,1-7.11,1c-1.18.07-2.36.14-3.56.28l-3.56.3-3.55.27c-1.18.07-2.35.07-3.53.13l.25.28a.71.71,0,0,0-.39-.56,1.28,1.28,0,0,0-.45-.16,3.15,3.15,0,0,0-.92.06,9.77,9.77,0,0,0-1.78.59c-.58.25-1.16.53-1.74.83s-1.16.61-1.74.91-1,.57-1.74.95l-1.75,1-1.74.81c-.59.19-1.18.4-1.76.56s-1.17.25-1.73.28a10.24,10.24,0,0,1-1.66,0l-.81-.06L63,53.73a12.15,12.15,0,0,1-1.46-.41c-.44-.2-.92-.36-1.34-.59s-.83-.46-1.24-.71A14.35,14.35,0,0,1,56.8,50.33Z"/><path class="cls-10" d="M54.47,30.63c1,.6,2,1.13,3,1.67.52.27,1,.54,1.57.8s1.06.52,1.59.79,1.07.52,1.61.78,1.09.51,1.65.75,1.1.51,1.66.74,1.12.5,1.69.72,1.14.47,1.71.7,1,.38,1.73.66l1.76.61c.59.22,1.18.38,1.77.59L76,40l1.78.58c.59.2,1.2.36,1.8.54a15.3,15.3,0,0,0,1.86.42h0c1.17-.12,2.34-.31,3.5-.49s2.34-.37,3.5-.6L92,39.74c1.15-.26,2.31-.46,3.47-.7a33.56,33.56,0,0,0,6.88-2,10,10,0,0,0,3.19-2.15,6.22,6.22,0,0,0,1.24-1.87,6.12,6.12,0,0,0,.41-2.7,5.52,5.52,0,0,1-.51,2.57,5.66,5.66,0,0,1-1.25,1.72,9.61,9.61,0,0,1-3.18,1.87,33.43,33.43,0,0,1-6.85,1.68c-2.31.36-4.63.92-6.93,1.37-1.15.23-2.31.4-3.47.6l-3.47.51h0a14.78,14.78,0,0,1-1.78-.36c-.6-.16-1.2-.31-1.79-.49L76.2,39.3c-.59-.17-1.19-.35-1.78-.54s-1.19-.34-1.77-.55-1.17-.36-1.76-.55-1-.37-1.73-.6-1.14-.44-1.72-.64-1.12-.46-1.69-.67-1.12-.47-1.68-.68-1.1-.48-1.66-.71l-1.64-.71c-.53-.26-1.08-.47-1.61-.73s-1.07-.49-1.59-.74C56.52,31.67,55.47,31.18,54.47,30.63Z"/><path class="cls-10" d="M48.91,18.76l2,.34c.66.11,1.31.19,2,.31s1.32.21,2,.32,1.32.25,2,.35c1.3.23,2.62.52,3.93.78s2.62.61,3.92.92c1.56.39,2.34.6,3.89,1.09.65.2,1.3.41,1.93.66s1.26.51,1.88.8A22.87,22.87,0,0,1,76,26.42c.57.42,1.13.85,1.66,1.32a13.24,13.24,0,0,1,1.48,1.52l.15.2.19,0a14.1,14.1,0,0,0,3-.81,13.55,13.55,0,0,0,2.75-1.43,11.57,11.57,0,0,0,1.22-1,8.89,8.89,0,0,0,1-1.23,4.85,4.85,0,0,0,.43-.7,6,6,0,0,0,.37-.76,14.93,14.93,0,0,0,.59-1.59,15.09,15.09,0,0,0,.31-7.3,11.86,11.86,0,0,0-.55-2,16.75,16.75,0,0,0-.87-2,17,17,0,0,0-1.21-2l-.74-1c-.33-.39-.5-.59-.85-1,.32.39.47.59.78,1s.41.59.67,1a17.8,17.8,0,0,1,1.1,2,14.62,14.62,0,0,1,.74,1.95,14,14,0,0,1,.46,1.92,14.55,14.55,0,0,1-.48,7c-.17.53-.35,1-.57,1.55a7.8,7.8,0,0,1-.35.71,3.66,3.66,0,0,1-.41.66,7.81,7.81,0,0,1-1,1.16,9.61,9.61,0,0,1-1.16.95,12.71,12.71,0,0,1-2.64,1.37,16.21,16.21,0,0,1-2.9.81l.34.17A13.53,13.53,0,0,0,78,27.17a18.57,18.57,0,0,0-1.75-1.35,24.35,24.35,0,0,0-3.75-2.1c-.64-.28-1.29-.56-2-.79s-1.3-.45-2-.64c-1.56-.45-2.35-.65-3.92-1-1.31-.27-2.62-.58-3.93-.82s-2.63-.48-3.94-.66l-2-.29c-.66-.09-1.31-.16-2-.26s-1.31-.15-2-.24S49.57,18.86,48.91,18.76Z"/><path class="cls-8" d="M60.3,88.18a1.36,1.36,0,0,1-.55.65Z"/><path class="cls-9" d="M22,51.5c-3.58-2.22-11.57-2.23-14.32-1.16S.92,59.52.89,66.75A18.13,18.13,0,0,1,16.66,57c5.49,0,3.92,5.06-.48,4.75S.15,69.8.15,69.8A76,76,0,0,0,.92,86.52s2-9,8.33-13.8,11.19-1.43,10.42,1-3.49.44-9.15,1.71S.71,89.66.71,89.66c1.1,3.64,1.72,5.45,3.1,9,1.42-6.39,4.37-13.09,9.43-17.19C17.49,78,15.68,87.63,11,88S4.38,98.46,4.38,98.46s.06,4.66,4.53,12.48c-2.16-18,6.24-13.46,4-10.57s-1.45,12.77-1.45,12.77c2.65,3.62,4,5.34,6.8,8.57,0,0,7.52-1.35,8.73-2.84s1.34-10-1.29-17.33-3.91-16.69-1.64-16,1.05,4.95,3.9,11.29,2.71,7.71,6.14,16.57c0-8.24-.27-11.77-2.54-17s-3.69-16.2-1-14.37c5.34,3.6,5.13,18.65,6.62,26.86,1.5-5.72,2.82-13.14,1.51-18.35-.91-3.61-3.15-14-1.15-13.58s3.73,9.81,3.12,13-.06,13.82-.06,13.82a10,10,0,0,1,6.77-5.06c3.34-6.39-.92-15.36-2.65-21.62s3.07-1,4.51,4.08,2.19,8,3.49,14.25c.92-2.86,5.61-6.75,5.17-10.73S52,73.6,52.24,70s6.56,2.52,8,10.31c.89,4.91.53,7,.08,7.88,1.49-1.74,6.75-5.82,8.67-7.62,2.37-2.22-1.69-7.15-7.24-11.66s3-3.67,7.17,1,2.69,9.3,2.69,9.3,9.28.21,9.68-9.46c.45-10.7-16.15-14.11-24.63-12.16-5.62,1.3-5.75-1.12-5.75-1.12l-.08-.94c-.08-.94,8.61-1.82,15.84-1.23s7.87-5.25,6.41-9.93c-2.74-8.77-19.42-13.16-28.54-12.91,5.5,3.89,8.25,14.91,4.1,19.75-3.12,3.64-6.46-3.95-7.82-7.42s5.49-5.75,2.32-10.74c-4.25-6.71-15.61-3-20.58,1.54,7.37,0,13.84,8.64,17.1,14.28,2.88,5-5.63,3.93-6.74-2.67s-5-8.42-10.14-9.79c-7.34-2-14.61,7.48-17.49,13.72,4.62-4.81,11.84-5.1,17.57-2.25C29.29,51.12,25.55,53.72,22,51.5ZM45.3,66.26c.81.2,1.46-1.05,2-.21.17,1.46,3.84,3.13.1,3.53C46.81,69.78,44.94,68,45.3,66.26ZM19.05,94.52c.31-.46.51-.85,1.78,1.52a27,27,0,0,1,3.43,16.51c-.2,2-2.17,2.18-2.72-.09-1.17-5.26-.58-9.13-2.82-13.06A5.2,5.2,0,0,1,19.05,94.52ZM26.16,56c4.57-3.42,8.62,1.28,7.79,4.62-.56.34-1.11.7-1.66,1.07C29.2,60.86,26.8,59.12,26.16,56Z"/><path class="cls-8" d="M22,51.5c-3.58-2.22-11.57-2.23-14.32-1.16S.92,59.52.89,66.75A18.13,18.13,0,0,1,16.66,57c5.49,0,3.92,5.06-.48,4.75S.15,69.8.15,69.8A76,76,0,0,0,.92,86.52s2-9,8.33-13.8,11.19-1.43,10.42,1-3.49.44-9.15,1.71S.71,89.66.71,89.66c1.1,3.64,1.72,5.45,3.1,9,1.42-6.39,4.37-13.09,9.43-17.19C17.49,78,15.68,87.63,11,88S4.38,98.46,4.38,98.46s.06,4.66,4.53,12.48c-2.16-18,6.24-13.46,4-10.57s-1.45,12.77-1.45,12.77c2.65,3.62,4,5.34,6.8,8.57l.14,0c-2.16-6-3.73-12-3.84-17.39C16.92,80.06,30.39,67.87,51.09,57a1.63,1.63,0,0,1-.2-.55l-.08-.94c-.08-.94,8.61-1.82,15.84-1.23s7.87-5.25,6.41-9.93c-2.74-8.77-19.42-13.16-28.54-12.91,5.5,3.89,8.25,14.91,4.1,19.75-3.12,3.64-6.46-3.95-7.82-7.42s5.49-5.75,2.32-10.74c-4.25-6.71-15.61-3-20.58,1.54,7.37,0,13.84,8.64,17.1,14.28,2.88,5-5.63,3.93-6.74-2.67s-5-8.42-10.14-9.79c-7.34-2-14.61,7.48-17.49,13.72,4.62-4.81,11.84-5.1,17.57-2.25C29.29,51.12,25.55,53.72,22,51.5ZM26.16,56c4.57-3.42,8.62,1.28,7.79,4.62-.56.34-1.11.7-1.66,1.07C29.2,60.86,26.8,59.12,26.16,56Z"/><path class="cls-10" d="M52,57.72c-1.09-.44-1.14-1.23-1.14-1.23v-.16l-1.87,1c-1.8,1-4.44,2.39-7.48,4.24-1.53.91-3.15,2-4.83,3.09-.84.56-1.67,1.19-2.54,1.8s-1.7,1.3-2.56,2c-.43.34-.85.7-1.27,1.06s-.86.71-1.28,1.09c-.84.75-1.67,1.53-2.5,2.36A39.91,39.91,0,0,0,22,78.41a43.78,43.78,0,0,0-7.39,27.74,48.37,48.37,0,0,0,2.11,11.36c.44,1.37.86,2.42,1.15,3.11s.47,1.06.47,1.06-.17-.37-.46-1.07-.69-1.76-1.12-3.13a46.94,46.94,0,0,1-2-11.28A42.5,42.5,0,0,1,22.55,79a38.15,38.15,0,0,1,4.58-5.27c.83-.79,1.67-1.55,2.53-2.29.44-.37.87-.72,1.32-1.07s.86-.7,1.3-1c.89-.66,1.76-1.31,2.64-1.93s1.74-1.21,2.61-1.76c1.74-1.11,3.42-2.13,5-3,3.17-1.8,6-3.17,7.89-4.14Z"/><path class="cls-10" d="M75.14,76.14a5.5,5.5,0,0,0,.38-.41,8.57,8.57,0,0,0,.93-1.27,6.58,6.58,0,0,0,.87-2.3,4.82,4.82,0,0,0-.8-3.64,12.68,12.68,0,0,0-4.94-4c-.56-.27-1.13-.57-1.72-.8L68.1,63c-1.19-.44-2.44-.84-3.7-1.19a59.21,59.21,0,0,0-7.73-1.6c-1.29-.19-2.59-.34-3.81-.55a4.39,4.39,0,0,1-2.77-1.15c-.73-1.45-.06-3.23,1.26-4.61a12.57,12.57,0,0,1,5.73-3.18,18.27,18.27,0,0,0,1.81-.57,16.85,16.85,0,0,0,1.62-.68c.52-.23,1-.5,1.42-.74s.86-.51,1.25-.77a9.78,9.78,0,0,0,3.34-3.33,3.93,3.93,0,0,0,0-3.49,6.56,6.56,0,0,0-1.11-1.53,7.81,7.81,0,0,0-1.39-1.24c-.51-.35-.91-.68-1.36-.93l-1.18-.62-1-.51.92.53,1.09.64c.41.26.78.59,1.24.94A6.57,6.57,0,0,1,65,39.64,5.56,5.56,0,0,1,66,41.11a3.92,3.92,0,0,1-.28,3.29,10.19,10.19,0,0,1-3.38,3.15c-.39.24-.82.47-1.23.72s-.89.47-1.39.69a20,20,0,0,1-3.19,1.16,13.24,13.24,0,0,0-6.15,3.41,6.4,6.4,0,0,0-1.54,2.52,3.86,3.86,0,0,0-.18,1.39,4.52,4.52,0,0,0,.09.67,3.56,3.56,0,0,0,.31.73,3.34,3.34,0,0,0,1.61,1.07,13,13,0,0,0,2,.47c1.33.21,2.64.35,3.94.53a59.66,59.66,0,0,1,7.64,1.5c1.25.33,2.45.73,3.64,1.13l1.76.64c.57.22,1.08.48,1.62.72a11.93,11.93,0,0,1,4.7,3.64,5.18,5.18,0,0,1,1,3.48,6.58,6.58,0,0,1-.66,2.34A8.78,8.78,0,0,1,75.14,76.14Z"/><path class="cls-10" d="M62.48,84.52A14.08,14.08,0,0,0,63,83c.14-.52.24-1.06.34-1.6a15.6,15.6,0,0,0,.17-1.69,14.41,14.41,0,0,0,0-1.74,12.85,12.85,0,0,0-.29-1.81c-.08-.37-.13-.55-.22-.92s-.2-.55-.34-.91a12.17,12.17,0,0,0-.87-1.83c-.34-.61-.82-1.19-1.22-1.78s-1-1.11-1.55-1.66c-.74-.6-1.11-.9-1.86-1.49s-1.16-.82-1.95-1.35-1.13-.81-1.9-1.33-1.26-.89-1.85-1.35-1.18-.91-1.73-1.37a11.08,11.08,0,0,1-1.45-1.46,3.59,3.59,0,0,1-.44-.77.92.92,0,0,1-.05-.36c0-.09.1-.23,0-.18.06-.16.09-.25.16-.41l-1-1.85c-.35-.61-.67-1.23-1-1.84l-2.25-3.62c-1.81-2.89-2.73-4.33-4.58-7.19a40.47,40.47,0,0,0-5.25-6.92,13.75,13.75,0,0,0-4-2.78,8.92,8.92,0,0,0-2.79-.72,8.25,8.25,0,0,0-3.47.46A7.79,7.79,0,0,1,27,34.22a8.07,8.07,0,0,1,2.61.8,12.72,12.72,0,0,1,3.61,2.86,40.31,40.31,0,0,1,4.9,7c.71,1.21,1.44,2.42,2.24,3.61.9,1.43,1.36,2.15,2.26,3.59s1.34,2.15,2.22,3.59c.72,1.21,1.36,2.44,2.07,3.66l.15-.42a.88.88,0,0,0-.38.71,1.52,1.52,0,0,0,.09.57,4,4,0,0,0,.56.93,11.26,11.26,0,0,0,1.6,1.56c.58.47,1.18.94,1.82,1.38s1.27.89,1.9,1.34c.79.52,1.18.78,2,1.32s1.19.79,2,1.33,1.09.82,1.81,1.38c.52.52,1.05,1,1.55,1.55s.89,1.1,1.24,1.68a13.23,13.23,0,0,1,.92,1.74l.36.88c.1.36.16.54.26.89a16.34,16.34,0,0,1,.36,1.77c0,.58.13,1.17.11,1.73s0,1.13-.07,1.69A17.32,17.32,0,0,1,62.48,84.52Z"/><path class="cls-10" d="M43,97.73c.1-1.35.11-2.72.12-4.1,0-.69,0-1.39,0-2.09s0-1.4,0-2.11S43,88,43,87.31s0-1.43-.1-2.15-.06-1.44-.13-2.16-.09-1.45-.16-2.17-.13-1.46-.2-2.19-.16-1.31-.25-2.18-.21-1.46-.31-2.19-.24-1.46-.35-2.19-.22-1.45-.35-2.18-.23-1.47-.36-2.19-.27-1.47-.41-2.2a18.62,18.62,0,0,0-.57-2.19,0,0,0,0,1,0,0l0,0C39,62.1,38.15,61,37.33,59.84s-1.67-2.26-2.55-3.36c-1.06-1.31-1.6-2-2.67-3.27-.9-1.07-1.74-2.19-2.63-3.27a39.54,39.54,0,0,0-5.82-6.2,11.83,11.83,0,0,0-4-2.18,6.84,6.84,0,0,0-5.72.75,6.48,6.48,0,0,1,5.48-.48,11.44,11.44,0,0,1,3.72,2.32,40.67,40.67,0,0,1,5.51,6.31c1.64,2.25,3.49,4.38,5.22,6.56.88,1.09,1.69,2.22,2.53,3.33l2.44,3.39,0-.05a17.87,17.87,0,0,1,.6,2.07c.15.72.32,1.43.46,2.16s.28,1.44.41,2.16.28,1.44.4,2.17.29,1.45.39,2.17.26,1.43.38,2.15c.11.87.17,1.3.31,2.16s.17,1.44.27,2.16.13,1.44.22,2.15.11,1.43.19,2.14.09,1.43.16,2.13.09,1.42.14,2.12.1,1.4.11,2.1.07,1.4.1,2.09C43,95,43,96.37,43,97.73Z"/><path class="cls-10" d="M33.5,110.07c-.23-.77-.48-1.52-.73-2.27s-.51-1.5-.75-2.26-.5-1.5-.74-2.26-.46-1.52-.7-2.27c-.48-1.5-.89-3-1.33-4.56s-.79-3.1-1.17-4.64c-.45-1.86-.64-2.81-1-4.71-.14-.79-.27-1.59-.35-2.38s-.15-1.62-.19-2.43a26.58,26.58,0,0,1,.24-5,20.75,20.75,0,0,1,.49-2.47,16.73,16.73,0,0,1,.79-2.39c.05-.11.08-.16.12-.27L28.08,72a17.4,17.4,0,0,0-2.52-2.75,15.42,15.42,0,0,0-3-2.12,12.42,12.42,0,0,0-1.71-.74A10.48,10.48,0,0,0,19,66a5.32,5.32,0,0,0-1-.07,8.35,8.35,0,0,0-1,0,17.34,17.34,0,0,0-2,.25,18.15,18.15,0,0,0-7.88,3.65,16.42,16.42,0,0,0-1.8,1.67,19.56,19.56,0,0,0-1.65,2A20.74,20.74,0,0,0,2.2,75.91c-.27.53-.4.79-.65,1.33L1,78.67c.24-.55.36-.82.61-1.35s.4-.76.67-1.26a22.16,22.16,0,0,1,1.49-2.23A18.76,18.76,0,0,1,5.41,72a19.17,19.17,0,0,1,1.77-1.53,17.18,17.18,0,0,1,7.63-3.29,15.83,15.83,0,0,1,1.94-.25,7.45,7.45,0,0,1,.94,0,4.58,4.58,0,0,1,.92.07,9.37,9.37,0,0,1,1.76.4,11.76,11.76,0,0,1,1.63.7,15.32,15.32,0,0,1,2.9,2,20.07,20.07,0,0,1,2.43,2.62c0-.18,0-.27,0-.45a16.32,16.32,0,0,0-.83,2.57A23.27,23.27,0,0,0,26,77.41a28.16,28.16,0,0,0-.17,5.1c.05.83.12,1.66.23,2.48s.24,1.63.4,2.42c.38,1.89.6,2.83,1.08,4.68.43,1.53.82,3.09,1.29,4.6s.92,3,1.44,4.51c.27.74.51,1.49.77,2.23s.55,1.47.8,2.21.56,1.47.82,2.21S33.24,109.32,33.5,110.07Z"/><path class="cls-10" d="M85,101.67l-1.4-.3c7.4-34.72,23.31-52.82,23.47-53l1.29.94C108.21,49.49,92.33,67.35,85,101.67Z"/><path class="cls-10" d="M95.27,106.62l-1.3.61C79,75,80.88,51,80.9,50.75l1.44.12C82.32,51.11,80.51,74.78,95.27,106.62Z"/><path class="cls-10" d="M90.47,102.27,89,102.06c2.28-14.92,7.15-23.67,14.48-26,11.22-3.62,23.83,9.06,24.36,9.61l-1,1.59C126.75,87.1,114.32,74,104,77.39,97.19,79.58,92.65,88,90.47,102.27Z"/><path class="cls-10" d="M85,101.57l-1.44-.1C84.92,82,82,67.7,72.91,61.87c-12.68-8.09-22-3.55-22.16-3.51l0-2c.83-.61,13.1-3.63,23,4.38C82.62,67.87,86.39,81.6,85,101.57Z"/><path class="cls-10" d="M69.89,106.08l.6,1.62c3.74-6.63,9.09-10.57,15.92-11.73a29.6,29.6,0,0,1,14.4,1.47l.57-.41c-.29-.12-7.24-4.19-15.27-2.83C79,95.4,73.72,99.29,69.89,106.08Z"/><path class="cls-8" d="M129.75,64.33a1.12,1.12,0,0,0,.64-.33Z"/><path class="cls-9" d="M103.71,26c-1.27-5.24.33-11.12,5.14-14-5.66,1.19-14.79,5.38-14.54,11.78.17,4.44.93,8,6.13,10.16s4.49,9.34.94,6c-4-3.73-9.88-10.66-8.53-16.71C88.23,26.53,83,35.15,87.74,39.9c3.5,3.53,6.67-1.67,9.25.1s8.2,5.93,4.63,7.81c-4.76,2.5-13.29-1.82-15.45-7.06-1.92,7.44-1.44,22,5.25,25.84,3.57,2.08,8.47,2.65,9.34-3.39s3.23-13,4-12.78.76.25.76.25,1.95.56-.16,4.93c-3.19,6.59-3.51,20.86,5.36,22.5,8,1.48,9.58-6.18,9.58-6.18s-4.06.37-7.13-4-2.16-11.48.5-6.08,6,9.66,8.21,8.13c1.84-1.24,6.18-4.79,7.88-5.69-.82.2-2.59.11-6.45-1.54-6.13-2.63-10-8.94-7-8.49s7.85,6.27,11,7.38,7.25-2,9.78-2.23c-4.9-2.24-7.12-3.39-11-5.53s-7.26-7-2.51-4.48,11.38,7.78,17.25,6.24a8.41,8.41,0,0,1,5.42-4.62s-8.59-2.44-11.35-2.54-10.18-3.29-10.11-5S133,45.59,135.76,47c4,2.05,10.36,2.36,15.34,2.2-6.45-2.76-18.85-5.41-20.8-10.47-1-2.56,7.78.67,11.61,3.51s6.68,3.69,13.44,5.26c-6.63-4.47-7.78-4.61-12.45-8.14s-8.42-3.33-8.53-5.32,7.33.82,12.85,4.35,12.53,5,14,4.31,4-6.64,4-6.64c-2.13-2.88-3.29-4.33-5.76-7.18,0,0-7.95-2.55-10.75-1.21s-4.95-6.42,9.41-1.27c-5.58-5.13-9.39-6.06-9.39-6.06s-8.62-.23-9.81,3.51-9.45,3.42-5.82.57c4.32-3.38,10.37-4.55,15.89-4.51-2.65-1.8-4-2.65-6.8-4.23,0,0-11.43,1-13.54,5.38s-1,7-3.12,7.19-3.93-4.44,1.15-8.74,12.89-4.24,12.89-4.24a62.73,62.73,0,0,0-13.58-3.77s-9.07,8-9.64,11.64-5,4-4-.49a15.31,15.31,0,0,1,11-11.12C117.36,10.21,110,12,108.57,14s-2.89,8.62-1.74,12S105.15,31.92,103.71,26Zm13.2,24.18c-1,3-1.71-.33-2.87-.74-.6-.56.54-.86.53-1.57C116,47.93,117.18,49.81,116.91,50.21ZM146.76,32.3c2.81,2.58,6.1,2.82,10.2,4.76,1.75.88,1.2,2.46-.44,2.25A22.76,22.76,0,0,1,143.6,33.4c-1.7-1.48-1.34-1.57-.91-1.74A4.38,4.38,0,0,1,146.76,32.3Zm-33.51,4.07-1.19,1.16a4,4,0,0,1-2.33-7.26C112.18,31.38,113.16,33.68,113.25,36.37Z"/><path class="cls-8" d="M103.71,26c-1.27-5.24.33-11.12,5.14-14-5.66,1.19-14.79,5.38-14.54,11.78.17,4.44.93,8,6.13,10.16s4.49,9.34.94,6c-4-3.73-9.88-10.66-8.53-16.71C88.23,26.53,83,35.15,87.74,39.9c3.5,3.53,6.67-1.67,9.25.1s8.2,5.93,4.63,7.81c-4.76,2.5-13.29-1.82-15.45-7.06-1.92,7.44-1.44,22,5.25,25.84,3.57,2.08,8.47,2.65,9.34-3.39s3.23-13,4-12.78.76.25.76.25a1.14,1.14,0,0,1,.41.26c12.77-15,25.3-23.73,45.64-21.16,4.42,1.1,9,3.5,13.56,6.41l0-.11c-2.13-2.88-3.29-4.33-5.76-7.18,0,0-7.95-2.55-10.75-1.21s-4.95-6.42,9.41-1.27c-5.58-5.13-9.39-6.06-9.39-6.06s-8.62-.23-9.81,3.51-9.45,3.42-5.82.57c4.32-3.38,10.37-4.55,15.89-4.51-2.65-1.8-4-2.65-6.8-4.23,0,0-11.43,1-13.54,5.38s-1,7-3.12,7.19-3.93-4.44,1.15-8.74,12.89-4.24,12.89-4.24a62.73,62.73,0,0,0-13.58-3.77s-9.07,8-9.64,11.64-5,4-4-.49a15.31,15.31,0,0,1,11-11.12C117.36,10.21,110,12,108.57,14s-2.89,8.62-1.74,12S105.15,31.92,103.71,26Zm9.54,10.34-1.19,1.16a4,4,0,0,1-2.33-7.26C112.18,31.38,113.16,33.68,113.25,36.37Z"/><path class="cls-10" d="M164.33,35.6l.79.58-.78-.58c-.52-.37-1.3-.91-2.34-1.53a40.5,40.5,0,0,0-8.93-3.86,36.81,36.81,0,0,0-24.16.87,33,33,0,0,0-5.3,2.7c-.83.52-1.63,1.06-2.41,1.6-.38.28-.76.56-1.13.85s-.75.56-1.11.85c-.72.58-1.42,1.15-2.1,1.73s-1.34,1.16-2,1.75q-1.89,1.74-3.45,3.38c-2.09,2.15-3.74,4.05-4.89,5.35l-1.19,1.33.13.05a1.33,1.33,0,0,1,.79,1.16l1-1.16c1.16-1.42,2.8-3.44,4.87-5.7,1-1.15,2.17-2.34,3.41-3.55.62-.61,1.28-1.2,1.94-1.82s1.37-1.19,2.08-1.8c.36-.3.72-.59,1.1-.88s.74-.59,1.12-.87c.77-.57,1.56-1.12,2.36-1.65a32.47,32.47,0,0,1,5.18-2.78,35.84,35.84,0,0,1,23.76-1.25A39.28,39.28,0,0,1,162,34.1C163,34.71,163.8,35.24,164.33,35.6Z"/><path class="cls-10" d="M117.09,74.25a3.72,3.72,0,0,1-.41.24,7.22,7.22,0,0,1-1.22.53,5.77,5.77,0,0,1-2,.28A4.05,4.05,0,0,1,110.58,74a10.54,10.54,0,0,1-2.39-4.81c-.11-.51-.25-1-.33-1.56s-.16-1-.24-1.57c-.13-1.07-.23-2.17-.28-3.26a49.22,49.22,0,0,1,.14-6.65c.08-1.1.2-2.19.26-3.23a3.68,3.68,0,0,0-.43-2.49c-1-.87-2.64-.66-4,.17a10.48,10.48,0,0,0-3.68,4.11A15,15,0,0,1,98.8,56a12.67,12.67,0,0,1-.87,1.21c-.28.38-.58.68-.87,1l-.86.88a8.23,8.23,0,0,1-3.37,2.11A3.28,3.28,0,0,1,90,60.64a5.43,5.43,0,0,1-1-1.19,6.63,6.63,0,0,1-.76-1.38c-.19-.48-.39-.87-.51-1.29s-.21-.79-.29-1.09l-.23-.9.26.86c.09.28.2.61.32,1s.34.75.54,1.2A6.08,6.08,0,0,0,89,59.11a4.46,4.46,0,0,0,1,1,3.29,3.29,0,0,0,2.75.38A8.51,8.51,0,0,0,96,58.35c.28-.28.55-.59.83-.88s.56-.64.82-1a16.31,16.31,0,0,0,1.55-2.4,11.29,11.29,0,0,1,4-4.41,5.42,5.42,0,0,1,2.36-.79,3.31,3.31,0,0,1,1.17.11,3.26,3.26,0,0,1,.53.2,2.56,2.56,0,0,1,.54.39,2.89,2.89,0,0,1,.58,1.52,10,10,0,0,1,0,1.73c-.07,1.13-.2,2.23-.3,3.33a49.79,49.79,0,0,0-.2,6.56c0,1.08.14,2.14.24,3.19.06.53.13,1,.2,1.57s.19,1,.29,1.46a10,10,0,0,0,2.1,4.54,4.38,4.38,0,0,0,2.67,1.47,5.57,5.57,0,0,0,2-.1A7.25,7.25,0,0,0,117.09,74.25Z"/><path class="cls-10" d="M126.34,65.43a11.51,11.51,0,0,1-1.33.14c-.46,0-.92,0-1.38,0s-.94-.08-1.42-.17-.95-.22-1.43-.33a10.14,10.14,0,0,1-1.43-.57l-.71-.35-.69-.45a9.52,9.52,0,0,1-1.34-1.07,17.44,17.44,0,0,1-1.23-1.33c-.37-.51-.72-1.05-1.07-1.59-.36-.71-.53-1.08-.88-1.8s-.45-1.11-.74-1.85-.45-1.09-.74-1.81-.49-1.2-.76-1.77-.52-1.15-.8-1.68a8.31,8.31,0,0,0-.93-1.46,2.38,2.38,0,0,0-.55-.51.82.82,0,0,0-.28-.11c-.07,0-.21,0-.15,0l-.37,0-1.33-1.18c-.43-.4-.89-.78-1.31-1.2-1-1-1.54-1.51-2.56-2.53-2-2-3-3-5-5.1a33.94,33.94,0,0,1-4.69-5.61,11.35,11.35,0,0,1-1.54-3.76,7.48,7.48,0,0,1-.08-2.43,7.08,7.08,0,0,1,1-2.76,6.61,6.61,0,0,0-.89,2.69,7,7,0,0,0,.17,2.29,10.72,10.72,0,0,0,1.67,3.5A33.68,33.68,0,0,0,98.35,38c.86.82,1.71,1.64,2.54,2.52L103.41,43c1,1,1.52,1.51,2.54,2.51.86.81,1.74,1.57,2.61,2.38l-.37,0a.71.71,0,0,1,.65-.17,1.12,1.12,0,0,1,.45.18,2.82,2.82,0,0,1,.66.63,9.92,9.92,0,0,1,1,1.6c.28.57.55,1.15.8,1.75s.49,1.22.74,1.82.42,1.12.71,1.85.43,1.13.72,1.87.47,1.05.8,1.75c.33.52.64,1.05,1,1.56s.73.94,1.13,1.33a11.45,11.45,0,0,0,1.26,1.08l.66.47.68.37a12.35,12.35,0,0,0,1.39.63,11.76,11.76,0,0,0,1.4.41,13.81,13.81,0,0,0,1.4.27A14.74,14.74,0,0,0,126.34,65.43Z"/><path class="cls-10" d="M140.84,51.91c-1.12-.17-2.25-.43-3.39-.68l-1.71-.4c-.57-.13-1.14-.3-1.72-.43L132.28,50c-.57-.17-1.16-.31-1.74-.49s-1.17-.32-1.75-.51-1.17-.34-1.75-.54-1.17-.38-1.76-.57-1-.38-1.75-.61l-1.73-.67c-.59-.21-1.15-.47-1.73-.7s-1.15-.45-1.73-.69l-1.73-.71c-.58-.23-1.15-.5-1.72-.75a15.29,15.29,0,0,1-1.7-.88h0l0,0c-.81-.85-1.58-1.74-2.36-2.63s-1.53-1.79-2.27-2.72c-.88-1.12-1.32-1.68-2.19-2.81-.71-.93-1.47-1.83-2.19-2.77a33.57,33.57,0,0,1-4-5.94,10.19,10.19,0,0,1-1-3.7A6.32,6.32,0,0,1,99.36,20a6.1,6.1,0,0,1,1.44-2.33A5.5,5.5,0,0,0,99.52,20a5.56,5.56,0,0,0-.15,2.12,9.47,9.47,0,0,0,1.21,3.48,34.53,34.53,0,0,0,4.14,5.71c1.54,1.76,3,3.69,4.41,5.52.74.92,1.51,1.8,2.26,2.7l2.33,2.63a.08.08,0,0,1,0,0,14.19,14.19,0,0,0,1.59.88c.56.26,1.11.54,1.69.78s1.13.51,1.69.75l1.71.73c.58.24,1.13.51,1.71.73s1.13.48,1.7.71l1.71.66c.57.22,1.15.41,1.72.63s1.15.37,1.72.58,1.16.36,1.72.56,1.16.34,1.73.53l1.71.52c.57.15,1.13.34,1.7.48s1.13.32,1.7.47C138.6,51.38,139.72,51.68,140.84,51.91Z"/><path class="cls-10" d="M152.75,46.43c-.58-.33-1.16-.68-1.73-1s-1.13-.7-1.71-1l-1.71-1c-.58-.34-1.17-.66-1.74-1-1.14-.68-2.33-1.31-3.5-2s-2.39-1.23-3.59-1.83c-1.44-.72-2.18-1.05-3.68-1.68-.62-.27-1.25-.53-1.89-.74s-1.29-.43-1.95-.61a23.43,23.43,0,0,0-4.11-.74c-.71,0-1.41-.08-2.13-.06a13.22,13.22,0,0,0-2.1.21l-.25.05-.12-.14a14.89,14.89,0,0,1-1.79-2.58,12.82,12.82,0,0,1-1.17-2.87,10,10,0,0,1-.29-1.54,7.88,7.88,0,0,1,0-1.61,4.77,4.77,0,0,1,.12-.82,5.8,5.8,0,0,1,.21-.82A12.72,12.72,0,0,1,120.2,23a15.12,15.12,0,0,1,4.47-5.78,13.52,13.52,0,0,1,1.71-1.17,17.22,17.22,0,0,1,2-1,18.24,18.24,0,0,1,2.23-.76l1.21-.28,1.28-.2c-.5.1-.74.14-1.23.25l-1.15.31a19.3,19.3,0,0,0-2.11.81,15,15,0,0,0-3.42,2.18,15.51,15.51,0,0,0-4.71,7.19,7.85,7.85,0,0,0-.19.77,4.11,4.11,0,0,0-.12.77,8.57,8.57,0,0,0,0,1.52,10.41,10.41,0,0,0,.27,1.46,12.35,12.35,0,0,0,1.14,2.77,15.5,15.5,0,0,0,1.69,2.48l-.37-.09a13.72,13.72,0,0,1,2.27-.19,20.13,20.13,0,0,1,2.2.09,24.12,24.12,0,0,1,4.21.82c.68.2,1.35.41,2,.66s1.29.5,1.91.78c1.49.67,2.22,1,3.64,1.77,1.18.64,2.38,1.25,3.53,1.92s2.32,1.32,3.44,2l1.68,1.05c.56.35,1.1.72,1.67,1.07s1.1.73,1.66,1.08S152.18,46.08,152.75,46.43Z"/><path class="cls-8" d="M21.23,114.9a3.34,3.34,0,0,0-.78,1.46Z"/><path class="cls-9" d="M99.75,125.64c9.45,3,15,8.09,15.86,13.15,2.7-6.24,4.89-16-1.35-18.89s-10.12-5.23-19.73-2.86-16-4.22-7.42-4.22,27.82,2.7,29.68,6.41c3-6.58,1-14.84-7.93-15.35s-9.44,5.4-15,5.74-18,1.34-13.66-3.55,24.62-6.91,30.7-3.71c-1.52-7.25-11.47-18.55-19.74-18.72S74,84.32,74,90.73s.59,14.84-.84,15.18l-1.43.33s-4.31,1-2.91-5.06,1.39-23.77-15.44-21.75S34.74,92.79,34.74,92.79s7.59-3.21,14.55,0,8.85,12.06,1.39,7.76-14.67-8-18.47-3.67c-3.07,3.49-8.88,14.11-11,18,1.21-1.52,4.27-4,12-6.13,12.27-3.41,23.15.64,18,3.17s-17.83.75-23.9,3.54-8.85,14.16-11.64,19.35c9-6.45,13.41-8.1,21.25-10.88s18-1.64,8.6,1.77-27,9.53-28,21a35.93,35.93,0,0,1,5.39,14.67s8.94-13.83,11.47-18.21,15.18-11.64,17.54-10-10.28,9.55-15.68,12.64-11.47,19.9-9.79,25.47c9.28-16.86,21.42-29,28-26.81s-5.73,10.28-12.48,14.67S32,168.3,31.62,179.1c7.25-10.12,8.1-11.64,16-16.87s9.11-10.12,13-9.1-3.88,9.1-10.79,15.85-5.4,17-2.2,18.89,20.92,4,20.92,4l11.13-6.4s-.68-8.27-5.06-11.81,8.43-4,9.78,10.46c7.08-5.57,7.25-9.11,7.25-9.11s-2.87-8.94-11-11.64-5.9-12.48-.68-6.91,12.82,18.89,12.82,18.89l6.58-6.07S95.88,157.51,88,153.13s-13-4.89-12-7.42,9.27-1.35,15.68,6.07a36.45,36.45,0,0,1,7.93,15l8.09-12.15S96.89,142,91.32,139.13s-2.19-7.41,4.22-3.54,12.31,11.46,12.82,16.52c4.55-5.06,6.4-12.31,4.21-14.67s-10.45-7.76-16.36-9.1S90.3,122.6,99.75,125.64ZM54,117.06c-1.44-4.31,2.87-1.43,5-2.15,1.44,0,0,1.44.72,2.15C57.62,118.5,54,117.78,54,117.06Zm9.34,53.2c-5,2.87-4.31,7.19-5.75,12.22-.72,2.15-5,1.44-5.75-.72-2.66-6.67,2.45-12.86,8.49-16,3.1-1.71,3.33-1.17,3.73-.54C64.81,166.66,65.53,168.69,63.37,170.26Zm11.51-43.85v-2.16c3.59-2.87,12.21-2.15,12.21,3.6A14.49,14.49,0,0,1,74.88,126.41Z"/><path class="cls-8" d="M99.75,125.64c9.45,3,15,8.09,15.86,13.15,2.7-6.24,4.89-16-1.35-18.89s-10.12-5.23-19.73-2.86-16-4.22-7.42-4.22,27.82,2.7,29.68,6.41c3-6.58,1-14.84-7.93-15.35s-9.44,5.4-15,5.74-18,1.34-13.66-3.55,24.62-6.91,30.7-3.71c-1.52-7.25-11.47-18.55-19.74-18.72S74,84.32,74,90.73s.59,14.84-.84,15.18l-1.43.33a3.46,3.46,0,0,1-.89.06c-8.88,22.87-.89,47,.49,70.43,0,5-1.61,10-3,15.14l.32,0,11.13-6.4s-.68-8.27-5.06-11.81,8.43-4,9.78,10.46c7.08-5.57,7.25-9.11,7.25-9.11s-2.87-8.94-11-11.64-5.9-12.48-.68-6.91,12.82,18.89,12.82,18.89l6.58-6.07S95.88,157.51,88,153.13s-13-4.89-12-7.42,9.27-1.35,15.68,6.07a36.45,36.45,0,0,1,7.93,15l8.09-12.15S96.89,142,91.32,139.13s-2.19-7.41,4.22-3.54,12.31,11.46,12.82,16.52c4.55-5.06,6.4-12.31,4.21-14.67s-10.45-7.76-16.36-9.1S90.3,122.6,99.75,125.64Zm-24.87.77v-2.16c3.59-2.87,12.21-2.15,12.21,3.6A14.49,14.49,0,0,1,74.88,126.41Z"/><path class="cls-10" d="M69.65,188.34c-.17.59-.35,1.1-.51,1.54s-.32.81-.46,1.1l-.44.89s.16-.3.45-.88c.15-.29.29-.67.48-1.1s.36-.95.54-1.53a38,38,0,0,0,1.39-9.94,117,117,0,0,0-.63-14.2C70,159,69.29,153.54,68.61,148c-.33-2.75-.67-5.51-1-8.21s-.55-5.36-.62-8a69.38,69.38,0,0,1,.93-14,52.16,52.16,0,0,1,2.56-9.57c.31-.8.59-1.46.82-2a3,3,0,0,1-1.44-.21c-.2.49-.43,1-.67,1.71a53.73,53.73,0,0,0-2.48,9.85A71.46,71.46,0,0,0,66,131.92c.11,2.61.41,5.31.76,8s.72,5.46,1.11,8.2c.76,5.49,1.55,11,2.12,16.14a120,120,0,0,1,.87,14.15A38.22,38.22,0,0,1,69.65,188.34Z"/><path class="cls-10" d="M40.64,87.32s.27-.2.79-.55a20.67,20.67,0,0,1,2.39-1.36,16.94,16.94,0,0,1,4-1.4A9.43,9.43,0,0,1,58.4,88.47a34.2,34.2,0,0,1,1.69,3.17c.54,1.1,1,2.24,1.55,3.4,1,2.33,1.93,4.79,2.9,7.25a30.72,30.72,0,0,0,1.63,3.6c.63,1.12,1.5,2.21,2.71,2.31a3.41,3.41,0,0,0,.9,0,8.69,8.69,0,0,0,1-.21,6.46,6.46,0,0,0,.9-.32,7.77,7.77,0,0,0,.88-.41,12.89,12.89,0,0,0,3.09-2.35,17.64,17.64,0,0,0,4-6.47c.1-.29.21-.6.33-.89s.28-.6.43-.88a12.26,12.26,0,0,1,1-1.58,18.84,18.84,0,0,1,2.44-2.66,17.51,17.51,0,0,1,5.6-3.46,11.91,11.91,0,0,1,5.5-.69,11.14,11.14,0,0,1,4,1.34,13,13,0,0,1,2.25,1.57l.72.65-.75-.62a14.07,14.07,0,0,0-2.29-1.48,11,11,0,0,0-4-1.19,11.87,11.87,0,0,0-5.33.8,17,17,0,0,0-5.38,3.47,17.79,17.79,0,0,0-2.33,2.62,15,15,0,0,0-1,1.52,7.48,7.48,0,0,0-.39.81c-.12.29-.22.57-.32.87a18.15,18.15,0,0,1-4.09,6.74,13.2,13.2,0,0,1-3.24,2.49,9,9,0,0,1-.94.45,8.44,8.44,0,0,1-1,.35,7.94,7.94,0,0,1-1,.23,3.82,3.82,0,0,1-1.12.06,3.39,3.39,0,0,1-2-1,7.28,7.28,0,0,1-1.25-1.71,30.31,30.31,0,0,1-1.65-3.7c-1-2.48-1.86-4.92-2.85-7.24-.49-1.16-1-2.29-1.51-3.39A34.32,34.32,0,0,0,58,88.75a9.65,9.65,0,0,0-4.71-4.12,10.15,10.15,0,0,0-5.35-.36,16.72,16.72,0,0,0-4,1.27,25.13,25.13,0,0,0-2.43,1.26C40.92,87.13,40.64,87.32,40.64,87.32Z"/><path class="cls-10" d="M26.23,108.57A25.25,25.25,0,0,1,31,105.26,26.86,26.86,0,0,1,36.34,103a22.57,22.57,0,0,1,2.85-.62,20.15,20.15,0,0,1,2.91-.23,14.29,14.29,0,0,1,1.46,0c.49,0,1,.08,1.46.14a21.31,21.31,0,0,1,2.86.58c.47.14.94.3,1.4.45l1.37.53,1.32.63,1.28.72,2.5,1.45c.84.46,1.68.92,2.53,1.37s1.71.87,2.59,1.24,1.77.75,2.66,1.06a14.11,14.11,0,0,0,2.74.69,6.14,6.14,0,0,0,1.35,0,2.87,2.87,0,0,0,.61-.15,1.36,1.36,0,0,0,.24-.13c.06,0,.14-.14.13-.12l.33-.21,3.09,0c1,0,2.06,0,3.09.07l6.17.29,6.16.3c2,.13,4.1.19,6.16.29a99.59,99.59,0,0,1,12.31,1.07,25.77,25.77,0,0,1,6,1.67,10.08,10.08,0,0,1,2.62,1.65,5.33,5.33,0,0,1,1.64,2.58,5.31,5.31,0,0,0-1.71-2.5,10.23,10.23,0,0,0-2.63-1.55,25.75,25.75,0,0,0-5.94-1.5A102.39,102.39,0,0,0,93.58,112c-2.06-.05-4.12-.1-6.18-.23l-6.16-.26-6.15-.26c-1,0-2.06,0-3.08-.05l-3.08,0,.32-.21a1.43,1.43,0,0,1-.75.62,3.82,3.82,0,0,1-.79.2,7,7,0,0,1-1.53,0,15.28,15.28,0,0,1-2.87-.73c-.92-.33-1.83-.69-2.71-1.1s-1.74-.85-2.62-1.28-1.7-.92-2.55-1.4l-2.5-1.47-1.24-.7-1.28-.63-1.32-.54c-.45-.16-.9-.32-1.36-.46a20.26,20.26,0,0,0-2.78-.61,13.71,13.71,0,0,0-1.42-.16,13.68,13.68,0,0,0-1.43-.06,21,21,0,0,0-2.86.18,24.5,24.5,0,0,0-2.81.56,26.5,26.5,0,0,0-5.37,2.07c-.85.44-1.68.93-2.49,1.45A22.87,22.87,0,0,0,26.23,108.57Z"/><path class="cls-10" d="M24,150.37a41.29,41.29,0,0,1,3.8-5.49,62,62,0,0,1,4.48-5,60.37,60.37,0,0,1,5-4.46q2.61-2.1,5.42-3.93c.93-.62,1.89-1.2,2.85-1.77l1.45-.83,1.48-.79c1-.51,2-1,3-1.47s2-.9,3.06-1.34,2.05-.87,3.1-1.28l1.55-.62,1.57-.58c1.05-.4,2.11-.74,3.18-1.09a30.73,30.73,0,0,1,3.27-.87h.06c1,0,2.06,0,3.08,0s2.07,0,3.09.07l3.09.11c1,0,2.06.06,3.09.13l6.16.36c2,.13,4.1.19,6.16.29a101.89,101.89,0,0,1,12.31,1.06,26.3,26.3,0,0,1,6,1.68,9.78,9.78,0,0,1,2.62,1.64,5.31,5.31,0,0,1,1.63,2.58,5.27,5.27,0,0,0-1.7-2.5,9.92,9.92,0,0,0-2.63-1.54,25.75,25.75,0,0,0-5.94-1.5,102.53,102.53,0,0,0-12.27-.86c-2.06-.05-4.12-.1-6.18-.23l-6.15-.32c-1-.07-2.06-.08-3.08-.11l-3.08-.1c-1,0-2.06,0-3.08,0l-3.08,0h.05a31,31,0,0,0-3.18.83c-1,.34-2.11.67-3.15,1.06L59.4,124l-1.55.6q-1.56.6-3.09,1.26c-1,.44-2.06.85-3.06,1.32s-2,.94-3,1.43l-1.48.76-1.45.81c-1,.55-1.92,1.12-2.85,1.71-1.87,1.19-3.69,2.47-5.44,3.84s-3.42,2.83-5,4.36A61.65,61.65,0,0,0,27.89,145,44.1,44.1,0,0,0,24,150.37Z"/><path class="cls-10" d="M33.06,175.05c.59-.87,1.23-1.71,1.88-2.53s1.35-1.61,2-2.42,1.4-1.57,2.11-2.34,1.41-1.57,2.16-2.3l2.22-2.25c.73-.75,1.5-1.46,2.26-2.19L48,158.86c.76-.74,1.54-1.43,2.33-2.13l4.72-4.18c.79-.69,1.58-1.39,2.32-2.11s1.5-1.46,2.22-2.21l1.07-1.14,1-1.18c.68-.8,1.33-1.61,2-2.44s1.22-1.69,1.77-2.57a24,24,0,0,0,1.49-2.71L67,138l.2,0a35.35,35.35,0,0,1,5.63-.12,34.83,34.83,0,0,1,5.57.74,25.27,25.27,0,0,1,5.35,1.78,20.52,20.52,0,0,1,2.47,1.38c.78.49,1.56,1,2.32,1.56s1.5,1.12,2.22,1.72,1.43,1.21,2.12,1.83l1,1,1,1c.63.68,1.27,1.37,1.85,2.1.3.36.59.72.86,1.1s.56.75.82,1.14a27.73,27.73,0,0,1,1.46,2.39c.21.41.44.82.64,1.24l.57,1.28.49,1.31.39,1.33-.45-1.31-.54-1.29-.61-1.25c-.21-.41-.45-.8-.67-1.21-.48-.79-1-1.57-1.53-2.31-.27-.38-.56-.74-.84-1.1s-.58-.73-.88-1.07c-.6-.71-1.24-1.38-1.88-2.05l-1-1-1-.93c-.7-.61-1.4-1.21-2.13-1.77s-1.48-1.11-2.23-1.65-1.52-1-2.31-1.53a18.75,18.75,0,0,0-2.4-1.33,24.9,24.9,0,0,0-5.22-1.7,33.41,33.41,0,0,0-5.47-.7c-.92-.05-1.84-.06-2.76,0s-1.84.06-2.74.16l.28-.21a22.34,22.34,0,0,1-1.56,2.8c-.56.9-1.18,1.75-1.81,2.61s-1.31,1.66-2,2.46l-1.05,1.19-1.09,1.15c-.74.75-1.47,1.51-2.25,2.22s-1.56,1.43-2.36,2.11l-4.76,4.13c-.79.68-1.59,1.36-2.35,2.08L46,161.35c-.77.71-1.56,1.41-2.29,2.15l-2.26,2.2c-.76.72-1.48,1.49-2.21,2.24s-1.47,1.49-2.16,2.29-1.42,1.54-2.08,2.36S33.68,174.2,33.06,175.05Z"/><path class="cls-8" d="M106.23,114.28a1.48,1.48,0,0,0,.32.88S106.44,114.83,106.23,114.28Z"/><path class="cls-9" d="M159.54,87.53c6.9-.73,14.12,2.31,17,8.94C176,89,172.16,76.68,164,75.91c-5.69-.53-10.39-.18-14,6.1s-12.68,4.15-7.86.17c5.45-4.5,15.28-10.8,22.78-8-3.35-6.46-13.47-14.56-20.33-9.35-5.1,3.87,1,8.8-1.7,11.8s-9,9.45-10.76,4.58c-2.38-6.5,4.58-16.65,11.63-18.52C134.55,58.94,116,57.09,109.84,65c-3.26,4.21-4.82,10.37,2.75,12.51s16.07,6.32,15.63,7.25-.44.93-.44.93-1,2.4-6.26-1c-7.88-5.19-26-8-29.63,3-3.25,10,6.26,13.27,6.26,13.27s.21-5.24,6.25-8.42,15-.81,7.67,1.67-13.33,6-11.76,9.1c1.27,2.55,5.06,8.69,5.92,11-.11-1.09.3-3.32,3.07-8,4.38-7.38,13.09-11.22,12-7.46s-9.34,9-11.29,12.85,1.33,9.6,1.19,12.86c3.69-5.87,5.53-8.52,8.93-13.15s10.2-8.08,6.14-2.45-11.86,13.21-10.88,21a10.8,10.8,0,0,1,5,7.71s4.58-10.56,5.17-14.06,5.93-12.44,8.1-12.06-4,10-6.31,13.37c-3.3,4.8-4.76,12.83-5.4,19.22,4.61-7.78,10.1-23.15,16.88-24.79,3.44-.83-2.17,9.82-6.44,14.23s-5.85,7.91-9,16.27c6.84-7.71,7.21-9.16,12.51-14.52s5.67-10.17,8.23-10-2.28,9.23-7.73,15.67-8.54,15.14-7.87,17.12,7.8,6.19,7.8,6.19c4-2.24,6.09-3.46,10.14-6.13,0,0,4.6-9.72,3.37-13.53s9-5.23,0,12.24c7.49-6.26,9.32-11,9.32-11s1.75-11-2.82-13.12-2.76-12.63.26-7.51c3.59,6.08,4.05,14,3.07,21,2.74-3.08,4.06-4.67,6.55-8,0,0,.68-14.76-4.58-18.19s-8.78-2.48-8.65-5.21,6.34-4.26,11,3,3.24,17.17,3.24,17.17a81.73,81.73,0,0,0,7.11-16.7s-8.65-12.93-13.23-14.28-4.27-7.07,1.31-5A19.68,19.68,0,0,1,174.71,115c2.7-7.37,1.73-17.11-.66-19.24s-10.52-5.14-15-4.24S151.76,88.36,159.54,87.53Zm-33.11,12.75c-3.65-1.82.71-2.13,1.43-3.54.82-.67,1,.84,1.91,1C129.49,99.54,126.9,100.69,126.43,100.28Zm17.8,41.14c-3.76,3.15-4.63,7.3-7.8,12.2-1.42,2.1-3.34,1.12-2.8-.93a29.32,29.32,0,0,1,9.73-15.49c2.19-1.92,2.24-1.45,2.39-.86A5.66,5.66,0,0,1,144.23,141.42ZM144.72,98c-.42-.57-.84-1.15-1.29-1.71.43-3.7,6.33-6.95,9.68-1.74C151.27,97.43,148.17,98.3,144.72,98Z"/><path class="cls-8" d="M159.54,87.53c6.9-.73,14.12,2.31,17,8.94C176,89,172.16,76.68,164,75.91c-5.69-.53-10.39-.18-14,6.1s-12.68,4.15-7.86.17c5.45-4.5,15.28-10.8,22.78-8-3.35-6.46-13.47-14.56-20.33-9.35-5.1,3.87,1,8.8-1.7,11.8s-9,9.45-10.76,4.58c-2.38-6.5,4.58-16.65,11.63-18.52C134.55,58.94,116,57.09,109.84,65c-3.26,4.21-4.82,10.37,2.75,12.51s16.07,6.32,15.63,7.25-.44.93-.44.93a1.67,1.67,0,0,1-.41.48c16.93,18.83,26,36.32,19.28,61.85-2.16,5.44-6,10.89-10.48,16.22l.13.08c4-2.24,6.09-3.46,10.14-6.13,0,0,4.6-9.72,3.37-13.53s9-5.23,0,12.24c7.49-6.26,9.32-11,9.32-11s1.75-11-2.82-13.12-2.76-12.63.26-7.51c3.59,6.08,4.05,14,3.07,21,2.74-3.08,4.06-4.67,6.55-8,0,0,.68-14.76-4.58-18.19s-8.78-2.48-8.65-5.21,6.34-4.26,11,3,3.24,17.17,3.24,17.17a81.73,81.73,0,0,0,7.11-16.7s-8.65-12.93-13.23-14.28-4.27-7.07,1.31-5A19.68,19.68,0,0,1,174.71,115c2.7-7.37,1.73-17.11-.66-19.24s-10.52-5.14-15-4.24S151.76,88.36,159.54,87.53ZM144.72,98c-.42-.57-.84-1.15-1.29-1.71.43-3.7,6.33-6.95,9.68-1.74C151.27,97.43,148.17,98.3,144.72,98Z"/><path class="cls-10" d="M148.82,118.85a43,43,0,0,0-2.55-7.23c-.52-1.15-1.08-2.26-1.64-3.34-.29-.54-.58-1.07-.89-1.59s-.59-1-.89-1.56c-.62-1-1.23-2-1.86-3s-1.25-1.9-1.9-2.79c-1.27-1.79-2.52-3.46-3.73-5-2.4-3-4.54-5.46-6-7.15-.63-.73-1.14-1.32-1.5-1.75a1.24,1.24,0,0,1-.08.16,1.72,1.72,0,0,1-1.62.81l1.32,1.43c1.61,1.71,3.91,4.15,6.46,7.18,1.28,1.51,2.6,3.17,3.94,5,.68.88,1.32,1.83,2,2.77s1.3,2,1.95,3c.32.5.63,1,.93,1.55s.63,1,.93,1.58c.6,1.08,1.17,2.17,1.71,3.29a41.64,41.64,0,0,1,2.66,7.08,46.13,46.13,0,0,1-2.43,30.54,50.55,50.55,0,0,1-6.26,10.71c-1,1.24-1.76,2.16-2.32,2.76l-.87.92s.31-.31.87-.9,1.38-1.51,2.35-2.73a51.46,51.46,0,0,0,6.44-10.75A47.35,47.35,0,0,0,148.82,118.85Z"/><path class="cls-10" d="M95.71,96.44a4.43,4.43,0,0,1-.23-.57A8.74,8.74,0,0,1,95,94.23a7.55,7.55,0,0,1,0-2.66,5.29,5.29,0,0,1,2.2-3.4,13.63,13.63,0,0,1,6.54-2.23c.68,0,1.36-.14,2-.16s1.36,0,2,0c1.38,0,2.8.07,4.21.19a63.8,63.8,0,0,1,8.46,1.3c1.38.29,2.76.63,4.08.88s2.59.35,3.26-.12c1.28-1.2,1.27-3.26.46-5.17a13.6,13.6,0,0,0-4.63-5.39,19.11,19.11,0,0,1-1.61-1.26,18.17,18.17,0,0,1-1.4-1.31c-.43-.43-.77-.87-1.16-1.29s-.68-.84-1-1.25a10.77,10.77,0,0,1-2.13-4.65,4.23,4.23,0,0,1,1.3-3.56,6.9,6.9,0,0,1,1.7-1.13,8.42,8.42,0,0,1,1.88-.73c.65-.17,1.18-.35,1.74-.44l1.43-.19,1.19-.14-1.14.19-1.35.24c-.52.11-1,.31-1.62.49a7.08,7.08,0,0,0-1.73.77,5.62,5.62,0,0,0-1.49,1.14,4.25,4.25,0,0,0-1,3.45,11.08,11.08,0,0,0,2.24,4.47c.31.4.66.8,1,1.21s.73.81,1.15,1.22a21,21,0,0,0,2.81,2.38,14.66,14.66,0,0,1,5,5.8,7,7,0,0,1,.6,3.15,4.2,4.2,0,0,1-.34,1.47,3.63,3.63,0,0,1-.35.65,2.88,2.88,0,0,1-.59.62,3.64,3.64,0,0,1-2,.48,13.36,13.36,0,0,1-2.2-.27c-1.43-.3-2.81-.65-4.2-1A63.26,63.26,0,0,0,112,86.63c-1.38-.14-2.75-.19-4.11-.23-.68,0-1.36,0-2,0s-1.28.07-1.92.11a13,13,0,0,0-6.15,1.92,5.64,5.64,0,0,0-2.32,3.16,7.1,7.1,0,0,0-.22,2.62A9.75,9.75,0,0,0,95.71,96.44Z"/><path class="cls-10" d="M105.4,109.74a12.67,12.67,0,0,1,.06-1.73c.05-.58.15-1.16.25-1.76s.26-1.18.46-1.77a17.23,17.23,0,0,1,.66-1.77,15,15,0,0,1,1-1.74c.23-.33.35-.5.57-.84l.7-.81a12.69,12.69,0,0,1,1.58-1.52,22.38,22.38,0,0,1,1.91-1.34c.71-.39,1.47-.74,2.21-1.1,1-.34,1.46-.5,2.45-.82s1.49-.39,2.49-.64,1.46-.39,2.44-.63c.79-.23,1.61-.42,2.38-.66s1.55-.48,2.28-.75a11.42,11.42,0,0,0,2-.93,3.08,3.08,0,0,0,.74-.62,1,1,0,0,0,.19-.34c.05-.09,0-.28,0-.19,0-.19,0-.29,0-.48l1.73-1.5c.58-.49,1.14-1,1.75-1.47,1.46-1.14,2.2-1.7,3.66-2.83,2.93-2.25,4.41-3.36,7.37-5.57a44,44,0,0,1,8-5.05,14.88,14.88,0,0,1,5.06-1.32,9.64,9.64,0,0,1,3.12.32,9.11,9.11,0,0,1,3.34,1.77,8.63,8.63,0,0,0-3.28-1.59,8.87,8.87,0,0,0-2.95-.17,13.74,13.74,0,0,0-4.76,1.54,43.69,43.69,0,0,0-7.62,5.23c-1.18,1-2.37,1.91-3.63,2.82-1.47,1.11-2.2,1.67-3.66,2.79l-3.62,2.81c-1.19,1-2.31,2-3.49,2.93,0-.19,0-.29,0-.48a1,1,0,0,1,.12.87,1.59,1.59,0,0,1-.31.54,4.33,4.33,0,0,1-.92.74,12.87,12.87,0,0,1-2.21,1c-.77.26-1.56.51-2.37.72s-1.63.42-2.45.64c-1,.23-1.49.35-2.49.6s-1.5.35-2.49.6-1.43.43-2.37.73c-.72.32-1.46.64-2.16,1s-1.33.77-1.89,1.22a13.8,13.8,0,0,0-1.6,1.43l-.71.76-.59.8a16.21,16.21,0,0,0-1,1.66,18.54,18.54,0,0,0-.77,1.72c-.24.58-.4,1.17-.58,1.75A18.46,18.46,0,0,0,105.4,109.74Z"/><path class="cls-10" d="M120.21,130.54c.41-1.4.92-2.8,1.44-4.21.26-.7.52-1.41.8-2.11s.57-1.41.83-2.13.57-1.43.87-2.14.6-1.43.92-2.14.61-1.44,1-2.15.64-1.44,1-2.14.68-1.43,1-2.15.66-1.27,1.08-2.13c.37-.7.77-1.4,1.15-2.1s.79-1.39,1.17-2.09.78-1.39,1.19-2.09.79-1.4,1.19-2.09.83-1.38,1.25-2.07a19.92,19.92,0,0,1,1.41-2l0,0,0,0c1.23-.89,2.5-1.72,3.76-2.56s2.55-1.66,3.86-2.44c1.58-.94,2.37-1.4,3.95-2.32,1.32-.75,2.6-1.56,3.91-2.33a43.64,43.64,0,0,1,8.27-4.1,13.23,13.23,0,0,1,4.9-.7A8,8,0,0,1,168,83a7.6,7.6,0,0,1,2.73,2.22,6.94,6.94,0,0,0-2.71-2,7.21,7.21,0,0,0-2.67-.55,12.42,12.42,0,0,0-4.66,1,43.87,43.87,0,0,0-8,4.33c-2.52,1.66-5.22,3.13-7.8,4.69-1.3.78-2.55,1.62-3.83,2.43l-3.75,2.52,0,0A19.9,19.9,0,0,0,136,99.42c-.43.67-.87,1.33-1.28,2s-.84,1.36-1.24,2l-1.23,2c-.4.7-.84,1.36-1.21,2.06s-.81,1.36-1.2,2c-.44.84-.67,1.26-1.14,2.08s-.71,1.4-1.08,2.09-.68,1.41-1,2.1-.66,1.41-1,2.1-.63,1.42-1,2.11-.62,1.4-1,2.1-.62,1.39-.9,2.09-.59,1.39-.88,2.08C121.27,127.78,120.68,129.15,120.21,130.54Z"/><path class="cls-10" d="M125.18,146.67c.53-.69,1.07-1.36,1.6-2s1.09-1.33,1.62-2,1.07-1.34,1.6-2,1-1.37,1.57-2c1.06-1.35,2.06-2.76,3.09-4.14s2-2.85,2.94-4.27c1.15-1.72,1.71-2.6,2.77-4.41.44-.75.88-1.51,1.27-2.29s.76-1.58,1.1-2.39a30.56,30.56,0,0,0,1.64-5.12,27.09,27.09,0,0,0,.43-2.7,15.56,15.56,0,0,0,.09-2.72c0-.13,0-.2,0-.33l.19-.13a18.53,18.53,0,0,1,3.6-1.84,16.53,16.53,0,0,1,3.86-1,15.11,15.11,0,0,1,2-.11,11,11,0,0,1,2.05.28,6.32,6.32,0,0,1,1,.29,9.63,9.63,0,0,1,1,.4,21.11,21.11,0,0,1,1.94,1,19.63,19.63,0,0,1,6.61,6.7,17.51,17.51,0,0,1,1.2,2.37,21.64,21.64,0,0,1,.92,2.68,24.55,24.55,0,0,1,.59,3c.07.63.1,1,.15,1.59s0,1,0,1.67c0-.65-.06-1-.11-1.61s-.11-.92-.2-1.52a23,23,0,0,0-.68-2.83,19.69,19.69,0,0,0-1-2.52,21.24,21.24,0,0,0-1.22-2.22,20.07,20.07,0,0,0-8.39-7.23,8.48,8.48,0,0,0-.95-.37,5,5,0,0,0-1-.28,9.84,9.84,0,0,0-1.93-.26,12.42,12.42,0,0,0-1.93.1,16,16,0,0,0-3.71,1,20.47,20.47,0,0,0-3.47,1.74c.08-.19.12-.28.19-.46a17.43,17.43,0,0,1-.14,2.92,25.59,25.59,0,0,1-.5,2.8,30.43,30.43,0,0,1-1.76,5.24c-.37.83-.75,1.65-1.17,2.44s-.87,1.56-1.32,2.3c-1.11,1.79-1.68,2.66-2.88,4.36-1,1.39-2,2.82-3,4.18s-2.09,2.73-3.18,4c-.54.64-1.08,1.31-1.62,2s-1.11,1.28-1.65,1.94-1.12,1.28-1.67,1.94S125.73,146,125.18,146.67Z"/></g></g></g></svg>