<svg xmlns="http://www.w3.org/2000/svg" viewBox="0 0 617.57 463.93"><defs><style>.cls-1{fill:#247455;}</style></defs><title>Asset 9</title><g id="Layer_2" data-name="Layer 2"><g id="Layer_1-2" data-name="Layer 1"><path class="cls-1" d="M450.29,188.1l-1,.67-.17,2.69-2,1.52a7.84,7.84,0,0,0,0,2.86,33,33,0,0,1,.84,4.38v2.69l.17,12.29.67,4.54-1.68,8.08s-.34,1,.33,1.18,1,1.35,1.35.17a7.08,7.08,0,0,0,.34-1.68l.33-1.18,2.53,1.18.34,1.18s.33.84,1,.33l.67-.5a2.15,2.15,0,0,0,.34-1c0-.51.67.17,0-.51a10.81,10.81,0,0,0-1.69-1.18c-.67-.5-2-1.68-2-1.68a28.09,28.09,0,0,1-.5-3,24.18,24.18,0,0,1,.33-3.37,13,13,0,0,0,.34-2.35,6,6,0,0,1,1-1.85,1.29,1.29,0,0,1,.84-.34c.51,0,3,2.19,3,2.19l1.18-.17-.67-3.87-1.85-5.05-2.87-7.41,2.36-3.2-1.35-3S451,191,451,190.45A14.23,14.23,0,0,0,450.29,188.1Z"/><path class="cls-1" d="M446.75,232.87l-.5,1.35v2l-.17,4.38-1.35,2.18-3,.17-1.51,1.85L439,246.68l.5,2,.34,1.68,1.85-.51h.67s1,.68,1,0,.17-1.85-.33-1.85-1.85.34-1.85-.33a7,7,0,0,1,.33-1.69l1.18-.33,1.35.33,3,.17,3.36,2.53a1,1,0,0,0,1.18.16c.68-.33,2.19-2.86,2.19-2.86s1-1.51,2-1.51,3.2.67,3.54,0,1.17-2.7,1.17-2.7l1-.5,3-2.19v-1.68l-3.19,2s-.85-1.35-2-.51a6,6,0,0,1-2,1l-4.89-1.68-3.87-3.2-.67-2Z"/><path class="cls-1" d="M443.72,252.57l-2.86,1-2.19,1.68-.17,2.36.84,2.19-.16,2-2,1.85v1.68s1.51-.17,0,1.18.33-.51-1.52,1.35l-1.85,1.85-2,1.51s2.52.51-.67.84l-3.2.34v-2.86l-1.69,1.51-.5,2.87-.34,1.68-.84.67-.67.68v2.18h-2l-1.18-1.34-1.35-.34-2.19.67s.34,1-.33,1h-2.86l-2-.33-3.54,1.68a7.74,7.74,0,0,0-1.51,1.68,1.93,1.93,0,0,1-1.35,1.18,4.25,4.25,0,0,0-1.18.51v.84l2.36.5s1.18-.5,1.85-.84,1.85-.84,1.85-.84l1.52-.67,3.7-.34,2.19-.67h1.34l1.35,1,.34,2,.5.84s-.33.84,1.52.17a8.93,8.93,0,0,1,2.52-.68l1.69-1.68-.34-1.18.17-.84,1.68-.17.84.84h2.19l2.53-.5v-1.52h4s.33,2.7,2.18-.5a11.83,11.83,0,0,0,1.69-6.06s1.51-1.68,1.51-2.69a10.61,10.61,0,0,0-.17-1.86l.17-3.36,1.69-.84,1.51-1.69.34-1.51-1.85-5.05v-2.19l-.34-1.85Z"/><path class="cls-1" d="M402.65,286.57l-2.86,1-.85,3,2.19.51v-1.35h1l.68,1.18-.68,3L402,296.5l2,.51,1.69-1.18a12,12,0,0,1,.67-2.69c.34-.51,1.68-2.19,1.68-2.19a.94.94,0,0,0,0-1,4.38,4.38,0,0,0-1.51-1l-.17-1.18-1.85-.34A2.11,2.11,0,0,1,402.65,286.57Z"/><path class="cls-1" d="M409.72,285.73l.17,1.18v1.51c0,.51-.34,1.18.33,1.35a5.2,5.2,0,0,0,1.35.34h.5c.68-1.18.68-1.69,1.35-1.86s-1.18-.16.67-.16a24.72,24.72,0,0,1,3,.16,1.59,1.59,0,0,0,1-1,8.07,8.07,0,0,0,.34-2.35l-1.35-1.52h-2l-.67,1-1.18.68h-1.18Z"/><path class="cls-1" d="M368.54,322.45,366,323.71l-2.72,1.85a13,13,0,0,0-1.58,2.88c0,.57.14,3.84.14,3.84l1,2.28s1.25,1,1.71.34a37.32,37.32,0,0,0,2.17-3.08c.46-.92,1.26-4.57,1.48-5.14a12.36,12.36,0,0,0,.46-2.86A12.49,12.49,0,0,0,368.54,322.45Z"/><path class="cls-1" d="M324.12,345.18l-3.2-.12-4.11,2.17v1.71s.23,2.4.92,2.4a28.59,28.59,0,0,0,3.19-.57s1.6-.23,1.94-.68a20.79,20.79,0,0,0,1.15-2.17l1.71-2.29Z"/><path class="cls-1" d="M363.86,350.2l-1.72.8.8,3.2.46,4.56s-.34,1.72-.69,1.6a11.67,11.67,0,0,1-1.48-.91l-1.26.11-.11,2.06,1.94,3.08,1,.12s-.23,1.48-.23,1.94a11.15,11.15,0,0,0,.34,1.71l1.14.46s2.4.57,2.74.34a16.29,16.29,0,0,0,1.26-3.2l-.91-2.05-.57-1.83a6.66,6.66,0,0,1,1.14-2.17c.57-.46,1.6-1.37,1.6-1.37l.8-1.83-.46-4.56-1.6-1Z"/><path class="cls-1" d="M357.58,379.55l-.92,2.16-6.39,8.68,1.25-.57,3.32-3.08,2.62-2.63,1.37-1.14s.46-1.94.23-2.28A8.31,8.31,0,0,0,357.58,379.55Z"/><path class="cls-1" d="M576.23,83.84l1.41,1.4,1.81-.2a19.31,19.31,0,0,1,2.82.2c1,.21,6.44.41,6.44.41l2.82-1.41s.4-2.22-.4-2.42-5.24-.8-5.24-.8h-3.42Z"/><path class="cls-1" d="M448.12,63.31l-2.42.2-4,2.41a4.52,4.52,0,0,0,2.62,1.61,42.37,42.37,0,0,0,6.64,1.21c.6,0,2.82-.4,2.82-.4v-2Z"/><path class="cls-1" d="M465.59,49.56l-1.94,2.62.57,1.14s8.22,3.31,8.68,3.31,7.19-.34,7.19-.34,3.77-.57,3.77-.91-.11-1.26-.11-1.26a16.39,16.39,0,0,0-2.29-.57c-.45,0-2.17-.8-2.85-.8a22.81,22.81,0,0,0-3,.57l-1.6-.57a6.6,6.6,0,0,0-2.17-.57h-2.74l-1.48-.57Z"/><path class="cls-1" d="M458.51,49.56l.23.91-.91,1.37v1.71l-.12,1.37-3.42.12-2.74-1.72a8.21,8.21,0,0,1-.8-1.94c0-.45-.12-1.37-.12-1.37h-2.51v.57l.8,1.49.92,2.4-2.17.68L445,54.92l-2.17.23a5.64,5.64,0,0,1-.91,1.37,10.73,10.73,0,0,1-2.52.23l.12-2.06-1.94-.11-2.17,1.26h-2.86a6.34,6.34,0,0,0-.8-1.49,29.82,29.82,0,0,0-3-2.4V50.13l2.85-3,1.94-1.94,2.51-.35,2.86.8a18.89,18.89,0,0,0,1.83,2.63A6.51,6.51,0,0,0,443,49.44l.69-.23.23-2.39.8-.8,1.71-.12,2.17.46,4.8,1.14,4-.11Z"/><path class="cls-1" d="M285.53,22.72l-.92.57v2.06l-1.37,2.28L281,29.23l.34.91,5.82.12L290.44,29l9.24-.68,5.49-2.4.34-2.17-.8-1.14h-1.83l-2.05-.8-1.72-1.49L298,20.1l-1.14.34L295,22.15l-1.48,1s-.23-.11-.23-.57a2.56,2.56,0,0,1,.34-1.6c.35-.34,1.14-1.37,1.14-1.37l1-1.26-1.6-1.14h-1l-.46,1.26-1.14.34h-1.49l-1.37.46-.11,1.37L288,22.38Z"/><path class="cls-1" d="M260.86,16.9l1.6.46h1.37l2.51,2.28,1.49.91,2.4-.11,4.79,1L278.56,23l2.06-1s1.14-1.14,1.14-1.48-.12-1.37-.12-1.37l.23-1.71,1.26-1.49a2.39,2.39,0,0,0,.45-1.48,4.7,4.7,0,0,0-1.14-1.72l-2.39-1.14-1.15-.11-.68.46a3.85,3.85,0,0,1-.23,1.25c-.23.57-.57,1.71-.57,1.71s-.12.46-.57-.11-1.37-1.48-1.37-1.48L274.56,12l-2.28-1a9.34,9.34,0,0,0-1.6.46,24.66,24.66,0,0,1-3,.68l-2.17.35-.91.68-.8.91-.11.58L261,16Z"/><path class="cls-1" d="M259.26,15.3s-2.39.46-2.51,0a7.44,7.44,0,0,0-.8-1.48L254.47,12l1.14-.8,1.37.34,1-.23.57-.45-.69-.92-.68-.68-.57-.8.68-.34L258.81,8l1.94-.57v-1l-.57-1L258.81,5l.45-1.37.69-.34,5-.57,1.26-.46L267.94.46,269.31,0l.34,1.37A5.73,5.73,0,0,0,270,3l.91,1.37,2.63.11,1.37.12.34,1.37-1.37.11H273l-.23.69v.45a6.37,6.37,0,0,1,.45,1.37v.69l-2.51,1h-3.19l-2.06.34-1.14.8-1.49.68-1.48.57Z"/><path class="cls-1" d="M121.79,86.78a18.46,18.46,0,0,1-3.43-.11,33.09,33.09,0,0,0-6.16-1.38c-1.49,0-3,.92-3.2,0a19,19,0,0,1-.8-2.39V81.07l-3.43-1.26-.68.35a8,8,0,0,1,.23,1.37v1.14a1.33,1.33,0,0,1-1,0c-.57-.23-1.94.23-1.48-.91l.45-1.15.46-1.37-.57-.57H98.49A2.8,2.8,0,0,1,98,77.53V76.05l.45-.46,1.72-.34,1.94-.12.57-.34.91-1.26,1.49-.68.45-.91-.68-1V69.77l2-1v-.8L108.2,67l1.94-.12s1.71-2.62,1.83-3,.34-1.25.34-1.25-.69-.23-.46-.57l.69-1,2.4-.23,2-2.4.91-2.4s.92.12.92-.34a11.87,11.87,0,0,0,.23-1.83,12.76,12.76,0,0,0-.92-1.48V50.93l1.72-.35.8.8,1,.23a1.48,1.48,0,0,0,.92-.34c.34-.34,1.82-1.37,2.28-1.83s1.6-1.37,1.6-1.37l3.65-1.6,3.09-.23,3.54-1,2.51-2.17s1,.11,1.48.11a3.23,3.23,0,0,1,1.26.57l3.08.46,3.65-.57,2.4-1,1.83-.46,2.4-.68,4.22-2.17a3.83,3.83,0,0,1,2.4-.46c1.26.23,4.68.57,4.68.57l.8,1.49s0,.8-.34,1-1.83,1.59-2.29,1.82a60.69,60.69,0,0,1-5.93,1.6c-.8.11-9.37,2.74-9.59,3.08s-10.17,2.52-13.25,5S132,56.29,132,56.29l-3.2.12s-1.82.91-1.82,1.25a9.66,9.66,0,0,1-.58,1.72l-.91,1.82s.34-.11-1,.46l-1.37.57-.57,1-1,1.71-1.71.34A5.78,5.78,0,0,1,119.5,67a8.65,8.65,0,0,1-.91,1.25s-1.37.92-1.37,1.26a3.66,3.66,0,0,1,0,1.6c-.23.68-.23,1-1.26,1.37a15,15,0,0,0-1.71.68l-.23.69.12,2.85s5.14,7.77,6.73,7.77S121.79,86.78,121.79,86.78Z"/><path class="cls-1" d="M93.7,95.91,92,94.77l-2.06-.45L88,94.43,86.85,95.8l-.8,1.94L88,99.34H90.5a14,14,0,0,0,2.4-1.14C93.47,97.74,93.7,95.91,93.7,95.91Z"/><path class="cls-1" d="M210.52,386l-.74,3.54s-.48,4.75-.48,5.12,0,5.36.48,5.61.49,1,2.44.61,3.54-1.59,3.78-2.32,1-3.05.74-3.41-1-1.83-1.59-2.93l-3.05-5.49Z"/><path class="cls-1" d="M264.54,401.51l1.46,2.8s6.1,4.39,6.22,4.88,1.83,4.27,1.83,4.27l2.32,1.46,1.22,1.59s.48,2.68.61,3.29,0,1.71.61,2.32,1.82,1.58,1.82,1.58l4.15,2.32,2,4.39v2.19s4.27,5.12,5.25,6,7.68,6.34,7.68,6.34l3.66.73,2.07-.12V440a25.43,25.43,0,0,1,1.22-3.66s1.95-.12,1.95-.85.61-1.71,0-2.32a19.07,19.07,0,0,1-1.59-1.95,25.22,25.22,0,0,0-2.31-2.07l-1,.61v.73l1.1.85.73.25.61,1.09s.37.37.24.74-1.09,1.09-1.09,1.09h-1.22L303,432.6l-1.1-1-.49-.25-.85-.36-.49-.25-.85-1.34L297.71,428l-2.32-.73v-1.59l.37-1.34.36-1-1-1.47-3.3-2.8-5-3.91-2.92-.36a11.84,11.84,0,0,1-1.34-1.59c-.49-.73-1.83-2.44-1.83-2.44l-2.93-1.95a8.69,8.69,0,0,1-1.71-1.83l-1.1-2.8-1.21-1h-4.88l-3.3-1.7Z"/><path class="cls-1" d="M319.17,415.53l-1.34,2s-1.47,1.22-1.47,1.71a22.78,22.78,0,0,0,.61,2.68l1.59,1.71,1,2.8,3.54,1.95s.25,5.13,1,5.61,2.92,1.59,2.92,1.59h2.32s-.37,1.22.24,1.22,2.93.24,2.93.24l4.15-1.34,3.78,3.17s4.75-.61,4.75-1a19.74,19.74,0,0,1,.37-3.54c.24-.61,1.22-4.15,1.22-4.15l2.07-1.7,1.1-3.17v-2.81a50.45,50.45,0,0,1,4.88-2c.48,0,2.07.73,1.83-.37a18.32,18.32,0,0,0-.74-2.31l-2.43-.61s-2.32-1.71-2.32-2.2.24-2.31.24-2.31L350,410.9l1-1.47.48-1,1-1.47s1.83-2.19,2.32-2.31,1.46-.25,1.83-.73a11.67,11.67,0,0,0,.85-2.32l-6-1.22-1.22-2.07-2.19-.74-2.68,1a5,5,0,0,0-.49,1.46c0,.49-.12,1.47-.12,1.47l-1.59,1.09s-.36,2.32-.36,2.69v1.95l-2.44.36-2.2-1.46h-2.07l-2.07,1.46v3.3l-1,1.22-3.66-.25-2.19-.24-.86,1.71v2.31c0,.49-.24,2.32-.24,2.32a14.5,14.5,0,0,1-2.8-.49c-.37-.24-1.71-1.22-1.71-1.22l-1.22-.73Z"/><path class="cls-1" d="M370.25,367.25l-1.6,2,2.21.15,1.75.23L375.2,372l.15,3.5,1.45,1.68s.38-1.37.91-.46l.53.91.08.69-1.52.91.68,1.83,1,.76,1.37,1.83.61-.23.3-1.68,1.07-1.44,1-.84-.15-1.83s-1.07-1.9-1.22-2.2a5.49,5.49,0,0,0-1.14-1l-2.74-.84-.84-1.6-.46-1.83-1.44-1.21-1.22-1.37Z"/><path class="cls-1" d="M369,376.61l-.68.61.23,2.59s0,2.29.45,2.36a15.57,15.57,0,0,0,1.68.08l.23-1.14,1.06.07.84,1.68a4.54,4.54,0,0,1,0,1,20.62,20.62,0,0,1-1.3,1.67v3.12s.61.31,1,.08,1.83-1.22,1.91-1.68,2.2-4.49,2.2-4.49l-.68-1-1.14-.3a3.3,3.3,0,0,1-.76-1c-.31-.61-.46-1.45-.92-1.83s-1.37-1.06-1.37-1.06Z"/><path class="cls-1" d="M376.34,390.62l-1.67-.76-2.06.23v.84l-.76,1.14-3.27,1.75-.39,1.67,1.15.54a5.64,5.64,0,0,1,1.37-1,11,11,0,0,0,2.66-.92,7.31,7.31,0,0,1,1.3-1.06,3.31,3.31,0,0,1,1.21.3c.31.23,1.07.61,1.07,1.07v2.89s-.76,1.22.15,1.6,3.43,2.05,4,2.28,1.07.69,1.29.53a1.24,1.24,0,0,0,.54-.91,8.74,8.74,0,0,0-.31-1.44s-.91-.31-1-.77-.53-1.37-.15-1.9.53-1.22,1.37-1.14,1.52.38,1.9.15,1.91-.61,1.91-1.14.61-1.9.3-2.44-1.52-1.6-1.52-1.9-.15-2.36-.15-2.89a4.05,4.05,0,0,0-.54-1.91,9.18,9.18,0,0,0-2-.07l-1.06,1.06,1,1V388a10.45,10.45,0,0,0-1.68.31c-.3.15-.76.23-.91.53a3.91,3.91,0,0,1-.46,1c-.23.23-.61.53-.61.53h-1.44l-.61.31Z"/><path class="cls-1" d="M362.56,371.13s.38,1,.53,1.53.31,1.44.54,1.52a8.15,8.15,0,0,1,.91.46l1.68-.23a7.84,7.84,0,0,0,.38-1.22c0-.23-1.53-1.14-1.53-1.14l-1.9-1Z"/><path class="cls-1" d="M308.29,447.1l-1.6.76-.46.69-1.9,1.52,1.44,1h.46l1.07-.38s.91.08,1.14.46-.15,1.06.53,1.29,2.29.54,2.29.54,2.43.6,2.74.6a23.48,23.48,0,0,0,2.43-.15c.23-.07,1.83-.76,1.83-.76l1.6.38,3.8,1.37a18.23,18.23,0,0,0,3,1.52c.61.08,3.27.23,3.88.23a29.26,29.26,0,0,1,4.49,0,16.66,16.66,0,0,0,2.21.84,20.93,20.93,0,0,0,2.43-.15c.31,0,3,.23,3,.23s.61-1.6.38-1.68-.91-.15-1.52-.3a10.56,10.56,0,0,0-2.13-.08l-.38-.38a1.89,1.89,0,0,0-1.14-.53h-5.33c-.23,0-.91-.16-.91-.61s-.23-.92.68-1.14a27.22,27.22,0,0,0,2.89-.69c.46-.23,1.68-.68,1.68-1s.07-.53-.15-.61l-1.15-.38s-1.82,0-1.82.38.07.38-.23.54-3.2.91-3.2.91-1.14.23-1.52,0-1.9-.91-2.28-1.07-2.74-.61-2.74-.61-1.83.16-2.06.23a4,4,0,0,1-1.45.08c-.61-.08-3-.38-3.5-.84a26.76,26.76,0,0,0-2.74-1.83,2.9,2.9,0,0,0-2.28-1.06A13.24,13.24,0,0,0,308.29,447.1Z"/><path class="cls-1" d="M346.5,456l-1.52.61.07,1.06,1.83,1.37,2.28.46a6.5,6.5,0,0,1,1.37-.61,7,7,0,0,1,2.44-.68c1.29,0,1.75.15,2.44.15s1.59-.38,1.59-.61-.07-1-.38-1.06a6.43,6.43,0,0,1-1.52-.61,15.31,15.31,0,0,0-2.43-.84l-1.22.07-.84.84-1.14.61-1.75-.53Z"/><path class="cls-1" d="M364.39,456h-1.9l-1,.3-1.53.92s-.38.84,0,1,3.43.3,4,.45,6.55.16,6.55.16a7.22,7.22,0,0,1,1.37-1.22c.3-.08,3-.53,3.58-.53a7,7,0,0,0,1.82-.61l-.91-.92-4,.08s-1.67.23-1.75.46a8.22,8.22,0,0,1-1.45,1.06,4.88,4.88,0,0,1-1.59.08c-.38-.15-1.76-.61-1.76-.61Z"/><path class="cls-1" d="M367.59,419.24l-2.36-.45-1.15.3-1.67,1.29-1.45.92-1.67,4-.38,2.51-1.22,2.89-.53,1.22-1.6,2.44-.38,1.59,1.75,1.6,1.83.08.53.46.15,3.19-.38,2.82s-.08,1-.08,1.22,0,.91.23.91.46.23.76.08.38-.84.69-1.07,1.52-1.52,1.44-1.9a6,6,0,0,0-.53-1.68c-.23-.3-.61-.38-.45-1a21.27,21.27,0,0,0,.15-2.89v-2.51l2.05-.61,1.07.46.38.76-1.07.91s-.3,0-.07.38.61,1.14.91,1.22a11.6,11.6,0,0,1,1.14.46l.38.68s-.3,1.83.08,2a2,2,0,0,0,.84.23c.3,0,2.36-.31,2.36-.31s1-.53,1-.83.45-1.14,0-1.6-.92-.76-.92-1.14.23-2.21.23-2.52a8.82,8.82,0,0,0-1.29-1.75l-1.53-1.21-.07-1.75.91-.31,1-.15a15.87,15.87,0,0,1,2.21-1.37,3.53,3.53,0,0,0,1.6-.76c.3-.38.76-1.07.76-1.07l.15-.61-1.06-.23h-2l-1.6.23a9.34,9.34,0,0,0-1.07.46,13.34,13.34,0,0,1-1.6.53,6,6,0,0,1,0,1.22,6.25,6.25,0,0,1-.45,1l-.31.15-2.05-.38s0,.15-.46-.15a8.09,8.09,0,0,1-1.83-1.68v-.83a6.46,6.46,0,0,1,0-2.13,23.62,23.62,0,0,1,2.59-2.44l3.43-.91a22.26,22.26,0,0,1,3.35,0c1,.15,3.65.68,3.65.68l2.89.15a15.83,15.83,0,0,0,1.83-1.21,20.84,20.84,0,0,0,1.45-2.44,4,4,0,0,0-.31-.91l-1.22-.16-.53,1.22-1.22,1.37a3,3,0,0,1-.91.31c-.31,0-2.13-.31-2.74-.31s-2.74-.23-2.74-.23l-2.13-.68Z"/><path class="cls-1" d="M442.72,458.29V434.7l-1.83-.46-4.95-2.36-6-1.6-2.66,1.52-1.07,1.07-1.9.76-2.06,1.83s-.76.83-1.14.91a7,7,0,0,1-1.68.38,34.32,34.32,0,0,1-2.66-3.58l-1.07-4.64-.83-2.59-3.2-.91-3.88-.08-1.22,1-.68,1.07-2.06.45-.23,1s-.3.46.08.54l2.51.45.84.84a10.82,10.82,0,0,0,.68,1.45c.23.3-.53.68.84.83s5.78-.07,5.78-.07l1,1.14s.77.53.08.61-2.05.08-2.66.08-2.36-.16-2.67-.16h-1.52s-.61.69-.53.92a9.18,9.18,0,0,0,1.75,1.06l.53.69a7.38,7.38,0,0,0,.38,2,11.94,11.94,0,0,0,1.6.83h.46a8.08,8.08,0,0,0,.76-1.06,2.28,2.28,0,0,1,.45-.61,11.46,11.46,0,0,1,2.82,1.22,8.37,8.37,0,0,0,2.51,2.05,14.63,14.63,0,0,0,2.44.38c1.06.08,4.87.61,5.1.61s3.8,2.44,4.26,2.67,2.44.91,2.44,1.67-.69.91,0,1.52a10.38,10.38,0,0,1,1.52,1.37,2.53,2.53,0,0,1,.3.76v2a2.69,2.69,0,0,1-1.21.54l-1.75.45-1.76,1.3-.22.91.3.46a10.68,10.68,0,0,0,2.13.45c.69,0,6.4-.83,6.62-.76a5,5,0,0,1,1,.92,8.6,8.6,0,0,1,1,1.82Z"/><path class="cls-1" d="M380.15,459.44l-2.29.3-.91.15-.84-.23-1.29,1.07.15,2.66a.55.55,0,0,0,.61.54,7,7,0,0,0,2-.69,12.65,12.65,0,0,0,2.43-1.67c.16-.38.16-1.22.31-1.45S380.15,459.44,380.15,459.44Z"/><path class="cls-1" d="M402.22,439.49a3.3,3.3,0,0,1-1.52-.84c-.53-.6-1.07-1.29-1.37-1.29s-2.89-.15-2.89-.15l-2.44.45-2.06-.68v-.91l1.45-.84,3.81-.46a16.73,16.73,0,0,1,3.19.15,8.43,8.43,0,0,1,1.45,1,9.35,9.35,0,0,1,.46,1.22Z"/><path class="cls-1" d="M388.67,438.58h-1.22s-1.9.07-2-.23a8.35,8.35,0,0,0-.45-1.07l-.84-1.29,1.07-.61h1.21a6.88,6.88,0,0,0,.77.76,14.1,14.1,0,0,0,2,.46l.16,1Z"/><path class="cls-1" d="M391.74,415.87h-.82l-.38.45-.2,1.08-1,1.71.19,1.78.13,2.29,1.2,1.21.89,1,1-.07.19-.63-.95-1s-.19-.57.06-.69a6.66,6.66,0,0,1,1.34-.58c.38-.06,1.46-1.2,1.46-1.2l-.13-2-.83-.76-1.27-.19-.76-1.21Z"/><path class="cls-1" d="M404.73,237.62l.46-2.29,1.37-1.83,2.06.23,3.42.46,1.6-3.43,4.34-5.7.46-4.12-.69-2.51H415l-3.43,2.29-3.19.91-4.34-1.6L402,214.78l-4.34-1.14s-5.93-2.29-6.62-3.2-.68-3.43-1.14-4.34-2.06-6.17-3.2-8.22-4.56-3.88-4.56-3.88l-10.28-3-6.62,1.14-1.83,3,1.14,2.05-.23,2.52-3.65,4.11-1.14,5L355,211.12l-5.48.46-1.42-.77-.07.09-.22,2.62-1.37,2.29L345,220.15l3.19,1.37,3.2.11,2.17-1.83,2.28.12,2.29,1.82,2.17,1.94L361,226l-1.6,1.14-5.48.57-6.16.34-1.72,1.6s-1.25,3-1.48,3.31-1.94,0-1.94,0h-4.23L337,235.1l-2,1-1.83.23-1.48-.91-2.63.34-1.14,1.6s.8,1.25,1.14,1.71a4.47,4.47,0,0,1,.34,1.83,16.08,16.08,0,0,1-1.94,1.82,7,7,0,0,1-2.17.46L323.09,246,320.35,248s-2.4,0-3.31-.12a1.66,1.66,0,0,1-1.26-.8l-2.51-.23-5.59.69-4.34,3.77h-2.17l-1.94-1.49-3.31-.23-2.17-.79h-2.63l-3-1.83-5.71-.8s-12,.23-12.9.11-2.85-6.62-2.85-6.62L265,238.53l-3.08-1.6-1.14-2.28a9.6,9.6,0,0,0-2.06-.8c-.45,0-4.34-.12-4.34-.12a18.91,18.91,0,0,1-3.08-.34c-.57-.23-1.71-.8-1.71-.8a5.76,5.76,0,0,1-.8-1.48c0-.35.91-1.49.91-1.49l.8-.91,1-2.17v-1.26l-1.94-.91-.69-.8-1.14-3-5.37-1.6-2.85-2.17v-1.59l.34-1.6-2.28-.46-1.83,1.94-.8,2.51-3.42.8-.69,5.14-.45,1.37-1.15.91-3.42-.34-1.26-1-2.17-.45-.11,1.37s-1.37,3.42-1.49,3.88a12.8,12.8,0,0,0-.34,2.17,6.17,6.17,0,0,0,.91,1.94,6.35,6.35,0,0,1-1.25,1.14,10.16,10.16,0,0,1-2.06-.11l-1.94-.8h-3.42l-1,1.14a10.26,10.26,0,0,0-.23,1.49c0,.45.23,1.82.23,2.28a6.68,6.68,0,0,0,.91,1.83l.57,2.17a4.08,4.08,0,0,0-.11.79c0,.35-.46.69-.91,1.15a7.79,7.79,0,0,0-.92,1.14.9.9,0,0,0-.11.91l.68.69-.34,1.14-.8.91s-4.34,1.37-4.68,1.49a5.48,5.48,0,0,0-1.14.91l-.8,1.71-2.17.57-3.08-.45s-2.06,2.28-2.4,2.62a1.42,1.42,0,0,1-.91.35l-1.15-.23-.68-.69-2.17.69-2.17,1.14-1.83.57-.23,2.51.46,3.08,1.6.69,1.71.69a11.37,11.37,0,0,0,.57,2,31.22,31.22,0,0,1,.35,4.34l.79.68,2.06,1.49.69,2.17,1.94,1.71,1.82.91,2.29-.22,1.37,1,1.25-1.25,1-1,1-.23,1.14.34,3.43,1.49.45,1.48a16.74,16.74,0,0,1-1.37,3.09c-.34.22-1.6,1.37-1.6,1.37l-1.25.34-1.6.91.46,1.26,1.82,1.71.57,1.71-1.25,1-1.14-.46-1.49.8.69,3.09,1.71,3.08,3.54,1.37,2.05,2.74h1.83c.46,0,.91-1,.91-1h2l1.14,1,8.1,6.74,4.91,2.51,3.2.11,3.31.8a7.74,7.74,0,0,0,1.26-.68,1.07,1.07,0,0,0,.46-.8l2.17.23V312l1,2.05,1.49-1,1-2.74,1.48-.69,3.2,1.37,2.51-.11,1.25,1.14,2.29-.23,2.74-2.63,1.25-2,2.63-.57s2.17.34,2.74.34,1-.8,1-.8l2.17-1,1.25,3.66,1.83.91,3.08.12,1.37.34.69,2.51,1.94.34s-.23,3.77-.23,4.11a11.74,11.74,0,0,1-.91,2.63,13,13,0,0,1-2.4,1.71c-.46.23-.91,2.86-.91,2.86l.34,2.74h1.94l1.83,1.14s.11,1.83.23,2.4,1,.45,1.48.57,0,1.37-.11,1.94a11.19,11.19,0,0,0,0,2.05l1.6.23a31.83,31.83,0,0,1,1,3.09c.23,1,3.89-.35,3.89-.35l2.16-.23.8-3.19h2.52c.34,0,.34-1.14.34-1.14l3.31-.69,4.57.46a5.65,5.65,0,0,0,1.48-1,1.72,1.72,0,0,0,.12-1.26l1.14-.91,1-.11,1.37,1.25,1,1H308l.91.91-.34,2.17,1,.46,3,2.72.67-1.18,1.69.34,1.34-1.35,1.52.17.34,1.68,1.51.17.17-.67a.73.73,0,0,1,.67-.34,3.21,3.21,0,0,1,1.35.67v3.87l.34,1.35h1.51a3.49,3.49,0,0,0,.51-2,6.89,6.89,0,0,0-.34-1.51s-1.35-.17-.67-.85a4.87,4.87,0,0,1,2.35-.84l3.2-.84,3.87-1,1-1.35,1.18-2,1.52-.33.67.67,2.69.17c1,0,7.24-.67,7.24-.67l2.69-3.71,4.72-2.52a6.9,6.9,0,0,1,1.34-1.69,25.33,25.33,0,0,0,3.2-2.35c.34-.51,2.19-2.36,2.19-2.36v-2.52L359.22,315s-1.85-.51.34-1.18l2.18-.67a27.34,27.34,0,0,0,2.53-1.18c.5-.34,0-.34,1-1s2.36-1.52,2.36-1.52V306.6l.5-2.52,1.68-1.18-.84-.84h-3.2s-1.85-.17-1.85-.68.84-1.34.84-1.34l3-.68.85-.67-.51-1-3-1.18-2.69-1.68-.84-.84,1.68-.68,1.85.17,2.36,1,1.51.68a6.39,6.39,0,0,0-.5-2.53L365.62,291l-1.35-.84-1.68-3.37-.17-2.19-2.36-2.19-2.69-.84a7.54,7.54,0,0,1,0-2,5.44,5.44,0,0,1,1.18-1.68l3.53-2.86,2-.51,2-2a17.42,17.42,0,0,1,1.85-.17c.68,0,3.87-.67,3.87-.67l-1.34-2L368,269.4h-2.19l-1.85-1.18h-.67l-1.52.84-.5,1.52-1.52,1.18h-2.35l-.68-3V267l-1.17-.5s-1.86.34-2.36.34-2,.33-2.19-.85-.5-2.69-.5-2.69l.84-1.51,2.86-.17,1.85.84s1,1,1.68.17.85-.51,1.18-1.18,0-.51.34-1.18-.34.34.34-.67a11.21,11.21,0,0,1,1.17-1.52l2.87-1,2-3,2.86-.17,1.34,1.35v1.68l-2,1.69-1.17,1.51v1.52l-.17,1.68.17.84,3.19.17.85-1.18,5.05-4,2.18-.43-.68-2.36,4-.91,2.29-1.14,1.82-.57,1.14-3.32,1.83-.57,1.83,1.72,1.82.34.92-.8V249.6l2.85.23-.23-1.71,1.49-.23,1.48-1.37v-2.05l1.83-.69,1.94,1.14,3.08.07Z"/><polygon class="cls-1" points="420.15 240.45 421.53 239.38 421.53 239.38 420.15 240.45"/><polygon class="cls-1" points="405.07 242.03 405.07 242.03 405.25 244.3 405.07 242.03"/><polygon class="cls-1" points="374.56 260.06 375.71 259.13 374.56 260.06 374.56 260.06"/><path class="cls-1" d="M402.22,244.92l-1.94-1.14-1.83.69v2.05L397,247.89l-1.49.23.23,1.71-2.85-.23v1.49l-.92.8-1.82-.34-1.83-1.72-1.83.57-1.14,3.32-1.82.57-2.29,1.14-4,.91.68,2.36-2.18.43,2.52-.5,2.69,1.34,1.18,1v1.52l-1.85,1.68-1,1,1.85,3.87c.68,0,2.86-1.68,2.86-1.68l3.2.67.12.59,2-1.63h3.62l1.48-1.12a12.81,12.81,0,0,1-2.21-2c-.5-.85-1.68-3-1.68-3s-.51-1.35,0-2a10.55,10.55,0,0,1,2.69-1.69s4.71-1.34,5.22-2.19.34-1.51.67-2.18.34-2.36.68-3,1.85-3,1.85-3l1.51-1.69s1.31.65,2.15,0v0Z"/><path class="cls-1" d="M397.77,269.4s-2-2-2.7-2.86a4.42,4.42,0,0,0-.65-.65L392.94,267h-3.62l-2,1.63.39,1.94.84.5s.84,1,.84,1.52.51,1-.17,1h-2.35s-1-.34-1,.17a7.06,7.06,0,0,0,.33,1.51l1,1.35.17,1a1.4,1.4,0,0,1-.67,1.18c-.68.33-.34-.51-.68.33a2.56,2.56,0,0,0,0,1.69l1.18,2h3.37l1.51-.68c1.52-.67,3-1.34,3.2-1.85s.51-2.35.51-2.35h2.35s.84.84.84-1.35v-2.19l-.33-2Z"/><path class="cls-1" d="M239.51,216.83l2.85,2.17,5.37,1.6,1.14,3,.69.8,1.94.91v1.26l-1,2.17-.8.91s-.91,1.14-.91,1.49a5.76,5.76,0,0,0,.8,1.48s1.14.57,1.71.8a18.91,18.91,0,0,0,3.08.34s3.89.12,4.34.12a9.6,9.6,0,0,1,2.06.8l1.14,2.28,3.08,1.6,1.72,1.14s1.94,6.51,2.85,6.62,12.9-.11,12.9-.11l5.71.8,3,1.83h2.63l2.17.79,3.31.23,1.94,1.49h2.17l4.34-3.77,5.59-.69,2.51.23a1.66,1.66,0,0,0,1.26.8c.91.12,3.31.12,3.31.12l2.74-2.06,2.17-2.74a7,7,0,0,0,2.17-.46,16.08,16.08,0,0,0,1.94-1.82,4.47,4.47,0,0,0-.34-1.83c-.34-.46-1.14-1.71-1.14-1.71l1.14-1.6,2.63-.34,1.48.91,1.83-.23,2-1,1.37-2.17h4.23s1.71.35,1.94,0,1.48-3.31,1.48-3.31l1.72-1.6,6.16-.34,5.48-.57L361,226l-.68-2.29-2.17-1.94-2.29-1.82-2.28-.12-2.17,1.83-3.2-.11L345,220.15l1.37-4.34,1.37-2.29.22-2.62.07-.09-1.09-.6-1.83-2.28-4.34-.69-4.57,3.2-5.93,3.2-9.14.91s-6.62-1.83-7.31-2.05-1.6-3.66-1.6-3.66l-8.9-.46-4.57.92s-3.42-.92-4.57-1.14-2.05-3.66-2.05-3.66l-.46-3.19-5.48-.92-8.45-.46L273.65,202l.91,3.2.46,3.88a10.22,10.22,0,0,1-2.74,1.6c-1.37.45-1.83,0-1.83,0l-4.79-.69-5.48-3.88-6.4-1.14-8.67,7.54-5.26,1.14-.34,1.6Z"/><polygon class="cls-1" points="239.85 213.64 238.61 213.39 238.61 213.39 239.85 213.64"/><polygon class="cls-1" points="80.81 233.48 80.91 233.28 80.81 233.48 80.81 233.48"/><polygon class="cls-1" points="238.83 213.43 237.57 213.18 238.83 213.43 238.83 213.43"/><path class="cls-1" d="M189.92,244.09l12.48.45,9,3.85,0,0,.34-1.14-.68-.69a.9.9,0,0,1,.11-.91,7.79,7.79,0,0,1,.92-1.14c.45-.46.91-.8.91-1.15a4.08,4.08,0,0,1,.11-.79l-.57-2.17a6.68,6.68,0,0,1-.91-1.83c0-.46-.23-1.83-.23-2.28a10.26,10.26,0,0,1,.23-1.49l1-1.14h3.42l1.94.8a10.16,10.16,0,0,0,2.06.11,6.35,6.35,0,0,0,1.25-1.14,6.17,6.17,0,0,1-.91-1.94,12.8,12.8,0,0,1,.34-2.17c.12-.46,1.49-3.88,1.49-3.88l.11-1.37,2.17.45,1.26,1,3.42.34,1.15-.91.45-1.37.69-5.14,3.42-.8.8-2.51,1.83-1.94-1.14-3-4.34,2.51-3-1.6-1.83-3.88-1.6-2.05-2.51-1.37-2.28,2.28-3.66-.23-1.37-2.28-3-.46-1.15,2.06-2-.46-1.6-3.2-2.06-6.39s-7.07-5-7.07-5.94.68-.91.68-.91l.46-1.83-1.6-.91s-5,3-6.17,3.42-2.74,1.37-4.11,2.06a1.83,1.83,0,0,1-2.28-.69v-.68a7.65,7.65,0,0,0-.92-2.29s-3.88.46-5.25.46h-1.37a4.3,4.3,0,0,1-.91-1.37c-.23-.68,0-1.14,0-2.05s-2.51-3.66-2.51-3.66l-7.31-1.6-3.2,3.43s-4.34,2-5,2.28-7.31,1.6-7.31,1.6l-8.45,1.14h-5l-1.83,1.14v1.15l2.51.68,1.14,1.37v1.83a42.61,42.61,0,0,0-5.25-.69c-1.6,0-1.37,4.11-1.37,4.11l-.68.23c-.69.23-.69.92-1.15,1.83s.46,1.83.46,1.83h2.28l3.66.23.91,1.14s.46,1.82.91,3.42-3.65.46-4.56.46a18,18,0,0,0-3.88,1.37l-2.75-1.14-4.33-1.37-1.83-2.51h-3.2c-1.14,0-.23,1.82-.23,1.82s-2.51,1.83-4.11,2.74-1.14-.68-1.14-.68l-3.2-.23-.91-1.14-.46-1.83-1.59-1.14L104,201.08l-3-1.37L99,201.08l-1.83-1.37L93,203.36l-4.56,1.37L88,209.07l-2.06-.46-1.59-2.05-3.43,1.82v4.12l-1.6,1.37v3.65l1.14,2.74,4.8-.91s1.14,1.37,1.83,2.05a6.39,6.39,0,0,1,1.59,3,6.85,6.85,0,0,1-1.14,2.28l1.37,1.6.08.08,1.52-1.11,3.77-2.39h2.51l3.08.68,3.54-.8.92,1,.8,2.28-.23,4.91a12.27,12.27,0,0,1-1.94.23c-.8,0-3.54-.23-3.54-.23l-1.6.12-1.26,1.14v.91a8.15,8.15,0,0,1,.23,1.37v.46s.23.57-.57.23a18.51,18.51,0,0,0-2.63-.69l-1,1,.34,1.14,1.37-.11,1.48-.12.12.8h.8l1.14,4.34h.91l1.49,1.37h1.37l1.6-.11v1.48l-.58.57-.11,2.74.46,1.49.8.11.8-1.82-.35-1.26,1.26-.8,1.63.1.16-.59,3.8,1.06,1.83,2,.61,1.52,2.89.31V234l8.38-2.44,7.15,1.68,8.22,7.91h11.12l4.11,2.13,1.52,7.62,4.87,2.28,4.11.76,3.81-2.59,3.5-.3,1.22-3.5,1.52-1.07.91-2.28h4.72l1.07,2h2.89l.46-2,1.67-1.37Z"/><path class="cls-1" d="M52.22,240.43l-.15-.11Z"/><path class="cls-1" d="M50.67,238.6l-.15-.21Z"/><path class="cls-1" d="M51.94,240.21l.08.07Z"/><path class="cls-1" d="M52.45,240.58l-.21-.13Z"/><path class="cls-1" d="M77.26,248.35l-3.2-3.43h-4.8l-2.74-2-7.31-.69-3.88-2.28-2.88.68c1,.67,3,1.66,3.44,2.06s2.69,2.52,2.69,2.52l.67,1.52s1,.67.34,1.17-1.68,1-1.85,1.69a5.3,5.3,0,0,1-.69,1.28l1.63.12,5.18-.46,2,1.07v.76l3.35-.61H71l2,.76,1.83-1.07,1.83.61,2,.15.09-3.15Z"/><path class="cls-1" d="M184.13,253.07a20.62,20.62,0,0,0-3.65-1.07l-1.68-1.22-2.13.46-.91.76-2.59-.91-3.5.3L165.86,254l-4.11-.76-4.87-2.28-1.52-7.62-4.11-2.13H140.13l-8.22-7.91-7.15-1.68L116.38,234V251.7l3.5.45.46-2.28,3.65-2.28,2-2.9,3.05,1.83,1.83.61,1.06.76.46,3.81,4,.76,2-.15,3.95,2.59,1.53,4.41,4.72,2.74,4.56,2.89,4,.92,1.07,4.26,5,1.52,1.07-2.74s1.52-.91,1.37-1.52-.31-2.59-.46-3.2-2-2.13-2-2.13l-1.67-.15v-2.29h3.65l1.37-2,2-.31,1.37-2.28H173l1.52-.92V256l-.61,1.22,1.83.15,2.13-.61,3.81.76,3.19-2.58S184.89,253.52,184.13,253.07Z"/><path class="cls-1" d="M202.4,244.54l-12.48-.45-2.29-1.22L186,244.24l-.46,2h-2.89l-1.07-2h-4.72l-.91,2.28-1.52,1.07-1.22,3.5,2.59.91.91-.76,2.13-.46,1.68,1.22a20.62,20.62,0,0,1,3.65,1.07c.76.45.76,1.83.76,1.83l-3.19,2.58-3.81-.76-2.13.61-1.83-.15-1.83.3h-1.21l-1.37,1.22v1.52h4.11s.76.76,1.21.76,1.37.46,1.37,0a7.8,7.8,0,0,1,.16-1.21,5.17,5.17,0,0,1,1.06-.16c.46,0,.61.77,1.37.92a13,13,0,0,0,2.9.45c.73,0,3.49-.05,5.58-.09l-.07-.44.23-2.51,1.83-.57,2.17-1.14,2.17-.69.68.69,1.15.23a1.42,1.42,0,0,0,.91-.35c.34-.34,2.4-2.62,2.4-2.62l3.08.45,2.17-.57.8-1.71a5.48,5.48,0,0,1,1.14-.91c.34-.12,4.68-1.49,4.68-1.49l.76-.87Z"/><path class="cls-1" d="M68.46,266.5l.8-1.59L69,262.16l.92-2.62.23-1.49-.46-1.14-3.08-.34-.69-3-.11-1.29v-.76l-2-1.07-5.18.46-1.63-.12c-.33.49-.66.91-.66.91l-3.87,1.17-6.73.51-3-.34-4.38-2.35L34,248l-7.74.34-3.2,2.19-3.7,2-5.56-.68H9.93l1,2.36L9.43,255.6l-2.7.84s-3-.34-3.7-.51-1.35-1-1.85-.5a4.74,4.74,0,0,0-.84,1.68L0,258.63l1.18-.34,1.68.34V261l-1.35,3s.85,1.69,1.35,1.86a6.14,6.14,0,0,1,1.52,1.34l-.51,1.35,3.37,2.86a22.94,22.94,0,0,0,3.7,2c.84.17,3.37,2,4,1a7.74,7.74,0,0,1,2-1.85s-.34-2.19,1.18-1.85,5.05.84,5.39,1.51.67,2.19,1.34,2.19h2.53l1-.17,2.86-1.18.34-1.17s.16.16,2.52,0a6.36,6.36,0,0,0,3-.68l1-.5c.34.78,1,1.26,1,1.75l.13-.06s3,.34,3.42.34a18.38,18.38,0,0,0,2.86-1.14l2.39.8s2.86-.11,4.8-.23,1.71-1.48,1.71-1.48,3.54-.46,4-.46,3.2.23,3.2.23l3.19-1.26,3.32,1,1.59,1.26H71.2l-.57-2.4Z"/><path class="cls-1" d="M88.45,251.66l-1.72-2.4.83,1.17-2.54.89a15.45,15.45,0,0,1-3.43-.92c-.54-.36-2.91-1.42-3.9-1.86l1,.46-.09,3.15-2-.15-1.83-.61-.88.52,2.06,3.4v2.17l3.54,5,2.4-1.26,1.14-1.94h1.14l1.14,1.94-.91,2.86,2.69.81a3.58,3.58,0,0,1,.85-2.07A31.53,31.53,0,0,0,90,260.22s.46-2.85.46-3.19v-3.31Z"/><polygon class="cls-1" points="77.26 248.35 76.3 247.33 76.3 247.33 77.26 248.35"/><path class="cls-1" d="M77.68,248.54a3.5,3.5,0,0,0-.39-.17A3.5,3.5,0,0,1,77.68,248.54Z"/><polygon class="cls-1" points="70.18 258.05 74.74 263.31 79.54 262.51 76 257.48 76 255.31 73.94 251.91 72.99 252.46 71.01 251.7 69.19 251.7 65.84 252.31 65.95 253.6 66.64 256.57 69.72 256.91 70.18 258.05"/><path class="cls-1" d="M37.13,271.29Z"/><path class="cls-1" d="M36.5,271.55h0Z"/><path class="cls-1" d="M36.91,271.4h0Z"/><path class="cls-1" d="M37.18,271.27h0Z"/><path class="cls-1" d="M38.59,271.41l-.06-.08Z"/><path class="cls-1" d="M38.34,271a2,2,0,0,1-.13-.25A2,2,0,0,0,38.34,271Z"/><path class="cls-1" d="M38.47,271.23l-.09-.15Z"/><path class="cls-1" d="M54.53,270.73s.23,1.37-1.71,1.48-4.8.23-4.8.23l-2.39-.8a18.38,18.38,0,0,1-2.86,1.14c-.45,0-3.42-.34-3.42-.34l-.13.06h0c0,.24-.11.49-.5.77l-1.18.84v3.2l-.68,4.21-2,4-1.06,2.22,2.83,1.83L40,291.43l11-5.17L57.46,282l.61-8.22,3.66-3.27s-2.74-.23-3.2-.23S54.53,270.73,54.53,270.73Z"/><path class="cls-1" d="M36.22,271.63h0Z"/><path class="cls-1" d="M153.07,264.94l-4.56-2.89-4.72-2.74-1.53-4.41-3.95-2.59-2,.15-4-.76-.46-3.81-1.06-.76-1.83-.61L126,244.69l-2,2.9-3.65,2.28-.46,2.28-3.5-.45-2.89-.31-.61-1.52-1.83-2-3.8-1.06-.16.59.31,0s.46-.46.57.45a8,8,0,0,1,0,1.83,1.43,1.43,0,0,0,.12.91.76.76,0,0,0,.79.46,8,8,0,0,1,1.37.23l.92.68.45.92v.8a.92.92,0,0,1-.79.68l-.69.11-1.94.46-.8.12-2.28-1.15h-.8l-1,.35-.34,2,.45.91,1,.35s1.14.34,1.14.8v.8s-.68.8-.68,1.14v.34l1.37.69.91.22,1.14,1.37-.57,4.11s.69,2.75.69,3.2l1.86-.15,3.66-2.89,2.74.45,1.52-1.06,1.52-.15,5.94,3,2.44-.15,2.43,2,2.44,2.28h3l.61,4.57,3.65.3,1.53,1.07H145l.31-1.83,4-1.52,1.82-2,1.37-3.2,2.9-1.52,2.74.61L157,265.86Z"/><polygon class="cls-1" points="97.77 243.4 97.81 243.55 97.77 243.4 97.77 243.4"/><path class="cls-1" d="M35.41,297.37l-.33-5,1.53-2.77-.23-4.05-1.58.09-2,4.12-.67,3.37-1.68,2a16.4,16.4,0,0,0,.67,3.36c.33.5,2,3.56,2,3.69Z"/><path class="cls-1" d="M33.13,302.16h0Z"/><path class="cls-1" d="M40,291.43l-3.35-1.82-1.53,2.77.33,5-2.26,4.84v0l.05,2,2.63.75h1.85l1.08-.54L40,302.79v-.87l2.82-.32,2.39-.54a17.16,17.16,0,0,0,.32-1.74,4.84,4.84,0,0,0-.65-1.3l-2.17-1.3-.65-.65.87-1.84,1.52-.33h2.06l2.92-.76-.29-6Z"/><path class="cls-1" d="M58.35,270.28h0Z"/><path class="cls-1" d="M57.89,270.32h0Z"/><path class="cls-1" d="M83.21,295.74,83,293.36l-.22-1.63L80,291.19s-3.14-1.08-3.58-1.3,0-2.82,0-2.82l-1.62-.76-.87-1.41,2.93-6.07v-1.95l-3.69-1.95-1.93-3.4H69.83l-1.59-1.26-3.32-1-3.19,1.26-3.66,3.27L57.46,282l-6.54,4.27-1.82.86.29,6,5.75.65,18.1,12,6.07.54,1.09-3.58,1.08-1.73,2.18.66,1.66-.39Z"/><path class="cls-1" d="M56.56,270.48h0l.31,0Z"/><path class="cls-1" d="M58.14,270.3h0Z"/><path class="cls-1" d="M56.9,270.44l.27,0Z"/><path class="cls-1" d="M57.58,270.36l.18,0Z"/><path class="cls-1" d="M57.25,270.39l.22,0Z"/><polygon class="cls-1" points="49.21 289.45 49.39 293.14 49.21 289.45 49.21 289.45"/><path class="cls-1" d="M112.7,333l-9.54-.75-2.6-1.52-.4-2.44L98,326a4.74,4.74,0,0,1-.86-1.38H95.35l-1.08-1.65a4.32,4.32,0,0,1-1.18-1.85c-.17-.67-.34-2-.34-2s1-2,0-2.69-3.87-2.53-3.87-2.53l-2.36-3.7-.17-.85H84.51l-5.2-2.92-6.07-.54-18.1-12-5.75-.65-2.92.76H44.41l-1.52.33L42,296.07l.65.65,2.17,1.3a4.84,4.84,0,0,1,.65,1.3,17.16,17.16,0,0,1-.32,1.74l-2.39.54-2.82.32v.87l-1.19,1.63-1.08.54H35.84l-2.63-.75.12,4.75,4.38,5.55,4,4.72s.16,4.54,1.34,5.22,6.57,6.73,6.57,6.73l.17,6.9,1.85,2.86,3,1.69,8.92,14,2.67-2.86h4c.55,0,5.86,1.3,5.86,1.3l4.77,1,8.13-7.38,9-.1,13.34-4,2.71-9.75Z"/><path class="cls-1" d="M86.35,309.29,86,307.61a26.27,26.27,0,0,0-1.18-3c-.34-.5-1.85-2.69-1.18-2.86l-2.18-.66-1.08,1.73-1.09,3.58,5.2,2.92Z"/><path class="cls-1" d="M97.13,324.11a29.15,29.15,0,0,0,1-4l-.84-1.68H95.78s-1.18-.34-1.18,1v2.86s.17,1.18-.33.67l1.08,1.65h1.76A.54.54,0,0,1,97.13,324.11Z"/><path class="cls-1" d="M87.6,263.38a.76.76,0,0,1,.12-.19A.76.76,0,0,0,87.6,263.38Z"/><path class="cls-1" d="M87.46,263.67c0-.06.05-.12.08-.19S87.48,263.61,87.46,263.67Z"/><path class="cls-1" d="M87.77,263.1a2.62,2.62,0,0,1,.22-.25A2.62,2.62,0,0,0,87.77,263.1Z"/><path class="cls-1" d="M87.18,264.67s0-.06,0-.09S87.19,264.64,87.18,264.67Z"/><path class="cls-1" d="M87.35,264l.06-.2Z"/><path class="cls-1" d="M87.25,264.34l.06-.25Z"/><polygon class="cls-1" points="66.68 269.79 68.23 270.27 66.68 269.79 66.68 269.79"/><path class="cls-1" d="M142.68,313.78l.35-4.23s-4.91-1.48-5.49-1.83-.22-1.37-.22-1.37l-2.74-3.76,4-3.09.69-2.4-1.37-1.37-1.83-.22-1.6-5.94-.34-5.6,2.63-2.85-.12-2.93-.61-4.57h-3l-2.44-2.28-2.43-2-2.44.15-5.94-3-1.52.15-1.52,1.06-2.74-.45-3.66,2.89-1.86.15c0,.46,0,1.49-.57,1.71s-4.46.92-5,1-3.77.46-3.77.46l-3.31-1.6a14.52,14.52,0,0,0-2.39-1.71,7.15,7.15,0,0,1-2.63-.69c-1.26-.57-3.43-1.48-3.54-1.82a6.88,6.88,0,0,1-.11-2.29l.06-.44h0l-2.69-.81.91-2.86-1.14-1.94H83.08l-1.14,1.94-2.4,1.26-4.8.8-4.56-5.26L70,259.54,69,262.16l.23,2.75-.8,1.59,2.17,2.63.57,2.4,1.93,3.4,3.69,1.95v1.95l-2.93,6.07.87,1.41,1.62.76s-.43,2.6,0,2.82,3.58,1.3,3.58,1.3l2.82.54.22,1.63.21,2.38,2.11,5.59.53-.11,3.87-2h1l3.2,1.34,3.2,6.57.33,2.69,2.53,1.52,6.4,4,5.38,1,3.87-1.69h5l1.35,4.88,3,.85,13,1.85,1.05,0,1.2-4a15.28,15.28,0,0,1,1.6-.91l2.52-.8.91-1.15Z"/><path class="cls-1" d="M98.06,348.54l-9,.1L80.94,356l-4.77-1s-5.31-1.3-5.86-1.3h-4l-2.67,2.86-.84,3.2v3.36l3,4.21.33,4.21,4,.17,7.07-1.52a27.07,27.07,0,0,1,3.37-2.36c.84-.33,4-1,4-1l4,.33,2.69-3.7,6.06-1s2.87-.51,3-1,.68-3.87.68-3.87l2.78-.39-3.87-9.29Z"/><polygon class="cls-1" points="59.24 349.73 63.63 356.6 59.24 349.73 59.24 349.73"/><polygon class="cls-1" points="117.36 323.39 117.33 322.76 117.16 318.55 115.31 318.39 113.96 320.91 111.94 323.1 110.76 325.46 108.24 326.8 102.68 326.8 100.16 328.32 100.56 330.76 103.16 332.28 112.7 333.03 113.03 329.5 115.47 326.45 115.32 324.17 117.36 323.39"/><polygon class="cls-1" points="98.08 326.08 100.16 328.32 98.08 326.08 98.08 326.08"/><polygon class="cls-1" points="117.33 322.76 117.32 322.63 117.32 322.63 117.33 322.76"/><path class="cls-1" d="M101.17,357.61v0Z"/><path class="cls-1" d="M101.11,358h0v0Z"/><path class="cls-1" d="M126.75,331l-.67-2-4-1.35-2.52-.5-2-1-.14-2.74-2,.78.15,2.28-2.44,3L112.7,333l1.41,1.74-2.71,9.75-11.32,3.41,3.87,9.29,8.16-1.13v-2.86l3.87-1.85,2.86-.51,1.18-3.19s2,2,2,0v-4.89s3.87-1.85,4.38-2.18,2.18-1.69,2.18-1.69l.68-3.53v-1.85Z"/><polygon class="cls-1" points="183.43 256.08 183.43 256.08 181.69 257.48 183.43 256.08"/><path class="cls-1" d="M191.55,267a11.37,11.37,0,0,1-.57-2l-1.71-.69-1.6-.69-.39-2.64c-2.09,0-4.85.09-5.58.09a13,13,0,0,1-2.9-.45c-.76-.15-.91-.92-1.37-.92a5.17,5.17,0,0,0-1.06.16,7.8,7.8,0,0,0-.16,1.21c0,.46-.91,0-1.37,0s-1.21-.76-1.21-.76h-4.11V258.7l1.37-1.22h1.21l1.83-.3.61-1.22v-1.59h-.41l-1.11.67h-3.2l-1.37,2.28-2,.31-1.37,2h-3.65v2.29l1.67.15s1.83,1.52,2,2.13.31,2.59.46,3.2-1.37,1.52-1.37,1.52l-1.07,2.74,4.11-.15,1.6-1.22,3.43-.45,1.14-3,3.8-1.3.38,3.2.69.53-.15,4.57h3l10.74-2.55A31.22,31.22,0,0,0,191.55,267Z"/><path class="cls-1" d="M178.12,273.85l.15-4.57-.69-.53-.38-3.2-3.8,1.3-1.14,3-3.43.45-1.6,1.22-4.11.15-5-1.52-2.74-.61-2.9,1.52-1.37,3.2-1.82,2-4,1.52-.31,1.83h-3.19l-1.53-1.07-3.65-.3.12,2.93L134.12,284l.34,5.6,1.6,5.94,1.83.22,1.37,1.37-.69,2.4-4,3.09,2.74,3.76,20.55-2.28-.61-6.47,5.94-.08,1.6-2.81,1.29.38,1,.91,1.6-.61-.08-5.71,2.67-.53,1.14-1.07V287L171,286l-.15-.91,1.07-.61,3.73,1.52,1-.69a5.25,5.25,0,0,0,.6-1.29,23.11,23.11,0,0,0-.91-2.51l2.13-1.37v-1.6l-.91-1.9Z"/><polygon class="cls-1" points="177.59 268.75 177.27 266.09 177.27 266.09 177.59 268.75"/><path class="cls-1" d="M187.79,281.46l2.51.23,1.75,1.14,2.28-.07,2.36-.16,2.06-1.37.83-.83-.38-2.14-1.82-.91-1.94-1.71-.69-2.17L192.69,272l-.79-.68-10.74,2.55h-3l-.61,2.82.91,1.9v1.6l-2.13,1.37a23.11,23.11,0,0,1,.91,2.51,5.25,5.25,0,0,1-.6,1.29l-1,.69-3.73-1.52-1.07.61.15.91,1.45,1v1.06l-1.14,1.07-2.67.53.08,5.71-1.6.61-1-.91-1.29-.38-1.6,2.81-5.94.08.61,6.47-20.55,2.28s-.35,1,.22,1.37,5.49,1.83,5.49,1.83l-.35,4.23,2.63,1.59-.91,1.15-2.52.8a15.28,15.28,0,0,0-1.6.91l-1.2,4,5.35.15,3.53-1,4.88,2,3.54-1.35,1.68-1,2.19,4.21s-.5.17,0,1.18a8.78,8.78,0,0,0,2,2.18l1.52-.16,1.19,1.12,1.72-2.7h2l4.11-.16a18.79,18.79,0,0,0,2.13-.76c.38-.23.38-1.44.38-1.44l-.38-1.91-2.59-1.75-.15-3.65-1.67-.76-.92-.38-.3-.76,2.43-3.43,2.82.15,2.74.08,1.29-.31,1.3-2.28.38-1.29,1.9-.46,1.45-1.52.38-1.52,1.29-1.6,1.3-.69.15-2.21L188,300l1.91-2.28-.46-2.82,1.37-1.29.84-.46s-.15-.76-.23-1.07-.91-.68-.91-.68l-2.21-.23-.84-1.68-.61-3.73-.46-2.05-.91-.31V282.3Z"/><path class="cls-1" d="M271.48,309.55l-1.83-.91L268.4,305l-2.17,1s-.46.8-1,.8-2.74-.34-2.74-.34l-2.63.57-1.25,2-2.74,2.63-2.29.23-1.25-1.14-2.51.11-3.2-1.37-1.48.69-1,2.74-1.49,1-1-2.05v-1.14l-2.17-.23a1.07,1.07,0,0,1-.46.8,7.74,7.74,0,0,1-1.26.68l-3.31-.8-3.2-.11-4.91-2.51-8.1-6.74-1.14-1h-2s-.45,1-.91,1h-1.83l-2.05-2.74-3.54-1.37L205,294.71l-.69-3.09,1.49-.8,1.14.46,1.25-1-.57-1.71-1.82-1.71-.46-1.26,1.17-.67h-.14l-.92-2.06s-1.48-1.6-1.71-1.94-.91-1.83-.91-1.83l-1.37-1-2.29.22.38,2.14-.83.83-2.06,1.37-2.36.16-2.28.07-1.75-1.14-2.51-.23-2.29.84v1.06l.91.31.46,2.05.61,3.73.84,1.68,2.21.23s.83.38.91.68.23,1.07.23,1.07l-.84.46-1.37,1.29.46,2.82L188,300l-1.29.3-.15,2.21-1.3.69-1.29,1.6-.38,1.52-1.45,1.52-1.9.46-.38,1.29-1.3,2.28-1.29.31-2.74-.08-2.82-.15-2.43,3.43.3.76.92.38,1.67.76.15,3.65,2.59,1.75.38,1.91s0,1.21-.38,1.44a18.79,18.79,0,0,1-2.13.76l-4.11.16h-2l-1.72,2.7,1.5,1.4,1.35,1.18,4.54-.67a2.62,2.62,0,0,1,.51,1.34v1.52h-5.73v1.34s2.86,2.87,3.71,3.54,1.68,1.51,2.52,1.51h2.86s2.36.68,2.53-1,.17-2.52.17-2.52l.16-2.36,1.69-.33.5,2.35.17,2.19,1.68,1.35-1.85,3.87.68,4.88,2.35,5.89s2.53,3.2,2.53,3.87-.17,2-.17,2.53.67,4,.67,4l2.19,4.54a36.35,36.35,0,0,0,1.18,4.55c.34.5,1.68,2,1.68,2l1,4.21s2,1.68,2.19,3.19a7.9,7.9,0,0,0,.84,3.54c.68,1.18,1.35,2.19,1.35,2.19s0,.67,1.18.84.17,1.85,1.85.34l1.68-1.52s1.35-1.51,2-2.19,1.52-.5,1.52-1.51-.84-2.7,0-2.86,2.19-.51,2.19-.51-.34-1.68,0-2.19,1-1.18,1-1.68.84-2.53.84-3,.33-2.53.33-2.53l.17-3.36-.84-2.53.17-2.35.5-1.18.85-2.69,2.18-.34,3.2-2.19s3.87-3.87,4.88-4.54,5.56-5.05,5.56-5.05,1.51-3.54,3-3.88a7.5,7.5,0,0,0,3.2-1.17c.5-.51,2.35-1.35,2.35-1.86v-3.36l4.21-1.52,2.24-.13.25-2.44L241,329.76l-.22-3.54.91-2.05,1.14-1.26v-1.14l-2.17-1-1-1.14,1.15-1.26,1.59.23,4.12,1.26.22,1.94,1.26,1.14,7.19.23v1.48l-1.48,1.49-2.51,1.6L251,332a8.15,8.15,0,0,1,1.46,1.11l1.23-2.8,1.6-.57.45,1.49.92,5.36,1.25-.34.69-5.6.8-2.05,1.48-.11,1.83-.58.23-3.65.91-4.8,1.26-3,3-1.49,1.82-1,1.26.8.8.23.23-.68-.57-1.26a4.44,4.44,0,0,1-.46-1.48c0-.57,1.37-1.83,1.37-1.83l0-.19Z"/><path class="cls-1" d="M211.19,307.38l8.68,5.48L222.5,314s2.39-1.48,2.74-1.37,3.08,2.4,3.08,2.4a40.44,40.44,0,0,0,4.11,1.49c.46,0,5.94.45,6.28.45s1.6-.34,1.6-.91-1.37-4.68-1.37-4.68a7.74,7.74,0,0,1-1.26.68l-3.31-.8-3.2-.11-4.91-2.51-8.1-6.74-1.14-1h-2s-.45,1-.91,1h-1.83L210.74,305Z"/><path class="cls-1" d="M249.79,310.92l-3.2-1.37-1.48.69-1,2.74-1.49,1,1,1.26,3.2.46s.23,1.14,1,1.14h5.48l.34-2.29-.12-2.62-1.25-1.14Z"/><polygon class="cls-1" points="205.89 285.27 206.54 284.9 205.89 285.27 205.89 285.27"/><path class="cls-1" d="M205.48,282.83l.92,2.06h.14l.43-.24,1.25-.34s1.26-1.15,1.6-1.37a16.74,16.74,0,0,0,1.37-3.09l-.45-1.48-3.43-1.49-1.14-.34-1,.23-1,1-1.25,1.25s.68,1.49.91,1.83S205.48,282.83,205.48,282.83Z"/><polygon class="cls-1" points="253.67 326.11 255.15 324.62 255.15 323.14 247.96 322.91 246.7 321.77 246.47 319.83 242.37 318.57 240.77 318.34 239.62 319.6 240.65 320.74 242.82 321.77 242.82 322.91 241.68 324.17 240.77 326.22 240.99 329.76 242.37 334.33 242.11 336.77 239.87 336.9 245.43 336.56 249.13 334.88 249.3 332.52 250.98 332.02 251.16 327.71 253.67 326.11"/><path class="cls-1" d="M264.86,306.79h0Z"/><path class="cls-1" d="M265,306.8h0Z"/><path class="cls-1" d="M264,306.69l-.19,0h0Z"/><path class="cls-1" d="M264.67,306.77h0Z"/><path class="cls-1" d="M264,306.69l.16,0Z"/><path class="cls-1" d="M264.46,306.75h0Z"/><path class="cls-1" d="M264.24,306.72l.13,0Z"/><path class="cls-1" d="M316.8,365.35a12.15,12.15,0,0,0-.34-3c-.33-.84-4.21-4.38-4.21-4.38l-4-4.37s-3.19-4.38-3.19-4.88.33-2.87.33-2.87l1.18-1.85,1.35-.5a2.84,2.84,0,0,0,.84-1l.5-1.52a22.57,22.57,0,0,0,3.37-2.52l-3-2.72-1-.46.34-2.17-.91-.91h-1.83l-1-1-1.37-1.25-1,.11-1.14.91a1.72,1.72,0,0,1-.12,1.26,5.65,5.65,0,0,1-1.48,1l-4.57-.46-3.31.69s0,1.14-.34,1.14l3.38,5.74,3,.77.92-.61.6-.46a5.35,5.35,0,0,1,1.15,1c.22.38,1.29,3.5,1.29,3.5l-.23,1.22a1.18,1.18,0,0,1-.61.23c-.3,0-2.36-.08-2.36-.08s-.38,1.07,0,1.3,1.75,1.06,1.75,1.06l2.29,2.06,5.1,7.23,1.44,2.13,2.74,1.67-.3,6.09,1.29,3.58.77.76-2.9,4-1.52.91v1.22l-4-.38-.23.76,1.22,1.52s.53.53.53.84.15.84-.23.84-1.75.07-2,.07h-1.37l-2,1.11.36.35a5.36,5.36,0,0,0,.17,1.35,4.5,4.5,0,0,0,.5,1s-1.85,1.52-1.35,2a4.91,4.91,0,0,1,.85,1.68s1,.51,1.17,0a5.43,5.43,0,0,1,1-1.34l2.53-.68a1.51,1.51,0,0,0,1.18-1.68,10.26,10.26,0,0,1,.67-3.2h3.37l3.53-1.68s1.69-1.35,1.85-2.19,1.18-3.7,1.18-4.38-.17-2.52-.17-3.19S316.8,365.35,316.8,365.35Z"/><path class="cls-1" d="M404.73,237.62l.46-2.29,1.37-1.83,2.06.23,3.42.46,1.6-3.43,4.34-5.7.46-4.12-.69-2.51H415l-3.43,2.29-3.19.91-4.34-1.6L402,214.78l-4.34-1.14s-5.93-2.29-6.62-3.2-.68-3.43-1.14-4.34-2.06-6.17-3.2-8.22-4.56-3.88-4.56-3.88l-10.28-3-6.62,1.14-1.83,3,1.14,2.05-.23,2.52-3.65,4.11-1.14,5L355,211.12l-5.48.46-1.42-.77-.07.09-.22,2.62-1.37,2.29L345,220.15l3.19,1.37,3.2.11,2.17-1.83,2.28.12,2.29,1.82,2.17,1.94L361,226l-1.6,1.14-5.48.57-6.16.34-1.72,1.6s-1.25,3-1.48,3.31-1.94,0-1.94,0h-4.23L337,235.1l-2,1-1.83.23-1.48-.91-2.63.34-1.14,1.6s.8,1.25,1.14,1.71a4.47,4.47,0,0,1,.34,1.83,16.08,16.08,0,0,1-1.94,1.82,7,7,0,0,1-2.17.46L323.09,246,320.35,248s-2.4,0-3.31-.12a1.66,1.66,0,0,1-1.26-.8l-2.51-.23-5.59.69-4.34,3.77h-2.17l-1.94-1.49-3.31-.23-2.17-.79h-2.63l-3-1.83-5.71-.8s-12,.23-12.9.11-2.85-6.62-2.85-6.62L265,238.53l-3.08-1.6-1.14-2.28a9.6,9.6,0,0,0-2.06-.8c-.45,0-4.34-.12-4.34-.12a18.91,18.91,0,0,1-3.08-.34c-.57-.23-1.71-.8-1.71-.8a5.76,5.76,0,0,1-.8-1.48c0-.35.91-1.49.91-1.49l.8-.91,1-2.17v-1.26l-1.94-.91-.69-.8-1.14-3-5.37-1.6-2.85-2.17v-1.59l.34-1.6-2.28-.46-1.83,1.94-.8,2.51-3.42.8-.69,5.14-.45,1.37-1.15.91-3.42-.34-1.26-1-2.17-.45-.11,1.37s-1.37,3.42-1.49,3.88a12.8,12.8,0,0,0-.34,2.17,6.17,6.17,0,0,0,.91,1.94,6.35,6.35,0,0,1-1.25,1.14,10.16,10.16,0,0,1-2.06-.11l-1.94-.8h-3.42l-1,1.14a10.26,10.26,0,0,0-.23,1.49c0,.45.23,1.82.23,2.28a6.68,6.68,0,0,0,.91,1.83l.57,2.17a4.08,4.08,0,0,0-.11.79c0,.35-.46.69-.91,1.15a7.79,7.79,0,0,0-.92,1.14.9.9,0,0,0-.11.91l.68.69-.34,1.14-.8.91s-4.34,1.37-4.68,1.49a5.48,5.48,0,0,0-1.14.91l-.8,1.71-2.17.57-3.08-.45s-2.06,2.28-2.4,2.62a1.42,1.42,0,0,1-.91.35l-1.15-.23-.68-.69-2.17.69-2.17,1.14-1.83.57-.23,2.51.46,3.08,1.6.69,1.71.69a11.37,11.37,0,0,0,.57,2,31.22,31.22,0,0,1,.35,4.34l.79.68,2.06,1.49.69,2.17,1.94,1.71,1.82.91,2.29-.22,1.37,1,1.25-1.25,1-1,1-.23,1.14.34,3.43,1.49.45,1.48a16.74,16.74,0,0,1-1.37,3.09c-.34.22-1.6,1.37-1.6,1.37l-1.25.34-1.6.91.46,1.26,1.82,1.71.57,1.71-1.25,1-1.14-.46-1.49.8.69,3.09,1.71,3.08,3.54,1.37,2.05,2.74h1.83c.46,0,.91-1,.91-1h2l1.14,1,8.1,6.74,4.91,2.51,3.2.11,3.31.8a7.74,7.74,0,0,0,1.26-.68,1.07,1.07,0,0,0,.46-.8l2.17.23V312l1,2.05,1.49-1,1-2.74,1.48-.69,3.2,1.37,2.51-.11,1.25,1.14,2.29-.23,2.74-2.63,1.25-2,2.63-.57s2.17.34,2.74.34,1-.8,1-.8l2.17-1,1.25,3.66,1.83.91,3.08.12,1.37.34.69,2.51,1.94.34s-.23,3.77-.23,4.11a11.74,11.74,0,0,1-.91,2.63,13,13,0,0,1-2.4,1.71c-.46.23-.91,2.86-.91,2.86l.34,2.74h1.94l1.83,1.14s.11,1.83.23,2.4,1,.45,1.48.57,0,1.37-.11,1.94a11.19,11.19,0,0,0,0,2.05l1.6.23a31.83,31.83,0,0,1,1,3.09c.23,1,3.89-.35,3.89-.35l2.16-.23.8-3.19h2.52c.34,0,.34-1.14.34-1.14l3.31-.69,4.57.46a5.65,5.65,0,0,0,1.48-1,1.72,1.72,0,0,0,.12-1.26l1.14-.91,1-.11,1.37,1.25,1,1H308l.91.91-.34,2.17,1,.46,3,2.72.67-1.18,1.69.34,1.34-1.35,1.52.17.34,1.68,1.51.17.17-.67a.73.73,0,0,1,.67-.34,3.21,3.21,0,0,1,1.35.67v3.87l.34,1.35h1.51a3.49,3.49,0,0,0,.51-2,6.89,6.89,0,0,0-.34-1.51s-1.35-.17-.67-.85a4.87,4.87,0,0,1,2.35-.84l3.2-.84,3.87-1,1-1.35,1.18-2,1.52-.33.67.67,2.69.17c1,0,7.24-.67,7.24-.67l2.69-3.71,4.72-2.52a6.9,6.9,0,0,1,1.34-1.69,25.33,25.33,0,0,0,3.2-2.35c.34-.51,2.19-2.36,2.19-2.36v-2.52L359.22,315s-1.85-.51.34-1.18l2.18-.67a27.34,27.34,0,0,0,2.53-1.18c.5-.34,0-.34,1-1s2.36-1.52,2.36-1.52V306.6l.5-2.52,1.68-1.18-.84-.84h-3.2s-1.85-.17-1.85-.68.84-1.34.84-1.34l3-.68.85-.67-.51-1-3-1.18-2.69-1.68-.84-.84,1.68-.68,1.85.17,2.36,1,1.51.68a6.39,6.39,0,0,0-.5-2.53L365.62,291l-1.35-.84-1.68-3.37-.17-2.19-2.36-2.19-2.69-.84a7.54,7.54,0,0,1,0-2,5.44,5.44,0,0,1,1.18-1.68l3.53-2.86,2-.51,2-2a17.42,17.42,0,0,1,1.85-.17c.68,0,3.87-.67,3.87-.67l-1.34-2L368,269.4h-2.19l-1.85-1.18h-.67l-1.52.84-.5,1.52-1.52,1.18h-2.35l-.68-3V267l-1.17-.5s-1.86.34-2.36.34-2,.33-2.19-.85-.5-2.69-.5-2.69l.84-1.51,2.86-.17,1.85.84s1,1,1.68.17.85-.51,1.18-1.18,0-.51.34-1.18-.34.34.34-.67a11.21,11.21,0,0,1,1.17-1.52l2.87-1,2-3,2.86-.17,1.34,1.35v1.68l-2,1.69-1.17,1.51v1.52l-.17,1.68.17.84,3.19.17.85-1.18,5.05-4,2.18-.43-.68-2.36,4-.91,2.29-1.14,1.82-.57,1.14-3.32,1.83-.57,1.83,1.72,1.82.34.92-.8V249.6l2.85.23-.23-1.71,1.49-.23,1.48-1.37v-2.05l1.83-.69,1.94,1.14,3.08.07Z"/><polygon class="cls-1" points="420.15 240.45 421.53 239.38 421.53 239.38 420.15 240.45"/><path class="cls-1" d="M253.4,336.44a.85.85,0,0,0,0-.17A.85.85,0,0,1,253.4,336.44Z"/><path class="cls-1" d="M286.33,338a15.83,15.83,0,0,1-1.88.56A15.83,15.83,0,0,0,286.33,338Z"/><path class="cls-1" d="M309.5,359.64l-1.44-2.13-5.1-7.23-2.29-2.06s-1.37-.84-1.75-1.06,0-1.3,0-1.3,2.06.08,2.36.08a1.18,1.18,0,0,0,.61-.23l.23-1.22s-1.07-3.12-1.29-3.5a5.35,5.35,0,0,0-1.15-1l-.6.46-.92.61-3-.77-3.38-5.74h-2.52l-.8,3.19-2.16.23-.35,1.83-.91.91-.46,1-.07,1.29.68.77-.38,2.43a5,5,0,0,1,.53.23,5.75,5.75,0,0,0,1.83-.3l.69,3.5s.15,1.22-.08,1.44l-.69.69-1.44,1.6s-.15.68.23.83.3.23.61.23a4.78,4.78,0,0,0,1.06-.3l1.75-.84.23-1.45h2.21l.38.61a5.92,5.92,0,0,0,1.06.23c.31,0,.61.23.84,0s1.14-1.22,1.14-1.22.69-1.06,1.07-1.06,1.37.15,1.37.15l1.07,1.6,2.13,1.45,1.9,1.06-.84,2.67-.68,1.14s-.76.15.07.45,1.75.77,1.75.77l1.37,1.37.46,3-.68,2.52-.08.91s1.14,1.22,1.45,1.22,1.21.38,1.21-.08a15.2,15.2,0,0,1,.38-2,.55.55,0,0,1,.54-.45,13.35,13.35,0,0,1,1.75.3l.46.61L312,367l.28-5.68Z"/><path class="cls-1" d="M268.11,358l-.07.16Z"/><polygon class="cls-1" points="284.93 341.03 284.61 341.75 284.93 341.03 284.93 341.03"/><path class="cls-1" d="M268,358.32c0,.07-.05.13-.08.19S267.92,358.39,268,358.32Z"/><path class="cls-1" d="M304.4,361.09,303,359.72s-.91-.46-1.75-.77-.07-.45-.07-.45l.68-1.14.84-2.67-1.9-1.06-2.13-1.45-1.07-1.6s-1-.15-1.37-.15-1.07,1.06-1.07,1.06-.91,1-1.14,1.22-.53,0-.84,0a5.92,5.92,0,0,1-1.06-.23l-.38-.61h-2.21l-.23,1.45-1.75.84a4.78,4.78,0,0,1-1.06.3c-.31,0-.23-.07-.61-.23s-.23-.83-.23-.83l1.44-1.6.69-.69c.23-.22.08-1.44.08-1.44l-.69-3.5a5.75,5.75,0,0,1-1.83.3,5,5,0,0,0-.53-.23l.38-2.43-.68-.77.07-1.29-4.45,2.51-1.6,1.14-4.11.23-1,6.4.12,2.51,3,2.51,1.25,2.63-.11,1-.57.45-.46,2.4s-.69.23-.69.57-.45,1.48,0,1.94l3.89,3.88-.12,4.34v1l-.91,4.23-1.08.6h0c0,.38,0,.79,0,1.2a30.74,30.74,0,0,1-.51,4l-1.35,3.54v1l2.7,1.34c.67.34,4.37,6.06,4.37,6.06l.26.73,3.22.4.38,1.07,1.07,1.37,2.58.07.61-2.43h0c-.1-.66-.23-1.21-.23-1.21l-3-1-2-.33s-1.18-.85-1.18-1.35-.34-3.87-.34-3.87a32.19,32.19,0,0,1-2-3,3,3,0,0,0-1.18-1.35c-.5-.34-1,.51-1.34-.5a14.38,14.38,0,0,1-.34-3.54,5.28,5.28,0,0,1,1-3.37c1-1.17,2.36-2.86,2.36-3.53s-.51-4.21-.51-4.21l1.68-1.85,2.36.5.67,2.19a1.63,1.63,0,0,0,1,1,12.55,12.55,0,0,0,2.53.51s.67-.34,1.68.5l1.32,1.11.21-1.79-.92-1.14-.76-1.76.84-1.9,2.13-1.44,5.48-.23,3.58.53.08-.91.68-2.52Z"/><path class="cls-1" d="M267.84,358.58c0,.07,0,.14-.07.2S267.81,358.65,267.84,358.58Z"/><path class="cls-1" d="M277.59,378.77v0Z"/><path class="cls-1" d="M277.69,379.85v0Z"/><path class="cls-1" d="M277.58,378.68Z"/><path class="cls-1" d="M277.67,379.57v0Z"/><path class="cls-1" d="M277.63,379.09v0Z"/><path class="cls-1" d="M295.76,411.64v-7.41s-3-1.34-3.2-2-1.35-1.51-1.35-2.52a11.94,11.94,0,0,0-.31-2.26c0,.18.14.61.21,1.11h0l-.61,2.43-2.58-.07-1.07-1.37-.38-1.07-3.22-.4-.26-.73,1.52,4.38.67,3.2s.34,2.52,1,3.2a47.69,47.69,0,0,1,2.86,4l1.18,2s4.38,2,5.05,2.35,3,1.35,3,1.35a1.17,1.17,0,0,0,.51-.84,5.72,5.72,0,0,0-1-2C297.44,414.5,295.76,411.64,295.76,411.64Z"/><path class="cls-1" d="M255.27,329.76l-1.6.57-1.23,2.8a.69.69,0,0,1,.23.41,5.78,5.78,0,0,0,.5,2c.27.68.54,2.9.82,4.35l2.65-3.3-.92-5.36Z"/><path class="cls-1" d="M282.44,338.33a31.83,31.83,0,0,0-1-3.09l-1.6-.23a11.19,11.19,0,0,1,0-2.05c.11-.57.57-1.83.11-1.94s-1.37,0-1.48-.57-.23-2.4-.23-2.4l-1.83-1.14h-1.94l-.34-2.74s.45-2.63.91-2.86a13,13,0,0,0,2.4-1.71,11.74,11.74,0,0,0,.91-2.63c0-.34.23-4.11.23-4.11l-1.94-.34-.69-2.51-1.37-.34-2-.08,0,.19s-1.37,1.26-1.37,1.83a4.44,4.44,0,0,0,.46,1.48l.57,1.26-.23.68-.8-.23-1.26-.8-1.82,1-3,1.49-1.26,3-.91,4.8-.23,3.65-1.83.58-1.48.11-.8,2.05-.69,5.6-1.25.34-2.65,3.3c.06.34.13.64.19.86a24.46,24.46,0,0,0,1.52,3.37l1.85.17,2.69,1.51,1.35,5.05,1.34,3.88-.84,2.52-.34,1.85,2.7,2a1.58,1.58,0,0,0,1.68-.5,6.42,6.42,0,0,1,1.52-1.35,4.12,4.12,0,0,1,.67-1.68,7.94,7.94,0,0,0,.67-3.2s1.18-.84,1.85,0a16.65,16.65,0,0,1,1.52,2.69l.84,4-.34,4.55,2.87,5.05s.67,1.51,1,2.18a48.68,48.68,0,0,1,.84,5.73s.08.65.13,1.5l1.08-.6.91-4.23v-1l.12-4.34-3.89-3.88c-.45-.46,0-1.6,0-1.94s.69-.57.69-.57l.46-2.4.57-.45.11-1-1.25-2.63-3-2.51-.12-2.51,1-6.4,4.11-.23,1.6-1.14,4.45-2.51.46-1,.91-.91.35-1.83S282.67,339.35,282.44,338.33Z"/><path class="cls-1" d="M289.71,373.49h0Z"/><path class="cls-1" d="M290.43,373.59Z"/><path class="cls-1" d="M289.47,373.45h0Z"/><path class="cls-1" d="M290.51,373.59h0Z"/><path class="cls-1" d="M292.59,374.41l-.07-.06Z"/><path class="cls-1" d="M293.24,375l0,0Z"/><path class="cls-1" d="M292.93,374.7l-.07-.06Z"/><path class="cls-1" d="M302.1,384.67l0-.07Z"/><path class="cls-1" d="M302.21,384.89l0-.06Z"/><path class="cls-1" d="M303.49,381.56h1.37c.23,0,1.6-.07,2-.07s.23-.54.23-.84-.53-.84-.53-.84l-1.22-1.52.23-.76,4,.38v-1.22l1.52-.91,2.9-4-.77-.76-1.29-3.58.12-2.44h0l-.1,2-2.07.11-.46-.61a13.35,13.35,0,0,0-1.75-.3.55.55,0,0,0-.54.45,15.2,15.2,0,0,0-.38,2c0,.46-.91.08-1.21.08s-1.45-1.22-1.45-1.22l-3.58-.53-5.48.23-2.13,1.44-.84,1.9.76,1.76.92,1.14-.21,1.79.87.74.67,4.38,2-.34.51,1.52,1.85.5h1.35l.65.66Z"/><path class="cls-1" d="M350.5,406.84l-3.66-.23-2.17,1-.23,3.09-2.28,1.37-.11,1.71-1.6,1.14.11,1.94a13.88,13.88,0,0,1-2.51,2.06,25.64,25.64,0,0,1-3.88.68L333,417.91l-2.52.46-3.08,2.05s-3.08-.23-4.11-.45a14.64,14.64,0,0,1-3.31-2l-.42-2.49h-.42l-1.34,2s-1.47,1.22-1.47,1.71a22.78,22.78,0,0,0,.61,2.68l1.59,1.71,1,2.8,3.54,1.95s.25,5.13,1,5.61,2.92,1.59,2.92,1.59h2.32s-.37,1.22.24,1.22,2.93.24,2.93.24l4.15-1.34,3.78,3.17s4.75-.61,4.75-1a19.74,19.74,0,0,1,.37-3.54c.24-.61,1.22-4.15,1.22-4.15l2.07-1.7,1.1-3.17v-2.81a50.45,50.45,0,0,1,4.88-2c.48,0,2.07.73,1.83-.37a18.32,18.32,0,0,0-.74-2.31l-2.43-.61s-2.32-1.71-2.32-2.2.24-2.31.24-2.31L350,410.9l1-1.47Z"/><path class="cls-1" d="M612.29,112.86l-2.94-3.37-3.81.69-1.47-1.56-3.29-.17-.86,1a5.3,5.3,0,0,1,1.12.6,1.7,1.7,0,0,1,.43.78,7.08,7.08,0,0,1,.09,2.34c-.17.26-1.13,1.21-1.13,1.21l-1.64-.78s-1.56-1-1.56-1.21v-3.72l-.6-2.16-4.59-3.2-4.3.9-2.51-1.9-10.39-5.45-8.74-4.07-4,.09-6-2.34-1.39.69-1.38,2,.43,1,2.77,2.17.34,1.64-1.55,2.77-4.33.09-1.73-1.3s-1.73-1.65-2.25-2-1.73-1-1.73-1l-.17-1.65.69-.6s.26.52,1.73.52,1.9.08,1.9-.26.09-1.65.09-1.65l-1-.77-3.29-.87-1.29.61-2.51,4.06-5,.26-3.46-.86L529.26,94h-9.17l-.86,1v4H518a2.78,2.78,0,0,1-.34-1c0-.43-.26-3.29-.26-3.29L516.28,94l-3.54-.17-.35-1.82,1.12-2.86-2.07-1.29-6.58-3.29L495.52,84l-4.42,1.39-4.06.26V84.52l-1.82-2.68-2.34-.69-.86,1.3-1.73-.26-.18-1.56s-1.38-.26-1.64-.26l-2.94-.09-.69-.78s-.61-1.29,0-1.29h3.46l-.44-1.39L476.05,76l-8.22-.78-1.21.18-.35,1-.52,2.34-2.16,1.3-2.6.26s-2-.52-2-.87-.17-1.73.17-1.81a10.79,10.79,0,0,1,1.65-.35h1.3l.17-.78-1.64-.6-1-.87s-1.82-1-.18-1h2.43l2-.09.17-1.12-3.37-.44-9.18-.26a25.2,25.2,0,0,1-3.46-.08c-.6-.17-2.16-.69-2.42-.78s-1.64-.69-1.64-.69l-1,.26a1.4,1.4,0,0,0,.09.78c.17.26.61.51.61.77s.08,1-.44,1-4.58.26-4.58.26l-1.3.43-.43.87.26.87.86.08,1-.78,1.12.78v.52l-1.47.69-.08.61.69.43.26.35.26,2-.87,1-2.51-.09s.7-.61-.08-.69-3.64-.35-3.64-.35-1.47,0-1.47.26.69.61.69.61l1.65.34.17.35s.43.6-.69.69-.09.43-1.82.26-1.73,0-2.51-.43a21.29,21.29,0,0,0-3.46-1.47c-.52-.09-3.11-.18-3.11-.18a15.65,15.65,0,0,1-3,1.22c-.61,0-3.46-.26-3.46-.26a15.41,15.41,0,0,1-1.91-1.39,20.2,20.2,0,0,1-1.55-2.08h-1.56l-1.3,2.17-.09,1.64-1.9,1.56-.86,1s0,1.47-.52,1.47a13.39,13.39,0,0,1-2.43-.43c-.6-.18-2.16-.61-2.68-1.39s-2.33-3.2-2.33-3.2L396.79,79l-1.91-1.47s-1.12-.52-1.12-1.29.87-1,1.82-.52,1.12.86,2.07.6,1.47,0,1.47-.86a4,4,0,0,0-.26-1.47l-2.07-.7-.17-.52.34-.52.35-.51.26-.78-.52-.87s-.78.43-.26-.6.6-1.82-.87-1.91a3,3,0,0,1-2.42-.78c-.95-.69-.61-1-1.73-1s-3.37-.08-3.37-.08l-.7.51s.7,1.22,0,1.22-.34.77-1,0-.69-1.13-.69-1.13a5.32,5.32,0,0,0-1.73-.6c-.6,0-2.25-.26-2.25-.26s-2.42-1.13-2.51-1.48-.34-1-.34-1l-1.56.17.43,1.3s.35,1-.69.69a7.05,7.05,0,0,0-1.38-.26,1.91,1.91,0,0,0-.44,1.64,18.9,18.9,0,0,1,.18,3.55s-.52,1-.87,1a6.17,6.17,0,0,1-1-.17l-1.3-.87-1.47.17-3.63.52a8.79,8.79,0,0,0-2.6-1c-.78,0-2,.26-2.07,0a12.59,12.59,0,0,0-.7-1.22h-.95l-.43.61-.87.52h-1.21s-1.73-.61-2-.78-1.64-.09-1.12-1.21,1.3-1.13,1.3-1.39V65.4l-1.91-.35-4.5.35A21.73,21.73,0,0,0,347.81,64h-2.59l-1.39,1-5.45.08-1.12,1.56s.78,1.9.08,1.9-.95.7-1.29-.08-1.47-1.56-1-2.6a6.52,6.52,0,0,0,.17-2.77h-1.12s-.7.44-.7.78v1l-2.68.52-2-1.13-1.3-1.47-2.33-.6-3.12.26-.69,1.12.95.26.69.26s.87.52.18,1.21A3.43,3.43,0,0,1,321,66a16.41,16.41,0,0,0-3.37.44A30.89,30.89,0,0,0,314.5,68l-3.2-.09L307.49,70l-1.3.86s-.43.78-.86-.17a3.91,3.91,0,0,1-.43-1.82,18.68,18.68,0,0,1,2.85-3.11,19,19,0,0,1,4.07-1.65,20.07,20.07,0,0,0,3.37-.26c.35-.17,4.07-2.51,4.07-2.51a43.29,43.29,0,0,1,3.46-2.85c.35-.09,3.81-1.13,3.81-1.13l1.64-.52,2-1.73s7.27-1.64,7.27-2.42,1.64-1.82,0-2.86S336,48.27,336,48.27a14,14,0,0,1,.09-1.65c.08-.52,1.21-.08-.18-1.12s-2.33.52-2.59-1.13.08-2.85-.26-2.85a6.66,6.66,0,0,1-1.21-.26.44.44,0,0,0-.78.08c-.35.61-.69,1.39-.69,1.39s.08,1-1.22-.26-1.21-1.38-1.47-1.47-3-.35-3-.35l-9.69-.08a3.48,3.48,0,0,0-.6,1.38,1.24,1.24,0,0,1-1.13,1.3c-.78,0-3.37-.17-3.37-.17s-1.13.6-.78-.78,1.73-2.25,2-2.86.35-.86.35-.86a6.74,6.74,0,0,0-1.65-.61c-.43,0-5.62-.35-5.62-.35l-2.68-.77s-1.82-.26-1.3-.61a23,23,0,0,1,3.89-.87s1.56.18,1.9-.51l.35-.7-.6-.86L303.17,33a4.36,4.36,0,0,1-1.73.43,18.55,18.55,0,0,1-2.6-1,19.32,19.32,0,0,0-2.51.35c-.43.17-1,.69-1.38.69s-3.38.26-3.38.26l-4.15,4.67-.61,1.39a2.83,2.83,0,0,1,.44.6,9,9,0,0,1,.34,1.56l-.78.61-6.49.17v.6a5.18,5.18,0,0,1,1,.78c.17.26.69,1,.69,1s0,.6-.86.69a4.06,4.06,0,0,1-2-.61s-.26-.69-.69-.69-2.69.26-2.69.26-.34,1-.69,1.12a32,32,0,0,1-4.33.52c-1.21,0,0-1.9,0-1.9l.18-1a4.24,4.24,0,0,0-1.56-.43c-.43.08-.95.34-1,.69s-.26,1.38-.26,1.38-1.12.35-1.21.09-.34-1-.34-1l-.35-.09-2,1s.26.6-.52.6-4.24-.17-4.24-.17v.69l1.64.61s.35.26.35.52.61.34-.26.6-5.62.35-5.88.43a10.71,10.71,0,0,0-1.39,1.3h-4.58l-2.77,1.65-3.38.17-.78,1.47-1.81.17-2.43-.34s.35.95-.43,1.21l-2.07.69s.17,1,.43,1.21a2.45,2.45,0,0,0,.95.17l.69.44-.08.52-1.74.52-.51.86.6.43a1.36,1.36,0,0,1,.87.35c.34.35.86,1,.86,1l.52,1.21-.35,1.9s.26.61-.51.69-.61-.6-1.22-.69-1.38-.26-1.64-.26H233s.09,1.39-.52,1.39-1.81.26-1.9-.09a1.67,1.67,0,0,0-.52-.69l-2.68.86h-3.9l-7.61.18-1.74,1.68v1.69l.5,1.68s-1.18.51-.5,1.52a13.64,13.64,0,0,0,1.51,1.85L221,74.64a2.22,2.22,0,0,1,.5,1.18L222,78l-1.18,1.68H219.5l-1.68-.5-2.69-2-2.36-1.52-5.05-1-3.2-.67-2.69-1.85-2,.5v.84l1.85.68,2,1.18s1.35.67.67,1.17a4.44,4.44,0,0,1-2.18.85,5.87,5.87,0,0,1-1.18-.17L199.3,76l-1.68-.34a20.65,20.65,0,0,0-.67,2.7c0,.5,3.7,2.35,3.7,2.35l2.69.84,2.19,2.53s2.36,1.35,0,1.35a9.86,9.86,0,0,1-3.2-.34l-1.68-1.52-1.18-.16-4.88-.34s-1.85-.84-1.85-1.68a15.16,15.16,0,0,1,.5-2.87c.17-.67,1.18-3.36,1.18-3.36s.68-3,0-3.37-2-1.18-2-1.18l-1,.51.34,1.51.17,2.86-1,2-2.7.85L185.67,80l-.51,1.18a5.77,5.77,0,0,0,1.35,1.68c.84.67,2.36,1.85,2.36,1.85l1,3L188,89.29,187.18,92v3.54a1.74,1.74,0,0,0,1.18.67c.68,0,2.36.67,3,.34a21.47,21.47,0,0,1,2.53-.85h3.87l2.86.51,1.85,1.18L204,98.88v2.53s-.34,2.19-.84,2.35a1.91,1.91,0,0,0-.85.68s-.5,1.17.17,1.34a10.21,10.21,0,0,1,1.85.84l2.19.85s.84.67.17,1.17.17.85-1.18.85-1.18.33-2.86-.34-2.52-.17-3.2-2-1.51-2.19-.67-2.86,1.68.33,1.18-1.35-.68-2.52-.68-2.52l-.67-.68a10.79,10.79,0,0,0-2.52-.84h-2.87s-.84,1-1.51,1-2.19-1-2.19.17-.34,2,.34,2.52,2.69,2.19,2.69,2.19a5.21,5.21,0,0,1-1.18,2.53c-.84.67-3,1.85-3.2,2.35s-3.87,1.86-3.87,1.86L183.14,114l-1.68,1.85h-1.35c-.84,0-1.34-1-2-1a14.94,14.94,0,0,0-2.18.34,13.37,13.37,0,0,1-2.87,1,8.37,8.37,0,0,1-2.18-.34c-.51-.17-1.86-.17-2-1s-.51-.84-.17-1.68,1.51-1,1.51-1l1.52,1.35h1.68l.51-.68h1.85s1.68,1,2.35.17,2-2.36,2-2.36,1.52-4.2,2.36-4.2,2.19,1,2.53-.17.67-3.37.67-3.37l.17-1-2.7-3-.67-6.06.34-3.53,1.34-3.37L183,82.72l-4-2.19,2.18-3.19,2.87-3-.34-3.71-6.23-.33L172,68.92l-3.19,1.18-2.53,7.4L165,80.2l-4.2.84s-.85.67-.85,1.35v1.85l2,1a6.82,6.82,0,0,1,.17,1.51,18.57,18.57,0,0,1-.5,2.86,5.54,5.54,0,0,0-1,1.35c-.17.51-.34.51-.34,1.18a4.15,4.15,0,0,0,.67,1.68l2.36.68h2a5.86,5.86,0,0,1,.17,1.17c0,.51-1,1.18.17,2.19A10.51,10.51,0,0,0,168,99.39v1.51l-2.52,2.19-4.88-3.2-5.56-3L149,94.67l-6.9-3-3.53.85L134.83,92l-2.52-3.37-3.87-1s-1.35-.33-1.35.17-.51,1-.34,1.52A2.89,2.89,0,0,0,127.93,91a21.51,21.51,0,0,0,3,.84L132.81,93l.84.67,2,3,1.18,2.7s.34.67-1,.67h-2.69l-1,1.85-1.85.84-1.35-1.34a4.16,4.16,0,0,1,.51-1.69c.5-1,1.17-1.17.16-1.68s-4.71-.34-4.71-.34-.5,2-3.36,2.36a43,43,0,0,1-4.55.34l-2,.67s-1.18,2-1.85,2h-3c-1.35,0-3.37-.17-3.37-.17s-1-1-.33-1.68a12.58,12.58,0,0,1,2.18-1.52l.34-1-.67-.67-1.69-.17-1.34.34-.84,1.35a6.86,6.86,0,0,1,0,1.85,1.16,1.16,0,0,1-.68.67H102a1.17,1.17,0,0,0-.84-.67c-.68-.17-1.85-.34-1.85-.34L96,103.26l-4.21,1.51A4.55,4.55,0,0,1,89.55,106c-1.18.17-3.87.34-3.87.34L85,108.81s.84,2.36-.17,2.7a20.21,20.21,0,0,1-4.55.5h-3.7l-2.36-2.69s-1.17-1.85-.67-2.7.51-1.34,1.52-1.34,5,.34,5,.34c.51-.67-1.26-3-1.26-3s-.52-2.11-1.37-2.28-7.62-.65-7.62-.65L67.5,98.38l-.17,1,2.19,2.35a30.52,30.52,0,0,1,.67,3.71c0,.84-1.51,2-1.51,2.52s-.51.51,0,1a2.86,2.86,0,0,0,1.68.51,27,27,0,0,1,.34,3s.67,3-1,3.53a2.6,2.6,0,0,1-2.69-.67l-1.35-1-3.87-.51-1.35,2-3.2,1-1.85.17-3,3,3.87,3.2s1.69,2.69,1,3.37-3.7.5-4.54.5a28.56,28.56,0,0,1-4.55-1.51,18,18,0,0,0-2.69-1c-.84-.17-1.85.16-1.85-.34s-1.18-1.85-1.18-1.85l-2.53.84s-.16,2.69.51,3.2a10.11,10.11,0,0,0,2.36,1,13.77,13.77,0,0,0,2.69.5l.17.84s0,2.36-.68,2.53a7.78,7.78,0,0,1-3.53.17c-1.35-.34-1.85-.51-2.53-1.52s.34-2-1.68-2.19-3.87-.16-3.87-.16-1.68-3.37-1.68-4.21a8,8,0,0,1,1.17-3.71c.68-.84.17-3.7.17-3.7l-4.21-.5-2.35-2.7-2.36-2.69-.84-1.35,1.18-.17,2.35.34,1,1s-.33.67,1.18,1.18,2.53.67,3.87,1a12,12,0,0,1,3.71,1.35,12.34,12.34,0,0,0,2.69,1.17l4.88,1,6.23-.5,4.21-.84,4-4.72-.67-2.35-3.71-4-6.39-1.18-6.57-4s-5.05-3.2-6.06-3.2h-6.9c-.67,0-3.7-.5-3.7-.5l.5-1.52-1.51-1.51s-1.52-1-2.7-.17a5.32,5.32,0,0,0-1.68,2l-3.54,1-6.22,1-.17,2.69s-.34,1.69.17,2.19S12,102.25,12,102.25s1.52.67,1.68,1.18a6.38,6.38,0,0,0,.85,1.34l-.17,1.35-2.53,2.52V113l.68.17.67-2.86.84-1,2.36.84v1.51l.67,2.19-2.36,6.06-.84,2.53.51,4.71,3.2,2.86-1.86,1.69s-.67.33.51,1.17S20,135.24,20,135.24l.17,3.37a20.73,20.73,0,0,1-1.68,2.86c-.51.5-3.71,2.86-3.71,2.86S14,146.52,13,147s-5.39,1.86-5.39,1.86l.85,1s.84-.51,1.34.67,1,2.19,1,2.19H15v1.18l-5.39,1.34L6.9,157l-1.18,4.71v3.87l1.69,1.68-1.18,1.35-.17,1.85s.5,3.2,1,3.54,1.35,2,2.36,2.19,3.87.5,3.87.5L15,178.33l2.36-.67,1.85,1.68-.34,3.88,2,2.86,3.71,2.86s1.17.67,1.17,1.35.68,2.18-1,2.18H19.36l2.19,4.21s1.68-.17,2.18-.17,3.54-.67,3.54-.67l1.85.51,1.52,1.51v2.86l.5,1.35h2.69l1.35.34.34,3.19L38,207l2.53.34h1.51l.51-1.18,2.35,1.35s-.5,1,0,1,3.54.84,4.38.84H53l.85.67-.34,3.37-1.35,1,1.18,2,.17.84v1.68a6.81,6.81,0,0,1-1.68.51c-.51,0-2.7.17-2.7.17l-2.52.33-.34,2.53,1.52.67,2.18-.17.17,1.69-2.52.67H46.12l-.67.67,2,2.36s1,1,.34,1.18a30.8,30.8,0,0,0-2.87,1.18l-1.34,1.85s-3-.51-3,0,.17,1.68.17,1.68l1.34.5a22.25,22.25,0,0,0,2.86.85c1,.17,2.87-.68,3.88.67s1.51,1.85,1.85,2.36.84,1,1.18,1.51a2.35,2.35,0,0,0,.6.47l2.88-.68,3.88,2.28,7.31.69,2.74,2h4.8l3.2,3.43s3.65,1.6,4.33,2.05a15.45,15.45,0,0,0,3.43.92l2.54-.89-.83-1.17-3.08-3.77-1-3.42.23-2.17-1.71-1.49-1.6-2.28,1.37-2.85,3.2-3.43,3.88-.8,1-.72-.08-.08-1.37-1.6a6.85,6.85,0,0,0,1.14-2.28,6.39,6.39,0,0,0-1.59-3c-.69-.68-1.83-2.05-1.83-2.05l-4.8.91-1.14-2.74v-3.65l1.6-1.37v-4.12l3.43-1.82,1.59,2.05,2.06.46.46-4.34L93,203.36l4.11-3.65L99,201.08l2.06-1.37,3,1.37,4.12,1.14,1.59,1.14.46,1.83.91,1.14,3.2.23s-.46,1.6,1.14.68,4.11-2.74,4.11-2.74-.91-1.82.23-1.82h3.2l1.83,2.51,4.33,1.37,2.75,1.14a18,18,0,0,1,3.88-1.37c.91,0,5,1.14,4.56-.46s-.91-3.42-.91-3.42l-.91-1.14-3.66-.23h-2.28s-.91-.92-.46-1.83.46-1.6,1.15-1.83l.68-.23s-.23-4.11,1.37-4.11a42.61,42.61,0,0,1,5.25.69v-1.83l-1.14-1.37-2.51-.68v-1.15l1.83-1.14h5l8.45-1.14s6.62-1.37,7.31-1.6,5-2.28,5-2.28l3.2-3.43,7.31,1.6s2.51,2.74,2.51,3.66-.23,1.37,0,2.05a4.3,4.3,0,0,0,.91,1.37h1.37c1.37,0,5.25-.46,5.25-.46a7.65,7.65,0,0,1,.92,2.29v.68a1.83,1.83,0,0,0,2.28.69c1.37-.69,3-1.6,4.11-2.06s6.17-3.42,6.17-3.42l1.6.91-.46,1.83s-.68,0-.68.91,7.07,5.94,7.07,5.94l2.06,6.39,1.6,3.2,2,.46,1.15-2.06,3,.46,1.37,2.28,3.66.23,2.28-2.28,2.51,1.37,1.6,2.05,1.83,3.88,3,1.6,4.34-2.51,1.14,3,2.28.46,5.26-1.14,8.67-7.54,6.4,1.14,5.48,3.88,4.79.69s.46.45,1.83,0a10.22,10.22,0,0,0,2.74-1.6l-.46-3.88-.91-3.2,4.11-2.06,8.45.46,5.48.92.46,3.19s.91,3.43,2.05,3.66,4.57,1.14,4.57,1.14l4.57-.92,8.9.46s.92,3.43,1.6,3.66,7.31,2.05,7.31,2.05l9.14-.91,5.93-3.2,4.57-3.2,4.34.69,1.83,2.28,2.51,1.37,5.48-.46,4.57-2.28,1.14-5,3.65-4.11.23-2.52-1.14-2.05,1.83-3,6.62-1.14,10.28,3s3.42,1.82,4.56,3.88,2.74,7.31,3.2,8.22.46,3.43,1.14,4.34,6.62,3.2,6.62,3.2l4.34,1.14,2.06,5.25,4.34,1.6,3.19-.91,3.43-2.29h2.74l.69,2.51-.46,4.12-4.34,5.7-1.6,3.43-3.42-.46-2.06-.23-1.37,1.83-.46,2.29.57,7.4,0,0a29.56,29.56,0,0,0,2.36-2.35l2,1.17,2.35,1.35h4.21l3.87-4.71,6.06-4.71,5.22-7.75,3.87-3.7,3.71-5.72,1.51-6.57.17-7.41,4-6.06a25.16,25.16,0,0,1-.67-3.19c0-.68.5-.68.17-1.35a10,10,0,0,0-1.69-1.85L441,191l-.84-2.53-3.88-1.68-1.34.84a13.85,13.85,0,0,1-.34,1.52c-.17.5-.67.84-1.35,1.51s-.5,1.18-1.68,1.18-1.85.34-1.85-.34a6.25,6.25,0,0,1,.17-1.34l1-1.52v-1.85l-1.18.17a6.81,6.81,0,0,0-1.18,1.51l-.17.51-1,.5s-.67.17-.84-.33-.34-.34-.34-1a3.65,3.65,0,0,1,.51-1.52l.17-1c-.84-.17-4.21-.33-4.21-.33s-2.36.5-2.36,0a12.9,12.9,0,0,1,1-2.53l3.2-2s5.39-2.69,5.72-3.2,1.86-2,2.53-2.86a29.14,29.14,0,0,1,2.36-2.36,5.55,5.55,0,0,0,2-.84c.5-.5,3.87-3.36,3.87-3.36l3.53-4.89a7.22,7.22,0,0,0,2.36-.33l2.69-1.85,5.39-1.86h5.22l3.2,1.35,3.36-.17,4.72-.33,2-.34,2.52-2.86,1.35-.17,2.86.5.84.68,1.85,1,1.85-.84,1.86.5.16.67v1a3.3,3.3,0,0,0-1.34.34,7.57,7.57,0,0,1-1.35.51l-.34,1.17,1.52.51h1.51c1.35,0,6.67-3.37,6.67-3.37l-1-1.85H491v-1.85l1.85-1.85,5.05-2.7,1.52-1.51.5-3.54,1.52-1.51,5.38.34,2.19-1.18,1.68,1,2.19-.68,1.52.17v1.18l-.84,1.18-.85,1.18a1.14,1.14,0,0,0-.5.84c0,.5,1,.84,1,.84l1.18.34-.17,1.68s-.34.67.34.67a8.76,8.76,0,0,0,3-.5c.5-.34,2.35-5.22,2.35-5.22l3-.5.68-.17s.84-.34.84-1v-4l1.85-1.35,5.55-.34c.68.51.85.51.85,1s.67,1,0,1.18a4.11,4.11,0,0,1-.68.17c-.84.17-1.51.34-1.51.34l-.84,2.69L528,147l-.17,2.19-.5,1.52-6.06,1.51-1.68,2.7-3.71,2.86L511,161.5l-1.35,3.2-.84,1-5.22,1.35-3.19.16-.34,1.35.84,2.36-1,1.51L498,174.63l-2.19,4.71s-1,3.37-.67,4.38,1.18,3.87,1.18,3.87l2,11.28,1.82,6.7,6.49-6.4V195.8l1.21-1.39,3.55-1.56,1.73.87v-1.9l-1-2.6,1.3-1.82,3.89-1.3,3.12.09,1.21-1.56-1.91-2.16.78-3.11.87-1.65,3.2-.17,1.21-.78-.34-1.47-2-1-1.56-.61.69-2.16,2.94-2.16-.17-1.82-3.81.35-1.47-2,1.39-2.17,3.72-2.25s1.73-6.31,2.07-6.31,2.43.08,2.43.08l2,.87,3.89-3.89.95.17,1,3.46,1.82-.78,2.33-2.33,9.09.17,2.68,3.29,1.3-1.13-.17-1.3,4.67-3,7.7-5.62L565.41,143l3.29-1.21.78-1.81s.09-1,.52-1a6.18,6.18,0,0,1,1.64.69,5.66,5.66,0,0,0,1.91.86c.6,0,3.46.18,3.46.18l2.51.78,1.38-1.65L576.75,134l-.09-2.43L575.1,130l-2,.7-1.21-1-.6-2.08h-.61L570,128l-1.91.18-1.21-1.47s.26-1.21.52-1.39a3.15,3.15,0,0,1,1.47-.52c.78-.08,3.2,0,3.2,0l2.34,2.17,2.86.08,5.53-2.33,1-1.65.52-1.64-1.47-1.9-.61-.7s1-2,1.39-2.16,3.63-1,3.63-1l1,.69s.17,1-.09,1a15.62,15.62,0,0,0-1.65,1.39v.78l1.13.34.61,1.47,1,.78h2.51l1-.78-.11-2.46a14.2,14.2,0,0,1,2.34,1.81,15,15,0,0,0,.87,2l4.58,2.77,1,1.13,5.63.26v-.61s-1.39-.78-1.47-1.12a5,5,0,0,1-.09-1h1.12l1.3.51.26-1.9-.52-2.08-1.21-2.25.78-.77,1.73.51,1.3,1,2.08.35v-.78l-.44-1.3.78-.08,2.68,1.47a2.59,2.59,0,0,0,.26-1c0-.44,1.91-2.51,1.91-2.51l-1.3-1Z"/></g></g></svg>