<svg xmlns="http://www.w3.org/2000/svg" viewBox="0 0 50.87 54.99"><defs><style>.cls-1{fill:#231f20;}</style></defs><title>Asset 11</title><g id="Layer_2" data-name="Layer 2"><g id="Layer_1-2" data-name="Layer 1"><path class="cls-1" d="M36.26,2.67A4.33,4.33,0,1,1,38.6,8.33,4.33,4.33,0,0,1,36.26,2.67Z"/><path class="cls-1" d="M45.85,10H34.64a5,5,0,0,0-5,4.93V30.31a2,2,0,0,0,.61,1.46h2.44a4,4,0,0,1,.49,0,2.09,2.09,0,0,0,.64-1.5V15a.84.84,0,0,1,.85-.76h0V32.38c.27.17-.6-.43,5,3.49V30.05h1.09v6.58l2.61,1.83a3.74,3.74,0,0,1,.92,5.22A3.69,3.69,0,0,1,42.62,45l.3.22a3.37,3.37,0,0,1-1.8,6.09,2.51,2.51,0,0,0,4.68-1.25s0-35.85,0-35.86h.07a.83.83,0,0,1,.84.75V30.31a2.09,2.09,0,0,0,4.18,0V15a5,5,0,0,0-5-4.92Z"/><path class="cls-1" d="M34.69,47.58v2.5a2.51,2.51,0,0,0,4.83.94,3.74,3.74,0,0,1-.58-.33Z"/><path class="cls-1" d="M42.55,39.67l-8.59-6a2.25,2.25,0,0,0-1.3-.41H25.38L25,32.78H17.18a2,2,0,0,1-1.6-.78l-3.32-4.48,4.1,3.61a2,2,0,0,0,1.33.48h8.45a2,2,0,0,0,2-2.06,2,2,0,0,0-2-2H18.45l-3.52-3.07,3.44,1.91h2.19L17.29,21.7a3.51,3.51,0,0,0-4.76-.95L9.94,22.4a3.5,3.5,0,0,0-1,5l6.36,9A3.26,3.26,0,0,0,18,37.8H31.94l8,5.6a2.27,2.27,0,1,0,2.6-3.72Z"/><path class="cls-1" d="M10.19,20.09A4.47,4.47,0,1,0,4,18.63,4.47,4.47,0,0,0,10.19,20.09Z"/><path class="cls-1" d="M30.52,42.67l9.31,6.8a1.86,1.86,0,1,0,2.2-3l-9.8-7.16a1.9,1.9,0,0,0-1.1-.36H15.26L3.39,22A1.86,1.86,0,0,0,.34,24.17l12.42,17.7a1.87,1.87,0,0,0,1.53.8h7.23v7.91c-3.27.36-5.75,1.94-5.75,2.75S18.94,55,22.84,55s7.06-.74,7.06-1.66S27.44,51,24.18,50.58V42.67Z"/></g></g></svg>