<svg xmlns="http://www.w3.org/2000/svg" viewBox="0 0 16.91 23.17"><defs><style>.cls-1{fill:#247455;}</style></defs><g id="Layer_2" data-name="Layer 2"><g id="Layer_1-2" data-name="Layer 1"><path class="cls-1" d="M14,4.8a1.88,1.88,0,0,1-1.87-1.87V0H.66A.67.67,0,0,0,0,.66V22.51a.67.67,0,0,0,.66.66H16.28a.65.65,0,0,0,.63-.66V4.8ZM5.45,11.69A1.81,1.81,0,0,1,4.19,12H3.36v1.29c0,.75-.91.75-.91,0V9.84c0-.4.18-.55.58-.55a12.57,12.57,0,0,1,2,.07A1.39,1.39,0,0,1,5.45,11.69Zm5,.58A1.75,1.75,0,0,1,9,13.76l-1.75.05c-.48,0-.58-.21-.58-.66V9.84c0-.4.18-.55.56-.55a10.82,10.82,0,0,1,2,.07C10.37,9.67,10.7,11.13,10.45,12.27Zm3.89-2.38A.43.43,0,0,1,14,10H12.22v1.16h1.51c.56,0,.56.68,0,.68H12.22v1.49c0,.65-.58.65-.79.43a.78.78,0,0,1-.12-.43V9.84c0-.4.17-.55.55-.55H14C14.51,9.29,14.51,9.74,14.34,9.89Z"/><path class="cls-1" d="M4,10H3.38v1.39h0c.65,0,1.61.12,1.61-.71C5,10.1,4.59,10,4,10Z"/><path class="cls-1" d="M8.18,10.05H7.57v3A5,5,0,0,0,8.88,13c.86-.3.81-2,.51-2.47S8.71,10.05,8.18,10.05Z"/><path class="cls-1" d="M14,3.69h2.12L13.23.78V2.9A.77.77,0,0,0,14,3.69Z"/></g></g></svg>