<svg xmlns="http://www.w3.org/2000/svg" viewBox="0 0 59.71 59.71"><defs><style>.cls-1{fill:#bfbfbf;}</style></defs><title>Asset 80</title><g id="Layer_2" data-name="Layer 2"><g id="Layer_1-2" data-name="Layer 1"><path class="cls-1" d="M29.86,59.71h0A10.42,10.42,0,0,1,19.43,49.29V10.42A10.43,10.43,0,0,1,29.86,0h0A10.43,10.43,0,0,1,40.28,10.42V49.29A10.42,10.42,0,0,1,29.86,59.71Z"/><path class="cls-1" d="M59.71,29.86h0A10.42,10.42,0,0,1,49.29,40.28H10.42A10.43,10.43,0,0,1,0,29.86H0A10.43,10.43,0,0,1,10.42,19.43H49.29A10.42,10.42,0,0,1,59.71,29.86Z"/></g></g></svg>