<svg xmlns="http://www.w3.org/2000/svg" viewBox="0 0 39.77 53.02"><defs><style>.cls-1{fill:#231f20;}</style></defs><title>Asset 13</title><g id="Layer_2" data-name="Layer 2"><g id="Layer_1-2" data-name="Layer 1"><path class="cls-1" d="M37.1,44.55a17.5,17.5,0,0,0-9.38-25.92,6.65,6.65,0,0,0-4.45-3l1-2.06A1.12,1.12,0,0,0,23.81,12l1-2a1.11,1.11,0,0,0,1.48-.5L28.6,4.91a1.09,1.09,0,0,0-.49-1.48L21.48.12A1.09,1.09,0,0,0,20,.61L17.67,5.26a1.1,1.1,0,0,0,.5,1.48l-1,2a1.11,1.11,0,0,0-1.48.49l-9,17.91a1.1,1.1,0,0,0,.5,1.48l6.63,3.32a1,1,0,0,0,.49.11,1.11,1.11,0,0,0,1-.61l2.24-4.49a6.56,6.56,0,0,0,8.38.52,8.81,8.81,0,0,1-3.88,16.74H13.26V42h3.31a1.11,1.11,0,0,0,0-2.21H1.1A1.11,1.11,0,0,0,1.1,42H4.42v2.21A4.42,4.42,0,0,0,0,48.6v3.32A1.1,1.1,0,0,0,1.1,53H38.66a1.11,1.11,0,0,0,1.11-1.1V48.6A4.42,4.42,0,0,0,37.1,44.55Zm-15-20.25a2.21,2.21,0,1,1,2.21-2.21A2.21,2.21,0,0,1,22.09,24.3Z"/></g></g></svg>