<svg xmlns="http://www.w3.org/2000/svg" viewBox="0 0 107.62 37.93"><defs><style>.cls-1{opacity:0.5;}.cls-2{fill:#231f20;}</style></defs><title>Asset 13</title><g id="Layer_2" data-name="Layer 2"><g id="Layer_1-2" data-name="Layer 1"><g class="cls-1"><path class="cls-2" d="M97.2,23.25a58.86,58.86,0,0,0-11-9.54L83,11.8l-.79-.46-.82-.41-1.64-.81L78.13,9.3c-.56-.25-1.13-.46-1.69-.7-1.14-.44-2.25-1-3.41-1.34L69.55,6.15c-1.17-.36-2.37-.58-3.55-.87-.6-.14-1.19-.29-1.78-.41l-1.81-.28-1.8-.27A15.69,15.69,0,0,0,58.8,4.1l-3.63-.27c-1.21,0-2.42,0-3.63,0-.6,0-1.21,0-1.81,0L47.92,4a36.06,36.06,0,0,0-3.59.36l-3.55.56-3.5.82c-1.17.24-2.3.65-3.44,1a30.34,30.34,0,0,0-3.36,1.17l-3.3,1.33c-1.06.52-2.13,1-3.16,1.58S22,12,21,12.59c-.5.31-1,.65-1.47,1s-1,.65-1.43,1c-7.52,5.54-13.65,13-15.62,22.37v0a1.21,1.21,0,0,1-2.4-.16,25.42,25.42,0,0,1,.76-7.89,31.35,31.35,0,0,1,3.12-7.38A38.79,38.79,0,0,1,14.74,10a46.72,46.72,0,0,1,6.72-4.09C22.63,5.3,23.84,4.79,25,4.27S27.49,3.38,28.72,3a34,34,0,0,1,3.74-1.07A32.91,32.91,0,0,1,36.25,1L40.07.42,43.92.1a70.4,70.4,0,0,1,15.3.82,77.86,77.86,0,0,1,14.68,4,74.08,74.08,0,0,1,13.48,7A74.65,74.65,0,0,1,99,21.63a1.21,1.21,0,1,1-1.73,1.68l0,0Z"/><path class="cls-2" d="M104.16,16.62a14.85,14.85,0,0,0-.22,7.46,15.81,15.81,0,0,0,3.22,6.6,2.09,2.09,0,0,1-.33,2.94A2.05,2.05,0,0,1,105,34l-.71-.17c-2.29-.56-4.54-1.09-6.76-1.72A23.78,23.78,0,0,1,94.29,31c-.54-.25-1.08-.51-1.62-.82-.26-.18-.54-.32-.8-.51-.07-.05-.17-.1-.06-.12a2.21,2.21,0,0,0,.61-.25,1.3,1.3,0,0,0,.49-.63A1.18,1.18,0,0,0,93,28.2a1.29,1.29,0,0,0-.08-.52,1.16,1.16,0,0,0-.47-.58,1,1,0,0,0-.72-.16,1.19,1.19,0,0,0-.88.5,1,1,0,0,0-.21.45,1.15,1.15,0,0,0,0,.37,1,1,0,0,0,0,.23.89.89,0,0,0,.08.17,1.2,1.2,0,0,1,.55-1.61,1.21,1.21,0,0,1,1.61.56,1.08,1.08,0,0,1,.08.19,1.24,1.24,0,0,1,.06.27,1.38,1.38,0,0,1,0,.4,1.44,1.44,0,0,1-.22.47,1.32,1.32,0,0,1-1,.54,1.47,1.47,0,0,1-.93-.23,1.33,1.33,0,0,1-.54-.67,1.34,1.34,0,0,1-.09-.57,1.3,1.3,0,0,1,.1-.49,1.62,1.62,0,0,1,.64-.79,2.1,2.1,0,0,1,1-.32,1.43,1.43,0,0,0,.4-.05c.33-.08.65-.13,1-.19a14.09,14.09,0,0,1,1.94-.1,14.83,14.83,0,0,1,3.76.59,28.66,28.66,0,0,1,7,3l-2.83,3.17a29.75,29.75,0,0,1-1.81-8.42,34.51,34.51,0,0,1,.39-8.37h0a1.22,1.22,0,0,1,1.38-1,1.2,1.2,0,0,1,1,1.38A.86.86,0,0,1,104.16,16.62Z"/></g></g></g></svg>