<svg xmlns="http://www.w3.org/2000/svg" viewBox="0 0 105.72 52.18"><defs><style>.cls-1{opacity:0.5;}.cls-2{fill:#231f20;}</style></defs><title>Asset 12</title><g id="Layer_2" data-name="Layer 2"><g id="Layer_1-2" data-name="Layer 1"><g class="cls-1"><path class="cls-2" d="M96.93,12.87A58.64,58.64,0,0,1,89.12,25.2l-2.44,2.73-.62.68-.67.62-1.33,1.26-1.33,1.25c-.46.4-1,.78-1.42,1.16-1,.76-1.87,1.57-2.87,2.27l-3,2.08c-1,.68-2.1,1.24-3.14,1.86-.53.3-1,.62-1.58.91l-1.65.79-1.65.78a15.61,15.61,0,0,1-1.67.73l-3.39,1.31c-1.15.39-2.32.7-3.48,1.06-.58.16-1.15.37-1.74.49l-1.77.38a35.68,35.68,0,0,1-3.54.69l-3.57.5L44.66,47c-1.19.11-2.39,0-3.58,0a30.19,30.19,0,0,1-3.56-.15L34,46.55c-1.17-.18-2.33-.33-3.48-.59s-2.29-.52-3.44-.8c-.56-.15-1.12-.34-1.68-.5a16.36,16.36,0,0,1-1.67-.56C14.91,41,6.89,35.66,2.29,27.22v0A1.21,1.21,0,0,0,0,28.05a25.27,25.27,0,0,0,3,7.33,31.52,31.52,0,0,0,5.13,6.16,38.87,38.87,0,0,0,13.68,7.91,47.22,47.22,0,0,0,7.63,2c1.28.25,2.59.38,3.89.53s2.6.15,3.9.2a33.63,33.63,0,0,0,3.89-.06A35.78,35.78,0,0,0,45,51.8l3.83-.52,3.78-.82a70.07,70.07,0,0,0,14.41-5.22A78.09,78.09,0,0,0,80,37.18,74.92,74.92,0,0,0,90.84,26.62,74.78,74.78,0,0,0,99.11,13.9,1.2,1.2,0,0,0,97,12.8l0,0Z"/><path class="cls-2" d="M105.51,17.2a15,15,0,0,1-2.37-7.08,15.85,15.85,0,0,1,1.18-7.25A2.09,2.09,0,0,0,103.15.15a2.06,2.06,0,0,0-1.83.14l-.63.36c-2,1.2-4,2.36-6,3.61a23.06,23.06,0,0,0-2.8,2.08,17.06,17.06,0,0,0-1.31,1.25c-.21.24-.43.46-.63.71,0,.07-.13.15,0,.13a2.33,2.33,0,0,1,.65.07,1.33,1.33,0,0,1,.65.46,1.59,1.59,0,0,1,.21.39,1.34,1.34,0,0,1,.07.52,1.24,1.24,0,0,1-.28.69,1.11,1.11,0,0,1-.65.37,1.25,1.25,0,0,1-1-.22,1.21,1.21,0,0,1-.33-.38,1.06,1.06,0,0,1-.12-.34.84.84,0,0,1,0-.25,1.1,1.1,0,0,1,0-.18,1.2,1.2,0,0,0,2.37.39.78.78,0,0,0,0-.22,1,1,0,0,0,0-.27,1.28,1.28,0,0,0-.14-.37,1.19,1.19,0,0,0-.35-.39A1.31,1.31,0,0,0,90,8.47a1.44,1.44,0,0,0-.84.48,1.46,1.46,0,0,0-.32.8,1.66,1.66,0,0,0,.08.58,1.37,1.37,0,0,0,.24.43,1.67,1.67,0,0,0,.84.58,2.14,2.14,0,0,0,1.1,0,1.07,1.07,0,0,1,.39-.06l1-.11a13.05,13.05,0,0,0,1.89-.47,15.28,15.28,0,0,0,3.43-1.65,28.86,28.86,0,0,0,5.77-4.92L99.92,1.91a30.12,30.12,0,0,0,.7,8.59,34.51,34.51,0,0,0,2.81,7.89h0a1.21,1.21,0,0,0,2.17-1A.46.46,0,0,0,105.51,17.2Z"/></g></g></g></svg>