<svg xmlns="http://www.w3.org/2000/svg" viewBox="0 0 92.9 90.16"><defs><style>.cls-1{fill:#fff;}</style></defs><title>Asset 44</title><g id="Layer_2" data-name="Layer 2"><g id="Layer_1-2" data-name="Layer 1"><path class="cls-1" d="M91.71,83.23,68.55,62.81a38.65,38.65,0,1,0-5.74,5.74L86,89a4.06,4.06,0,0,0,5.75-5.74ZM38.58,69A30.46,30.46,0,1,1,69,38.58,30.49,30.49,0,0,1,38.58,69Z"/><path class="cls-1" d="M20.75,39.68v5.14H16.93V30.69h4.63q5.76,0,5.76,4.17a4.16,4.16,0,0,1-2.39,3.8L29,44.82H24.71l-3-5.14Zm0-2.87h.72c1.33,0,2-.59,2-1.77,0-1-.66-1.46-2-1.46h-.76Z"/><path class="cls-1" d="M30.33,44.82V30.69h3.84V44.82Z"/><path class="cls-1" d="M46.46,40.53a4.2,4.2,0,0,1-.66,2.33,4.43,4.43,0,0,1-1.93,1.59,7.25,7.25,0,0,1-2.95.56,11.22,11.22,0,0,1-2.36-.2,8.66,8.66,0,0,1-2-.69v-3.4a11,11,0,0,0,2.28.87,8.37,8.37,0,0,0,2.16.32,2.09,2.09,0,0,0,1.25-.3.9.9,0,0,0,.39-.75.85.85,0,0,0-.15-.51,1.84,1.84,0,0,0-.52-.44A20.27,20.27,0,0,0,40.09,39,9.15,9.15,0,0,1,38,37.78a3.66,3.66,0,0,1-1-1.35,4.36,4.36,0,0,1-.34-1.81,3.62,3.62,0,0,1,1.42-3A6.27,6.27,0,0,1,42,30.48a10.9,10.9,0,0,1,4.47,1l-1.17,3a8.4,8.4,0,0,0-3.42-.91,1.8,1.8,0,0,0-1.08.26.78.78,0,0,0-.34.65.93.93,0,0,0,.43.74,16.61,16.61,0,0,0,2.34,1.2,6.56,6.56,0,0,1,2.53,1.76A3.8,3.8,0,0,1,46.46,40.53Z"/><path class="cls-1" d="M60.72,44.82H56.41l-2.79-5.4-1.14.67v4.73H48.65V30.69h3.83v6.13A18.72,18.72,0,0,1,53.65,35l3-4.33H60.8L56.34,37Z"/></g></g></svg>