<svg xmlns="http://www.w3.org/2000/svg" viewBox="0 0 100 100"><defs><style>.cls-1{fill:#247455;}.cls-2{fill:#fff;}</style></defs><title>start_test0</title><g id="Layer_2" data-name="Layer 2"><g id="Layer_1-2" data-name="Layer 1"><circle class="cls-1" cx="50" cy="50" r="50"/><path class="cls-2" d="M48.1,78.88h3.8V82.5H48.1Z"/><path class="cls-2" d="M50.18,17.67,50,17.5l-.18.17a41,41,0,0,0-9.4,13.23H59.58A41,41,0,0,0,50.18,17.67Z"/><path class="cls-2" d="M28.45,54.57v16.8l9.93-3.12a44.7,44.7,0,0,1-5-16.82Z"/><path class="cls-2" d="M53.46,46.75A3.46,3.46,0,1,0,50,50.2,3.46,3.46,0,0,0,53.46,46.75Z"/><path class="cls-2" d="M56.61,69.29A40.53,40.53,0,0,0,61,34.71H39a40.53,40.53,0,0,0,4.43,34.58H48.1v5.59h3.8V69.29ZM42.73,46.75A7.27,7.27,0,1,1,50,54a7.28,7.28,0,0,1-7.27-7.26Z"/><path class="cls-2" d="M41.41,73.1h3.81v5.13H41.41Z"/><path class="cls-2" d="M66.62,51.43a44.7,44.7,0,0,1-5,16.82l9.93,3.12V54.57Z"/><path class="cls-2" d="M54.78,73.1h3.81v5.13H54.78Z"/></g></g></svg>