<svg xmlns="http://www.w3.org/2000/svg" viewBox="0 0 95 95"><defs><style>.cls-1{fill:none;stroke:#247455;stroke-miterlimit:10;stroke-width:5px;}.cls-2{fill:#247455;}</style></defs><title>shortness of breath</title><g id="Layer_2" data-name="Layer 2"><g id="Layer_1-2" data-name="Layer 1"><circle class="cls-1" cx="47.5" cy="47.5" r="45"/><path class="cls-2" d="M68.41,41.36c-3.64-8-8.17-12.73-12.12-12.73a4,4,0,0,0-2.16.6c-3.19,2-3.34,8.1-3.35,8.78,0,.21,0,1.91-.08,4.27l-1.29-.48V24.05a.89.89,0,0,0-.89-.9H46.71a.9.9,0,0,0-.9.9V41.8l-1.29.48c0-2.36-.08-4.05-.08-4.25,0-.7-.15-6.83-3.35-8.8a4,4,0,0,0-2.16-.6c-4,0-8.48,4.76-12.12,12.73C22,51.9,26.25,66.28,26.44,66.89a.88.88,0,0,0,.85.64.76.76,0,0,0,.21,0,81.07,81.07,0,0,0,7.82-2.36c5.58-2,8.47-4,8.83-6.12.44-2.56.46-9.61.4-14.85L47,43.28h1.25l2.43.89c-.05,5.24,0,12.29.4,14.85.36,2.08,3.25,4.08,8.84,6.12a80.16,80.16,0,0,0,7.82,2.36.64.64,0,0,0,.2,0,.9.9,0,0,0,.86-.64C69,66.28,73.24,51.9,68.41,41.36ZM42,45.36,35.6,48.65v2.67l.49,1.48L37.3,54a.9.9,0,0,1-.62,1.54.92.92,0,0,1-.62-.25L34.75,54l-1.49,1.64a.89.89,0,0,1-.66.29.92.92,0,0,1-.6-.23.89.89,0,0,1-.06-1.26l1.87-2.07v-2.8L30.3,51.39a.86.86,0,0,1-.41.1.9.9,0,0,1-.41-1.69l.78-.4-1.39-1.12A.89.89,0,0,1,28.72,47,.9.9,0,0,1,30,46.88l2,1.62L36.9,46l-4.2-3.18a.9.9,0,0,1,1.08-1.43l1.36,1,.11-1a.9.9,0,0,1,1.78.19l-.24,2.1,1.87,1.41,2.48-1.28A.89.89,0,1,1,42,45.36Zm24.4,2.92L65,49.4l.78.4a.9.9,0,0,1-.41,1.69.86.86,0,0,1-.41-.1l-3.51-1.82v2.8l1.87,2.07a.88.88,0,0,1-.06,1.26.9.9,0,0,1-.6.23.91.91,0,0,1-.66-.29L60.47,54l-1.31,1.27A.89.89,0,0,1,57.92,54l1.22-1.18.48-1.48V48.65l-6.36-3.29a.89.89,0,1,1,.82-1.58l2.49,1.28,1.86-1.41-.23-2.1A.89.89,0,1,1,60,41.36l.12,1,1.35-1a.9.9,0,0,1,1.08,1.43L58.32,46l4.9,2.53,2-1.62A.9.9,0,0,1,66.5,47,.89.89,0,0,1,66.36,48.28Z"/></g></g></svg>