<svg xmlns="http://www.w3.org/2000/svg" viewBox="0 0 307.7 307.7"><defs><style>.cls-1{fill:#ebf1f8;}.cls-2{fill:#d4583f;}.cls-3{fill:#fdb48c;}.cls-4{fill:#f2b3c2;}.cls-5{fill:#e59f7c;}.cls-6{fill:#fff;}.cls-7{fill:#1d1309;}.cls-8{fill:#231f20;}.cls-9{fill:#ec8940;}.cls-10{fill:#fad0da;}.cls-11{fill:#844526;}.cls-12{fill:#252d59;}.cls-13{fill:#001e3b;}.cls-14,.cls-15{fill:#5cd3f5;}.cls-14{opacity:0.1;}.cls-16{opacity:0.05;}</style></defs><title>Asset 6</title><g id="Layer_2" data-name="Layer 2"><g id="Layer_1-2" data-name="Layer 1"><path class="cls-1" d="M307.7,153.85A153.85,153.85,0,1,0,85.17,291.55c.29-.88.57-1.76.85-2.62l-2.33-16.5-1.36-9.68-.66-.48.37-1.56-3-21.09-4.7-33.27h13c4-26.61,27.57-57.24,27.57-57.24-14.64-12.56-9.88-45.36-9.53-55.48S107.82,34.77,156.23,40s56,36.79,55.36,56.42-16.33,47.51-16.33,47.51l-6.43,12.51c.51-.62,14.48,6.38,16.72,10a74.27,74.27,0,0,1,10.9,33.31c1.34,4.34,3,9.75,5.4,16.75a188.73,188.73,0,0,1,9.8,51.12h0a3,3,0,0,1,.12.4l-.26,4.76s-.56,6.52-4.33,11.31l.32,5A153.81,153.81,0,0,0,307.7,153.85Z"/><path class="cls-2" d="M109,96.48,108.8,98l.24,0C109,97.5,109,97,109,96.48Z"/><path class="cls-2" d="M109.63,106.05c0-.64-.11-1.32-.17-2.07A14.33,14.33,0,0,0,109.63,106.05Z"/><path class="cls-2" d="M135.17,142.14c-.5.14-1,.25-1.37.34-6.52,1.44-10.09-.57-12-3.23s-5.51-7.62-8.51-12.08-3.15-8.92-3.16-13.09c0-1.55-.08-3-.21-4.76a7.4,7.4,0,0,1-1.25-2.43,8.52,8.52,0,0,1-.32-1.58C107.84,133.25,125.5,150,125.5,150l.27.21,9.4-1.49Z"/><path class="cls-2" d="M124.66,57.34A67.39,67.39,0,0,1,135,52.75,20.66,20.66,0,0,0,124.66,57.34Z"/><path class="cls-2" d="M204,299.33q3.9-1.35,7.69-2.89a48,48,0,0,1-8.12-1.11C203.74,296.62,203.88,298,204,299.33Z"/><path class="cls-2" d="M218.83,288.89l-.57.07.93.07s6.65-1.85,8-4.65l.24,4.41s0,.1-.06.26l.12-.07-.32-5A12.44,12.44,0,0,1,218.83,288.89Z"/><path class="cls-3" d="M86,288.93c-.28.86-.56,1.74-.85,2.62l1.31.65Z"/><path class="cls-4" d="M81.67,262.27l.66.48-.29-2Z"/><path class="cls-3" d="M141.54,147.74h0l0,0Z"/><path class="cls-5" d="M154.47,132.24a56.56,56.56,0,0,1-19.3,9.9v6.61l6.35-1,0,0,11.21-12.63C153.35,134.17,153.91,133.21,154.47,132.24Z"/><path class="cls-3" d="M111.49,109.47a1.76,1.76,0,0,0,.73.32l1,.14c.66,0,1.29.1,2,.1a18,18,0,0,0,2-.16l.24,0h.08l.1,0a3.12,3.12,0,0,0,.46-.17,3.36,3.36,0,0,0,.61-.5,5.56,5.56,0,0,0,1.43-3.09,13.24,13.24,0,0,0,.1-1.69c0-.56,0-1.09-.07-1.62a10.62,10.62,0,0,0-.54-2.81c-.07-.28-.42-.38-.59-.47a7.15,7.15,0,0,0-1.08-.35,14.51,14.51,0,0,0-2-.3c-.55-.05-1-.05-1.29-.05h-.94c-.28,0-.71,0-1.26.07a10.11,10.11,0,0,0-1.9.36,2.49,2.49,0,0,0-.81.36c0,.15-.12.59-.16.86s0,.37,0,.55a5.17,5.17,0,0,1,5-1.37c4.24.84,3.41,5.8,3.41,5.8a7.63,7.63,0,0,0-.13-.79,10.53,10.53,0,0,1,0,1.7c-1.85,1.19-5.15,1.11-6.55-.91a7,7,0,0,1-1-2.31v.39a2.47,2.47,0,0,1-.7-.82c0,.23,0,.45,0,.68s0,.45,0,.67c.06.75.12,1.43.17,2.07a5,5,0,0,0,.11.56A4.94,4.94,0,0,0,111.49,109.47Z"/><path class="cls-3" d="M111.35,97.48l-.11,0c.36-.07.7-.11,1-.15.61-.07,1.09-.09,1.43-.1h.25c-.88-.89-1.22-2.94-2.29-3a3.49,3.49,0,0,0-2.09.86,5.25,5.25,0,0,1,2.29-2c1.4-.5,4,.7,4.83,1.87a4.65,4.65,0,0,1,.82,2.54c.25.05.51.09.79.16a9.71,9.71,0,0,1,1.34.46,3.93,3.93,0,0,1,.77.5l.13.12.06.07h0s0,0,0,0h0l.07.09,0,.05.2.42a7.63,7.63,0,0,1,.26,1,1.83,1.83,0,0,0,1.48.72h1.82a2.25,2.25,0,0,0,2.26-1.46h0c0-.1,0-.2.05-.3s.09-.31.13-.45a2,2,0,0,1,.27-.55,3.14,3.14,0,0,1,.55-.59c-.54-1.93,1.46-3.95,3.43-4.76,2.12-.86,6.12-1.59,8.91-.81a12.65,12.65,0,0,1,5,3.27,20.35,20.35,0,0,0-3.6-1.16c-2.53-.53-5.19.75-7.29,1.94h8.19c.73,0,1.44,0,2.26,0h.15l1.1.11h0c1.56.17,4.3.47,4.88.57l.29.08,14.39,5.17-.56,1.21c-1.91-.07-12.1-3.14-13.85-3.77-.35.21-.86.33-1.1.72h0c0,.28-.05.55-.06.83a9.69,9.69,0,0,1-.17,1.41c-.09.47-.14,1-.26,1.4s-.23.91-.34,1.36a6.25,6.25,0,0,1-.64,1.44,7.65,7.65,0,0,1-2,2.28,7.78,7.78,0,0,1-2.79,1.39l-.7.15c-.33,0-.52,0-.78,0l-1.46.07c-1,0-2,.13-2.9.1L135,110.8l-1.41-.06a12.92,12.92,0,0,1-1.39-.2,7.17,7.17,0,0,1-4.53-3.12,6.59,6.59,0,0,1-.59-1.24l-.17-.58a.83.83,0,0,1,0-.15h0s-1.43-2.29-2.48-2.29H122.7a1.53,1.53,0,0,0-1.32,1.21v0a13.66,13.66,0,0,1-.2,1.82,6.93,6.93,0,0,1-1.81,3.57,3.69,3.69,0,0,1-1,.72c-.17.08-.32.11-.48.17l-.12,0-.1,0h-.12l-.26,0a14.78,14.78,0,0,1-2.09.14c-.69,0-1.43,0-2.12-.07l-1-.12a2.91,2.91,0,0,1-1.17-.47,4.65,4.65,0,0,1-1-1c.13,1.77.21,3.21.21,4.76,0,4.17.15,8.63,3.16,13.09s6.58,9.41,8.51,12.08,5.51,4.67,12,3.23c.41-.09.87-.2,1.37-.34v-4l24.3-16A104,104,0,0,0,167,95.47c.18-1.33.3-2.61.4-3.87C150.09,93,134.75,78.83,126.36,69.07l.86,1.13C118.05,82.62,112.89,87.42,110,89.09c-.41,2.36-.75,4.82-1,7.39,0,.51.06,1,.09,1.5Zm12.1,23.15c.67,0,2,1.29,2,1.29s-1.74-.7-2.33,0C123.13,121.92,122.78,120.65,123.45,120.63Zm-2.9,1.05c-.46-.16-2.33-1.16-2.33-2.48s1.27-1.92,1.9-3.18a13.89,13.89,0,0,0,.89-3.32,10.33,10.33,0,0,1-.22,3.64c-.48,1.32-1.28,2.21-1.15,3.13.19,1.35,1.8,1.67,1.8,3A2.36,2.36,0,0,0,120.55,121.68Zm6.34,6.38a20,20,0,0,0-5.62,1.53,10.71,10.71,0,0,1,6.09-2.76,29.93,29.93,0,0,1,8.41,0,2.45,2.45,0,0,1,.57,1.23S129.45,127.77,126.89,128.06Z"/><path class="cls-3" d="M129.31,98.57a2.54,2.54,0,0,0-1,.66c0,.06-.11.1-.11.16s-.1.29-.14.43-.11.47-.14.8a11.65,11.65,0,0,0-.09,1.22c0,1,1.53,1.27,1.53,2.68,0,1.23-.45,2.09-.06,3.28a5.88,5.88,0,0,0,3,1.86,35.74,35.74,0,0,0,5.48.41c.94,0,1.88-.14,2.82-.19l1.41-.12a5.77,5.77,0,0,0,.67-.07l.7-.18a7,7,0,0,0,3.8-3.35,5.32,5.32,0,0,0,.39-1.09q.12-.69.27-1.38a10.64,10.64,0,0,0,.18-1.3,8.92,8.92,0,0,0,.11-1.25,7.76,7.76,0,0,0,0-1.19,1.28,1.28,0,0,0-.29-.88c-.12-.07-.21-.16-.35-.23l-.44-.21-.49-.17a8,8,0,0,0-2-.38c-.45,0-.95,0-1.44,0a8.63,8.63,0,0,1,4.65,4.47,5.6,5.6,0,0,1-2.1,2.16l.06-.32a6.7,6.7,0,0,1-4.94,3.07,13.24,13.24,0,0,1-8.35-1.54,6.5,6.5,0,0,1,.53-2.66,11.27,11.27,0,0,0-1,1.61s.36-5.37,5.45-6.9l-2.06,0h-3.28a8.58,8.58,0,0,0-1.59.19,4.87,4.87,0,0,1-.6.16A5.92,5.92,0,0,0,129.31,98.57Z"/><polygon class="cls-3" points="159.47 122.11 159.47 122.11 135.17 138.09 159.47 122.11"/><path class="cls-3" d="M159.47,122.11l-24.3,16v4a56.56,56.56,0,0,0,19.3-9.9A101.52,101.52,0,0,0,159.47,122.11Z"/><path class="cls-6" d="M143.13,99.77a4.32,4.32,0,1,1-6.12,0,10.3,10.3,0,0,0-4,3.45,6.5,6.5,0,0,0-.53,2.66,13.24,13.24,0,0,0,8.35,1.54,6.7,6.7,0,0,0,4.94-3.07L146,103A6.61,6.61,0,0,0,143.13,99.77Z"/><path d="M139.41,99.11a7.33,7.33,0,0,0-2.4.65,4.31,4.31,0,1,0,6.12,0A6.39,6.39,0,0,0,139.41,99.11Zm3.36,3.71a2.35,2.35,0,1,1-2.35-2.36A2.35,2.35,0,0,1,142.77,102.82Z"/><path class="cls-7" d="M138.08,102.82a2.35,2.35,0,1,0,2.34-2.36A2.35,2.35,0,0,0,138.08,102.82Z"/><path class="cls-8" d="M130,98.32a4.87,4.87,0,0,0,.6-.16l-.11,0Z"/><path class="cls-8" d="M130,96.7a10.68,10.68,0,0,1,2.05-.34l.69,0h1.43c2.1-1.19,4.76-2.47,7.29-1.94a20.35,20.35,0,0,1,3.6,1.16,12.65,12.65,0,0,0-5-3.27c-2.79-.78-6.79,0-8.91.81-2,.81-4,2.83-3.43,4.76a4.35,4.35,0,0,1,.93-.61A9,9,0,0,1,130,96.7Z"/><path class="cls-8" d="M132.05,104.82a11.27,11.27,0,0,1,1-1.61c1.24-2.82,4.3-4,5.35-4.37a4.3,4.3,0,0,1,3.49,0,7.17,7.17,0,0,1,4.78,3.49,6.64,6.64,0,0,1-.86,2l-.06.32a5.6,5.6,0,0,0,2.1-2.16A8.63,8.63,0,0,0,143.16,98l-.76,0-3.93-.09h-1C132.41,99.45,132.05,104.82,132.05,104.82Z"/><path class="cls-8" d="M137,99.76a4.43,4.43,0,0,1,1.35-.92c-1.05.34-4.11,1.55-5.35,4.37A10.3,10.3,0,0,1,137,99.76Z"/><path class="cls-8" d="M141.85,98.88a4.39,4.39,0,0,1,1.28.89A6.61,6.61,0,0,1,146,103l-.21,1.38a6.64,6.64,0,0,0,.86-2A7.17,7.17,0,0,0,141.85,98.88Z"/><path class="cls-8" d="M141.85,98.88a4.3,4.3,0,0,0-3.49,0l.38-.11A9.41,9.41,0,0,1,141.85,98.88Z"/><path class="cls-8" d="M137,99.76a7.33,7.33,0,0,1,2.4-.65,6.39,6.39,0,0,1,3.72.66,4.39,4.39,0,0,0-1.28-.89,9.41,9.41,0,0,0-3.11-.15l-.38.11A4.43,4.43,0,0,0,137,99.76Z"/><path class="cls-6" d="M117.49,103.67a2.89,2.89,0,1,1-5.72,0,3.4,3.4,0,0,1,1.46-2.87,3.86,3.86,0,0,0-3,1.49v.77a7,7,0,0,0,1,2.31c1.4,2,4.7,2.1,6.55.91a10.53,10.53,0,0,0,0-1.7,6.88,6.88,0,0,0-.28-1S117.49,103.65,117.49,103.67Z"/><path class="cls-8" d="M109.46,102.63a2.47,2.47,0,0,0,.7.82v-.39a5.19,5.19,0,0,1-.17-1.57,5.41,5.41,0,0,1,4.84-1.11,2.64,2.64,0,0,1,1.9,1.08s0,0,0,0a5.68,5.68,0,0,1,1,3.09,7.63,7.63,0,0,1,.13.79s.83-5-3.41-5.8a5.17,5.17,0,0,0-5,1.37c0,.26,0,.52,0,.8S109.46,102.34,109.46,102.63Z"/><path class="cls-8" d="M113.23,100.8a2.5,2.5,0,0,1,1.4-.44l.21,0a5.41,5.41,0,0,0-4.84,1.11,5.19,5.19,0,0,0,.17,1.57v-.77A3.86,3.86,0,0,1,113.23,100.8Z"/><path class="cls-8" d="M116.74,101.46a3.57,3.57,0,0,1,.74,2.17,6.88,6.88,0,0,1,.28,1,5.68,5.68,0,0,0-1-3.09S116.75,101.47,116.74,101.46Z"/><path class="cls-9" d="M119.64,119.47c-.13-.92.67-1.81,1.15-3.13a10.33,10.33,0,0,0,.22-3.64,13.89,13.89,0,0,1-.89,3.32c-.63,1.26-1.9,2-1.9,3.18s1.87,2.32,2.33,2.48a2.36,2.36,0,0,1,.89.83C121.44,121.14,119.83,120.82,119.64,119.47Z"/><path class="cls-9" d="M125.46,121.92s-1.34-1.32-2-1.29-.32,1.29-.32,1.29C123.72,121.22,125.46,121.92,125.46,121.92Z"/><path class="cls-9" d="M127.36,126.83a10.71,10.71,0,0,0-6.09,2.76,20,20,0,0,1,5.62-1.53c2.56-.29,9.45,0,9.45,0a2.45,2.45,0,0,0-.57-1.23A29.93,29.93,0,0,0,127.36,126.83Z"/><path class="cls-10" d="M162.53,284.67h0l3.19,22.58a152.85,152.85,0,0,0,36.91-7.44l.11-4.7Z"/><path class="cls-10" d="M111.91,170.89s-.14.25-.37.71h0C111.69,171.36,111.8,171.12,111.91,170.89Z"/><path class="cls-10" d="M151.48,206.35l4,28.67,4.89,34.65c11-.92,21.71-2.52,30.57-4q-1.54-.46-3.06-1a107.06,107.06,0,0,1-3.63-12.34c-1.82,4.24-3.43,8.16-4.5,10.92-6.06-30.77-2.42-54.93-1.49-60.14-.42-9.16,0-15.84,2.28-21.87-7.12,0-15.46,1.45-25.13,5.28q-4.78,1.9-9.08,3.87c-7.82,7-13.61,11.66-13.61,11.66a37.11,37.11,0,0,1-1.84-3.68,138.56,138.56,0,0,0-12.14,8h32.7Z"/><path class="cls-10" d="M203.56,295.32l-.83-.21-.11,4.7,1.41-.48c-.15-1.37-.29-2.71-.43-4Z"/><path class="cls-10" d="M146.37,190.39q-5.1,2.31-9.55,4.69l-4.49,4.59-.38-1.9-1,.6a37.11,37.11,0,0,0,1.84,3.68S138.55,197.39,146.37,190.39Z"/><path class="cls-10" d="M132.33,199.67l4.49-4.59c-1.69.9-3.32,1.79-4.87,2.69Z"/><path class="cls-4" d="M179.79,263.25c1.07-2.76,2.68-6.68,4.5-10.92a183.67,183.67,0,0,1-4.49-28.64c-.65-8.14-1.23-14.84-1.5-20.58C177.37,208.32,173.73,232.48,179.79,263.25Z"/><path class="cls-3" d="M200.58,267.81c.1,1.37.22,2.68.37,3.89.28,2.28.93,8,1.81,16h.14v-.52L227,282.3l.11,1.72c3.77-4.79,4.33-11.31,4.33-11.31l.26-4.76a3,3,0,0,0-.12-.4A109.88,109.88,0,0,1,200.58,267.81Z"/><path class="cls-3" d="M202.91,287.23v.52L218.26,289l.57-.07a12.44,12.44,0,0,0,8.32-4.87L227,282.3Z"/><path class="cls-3" d="M160.41,269.67l0,.16,9.06-.34.09-.69,2.24,16.51,30.94,2.43c-.88-8.06-1.53-13.76-1.81-16-.15-1.21-.27-2.52-.37-3.89a68.36,68.36,0,0,1-9.6-2.12C182.12,267.15,171.44,268.75,160.41,269.67Z"/><path class="cls-10" d="M209,192.06c.44,4.42-.28,9.75-2.46,16.88-4.56,15-6.83,38.75-6.17,55.17,4.85-.83,8.62-1.44,10.83-1.6,8.05-.58,18.87.53,20.42,5h0a188.73,188.73,0,0,0-9.8-51.12c-2.38-7-4.06-12.41-5.4-16.75.07,1.19.08,1.86.08,1.86A36.48,36.48,0,0,0,209,192.06Z"/><path class="cls-10" d="M180.58,181.24c-2.3,6-2.7,12.71-2.28,21.87l.2-1.06,15,30.2c-2.56,4.95-6.18,13-9.22,20.08a107.06,107.06,0,0,0,3.63,12.34q1.52.56,3.06,1l9.39-1.58c-.66-16.42,1.61-40.21,6.17-55.17,2.18-7.13,2.9-12.46,2.46-16.88C203.31,186.79,194.12,181.3,180.58,181.24Z"/><path class="cls-10" d="M184.29,252.33c3-7.12,6.66-15.13,9.22-20.08l-15-30.2-.2,1.06c.27,5.74.85,12.44,1.5,20.58A183.67,183.67,0,0,0,184.29,252.33Z"/><path class="cls-10" d="M211.2,262.51c-2.21.16-6,.77-10.83,1.6,0,1.28.12,2.51.21,3.7a109.88,109.88,0,0,0,31-.26C230.07,263,219.25,261.93,211.2,262.51Z"/><path class="cls-10" d="M200.58,267.81c-.09-1.19-.16-2.42-.21-3.7L191,265.69A68.36,68.36,0,0,0,200.58,267.81Z"/><path class="cls-11" d="M120.58,61.53l1.22,1.59c10-6.29,24.5-7.06,38.66,1.71a16.07,16.07,0,0,1,2.29,1.74,27.93,27.93,0,0,0-25.53-14,18.13,18.13,0,0,0-2.22.21,67.39,67.39,0,0,0-10.34,4.59A27.08,27.08,0,0,0,120.58,61.53Z"/><path class="cls-11" d="M121.8,63.12l4.56,5.95c8.39,9.76,23.73,24,41.07,22.53a59.65,59.65,0,0,0,.17-6.34,39.09,39.09,0,0,0-4.85-18.69,16.07,16.07,0,0,0-2.29-1.74C146.3,56.06,131.77,56.83,121.8,63.12Z"/><path class="cls-11" d="M120.3,64.12c.44-.32.91-.62,1.37-.92-.46-.62-.84-1.16-1.15-1.6a36.22,36.22,0,0,0-3.42,5.22A28.72,28.72,0,0,1,120.3,64.12Z"/><path class="cls-11" d="M110,89.09c2.9-1.67,8.06-6.47,17.23-18.89l-.86-1.13-.64-.75c-1.68-2-3-3.75-4-5.12-.46.3-.93.6-1.37.92a28.72,28.72,0,0,0-3.2,2.7c-.75,1.38-1.47,2.85-2.13,4.42A80.55,80.55,0,0,0,110,89.09Z"/><path class="cls-11" d="M121.8,63.12l-1.22-1.59-.06.07c.31.44.69,1,1.15,1.6Z"/><path class="cls-11" d="M121.67,63.2c1,1.37,2.37,3.13,4,5.12l.64.75-4.56-5.95Z"/><path d="M114.34,100.84a6.07,6.07,0,0,0-1.11,0,3.4,3.4,0,0,0-1.46,2.87,2.89,2.89,0,1,0,5.72,0s0,0,0,0A3.91,3.91,0,0,0,114.34,100.84Zm.65,4.54a1.73,1.73,0,1,1,1.48-1.71A1.61,1.61,0,0,1,115,105.38Z"/><path d="M115,102a1.73,1.73,0,1,0,1.48,1.71A1.6,1.6,0,0,0,115,102Z"/><path d="M114.84,100.38a3.58,3.58,0,0,1,1.9,1.08A2.64,2.64,0,0,0,114.84,100.38Z"/><path d="M113.23,100.8a6.07,6.07,0,0,1,1.11,0,3.91,3.91,0,0,1,3.14,2.79,3.16,3.16,0,0,0-2.64-3.25l-.21,0A2.5,2.5,0,0,0,113.23,100.8Z"/><path class="cls-8" d="M114.16,97.27h.5c.33,0,.81,0,1.42.08.41,0,.89.11,1.4.21a4.65,4.65,0,0,0-.82-2.54c-.87-1.17-3.43-2.37-4.83-1.87a5.25,5.25,0,0,0-2.29,2,3.49,3.49,0,0,1,2.09-.86c1.07,0,1.41,2.07,2.29,3Z"/><path class="cls-12" d="M145.91,96.46Z"/><path class="cls-12" d="M126.89,105.45a.83.83,0,0,0,0,.15l.17.58a6.59,6.59,0,0,0,.59,1.24,7.17,7.17,0,0,0,4.53,3.12,12.92,12.92,0,0,0,1.39.2l1.41.06,2.81.12c.94,0,1.92-.07,2.9-.1l1.46-.07c.26,0,.45,0,.78,0l.7-.15a7.78,7.78,0,0,0,2.79-1.39,7.65,7.65,0,0,0,2-2.28,6.25,6.25,0,0,0,.64-1.44c.11-.45.22-.91.34-1.36s.17-.93.26-1.4a9.69,9.69,0,0,0,.17-1.41c0-.28,0-.55.06-.83a6.37,6.37,0,0,1-.69,1s.28-3.11-.71-3.66a29,29,0,0,0-3.7-1.38h-.2c-.82,0-1.53,0-2.26,0h-8.19c-.78.44-1.49.86-2.08,1.18a8.06,8.06,0,0,1-1.56.65,8.58,8.58,0,0,1,1.59-.19h3.28l2.06,0a9.68,9.68,0,0,1,2-.38,8.41,8.41,0,0,1,3.64.49c.49,0,1,0,1.44,0a8,8,0,0,1,2,.38l.49.17.44.21c.14.07.23.16.35.23a1.28,1.28,0,0,1,.29.88,7.76,7.76,0,0,1,0,1.19,8.92,8.92,0,0,1-.11,1.25,10.64,10.64,0,0,1-.18,1.3q-.15.69-.27,1.38a5.32,5.32,0,0,1-.39,1.09,7,7,0,0,1-3.8,3.35l-.7.18a5.77,5.77,0,0,1-.67.07l-1.41.12c-.94.05-1.88.2-2.82.19a35.74,35.74,0,0,1-5.48-.41,5.88,5.88,0,0,1-3-1.86,3.58,3.58,0,0,0,.25.59,3.93,3.93,0,0,1-1.73-2.64c-.32-1.85-.46-3.29,0-3.93,0,0,0,0,0,0a11.65,11.65,0,0,1,.09-1.22c0-.33.1-.55.14-.8s.09-.29.14-.43.09-.1.11-.16a2.54,2.54,0,0,1,1-.66,5.92,5.92,0,0,1,.66-.25,2.8,2.8,0,0,1-2.1,0,3.61,3.61,0,0,1-.16-.42,3.14,3.14,0,0,0-.55.59,2,2,0,0,0-.27.55c0,.14-.09.29-.13.45s0,.2-.05.3l.43,1.34Z"/><path class="cls-12" d="M130,98.32l.49-.14.11,0a8.06,8.06,0,0,0,1.56-.65c.59-.32,1.3-.74,2.08-1.18h-1.43l-.69,0a10.68,10.68,0,0,0-2.05.34,9,9,0,0,0-1.4.54,4.35,4.35,0,0,0-.93.61,3.61,3.61,0,0,0,.16.42A2.8,2.8,0,0,0,130,98.32Z"/><path class="cls-12" d="M142.4,98l.76,0a8.41,8.41,0,0,0-3.64-.49,9.68,9.68,0,0,0-2,.38h1Z"/><path class="cls-12" d="M109.89,109.32c-.08-1-.16-2-.26-3.27a14.33,14.33,0,0,1-.17-2.07c0-.48-.07-1-.11-1.54a4.56,4.56,0,0,1-.32-.87,3,3,0,0,1,.23-.33c-.05-.8-.11-1.66-.17-2.57l-.06,0a.93.93,0,0,0-.35.58c0,.41-.08.81-.11,1.23,0,.26,0,.45,0,.45l-.06-.06,0,.38c-.11,1.37-.16,2.71-.18,4a8.52,8.52,0,0,0,.32,1.58A7.4,7.4,0,0,0,109.89,109.32Z"/><path class="cls-12" d="M117.46,109.82h0S117.47,109.83,117.46,109.82Z"/><path class="cls-12" d="M110.91,110.27a2.91,2.91,0,0,0,1.17.47l1,.12c.69,0,1.43.09,2.12.07a14.78,14.78,0,0,0,2.09-.14l.26,0h.12l.1,0,.12,0c.16-.06.31-.09.48-.17a3.69,3.69,0,0,0,1-.72,6.93,6.93,0,0,0,1.81-3.57,13.66,13.66,0,0,0,.2-1.82v0a.7.7,0,0,0,0,.14l-.51-1.66.3-2.39h0a7.63,7.63,0,0,0-.26-1l-.2-.42,0-.05-.07-.09h0l-.06-.07-.13-.12a3.93,3.93,0,0,0-.77-.5,9.71,9.71,0,0,0-1.34-.46c-.28-.07-.54-.11-.79-.16a6.45,6.45,0,0,1,0,1A4.11,4.11,0,0,1,114,97.36s0-.06-.08-.08h-.25c-.34,0-.82,0-1.43.1-.3,0-.64.08-1,.15s-1.6.83-2.15,1.14c.06.91.12,1.77.17,2.57l.26-.3c0-.18,0-.37,0-.55s.13-.71.16-.86h0c0-.08,0-.07,0,0a2.49,2.49,0,0,1,.81-.36,10.11,10.11,0,0,1,1.9-.36c.55,0,1-.06,1.26-.07h.94c.3,0,.74,0,1.29.05a14.51,14.51,0,0,1,2,.3,7.15,7.15,0,0,1,1.08.35c.17.09.52.19.59.47a10.62,10.62,0,0,1,.54,2.81c0,.53.06,1.06.07,1.62a13.24,13.24,0,0,1-.1,1.69,5.56,5.56,0,0,1-1.43,3.09,3.36,3.36,0,0,1-.61.5,3.12,3.12,0,0,1-.46.17l-.1,0s0,0,0,0h-.06l-.24,0a18,18,0,0,1-2,.16c-.67,0-1.3,0-2-.1l-1-.14a1.76,1.76,0,0,1-.73-.32,4.94,4.94,0,0,1-1.75-2.86,5,5,0,0,1-.11-.56c.1,1.23.18,2.31.26,3.27A4.65,4.65,0,0,0,110.91,110.27Z"/><path class="cls-12" d="M120.59,98.9h0S120.58,98.88,120.59,98.9Z"/><path class="cls-12" d="M109.46,102.63a1.18,1.18,0,0,1-.11-.19c0,.54.08,1.06.11,1.54,0-.22,0-.45,0-.67S109.45,102.86,109.46,102.63Z"/><path class="cls-12" d="M109.71,99.53h0C109.73,99.46,109.73,99.45,109.71,99.53Z"/><path class="cls-12" d="M109,101.57a4.56,4.56,0,0,0,.32.87c0-.38-.06-.79-.09-1.2A3,3,0,0,0,109,101.57Z"/><path class="cls-12" d="M109.47,101.74c0-.28,0-.54,0-.8l-.26.3c0,.41.06.82.09,1.2a1.18,1.18,0,0,0,.11.19C109.46,102.34,109.47,102,109.47,101.74Z"/><path class="cls-12" d="M117.45,98.52a6.45,6.45,0,0,0,0-1c-.51-.1-1-.17-1.4-.21-.61-.06-1.09-.07-1.42-.08h-.74s0,.06.08.08A4.11,4.11,0,0,0,117.45,98.52Z"/><path class="cls-12" d="M147.81,97l.62.31c.21.11.41.28.62.42a3.19,3.19,0,0,1,.59.67l.14.3,0,.07v0l0,.12v.23l.08.74a3.74,3.74,0,0,1,0,.58h0c.24-.39.75-.51,1.1-.72-.16,0-.26-.09-.26-.11s.26-2.5.26-2.5h0l-.29-.08c-.58-.1-3.32-.4-4.88-.57q.63.12,1.26.3Z"/><path class="cls-12" d="M144.81,96.35h.05c.35,0,.7,0,1,.1Z"/><path class="cls-12" d="M149.27,101.4a6.37,6.37,0,0,0,.69-1,3.74,3.74,0,0,0,0-.58l-.08-.74v-.23l0-.12v0l0-.07-.14-.3a3.19,3.19,0,0,0-.59-.67c-.21-.14-.41-.31-.62-.42l-.62-.31-.64-.22q-.63-.18-1.26-.3h0c-.35,0-.7-.08-1-.1a29,29,0,0,1,3.7,1.38C149.55,98.29,149.27,101.4,149.27,101.4Z"/><path class="cls-12" d="M109.06,98.27a2.64,2.64,0,0,0,0-.29l-.24,0c0,.15,0,.31,0,.46A2.86,2.86,0,0,1,109.06,98.27Z"/><path class="cls-12" d="M111.24,97.53l.11,0L109,98a2.64,2.64,0,0,1,0,.29,4,4,0,0,1,1-.43A9.82,9.82,0,0,1,111.24,97.53Z"/><path class="cls-12" d="M108.59,101s0-.19,0-.45c0,.13,0,.25,0,.39Z"/><path class="cls-12" d="M108.76,98.49c0,.26-.05.53-.08.79a.93.93,0,0,1,.35-.58l.06,0,0-.4A2.86,2.86,0,0,0,108.76,98.49Z"/><path class="cls-12" d="M110,97.84a4,4,0,0,0-1,.43l0,.4c.55-.31,1.79-1,2.15-1.14A9.82,9.82,0,0,0,110,97.84Z"/><path class="cls-12" d="M129.4,104.52c0-1.41-1.52-1.73-1.53-2.68,0,.25,0,.49,0,.75a9,9,0,0,0,.76,4.24,7.24,7.24,0,0,0,.73,1C129,106.61,129.4,105.75,129.4,104.52Z"/><path class="cls-12" d="M127.85,102.59c0-.26,0-.5,0-.75,0,0,0,0,0,0-.46.64-.32,2.08,0,3.93a3.93,3.93,0,0,0,1.73,2.64,3.58,3.58,0,0,1-.25-.59,7.24,7.24,0,0,1-.73-1A9,9,0,0,1,127.85,102.59Z"/><path class="cls-12" d="M121.38,104.38a1.53,1.53,0,0,1,1.32-1.21h1.71c1,0,2.48,2.29,2.48,2.29h0c0-.2,0-.32-.08-.5a18.87,18.87,0,0,1-.24-2.31,16.81,16.81,0,0,1,0-2.14,5.29,5.29,0,0,1,.1-.76h0a2.25,2.25,0,0,1-2.26,1.46h-1.82a1.83,1.83,0,0,1-1.48-.72,15.45,15.45,0,0,1,.23,2.2C121.4,103.22,121.4,103.8,121.38,104.38Z"/><path class="cls-12" d="M126.57,102.64a18.87,18.87,0,0,0,.24,2.31c0,.18,0,.3.08.5l.25-4.37-.43-1.34a5.29,5.29,0,0,0-.1.76A16.81,16.81,0,0,0,126.57,102.64Z"/><path class="cls-12" d="M120.84,102.86l.51,1.66a.7.7,0,0,1,0-.14c0-.58,0-1.16,0-1.7a15.45,15.45,0,0,0-.23-2.2h0Z"/><path class="cls-12" d="M151.44,97.69v1.47a.61.61,0,0,1-.38.56c1.75.63,11.94,3.7,13.85,3.77l.56-1.21-14.39-5.17A.5.5,0,0,1,151.44,97.69Z"/><path class="cls-12" d="M150.8,99.61s.1.06.26.11a.61.61,0,0,0,.38-.56V97.69a.5.5,0,0,0-.36-.58h0S150.75,99.47,150.8,99.61Z"/><path class="cls-2" d="M96.73,189.71c1.7-6.83,2.82-14.22,7.19-17.75,4-3.21,20.33-10.93,23.18-12.27l-.32-1.54-3.43,1.5-16-28.71-1.78-29.7,2.49-11.38c-1.39.22-1.68-.71-1.68-.71l3.78-21.1,3.23-2.67.17-.77,15.08-13.86,9,1.19c21.45-5.9,29.91,9.27,33.24,22.31l6.61,10.16-7,16.12c-.15,1.21-.33,2.41-.53,3.61l10.17.6-3.55,27.92-7.4,18.73c1.6,1.61,3.49,3.32,5,4.66l1.13-1.19S190.5,165.35,198.92,174a18.82,18.82,0,0,1,6.83,4.13c5.9,5.85,7,9.69,10.7,21.52a74.27,74.27,0,0,0-10.9-33.31c-2.24-3.58-16.21-10.58-16.72-10l6.43-12.51s15.66-27.9,16.33-47.51S204.65,45.18,156.23,40s-50.45,43.54-50.79,53.66-5.11,42.92,9.53,55.48c0,0-23.53,30.63-27.57,57.24H88C91.31,199.77,95.59,194.29,96.73,189.71Z"/><path class="cls-2" d="M124.66,57.34A20.66,20.66,0,0,1,135,52.75c.9-.31,1.78-.58,2.63-.81l-9-1.19L113.59,64.61l-.17.77,6.2-5.11Q122.21,58.67,124.66,57.34Z"/><path class="cls-2" d="M173,90.58c-.67.2-1.35.36-2,.5a68.28,68.28,0,0,1-.51,9.45l7-16.12-6.61-10.16A72.24,72.24,0,0,1,173,90.58Z"/><path class="cls-2" d="M125.77,150.24l-.27-.21s-17.66-16.78-17.18-44.72c-.08-.67-.11-1.31-.17-1.94s0-1.09,0-1.62,0-.94,0-1.4c-.25-.37-.9-.33-.9-.77v-.91c0-.15,0-.33.4-.4L108.8,98l.15-1.55c0-.34,0-.66-.06-1-.12-2.17-.18-4.07-.19-5.76a4.63,4.63,0,0,1-.61.16l-2.49,11.38,1.78,29.7,16,28.71,3.43-1.5-1.65-7.8Z"/><path class="cls-2" d="M174.21,156.05c-1.53-1.34-3.42-3.05-5-4.66L163.05,167C167,163.26,170.87,159.54,174.21,156.05Z"/><path class="cls-2" d="M127.5,161.54c0,2,.06,5.23.45,9.34l1.57.2Z"/><path class="cls-2" d="M158.22,128.89l-.06.14.86-1h0C158.76,128.34,158.49,128.62,158.22,128.89Z"/><path class="cls-2" d="M154.47,132.24c-.56,1-1.12,1.93-1.7,2.86l5.39-6.07.06-.14A43.43,43.43,0,0,1,154.47,132.24Z"/><path class="cls-2" d="M162.46,120.15l7-16,.54,0c.2-1.2.38-2.4.53-3.61l-8.67,20Z"/><path class="cls-2" d="M108.7,89.7c0,1.69.07,3.59.19,5.76,0,.36,0,.68.06,1,.29-2.57.63-5,1-7.39A7.23,7.23,0,0,1,108.7,89.7Z"/><path class="cls-2" d="M171,91.08a28.09,28.09,0,0,1-3.58.52c-.1,1.26-.22,2.54-.4,3.87a104,104,0,0,1-7.56,26.64l2.36-1.55,8.67-20A68.28,68.28,0,0,0,171,91.08Z"/><polygon class="cls-2" points="162.46 120.15 162.46 120.14 161.83 120.56 161.83 120.56 162.46 120.15"/><polygon class="cls-2" points="161.83 120.56 161.83 120.56 159.47 122.11 159.47 122.11 161.83 120.56"/><path class="cls-2" d="M159,128.06l3.44-7.91-.63.41-3.61,8.33C158.49,128.62,158.76,128.34,159,128.06Z"/><path class="cls-2" d="M158.22,128.89l3.61-8.33-2.36,1.55a101.52,101.52,0,0,1-5,10.13A43.43,43.43,0,0,0,158.22,128.89Z"/><path class="cls-2" d="M146.84,181.34l-14.62,2.51-2.7-12.77-1.57-.2a102.2,102.2,0,0,0,4.57,22.37S138.71,188.29,146.84,181.34Z"/><path class="cls-2" d="M158.13,179.39h0c-4.11,4-8.15,7.76-11.76,11q4.31-2,9.08-3.87c9.67-3.83,18-5.31,25.13-5.28.2-.51.4-1,.63-1.52,3.21-7.22,11.18-8,17.71-5.69-8.42-8.68-23.58-19.17-23.58-19.17l-1.13,1.19c1.65,1.45,2.89,2.48,2.89,2.48A209.1,209.1,0,0,1,158.13,179.39Z"/><path class="cls-2" d="M98.41,199.63l1.65-9.16,3.66-6.88c2.29-6.16,4.34-10.48,5.89-11.63v.61l.44-.82,1.5-.15c.23-.46.37-.71.37-.71-.11.23-.22.47-.32.7l5.48-.57.07-.2h1.77l-1.84.2-7.62,22.73-.09,12.6h9.42a138.56,138.56,0,0,1,12.14-8c-5.7-13.18-7.39-34.93-7.39-34.93s1.73-1.79,3.61-3.58l0-.17c-2.85,1.34-19.2,9.06-23.18,12.27-4.37,3.53-5.49,10.92-7.19,17.75-1.14,4.58-5.42,10.06-8.78,16.64H96.4C97.07,204.06,97.74,201.81,98.41,199.63Z"/><polygon class="cls-2" points="105.22 206.35 107.13 206.35 109.36 206.35 109.45 193.75 105.22 206.35"/><path class="cls-2" d="M109.61,172c-1.55,1.15-3.6,5.47-5.89,11.63l5.88-11Z"/><path class="cls-2" d="M98.41,199.63c-.67,2.18-1.34,4.43-2,6.72h.8Z"/><path class="cls-2" d="M163.05,167l-4.92,12.44a209.1,209.1,0,0,0,19-20.86s-1.24-1-2.89-2.48C170.87,159.54,167,163.26,163.05,167Z"/><path class="cls-2" d="M126.43,170.66s.55.09,1.52.22c-.39-4.11-.46-7.37-.45-9.34l-.36-1.68c-1.88,1.79-3.61,3.58-3.61,3.58s1.69,21.75,7.39,34.93l1-.6Z"/><path class="cls-2" d="M136.82,195.08q4.45-2.37,9.55-4.69c3.61-3.24,7.65-7,11.76-11l-7.19,1.24Z"/><path class="cls-2" d="M146.84,181.34c-8.13,6.95-14.32,11.91-14.32,11.91A102.2,102.2,0,0,1,128,170.88c-1-.13-1.52-.22-1.52-.22L132,197.77c1.55-.9,3.18-1.79,4.87-2.69l14.12-14.45Z"/><path class="cls-2" d="M198.92,174c.6.61,1.16,1.22,1.68,1.81,4.67,5.3,7.76,9.8,8.4,16.22a36.48,36.48,0,0,1,7.53,9.48s0-.67-.08-1.86c-3.66-11.83-4.8-15.67-10.7-21.52A18.82,18.82,0,0,0,198.92,174Z"/><path class="cls-2" d="M181.21,179.72c-.23.5-.43,1-.63,1.52,13.54.06,22.73,5.55,28.42,10.82-.64-6.42-3.73-10.92-8.4-16.22-.52-.59-1.08-1.2-1.68-1.81C192.39,171.71,184.42,172.5,181.21,179.72Z"/><path class="cls-2" d="M170.87,74.25c-3.33-13-11.79-28.21-33.24-22.31l20.5,2.71Z"/><path class="cls-2" d="M124.66,57.34q-2.44,1.32-5,2.93l1,1.26A27.08,27.08,0,0,1,124.66,57.34Z"/><path class="cls-2" d="M137.22,52.54a27.93,27.93,0,0,1,25.53,14c5.58,5.1,8.1,14.46,8.26,24.51.68-.14,1.36-.3,2-.5a72.24,72.24,0,0,0-2.17-16.33l-12.74-19.6-20.5-2.71c-.85.23-1.73.5-2.63.81A18.13,18.13,0,0,1,137.22,52.54Z"/><path class="cls-2" d="M167.43,91.6a28.09,28.09,0,0,0,3.58-.52c-.16-10-2.68-19.41-8.26-24.51a39.09,39.09,0,0,1,4.85,18.69A59.65,59.65,0,0,1,167.43,91.6Z"/><path class="cls-2" d="M111,76c.09-.22.19-.42.28-.64l2.17-10-3.23,2.67-3.78,21.1s.29.93,1.68.71l.66-3A30,30,0,0,1,111,76Z"/><path class="cls-2" d="M108.75,86.81l-.66,3a4.63,4.63,0,0,0,.61-.16C108.7,88.66,108.71,87.7,108.75,86.81Z"/><path class="cls-2" d="M117.1,66.82a36.22,36.22,0,0,1,3.42-5.22c-.59-.85-.9-1.33-.9-1.33l-6.2,5.11-2.17,10A26.45,26.45,0,0,1,117.1,66.82Z"/><path class="cls-2" d="M111,76a30,30,0,0,0-2.22,10.83l2.5-11.47C111.16,75.56,111.06,75.76,111,76Z"/><path class="cls-2" d="M115,71.24c.66-1.57,1.38-3,2.13-4.42a26.45,26.45,0,0,0-5.85,8.52l-2.5,11.47c0,.89,0,1.85,0,2.89a7.23,7.23,0,0,0,1.29-.61A80.55,80.55,0,0,1,115,71.24Z"/><path class="cls-2" d="M119.62,60.27s.31.48.9,1.33l.06-.07Z"/><path class="cls-2" d="M108.53,100.9a6.25,6.25,0,0,1-.37-.53s0,0,0,0c0,.46-.05.93,0,1.4s0,1.06,0,1.62.09,1.27.17,1.94c0-1.32.07-2.66.18-4Z"/><path class="cls-2" d="M108.57,100.51c0-.42.08-.82.11-1.23A4.77,4.77,0,0,0,108.57,100.51Z"/><path class="cls-2" d="M108.25,99.46l0-.16v-.15a.31.31,0,0,1,0-.1,1.55,1.55,0,0,1,.33-.49l.1-.07c0-.15,0-.31,0-.46l-1.15.24c-.42.07-.4.25-.4.4v.91c0,.44.65.4.9.77,0-.06,0-.12,0-.18C108.17,99.91,108.22,99.69,108.25,99.46Z"/><path class="cls-2" d="M108.53,100.9c0-.14,0-.26,0-.39a4.77,4.77,0,0,1,.11-1.23c0-.26,0-.53.08-.79l-.1.07a1.55,1.55,0,0,0-.33.49.31.31,0,0,0,0,.1v.15l0,.16c0,.23-.08.45-.09.71,0,.06,0,.12,0,.18s0,0,0,0A6.25,6.25,0,0,0,108.53,100.9Z"/><path class="cls-2" d="M170.74,104.83a194.72,194.72,0,0,1-5.82,22.51c-.23,3.25-.44,6.55-.48,8.48A245.55,245.55,0,0,0,170.74,104.83Z"/><path class="cls-2" d="M135.17,148.75l-9.4,1.49a9.67,9.67,0,0,0,9,1.95,4.13,4.13,0,0,0,.38-1.69Z"/><path class="cls-2" d="M146.12,172.19c5.47-5.17,12.5-15.55,18.32-36.37,0-1.93.25-5.23.48-8.48-4.47,14-11.77,31.71-22.81,44.77C143.42,172.16,144.77,172.19,146.12,172.19Z"/><path class="cls-2" d="M141.56,147.73h0a59,59,0,0,1-6.35,2.76h0a4.13,4.13,0,0,1-.38,1.69c3-.79,6.07-2.79,9.1-5.71C143.1,146.93,142.32,147.34,141.56,147.73Z"/><path class="cls-2" d="M152.77,135.1l-11.21,12.63c.76-.39,1.54-.8,2.33-1.25A59.19,59.19,0,0,0,152.77,135.1Z"/><path class="cls-2" d="M135.17,150.5h0a59,59,0,0,0,6.35-2.76l-6.35,1Z"/><path class="cls-2" d="M142.11,172.11a67.44,67.44,0,0,1-4.89,5.22s3.75-.26,8.9-5.14C144.77,172.19,143.42,172.16,142.11,172.11Z"/><path class="cls-2" d="M165.62,118.57c-.11,1.33-.42,5-.7,8.77a194.72,194.72,0,0,0,5.82-22.51,245.55,245.55,0,0,1-6.3,31c0,.19,0,.38,0,.55,0,4.15.38,8.14,1.5,11a16.5,16.5,0,0,0,3.26,4l7.4-18.73,3.55-27.92-10.17-.6a62,62,0,0,1-3.54,12.6C166.18,117.37,165.91,118,165.62,118.57Z"/><path class="cls-2" d="M129.86,157.4c.52-.43,1-.86,1.56-1.3l-4.64,2.05.32,1.54.43-.2C128.34,158.73,129.16,158,129.86,157.4Z"/><path class="cls-2" d="M134.79,152.19a9.67,9.67,0,0,1-9-1.95l-.64.11,1.65,7.8,4.64-2.05A11.94,11.94,0,0,0,134.79,152.19Z"/><path class="cls-2" d="M164.43,136.37c0-.17,0-.36,0-.55-5.82,20.82-12.85,31.2-18.32,36.37a62,62,0,0,0,12.26-1c1.56-1.4,3.12-2.83,4.67-4.26l6.14-15.56a16.5,16.5,0,0,1-3.26-4C164.81,144.51,164.43,140.52,164.43,136.37Z"/><path class="cls-2" d="M127.5,161.54l2,9.54c2.89.35,7.52.83,12.59,1,11-13.06,18.34-30.77,22.81-44.77.28-3.76.59-7.44.7-8.77-.16.33-.32.66-.49,1a57.46,57.46,0,0,1-2.22,6.68,37.34,37.34,0,0,1-9.22,13.12L150,147.94l-18.55,8.16c-.51.44-1,.87-1.56,1.3-.7.58-1.52,1.33-2.33,2.09h0S127.5,160.22,127.5,161.54Z"/><path class="cls-2" d="M153.69,139.36a50.79,50.79,0,0,1-9.8,7.12c-3,2.92-6.11,4.92-9.1,5.71a11.94,11.94,0,0,1-3.37,3.91L150,147.94Z"/><path class="cls-2" d="M159,128.06l-.86,1-4.47,10.33a37.34,37.34,0,0,0,9.22-13.12,57.46,57.46,0,0,0,2.22-6.68,37.6,37.6,0,0,1-6.11,8.5Z"/><path class="cls-2" d="M152.77,135.1a59.19,59.19,0,0,1-8.88,11.38,50.79,50.79,0,0,0,9.8-7.12L158.16,129Z"/><path class="cls-2" d="M162.46,120.15l3-2h0l.17-.11,0,.53c.29-.6.56-1.2.81-1.83a62,62,0,0,0,3.54-12.6l-.54,0Z"/><path class="cls-2" d="M165.62,118.57l0-.53-.17.11c-.12.47-.25.94-.37,1.41C165.3,119.23,165.46,118.9,165.62,118.57Z"/><polygon class="cls-2" points="165.5 118.15 165.5 118.15 162.46 120.14 162.46 120.15 165.5 118.15"/><path class="cls-2" d="M159,128.06a37.6,37.6,0,0,0,6.11-8.5c.12-.47.25-.94.37-1.41l-3,2Z"/><path class="cls-2" d="M142.11,172.11c-5.07-.2-9.7-.68-12.59-1l2.7,12.77,14.62-2.51c3.59-3.08,7.56-6.53,11.54-10.13a62,62,0,0,1-12.26,1c-5.15,4.88-8.9,5.14-8.9,5.14A67.44,67.44,0,0,0,142.11,172.11Z"/><path class="cls-2" d="M127.53,159.49l-.43.2,0,.17Z"/><polygon class="cls-2" points="158.13 179.39 158.13 179.39 158.13 179.39 158.13 179.39"/><path class="cls-2" d="M150.94,180.63l7.19-1.24h0L163.05,167c-1.55,1.43-3.11,2.86-4.67,4.26.8-.16,1.57-.34,2.29-.55Z"/><path class="cls-2" d="M127.54,159.48h0l-.39.37.36,1.68C127.5,160.22,127.54,159.48,127.54,159.48Z"/><path class="cls-2" d="M150.94,180.63l9.73-10c-.72.21-1.49.39-2.29.55-4,3.6-7.95,7-11.54,10.13Z"/><path class="cls-2" d="M109.57,176.56c.65-1.77,1.32-3.44,2-5h0c-.4.77-1.1,2.16-2,4Z"/><path class="cls-2" d="M109.57,176.56v-.95c-3,6.51-8,18.78-9.24,30.74H102C103.59,198,106.18,185.9,109.57,176.56Z"/><path class="cls-2" d="M100.06,190.47l-1.65,9.16c1.83-6,3.64-11.51,5.31-16Z"/><polygon class="cls-2" points="117.14 170.82 117.07 171.02 118.91 170.82 117.14 170.82"/><path class="cls-2" d="M109.45,193.75,117.07,171l-5.48.57c-.7,1.53-1.37,3.2-2,5Z"/><path class="cls-2" d="M111.54,171.6l-1.5.15-.44.82,0,3C110.44,173.76,111.14,172.37,111.54,171.6Z"/><path class="cls-2" d="M102,206.35h3.2l4.23-12.6.12-17.19C106.18,185.9,103.59,198,102,206.35Z"/><path class="cls-2" d="M97.2,206.35h3.14c1.22-12,6.23-24.23,9.24-30.74l0-3-5.88,11c-1.67,4.53-3.48,10-5.31,16Z"/><path class="cls-13" d="M86.56,265.66l-2.87,6.77L86,288.93c2.61-8.05,5-15.25,6.45-19.73C90.62,268.19,88.64,267,86.56,265.66Z"/><path class="cls-13" d="M84.44,227.54l-1,.06a10.89,10.89,0,0,1,.31-6.85,25.38,25.38,0,0,1,.39-3.83,37.71,37.71,0,0,1,3.07-9c.06-.51.14-1,.21-1.54h-13l4.7,33.27a88.35,88.35,0,0,1,6-9.88C84.8,229,84.61,228.29,84.44,227.54Z"/><path class="cls-13" d="M91.09,294.36c.5-6.08.91-10.56,1.2-12.92.51-4.26.79-8.2.9-11.85l-.72-.39c-1.5,4.48-3.84,11.68-6.45,19.73l.46,3.27Q88.76,293.31,91.09,294.36Z"/><path class="cls-13" d="M93.22,263.39c-.34-3.35-.72-6.92-1.16-10.74l-5.5,13c2.08,1.36,4.06,2.53,5.91,3.54.29-.89.55-1.66.77-2.32C93.25,265.68,93.24,264.52,93.22,263.39Z"/><path class="cls-13" d="M92.47,269.2l.72.39c0-.93,0-1.83,0-2.71C93,267.54,92.76,268.31,92.47,269.2Z"/><path class="cls-13" d="M124.4,206.35l1,8.22c10.75-.9,21.55,9.17,30.15,20.45l-4-28.67Z"/><path class="cls-13" d="M160.32,269.68l-6-10.16c.49,3.92,1,7.38,1.44,10.49h.13Q158.12,269.86,160.32,269.68Z"/><path class="cls-13" d="M84.44,227.54c.17.75.36,1.48.58,2.2.56-.81,1.15-1.6,1.74-2.37Z"/><path class="cls-13" d="M158.41,284.3c1.89,8.42,3.81,14,5.91,23,.46,0,.93,0,1.39-.09l-3.19-22.58Z"/><path class="cls-13" d="M87.19,207.89a37.71,37.71,0,0,0-3.07,9,25.38,25.38,0,0,0-.39,3.83c1-3.28,2.89-6.64,3.24-10.83C87,209.25,87.11,208.57,87.19,207.89Z"/><path class="cls-13" d="M93.86,269.94l-.67-.35c-.11,3.65-.39,7.59-.9,11.85-.29,2.36-.7,6.84-1.2,12.92,1.48.66,3,1.29,4.47,1.91C95.39,289.61,94.9,281.19,93.86,269.94Z"/><path class="cls-13" d="M93.24,266.88c.09-.27.18-.51.25-.74-.08-.9-.17-1.81-.27-2.75C93.24,264.52,93.25,265.68,93.24,266.88Z"/><path class="cls-13" d="M93.49,266.14c-.07.23-.16.47-.25.74,0,.88,0,1.78,0,2.71l.67.35C93.74,268.71,93.62,267.44,93.49,266.14Z"/><path class="cls-13" d="M160.42,269.83l-.1-.15q-2.2.18-4.44.33Z"/><path class="cls-13" d="M88,206.35H87.4c-.07.51-.15,1-.21,1.54C87.44,207.37,87.69,206.85,88,206.35Z"/><path class="cls-13" d="M83.73,220.75a10.89,10.89,0,0,0-.31,6.85l1-.06A28,28,0,0,1,83.73,220.75Z"/><path class="cls-13" d="M92.16,221.38c1.37-5,2.8-10.12,4.24-15H88c-.26.5-.51,1-.76,1.54-.08.68-.17,1.36-.22,2-.35,4.19-2.19,7.55-3.24,10.83a28,28,0,0,0,.71,6.79l2.32-.17A50.35,50.35,0,0,1,92.16,221.38Z"/><path class="cls-13" d="M102.27,215.14a18.74,18.74,0,0,1,5.78-.92l-.92-7.87h-1.91Z"/><path class="cls-13" d="M95.89,213.61l1.31-7.26h-.8c-1.44,4.91-2.87,10-4.24,15a31.8,31.8,0,0,1,5.76-4.31Z"/><path class="cls-13" d="M100.3,215.87l.1,0c.17-1.16.73-4.72,1.62-9.48h-1.68A45.26,45.26,0,0,0,100.3,215.87Z"/><path class="cls-13" d="M102,206.35c-.89,4.76-1.45,8.32-1.62,9.48.61-.26,1.24-.49,1.87-.69l3-8.79Z"/><path class="cls-13" d="M100.34,206.35H97.2l-1.31,7.26,2,3.46a25.25,25.25,0,0,1,2.38-1.2A45.26,45.26,0,0,1,100.34,206.35Z"/><path class="cls-13" d="M82.33,262.75l1.36,9.68,2.87-6.77Q84.51,264.32,82.33,262.75Z"/><path class="cls-14" d="M82.33,262.75l1.36,9.68,2.87-6.77Q84.51,264.32,82.33,262.75Z"/><path class="cls-14" d="M82.33,262.75l1.36,9.68,2.87-6.77Q84.51,264.32,82.33,262.75Z"/><path class="cls-13" d="M85,229.74a88.35,88.35,0,0,0-6,9.88l3,21.09c.84-3.48,3-12.45,5.89-23.44A54.88,54.88,0,0,1,85,229.74Z"/><path class="cls-14" d="M85,229.74a88.35,88.35,0,0,0-6,9.88l3,21.09c.84-3.48,3-12.45,5.89-23.44A54.88,54.88,0,0,1,85,229.74Z"/><path class="cls-14" d="M85,229.74a88.35,88.35,0,0,0-6,9.88l3,21.09c.84-3.48,3-12.45,5.89-23.44A54.88,54.88,0,0,1,85,229.74Z"/><path class="cls-13" d="M92.06,252.65c.44,3.82.82,7.39,1.16,10.74-.22-10.08-1.71-17-2.67-20.15a59.13,59.13,0,0,0-2.62-6c-2.85,11-5.05,20-5.89,23.44l.29,2q2.17,1.58,4.23,2.91Z"/><path class="cls-14" d="M92.06,252.65c.44,3.82.82,7.39,1.16,10.74-.22-10.08-1.71-17-2.67-20.15a59.13,59.13,0,0,0-2.62-6c-2.85,11-5.05,20-5.89,23.44l.29,2q2.17,1.58,4.23,2.91Z"/><path class="cls-14" d="M92.06,252.65c.44,3.82.82,7.39,1.16,10.74-.22-10.08-1.71-17-2.67-20.15a59.13,59.13,0,0,0-2.62-6c-2.85,11-5.05,20-5.89,23.44l.29,2q2.17,1.58,4.23,2.91Z"/><path class="cls-13" d="M108.32,298.68c.22-2.79,1.32-4.24,1.65-5.7-.5.06-1,.09-1.42.11-.85,1.58-1.74,3.21-2.65,4.86A6.58,6.58,0,0,0,108.32,298.68Z"/><path class="cls-14" d="M108.32,298.68c.22-2.79,1.32-4.24,1.65-5.7-.5.06-1,.09-1.42.11-.85,1.58-1.74,3.21-2.65,4.86A6.58,6.58,0,0,0,108.32,298.68Z"/><path class="cls-14" d="M108.32,298.68c.22-2.79,1.32-4.24,1.65-5.7-.5.06-1,.09-1.42.11-.85,1.58-1.74,3.21-2.65,4.86A6.58,6.58,0,0,0,108.32,298.68Z"/><path class="cls-13" d="M86.76,227.37c-.59.77-1.18,1.56-1.74,2.37a54.88,54.88,0,0,0,2.91,7.53c.85-3.27,1.76-6.71,2.7-10.24C89.26,227.16,87.91,227.28,86.76,227.37Z"/><path class="cls-14" d="M86.76,227.37c-.59.77-1.18,1.56-1.74,2.37a54.88,54.88,0,0,0,2.91,7.53c.85-3.27,1.76-6.71,2.7-10.24C89.26,227.16,87.91,227.28,86.76,227.37Z"/><path class="cls-14" d="M86.76,227.37c-.59.77-1.18,1.56-1.74,2.37a54.88,54.88,0,0,0,2.91,7.53c.85-3.27,1.76-6.71,2.7-10.24C89.26,227.16,87.91,227.28,86.76,227.37Z"/><path class="cls-13" d="M113.9,225.75a13,13,0,0,0-4.7,2.62l0,5.66a11.36,11.36,0,0,0,4.7,1.53c5.48-2.53,6.78-3.23,12.89-.35,9.05-2.55,6.18-4-.54-9.91,2.13-1.67,5.54.87,10.75,5.09,4,3.12-11.35,10.4-12.91,10.13l.85,5.22c7.34-.32,19.63-.75,14.87-10.08-.48-5.42,3.6-.73,3.24,5.57-.93,6-11.29,6.32-17.83,6.77-.31,1,.86,3.25.55,4.29,7.57,1.48,16.63,3.87,21.27-4.75l.71,3.65c-3.87,6.39-15.66,4.88-21.31,4.33.28,1.69.29,2.15.57,3.84,7,1.83,15.32,8.1,22.32-3.24l1,4.48c-6.3,8.19-15.4,4.74-23,2.07.09.38.16.91.23,1.46.66,0,1.34,0,2,0,5.23,0,13.32,6.12,13.32,6.12l5.51,0a14.06,14.06,0,0,0,3-4.84l.74,4.33c-.1.16-.21.3-.31.44l3.94-.15c-.47-3.11-.95-6.57-1.44-10.49l6,10.16h.09L155.52,235c-8.6-11.28-19.4-21.35-30.15-20.45l-1-8.22h-5.62a112.69,112.69,0,0,0-9.48,7.81l-.08,11.1A7,7,0,0,1,113.9,225.75Z"/><path class="cls-14" d="M113.9,225.75a13,13,0,0,0-4.7,2.62l0,5.66a11.36,11.36,0,0,0,4.7,1.53c5.48-2.53,6.78-3.23,12.89-.35,9.05-2.55,6.18-4-.54-9.91,2.13-1.67,5.54.87,10.75,5.09,4,3.12-11.35,10.4-12.91,10.13l.85,5.22c7.34-.32,19.63-.75,14.87-10.08-.48-5.42,3.6-.73,3.24,5.57-.93,6-11.29,6.32-17.83,6.77-.31,1,.86,3.25.55,4.29,7.57,1.48,16.63,3.87,21.27-4.75l.71,3.65c-3.87,6.39-15.66,4.88-21.31,4.33.28,1.69.29,2.15.57,3.84,7,1.83,15.32,8.1,22.32-3.24l1,4.48c-6.3,8.19-15.4,4.74-23,2.07.09.38.16.91.23,1.46.66,0,1.34,0,2,0,5.23,0,13.32,6.12,13.32,6.12l5.51,0a14.06,14.06,0,0,0,3-4.84l.74,4.33c-.1.16-.21.3-.31.44l3.94-.15c-.47-3.11-.95-6.57-1.44-10.49l6,10.16h.09L155.52,235c-8.6-11.28-19.4-21.35-30.15-20.45l-1-8.22h-5.62a112.69,112.69,0,0,0-9.48,7.81l-.08,11.1A7,7,0,0,1,113.9,225.75Z"/><path class="cls-14" d="M113.9,225.75a13,13,0,0,0-4.7,2.62l0,5.66a11.36,11.36,0,0,0,4.7,1.53c5.48-2.53,6.78-3.23,12.89-.35,9.05-2.55,6.18-4-.54-9.91,2.13-1.67,5.54.87,10.75,5.09,4,3.12-11.35,10.4-12.91,10.13l.85,5.22c7.34-.32,19.63-.75,14.87-10.08-.48-5.42,3.6-.73,3.24,5.57-.93,6-11.29,6.32-17.83,6.77-.31,1,.86,3.25.55,4.29,7.57,1.48,16.63,3.87,21.27-4.75l.71,3.65c-3.87,6.39-15.66,4.88-21.31,4.33.28,1.69.29,2.15.57,3.84,7,1.83,15.32,8.1,22.32-3.24l1,4.48c-6.3,8.19-15.4,4.74-23,2.07.09.38.16.91.23,1.46.66,0,1.34,0,2,0,5.23,0,13.32,6.12,13.32,6.12l5.51,0a14.06,14.06,0,0,0,3-4.84l.74,4.33c-.1.16-.21.3-.31.44l3.94-.15c-.47-3.11-.95-6.57-1.44-10.49l6,10.16h.09L155.52,235c-8.6-11.28-19.4-21.35-30.15-20.45l-1-8.22h-5.62a112.69,112.69,0,0,0-9.48,7.81l-.08,11.1A7,7,0,0,1,113.9,225.75Z"/><path class="cls-13" d="M119.41,266.68c-.09.38-.18.78-.28,1.19l.93-.7A5.8,5.8,0,0,1,119.41,266.68Z"/><path class="cls-14" d="M119.41,266.68c-.09.38-.18.78-.28,1.19l.93-.7A5.8,5.8,0,0,1,119.41,266.68Z"/><path class="cls-14" d="M119.41,266.68c-.09.38-.18.78-.28,1.19l.93-.7A5.8,5.8,0,0,1,119.41,266.68Z"/><path class="cls-13" d="M149,283.6a12.82,12.82,0,0,1-7.5.69l-.91.29c1.38,4.52,9,9.21,13.69.68l.75,4.59c-2.84,1.4-6.08,2.64-8.93,4,1.48,4.83,4.87,5.56,8.84-.73.11.9.36,2,.46,2.85-1.35,2-3.72,3.43-5.07,5.42-.6,2.62,1.29,3.32,4.89.7-.24,1.08.84,1.11.48,1.64-1.18,1.72-3.19,2.21-4.37,3.91l2.55,0q5.28,0,10.47-.36c-2.1-9-4-14.62-5.91-23l-7.93-.73Z"/><path class="cls-14" d="M149,283.6a12.82,12.82,0,0,1-7.5.69l-.91.29c1.38,4.52,9,9.21,13.69.68l.75,4.59c-2.84,1.4-6.08,2.64-8.93,4,1.48,4.83,4.87,5.56,8.84-.73.11.9.36,2,.46,2.85-1.35,2-3.72,3.43-5.07,5.42-.6,2.62,1.29,3.32,4.89.7-.24,1.08.84,1.11.48,1.64-1.18,1.72-3.19,2.21-4.37,3.91l2.55,0q5.28,0,10.47-.36c-2.1-9-4-14.62-5.91-23l-7.93-.73Z"/><path class="cls-14" d="M149,283.6a12.82,12.82,0,0,1-7.5.69l-.91.29c1.38,4.52,9,9.21,13.69.68l.75,4.59c-2.84,1.4-6.08,2.64-8.93,4,1.48,4.83,4.87,5.56,8.84-.73.11.9.36,2,.46,2.85-1.35,2-3.72,3.43-5.07,5.42-.6,2.62,1.29,3.32,4.89.7-.24,1.08.84,1.11.48,1.64-1.18,1.72-3.19,2.21-4.37,3.91l2.55,0q5.28,0,10.47-.36c-2.1-9-4-14.62-5.91-23l-7.93-.73Z"/><path class="cls-13" d="M134.39,286.59a30.66,30.66,0,0,1-9.69.34c-.19,0-5.35-.75-9-1.35a64.3,64.3,0,0,0-5.88,15.73,153.72,153.72,0,0,0,41.45,6.36c-4.92-9-8.66-15.9-13.12-22.21A32.64,32.64,0,0,1,134.39,286.59Z"/><path class="cls-14" d="M134.39,286.59a30.66,30.66,0,0,1-9.69.34c-.19,0-5.35-.75-9-1.35a64.3,64.3,0,0,0-5.88,15.73,153.72,153.72,0,0,0,41.45,6.36c-4.92-9-8.66-15.9-13.12-22.21A32.64,32.64,0,0,1,134.39,286.59Z"/><path class="cls-14" d="M134.39,286.59a30.66,30.66,0,0,1-9.69.34c-.19,0-5.35-.75-9-1.35a64.3,64.3,0,0,0-5.88,15.73,153.72,153.72,0,0,0,41.45,6.36c-4.92-9-8.66-15.9-13.12-22.21A32.64,32.64,0,0,1,134.39,286.59Z"/><path class="cls-13" d="M120.9,263.89a7.89,7.89,0,0,0-.19-1.07c-.17.1-.34.18-.52.27,0,.26-.11.54-.17.83C120.29,263.9,120.58,263.89,120.9,263.89Z"/><path class="cls-14" d="M120.9,263.89a7.89,7.89,0,0,0-.19-1.07c-.17.1-.34.18-.52.27,0,.26-.11.54-.17.83C120.29,263.9,120.58,263.89,120.9,263.89Z"/><path class="cls-14" d="M120.9,263.89a7.89,7.89,0,0,0-.19-1.07c-.17.1-.34.18-.52.27,0,.26-.11.54-.17.83C120.29,263.9,120.58,263.89,120.9,263.89Z"/><path class="cls-13" d="M110.63,289.19l.78-.32a17.93,17.93,0,0,1,1.52-3.79l-.16,0C112.11,286.36,111.39,287.74,110.63,289.19Z"/><path class="cls-14" d="M110.63,289.19l.78-.32a17.93,17.93,0,0,1,1.52-3.79l-.16,0C112.11,286.36,111.39,287.74,110.63,289.19Z"/><path class="cls-14" d="M110.63,289.19l.78-.32a17.93,17.93,0,0,1,1.52-3.79l-.16,0C112.11,286.36,111.39,287.74,110.63,289.19Z"/><path class="cls-13" d="M118.48,245.64c-.17-.8-.68-4.24-.85-5-2.86-1.23-6-2.26-8.49-3.48l-.07,8.49A25,25,0,0,0,118.48,245.64Z"/><path class="cls-14" d="M118.48,245.64c-.17-.8-.68-4.24-.85-5-2.86-1.23-6-2.26-8.49-3.48l-.07,8.49A25,25,0,0,0,118.48,245.64Z"/><path class="cls-14" d="M118.48,245.64c-.17-.8-.68-4.24-.85-5-2.86-1.23-6-2.26-8.49-3.48l-.07,8.49A25,25,0,0,0,118.48,245.64Z"/><path class="cls-13" d="M119.83,255.37a32.45,32.45,0,0,1-5.33,1.15l5.75,1.78C120.11,257.34,120,256.16,119.83,255.37Z"/><path class="cls-14" d="M119.83,255.37a32.45,32.45,0,0,1-5.33,1.15l5.75,1.78C120.11,257.34,120,256.16,119.83,255.37Z"/><path class="cls-14" d="M119.83,255.37a32.45,32.45,0,0,1-5.33,1.15l5.75,1.78C120.11,257.34,120,256.16,119.83,255.37Z"/><path class="cls-13" d="M105.75,300l-.69-.56-.16.29Z"/><path class="cls-14" d="M105.75,300l-.69-.56-.16.29Z"/><path class="cls-14" d="M105.75,300l-.69-.56-.16.29Z"/><path class="cls-13" d="M119.3,282.52l-1.78-.19a1,1,0,0,0-.08.14Z"/><path class="cls-14" d="M119.3,282.52l-1.78-.19a1,1,0,0,0-.08.14Z"/><path class="cls-14" d="M119.3,282.52l-1.78-.19a1,1,0,0,0-.08.14Z"/><path class="cls-13" d="M119.52,252.23c-.25-1.39-.49-2.78-.74-4.17a28.69,28.69,0,0,1-9.72-.28l0,6.08A27.6,27.6,0,0,0,119.52,252.23Z"/><path class="cls-14" d="M119.52,252.23c-.25-1.39-.49-2.78-.74-4.17a28.69,28.69,0,0,1-9.72-.28l0,6.08A27.6,27.6,0,0,0,119.52,252.23Z"/><path class="cls-14" d="M119.52,252.23c-.25-1.39-.49-2.78-.74-4.17a28.69,28.69,0,0,1-9.72-.28l0,6.08A27.6,27.6,0,0,0,119.52,252.23Z"/><path class="cls-13" d="M120.37,259c0-.2-.08-.43-.12-.67l-5.75-1.78a23.16,23.16,0,0,1-5.5.07l0,6.08A19.73,19.73,0,0,0,120.37,259Z"/><path class="cls-14" d="M120.37,259c0-.2-.08-.43-.12-.67l-5.75-1.78a23.16,23.16,0,0,1-5.5.07l0,6.08A19.73,19.73,0,0,0,120.37,259Z"/><path class="cls-14" d="M120.37,259c0-.2-.08-.43-.12-.67l-5.75-1.78a23.16,23.16,0,0,1-5.5.07l0,6.08A19.73,19.73,0,0,0,120.37,259Z"/><path class="cls-13" d="M119.13,267.87c.1-.41.19-.81.28-1.19-1-.95-1.19-2-.81-2.4a2.42,2.42,0,0,1,1.42-.36c.06-.29.12-.57.17-.83a20,20,0,0,1-11.26,2.61l0,4.73c2.23-.36,5-.62,8-.91C117.64,269,118.39,268.43,119.13,267.87Z"/><path class="cls-14" d="M119.13,267.87c.1-.41.19-.81.28-1.19-1-.95-1.19-2-.81-2.4a2.42,2.42,0,0,1,1.42-.36c.06-.29.12-.57.17-.83a20,20,0,0,1-11.26,2.61l0,4.73c2.23-.36,5-.62,8-.91C117.64,269,118.39,268.43,119.13,267.87Z"/><path class="cls-14" d="M119.13,267.87c.1-.41.19-.81.28-1.19-1-.95-1.19-2-.81-2.4a2.42,2.42,0,0,1,1.42-.36c.06-.29.12-.57.17-.83a20,20,0,0,1-11.26,2.61l0,4.73c2.23-.36,5-.62,8-.91C117.64,269,118.39,268.43,119.13,267.87Z"/><path class="cls-13" d="M105.06,299.46a47.65,47.65,0,0,1-4.39-3.64l-.52-2.82c1.82,2,3.68,3.92,5.75,4.95.91-1.65,1.8-3.28,2.65-4.86-4.57.16-7.07-2-9.2-4.86L99,284.94c3.72,4.56,5.69,6.66,11.66,4.25.76-1.45,1.48-2.83,2.14-4.15l-.37-.09a1.88,1.88,0,0,1-1.36-1.08c-7.41,2.06-9.83-2.49-13-5.35l-.47-3.89c2.29,3,7,8.38,12.52,6.87-2.16-.26-4-.51-4.41-.63a1.56,1.56,0,0,1-.67-2.58c.66-.85,8.07,0,8.07,0a67.65,67.65,0,0,0-7.35-.57c-2.81,0-3.77.35-3.92-1.44-.08-.9.83-1.41,1.75-1.69a14.17,14.17,0,0,1-2.51-1.33,67.35,67.35,0,0,1-7.23-3.28c1,11.25,1.53,19.67,1.7,26.33,3.07,1.25,6.18,2.42,9.34,3.48Z"/><path class="cls-14" d="M105.06,299.46a47.65,47.65,0,0,1-4.39-3.64l-.52-2.82c1.82,2,3.68,3.92,5.75,4.95.91-1.65,1.8-3.28,2.65-4.86-4.57.16-7.07-2-9.2-4.86L99,284.94c3.72,4.56,5.69,6.66,11.66,4.25.76-1.45,1.48-2.83,2.14-4.15l-.37-.09a1.88,1.88,0,0,1-1.36-1.08c-7.41,2.06-9.83-2.49-13-5.35l-.47-3.89c2.29,3,7,8.38,12.52,6.87-2.16-.26-4-.51-4.41-.63a1.56,1.56,0,0,1-.67-2.58c.66-.85,8.07,0,8.07,0a67.65,67.65,0,0,0-7.35-.57c-2.81,0-3.77.35-3.92-1.44-.08-.9.83-1.41,1.75-1.69a14.17,14.17,0,0,1-2.51-1.33,67.35,67.35,0,0,1-7.23-3.28c1,11.25,1.53,19.67,1.7,26.33,3.07,1.25,6.18,2.42,9.34,3.48Z"/><path class="cls-14" d="M105.06,299.46a47.65,47.65,0,0,1-4.39-3.64l-.52-2.82c1.82,2,3.68,3.92,5.75,4.95.91-1.65,1.8-3.28,2.65-4.86-4.57.16-7.07-2-9.2-4.86L99,284.94c3.72,4.56,5.69,6.66,11.66,4.25.76-1.45,1.48-2.83,2.14-4.15l-.37-.09a1.88,1.88,0,0,1-1.36-1.08c-7.41,2.06-9.83-2.49-13-5.35l-.47-3.89c2.29,3,7,8.38,12.52,6.87-2.16-.26-4-.51-4.41-.63a1.56,1.56,0,0,1-.67-2.58c.66-.85,8.07,0,8.07,0a67.65,67.65,0,0,0-7.35-.57c-2.81,0-3.77.35-3.92-1.44-.08-.9.83-1.41,1.75-1.69a14.17,14.17,0,0,1-2.51-1.33,67.35,67.35,0,0,1-7.23-3.28c1,11.25,1.53,19.67,1.7,26.33,3.07,1.25,6.18,2.42,9.34,3.48Z"/><path class="cls-13" d="M109.16,234l0-5.66C107.15,230.27,106.88,232.5,109.16,234Z"/><path class="cls-14" d="M109.16,234l0-5.66C107.15,230.27,106.88,232.5,109.16,234Z"/><path class="cls-14" d="M109.16,234l0-5.66C107.15,230.27,106.88,232.5,109.16,234Z"/><path class="cls-13" d="M93.78,265.33a22.84,22.84,0,0,1,2.72-5.39l-.5-3.22a20.21,20.21,0,0,0,1.75,1.61,12.94,12.94,0,0,1,4.89-3.63,21.1,21.1,0,0,1-5.58-4.12l-.5-3.89A16.1,16.1,0,0,0,109,253.86l0-6.08c-4.35-.95-7.83-3.08-9.54-6.39-1.63-4.85-1.26-9.86,1.67-8-1.85,5.62,1,10.68,7.88,12.19l.07-8.49c-3.08-1.5-5.25-3.29-4.89-6.1,1.19-3.11,2.8-5.14,5-5.77l.08-11.1a73.8,73.8,0,0,0-10,11.12c-.54.76-4.72,1.35-8.66,1.75-.94,3.53-1.85,7-2.7,10.24a59.13,59.13,0,0,1,2.62,6c1,3.12,2.45,10.07,2.67,20.15.1.94.19,1.85.27,2.75Z"/><path class="cls-14" d="M93.78,265.33a22.84,22.84,0,0,1,2.72-5.39l-.5-3.22a20.21,20.21,0,0,0,1.75,1.61,12.94,12.94,0,0,1,4.89-3.63,21.1,21.1,0,0,1-5.58-4.12l-.5-3.89A16.1,16.1,0,0,0,109,253.86l0-6.08c-4.35-.95-7.83-3.08-9.54-6.39-1.63-4.85-1.26-9.86,1.67-8-1.85,5.62,1,10.68,7.88,12.19l.07-8.49c-3.08-1.5-5.25-3.29-4.89-6.1,1.19-3.11,2.8-5.14,5-5.77l.08-11.1a73.8,73.8,0,0,0-10,11.12c-.54.76-4.72,1.35-8.66,1.75-.94,3.53-1.85,7-2.7,10.24a59.13,59.13,0,0,1,2.62,6c1,3.12,2.45,10.07,2.67,20.15.1.94.19,1.85.27,2.75Z"/><path class="cls-14" d="M93.78,265.33a22.84,22.84,0,0,1,2.72-5.39l-.5-3.22a20.21,20.21,0,0,0,1.75,1.61,12.94,12.94,0,0,1,4.89-3.63,21.1,21.1,0,0,1-5.58-4.12l-.5-3.89A16.1,16.1,0,0,0,109,253.86l0-6.08c-4.35-.95-7.83-3.08-9.54-6.39-1.63-4.85-1.26-9.86,1.67-8-1.85,5.62,1,10.68,7.88,12.19l.07-8.49c-3.08-1.5-5.25-3.29-4.89-6.1,1.19-3.11,2.8-5.14,5-5.77l.08-11.1a73.8,73.8,0,0,0-10,11.12c-.54.76-4.72,1.35-8.66,1.75-.94,3.53-1.85,7-2.7,10.24a59.13,59.13,0,0,1,2.62,6c1,3.12,2.45,10.07,2.67,20.15.1.94.19,1.85.27,2.75Z"/><path class="cls-13" d="M109,256.59a18.83,18.83,0,0,1-6.36-1.89,12.94,12.94,0,0,0-4.89,3.63,17.68,17.68,0,0,0,11.2,4.34Z"/><path class="cls-14" d="M109,256.59a18.83,18.83,0,0,1-6.36-1.89,12.94,12.94,0,0,0-4.89,3.63,17.68,17.68,0,0,0,11.2,4.34Z"/><path class="cls-14" d="M109,256.59a18.83,18.83,0,0,1-6.36-1.89,12.94,12.94,0,0,0-4.89,3.63,17.68,17.68,0,0,0,11.2,4.34Z"/><path class="cls-13" d="M96.85,269.26l-.55-3.58c2.81,3.39,5.42,5.36,7.85,6.36.64-.75,2.38-1.23,4.75-1.61l0-4.73a25.84,25.84,0,0,1-12.28-4.8l-.15-1a22.84,22.84,0,0,0-2.72,5.39l-.29.81c.13,1.3.25,2.57.37,3.8a67.35,67.35,0,0,0,7.23,3.28A19.53,19.53,0,0,1,96.85,269.26Z"/><path class="cls-14" d="M96.85,269.26l-.55-3.58c2.81,3.39,5.42,5.36,7.85,6.36.64-.75,2.38-1.23,4.75-1.61l0-4.73a25.84,25.84,0,0,1-12.28-4.8l-.15-1a22.84,22.84,0,0,0-2.72,5.39l-.29.81c.13,1.3.25,2.57.37,3.8a67.35,67.35,0,0,0,7.23,3.28A19.53,19.53,0,0,1,96.85,269.26Z"/><path class="cls-14" d="M96.85,269.26l-.55-3.58c2.81,3.39,5.42,5.36,7.85,6.36.64-.75,2.38-1.23,4.75-1.61l0-4.73a25.84,25.84,0,0,1-12.28-4.8l-.15-1a22.84,22.84,0,0,0-2.72,5.39l-.29.81c.13,1.3.25,2.57.37,3.8a67.35,67.35,0,0,0,7.23,3.28A19.53,19.53,0,0,1,96.85,269.26Z"/><path class="cls-13" d="M160.42,269.83h0l0-.16h-.09Z"/><path class="cls-14" d="M160.42,269.83h0l0-.16h-.09Z"/><path class="cls-14" d="M160.42,269.83h0l0-.16h-.09Z"/><path class="cls-13" d="M86.76,227.37c1.15-.09,2.5-.21,3.87-.34q.75-2.81,1.53-5.65A50.35,50.35,0,0,0,86.76,227.37Z"/><path class="cls-14" d="M86.76,227.37c1.15-.09,2.5-.21,3.87-.34q.75-2.81,1.53-5.65A50.35,50.35,0,0,0,86.76,227.37Z"/><path class="cls-14" d="M86.76,227.37c1.15-.09,2.5-.21,3.87-.34q.75-2.81,1.53-5.65A50.35,50.35,0,0,0,86.76,227.37Z"/><path class="cls-13" d="M109.36,206.35l-.06,7.81a112.69,112.69,0,0,1,9.48-7.81Z"/><path class="cls-14" d="M109.36,206.35l-.06,7.81a112.69,112.69,0,0,1,9.48-7.81Z"/><path class="cls-14" d="M109.36,206.35l-.06,7.81a112.69,112.69,0,0,1,9.48-7.81Z"/><path class="cls-13" d="M107.13,206.35l.92,7.87a18.74,18.74,0,0,0-5.78.92l-2,6-2.36-4a31.8,31.8,0,0,0-5.76,4.31q-.78,2.85-1.53,5.65c3.94-.4,8.12-1,8.66-1.75a73.8,73.8,0,0,1,10-11.12l.06-7.81Z"/><path class="cls-14" d="M107.13,206.35l.92,7.87a18.74,18.74,0,0,0-5.78.92l-2,6-2.36-4a31.8,31.8,0,0,0-5.76,4.31q-.78,2.85-1.53,5.65c3.94-.4,8.12-1,8.66-1.75a73.8,73.8,0,0,1,10-11.12l.06-7.81Z"/><path class="cls-14" d="M107.13,206.35l.92,7.87a18.74,18.74,0,0,0-5.78.92l-2,6-2.36-4a31.8,31.8,0,0,0-5.76,4.31q-.78,2.85-1.53,5.65c3.94-.4,8.12-1,8.66-1.75a73.8,73.8,0,0,1,10-11.12l.06-7.81Z"/><path class="cls-13" d="M100.33,216.25s0-.15.07-.42l-.1,0Z"/><path class="cls-14" d="M100.33,216.25s0-.15.07-.42l-.1,0Z"/><path class="cls-14" d="M100.33,216.25s0-.15.07-.42l-.1,0Z"/><path class="cls-13" d="M100.33,216.25l0-.38a25.25,25.25,0,0,0-2.38,1.2l2.36,4,2-6c-.63.2-1.26.43-1.87.69C100.35,216.1,100.33,216.25,100.33,216.25Z"/><path class="cls-14" d="M100.33,216.25l0-.38a25.25,25.25,0,0,0-2.38,1.2l2.36,4,2-6c-.63.2-1.26.43-1.87.69C100.35,216.1,100.33,216.25,100.33,216.25Z"/><path class="cls-14" d="M100.33,216.25l0-.38a25.25,25.25,0,0,0-2.38,1.2l2.36,4,2-6c-.63.2-1.26.43-1.87.69C100.35,216.1,100.33,216.25,100.33,216.25Z"/><path class="cls-15" d="M150.48,270.21l1.33,0c.1-.14.21-.28.31-.44l-.74-4.33a14.06,14.06,0,0,1-3,4.84h2.06Z"/><path class="cls-14" d="M150.48,270.21l1.33,0c.1-.14.21-.28.31-.44l-.74-4.33a14.06,14.06,0,0,1-3,4.84h2.06Z"/><path class="cls-14" d="M150.48,270.21l1.33,0c.1-.14.21-.28.31-.44l-.74-4.33a14.06,14.06,0,0,1-3,4.84h2.06Z"/><path class="cls-15" d="M114.5,256.52a32.45,32.45,0,0,0,5.33-1.15c.15.79.28,2,.42,2.93l.7.21s-.14,1.49-.76,4.58c.18-.09.35-.17.52-.27a7.89,7.89,0,0,1,.19,1.07c1.68,0,4.07.16,6.67.24-.07-.55-.14-1.08-.23-1.46,7.58,2.67,16.68,6.12,23-2.07l-1-4.48c-7,11.34-15.31,5.07-22.32,3.24-.28-1.69-.29-2.15-.57-3.84,5.65.55,17.44,2.06,21.31-4.33l-.71-3.65c-4.64,8.62-13.7,6.23-21.27,4.75.31-1-.86-3.25-.55-4.29,6.54-.45,16.9-.77,17.83-6.77.36-6.3-3.72-11-3.24-5.57,4.76,9.33-7.53,9.76-14.87,10.08l-.85-5.22c1.56.27,16.92-7,12.91-10.13-5.21-4.22-8.62-6.76-10.75-5.09,6.72,5.91,9.59,7.36.54,9.91-6.11-2.88-7.41-2.18-12.89.35a11.36,11.36,0,0,1-4.7-1.53l0,3.1c2.51,1.22,5.63,2.25,8.49,3.48.17.79.68,4.23.85,5a25,25,0,0,1-9.41,0v2.16a28.69,28.69,0,0,0,9.72.28c.25,1.39.49,2.78.74,4.17a27.6,27.6,0,0,1-10.5,1.63v1Z"/><path class="cls-14" d="M114.5,256.52a32.45,32.45,0,0,0,5.33-1.15c.15.79.28,2,.42,2.93l.7.21s-.14,1.49-.76,4.58c.18-.09.35-.17.52-.27a7.89,7.89,0,0,1,.19,1.07c1.68,0,4.07.16,6.67.24-.07-.55-.14-1.08-.23-1.46,7.58,2.67,16.68,6.12,23-2.07l-1-4.48c-7,11.34-15.31,5.07-22.32,3.24-.28-1.69-.29-2.15-.57-3.84,5.65.55,17.44,2.06,21.31-4.33l-.71-3.65c-4.64,8.62-13.7,6.23-21.27,4.75.31-1-.86-3.25-.55-4.29,6.54-.45,16.9-.77,17.83-6.77.36-6.3-3.72-11-3.24-5.57,4.76,9.33-7.53,9.76-14.87,10.08l-.85-5.22c1.56.27,16.92-7,12.91-10.13-5.21-4.22-8.62-6.76-10.75-5.09,6.72,5.91,9.59,7.36.54,9.91-6.11-2.88-7.41-2.18-12.89.35a11.36,11.36,0,0,1-4.7-1.53l0,3.1c2.51,1.22,5.63,2.25,8.49,3.48.17.79.68,4.23.85,5a25,25,0,0,1-9.41,0v2.16a28.69,28.69,0,0,0,9.72.28c.25,1.39.49,2.78.74,4.17a27.6,27.6,0,0,1-10.5,1.63v1Z"/><path class="cls-14" d="M114.5,256.52a32.45,32.45,0,0,0,5.33-1.15c.15.79.28,2,.42,2.93l.7.21s-.14,1.49-.76,4.58c.18-.09.35-.17.52-.27a7.89,7.89,0,0,1,.19,1.07c1.68,0,4.07.16,6.67.24-.07-.55-.14-1.08-.23-1.46,7.58,2.67,16.68,6.12,23-2.07l-1-4.48c-7,11.34-15.31,5.07-22.32,3.24-.28-1.69-.29-2.15-.57-3.84,5.65.55,17.44,2.06,21.31-4.33l-.71-3.65c-4.64,8.62-13.7,6.23-21.27,4.75.31-1-.86-3.25-.55-4.29,6.54-.45,16.9-.77,17.83-6.77.36-6.3-3.72-11-3.24-5.57,4.76,9.33-7.53,9.76-14.87,10.08l-.85-5.22c1.56.27,16.92-7,12.91-10.13-5.21-4.22-8.62-6.76-10.75-5.09,6.72,5.91,9.59,7.36.54,9.91-6.11-2.88-7.41-2.18-12.89.35a11.36,11.36,0,0,1-4.7-1.53l0,3.1c2.51,1.22,5.63,2.25,8.49,3.48.17.79.68,4.23.85,5a25,25,0,0,1-9.41,0v2.16a28.69,28.69,0,0,0,9.72.28c.25,1.39.49,2.78.74,4.17a27.6,27.6,0,0,1-10.5,1.63v1Z"/><path class="cls-15" d="M113.9,225.75a7,7,0,0,0-4.68-.49l0,3.11A13,13,0,0,1,113.9,225.75Z"/><path class="cls-14" d="M113.9,225.75a7,7,0,0,0-4.68-.49l0,3.11A13,13,0,0,1,113.9,225.75Z"/><path class="cls-14" d="M113.9,225.75a7,7,0,0,0-4.68-.49l0,3.11A13,13,0,0,1,113.9,225.75Z"/><path class="cls-15" d="M114.06,282.45c1.11,0,2.37,0,3.38,0a1,1,0,0,1,.08-.14l-3.23-.35Z"/><path class="cls-14" d="M114.06,282.45c1.11,0,2.37,0,3.38,0a1,1,0,0,1,.08-.14l-3.23-.35Z"/><path class="cls-14" d="M114.06,282.45c1.11,0,2.37,0,3.38,0a1,1,0,0,1,.08-.14l-3.23-.35Z"/><path class="cls-15" d="M155.67,303.76c.36-.53-.72-.56-.48-1.64-3.6,2.62-5.49,1.92-4.89-.7,1.35-2,3.72-3.43,5.07-5.42-.1-.9-.35-1.95-.46-2.85-4,6.29-7.36,5.56-8.84.73,2.85-1.39,6.09-2.63,8.93-4l-.75-4.59c-4.69,8.53-12.31,3.84-13.69-.68-.77.27-1.53.56-2.39.88,4.46,6.31,8.2,13.25,13.12,22.21h0C152.48,306,154.49,305.48,155.67,303.76Z"/><path class="cls-14" d="M155.67,303.76c.36-.53-.72-.56-.48-1.64-3.6,2.62-5.49,1.92-4.89-.7,1.35-2,3.72-3.43,5.07-5.42-.1-.9-.35-1.95-.46-2.85-4,6.29-7.36,5.56-8.84.73,2.85-1.39,6.09-2.63,8.93-4l-.75-4.59c-4.69,8.53-12.31,3.84-13.69-.68-.77.27-1.53.56-2.39.88,4.46,6.31,8.2,13.25,13.12,22.21h0C152.48,306,154.49,305.48,155.67,303.76Z"/><path class="cls-14" d="M155.67,303.76c.36-.53-.72-.56-.48-1.64-3.6,2.62-5.49,1.92-4.89-.7,1.35-2,3.72-3.43,5.07-5.42-.1-.9-.35-1.95-.46-2.85-4,6.29-7.36,5.56-8.84.73,2.85-1.39,6.09-2.63,8.93-4l-.75-4.59c-4.69,8.53-12.31,3.84-13.69-.68-.77.27-1.53.56-2.39.88,4.46,6.31,8.2,13.25,13.12,22.21h0C152.48,306,154.49,305.48,155.67,303.76Z"/><path class="cls-15" d="M112.93,285.08a17.93,17.93,0,0,0-1.52,3.79l-.78.32c-.66,1.26-1.36,2.56-2.08,3.9.46,0,.92,0,1.42-.11-.33,1.46-1.43,2.91-1.65,5.7a6.58,6.58,0,0,1-2.42-.73l-.84,1.51.69.56c1.35.45,2.72.88,4.09,1.29a64.3,64.3,0,0,1,5.88-15.73C114.56,285.4,113.57,285.22,112.93,285.08Z"/><path class="cls-14" d="M112.93,285.08a17.93,17.93,0,0,0-1.52,3.79l-.78.32c-.66,1.26-1.36,2.56-2.08,3.9.46,0,.92,0,1.42-.11-.33,1.46-1.43,2.91-1.65,5.7a6.58,6.58,0,0,1-2.42-.73l-.84,1.51.69.56c1.35.45,2.72.88,4.09,1.29a64.3,64.3,0,0,1,5.88-15.73C114.56,285.4,113.57,285.22,112.93,285.08Z"/><path class="cls-14" d="M112.93,285.08a17.93,17.93,0,0,0-1.52,3.79l-.78.32c-.66,1.26-1.36,2.56-2.08,3.9.46,0,.92,0,1.42-.11-.33,1.46-1.43,2.91-1.65,5.7a6.58,6.58,0,0,1-2.42-.73l-.84,1.51.69.56c1.35.45,2.72.88,4.09,1.29a64.3,64.3,0,0,1,5.88-15.73C114.56,285.4,113.57,285.22,112.93,285.08Z"/><path class="cls-15" d="M141.47,284.29a12.82,12.82,0,0,0,7.5-.69c-2.4,0-5,.13-5.8.28C142.55,284,142,284.14,141.47,284.29Z"/><path class="cls-14" d="M141.47,284.29a12.82,12.82,0,0,0,7.5-.69c-2.4,0-5,.13-5.8.28C142.55,284,142,284.14,141.47,284.29Z"/><path class="cls-14" d="M141.47,284.29a12.82,12.82,0,0,0,7.5-.69c-2.4,0-5,.13-5.8.28C142.55,284,142,284.14,141.47,284.29Z"/><path class="cls-15" d="M118.77,269.33c2.28-.24,4.6-.5,6.77-.85a9.79,9.79,0,0,1-5.48-1.31l-.93.7C119,268.34,118.9,268.82,118.77,269.33Z"/><path class="cls-14" d="M118.77,269.33c2.28-.24,4.6-.5,6.77-.85a9.79,9.79,0,0,1-5.48-1.31l-.93.7C119,268.34,118.9,268.82,118.77,269.33Z"/><path class="cls-14" d="M118.77,269.33c2.28-.24,4.6-.5,6.77-.85a9.79,9.79,0,0,1-5.48-1.31l-.93.7C119,268.34,118.9,268.82,118.77,269.33Z"/><path class="cls-15" d="M116.87,269.52l1.9-.19c.13-.51.25-1,.36-1.46C118.39,268.43,117.64,269,116.87,269.52Z"/><path class="cls-14" d="M116.87,269.52l1.9-.19c.13-.51.25-1,.36-1.46C118.39,268.43,117.64,269,116.87,269.52Z"/><path class="cls-14" d="M116.87,269.52l1.9-.19c.13-.51.25-1,.36-1.46C118.39,268.43,117.64,269,116.87,269.52Z"/><path class="cls-15" d="M101.09,273.22a14.17,14.17,0,0,0,2.51,1.33,6.26,6.26,0,0,1,.77-.2C103.41,274.06,102.32,273.68,101.09,273.22Z"/><path class="cls-14" d="M101.09,273.22a14.17,14.17,0,0,0,2.51,1.33,6.26,6.26,0,0,1,.77-.2C103.41,274.06,102.32,273.68,101.09,273.22Z"/><path class="cls-14" d="M101.09,273.22a14.17,14.17,0,0,0,2.51,1.33,6.26,6.26,0,0,1,.77-.2C103.41,274.06,102.32,273.68,101.09,273.22Z"/><path class="cls-15" d="M111.42,282.74a8.32,8.32,0,0,1,2.64-.29l.23-.47-4.16-.48c-5.55,1.51-10.23-3.84-12.52-6.87l.47,3.89c3.13,2.86,5.55,7.41,13,5.35A1,1,0,0,1,111.42,282.74Z"/><path class="cls-14" d="M111.42,282.74a8.32,8.32,0,0,1,2.64-.29l.23-.47-4.16-.48c-5.55,1.51-10.23-3.84-12.52-6.87l.47,3.89c3.13,2.86,5.55,7.41,13,5.35A1,1,0,0,1,111.42,282.74Z"/><path class="cls-14" d="M111.42,282.74a8.32,8.32,0,0,1,2.64-.29l.23-.47-4.16-.48c-5.55,1.51-10.23-3.84-12.52-6.87l.47,3.89c3.13,2.86,5.55,7.41,13,5.35A1,1,0,0,1,111.42,282.74Z"/><path class="cls-15" d="M114.5,256.52l-5.49-1.7v1.77A23.16,23.16,0,0,0,114.5,256.52Z"/><path class="cls-14" d="M114.5,256.52l-5.49-1.7v1.77A23.16,23.16,0,0,0,114.5,256.52Z"/><path class="cls-14" d="M114.5,256.52l-5.49-1.7v1.77A23.16,23.16,0,0,0,114.5,256.52Z"/><path class="cls-15" d="M99,284.94l.38,3.29c2.13,2.82,4.63,5,9.2,4.86.72-1.34,1.42-2.64,2.08-3.9C104.66,291.6,102.69,289.5,99,284.94Z"/><path class="cls-14" d="M99,284.94l.38,3.29c2.13,2.82,4.63,5,9.2,4.86.72-1.34,1.42-2.64,2.08-3.9C104.66,291.6,102.69,289.5,99,284.94Z"/><path class="cls-14" d="M99,284.94l.38,3.29c2.13,2.82,4.63,5,9.2,4.86.72-1.34,1.42-2.64,2.08-3.9C104.66,291.6,102.69,289.5,99,284.94Z"/><path class="cls-15" d="M120.19,263.09c.62-3.09.76-4.58.76-4.58l-.7-.21c0,.24.08.47.12.67a19.73,19.73,0,0,1-11.42,3.7l0,3A20,20,0,0,0,120.19,263.09Z"/><path class="cls-14" d="M120.19,263.09c.62-3.09.76-4.58.76-4.58l-.7-.21c0,.24.08.47.12.67a19.73,19.73,0,0,1-11.42,3.7l0,3A20,20,0,0,0,120.19,263.09Z"/><path class="cls-14" d="M120.19,263.09c.62-3.09.76-4.58.76-4.58l-.7-.21c0,.24.08.47.12.67a19.73,19.73,0,0,1-11.42,3.7l0,3A20,20,0,0,0,120.19,263.09Z"/><path class="cls-15" d="M100.15,293l.52,2.82a47.65,47.65,0,0,0,4.39,3.64l.84-1.51C103.83,296.92,102,295,100.15,293Z"/><path class="cls-14" d="M100.15,293l.52,2.82a47.65,47.65,0,0,0,4.39,3.64l.84-1.51C103.83,296.92,102,295,100.15,293Z"/><path class="cls-14" d="M100.15,293l.52,2.82a47.65,47.65,0,0,0,4.39,3.64l.84-1.51C103.83,296.92,102,295,100.15,293Z"/><path class="cls-15" d="M109.2,228.37l0-3.11c-2.17.63-3.78,2.66-5,5.77-.36,2.81,1.81,4.6,4.89,6.1l0-3.1C106.88,232.5,107.15,230.27,109.2,228.37Z"/><path class="cls-14" d="M109.2,228.37l0-3.11c-2.17.63-3.78,2.66-5,5.77-.36,2.81,1.81,4.6,4.89,6.1l0-3.1C106.88,232.5,107.15,230.27,109.2,228.37Z"/><path class="cls-14" d="M109.2,228.37l0-3.11c-2.17.63-3.78,2.66-5,5.77-.36,2.81,1.81,4.6,4.89,6.1l0-3.1C106.88,232.5,107.15,230.27,109.2,228.37Z"/><path class="cls-15" d="M107.09,254.23l1.92.59v-1a16.1,16.1,0,0,1-12.46-7.17l.5,3.89a21.1,21.1,0,0,0,5.58,4.12A7.75,7.75,0,0,1,107.09,254.23Z"/><path class="cls-14" d="M107.09,254.23l1.92.59v-1a16.1,16.1,0,0,1-12.46-7.17l.5,3.89a21.1,21.1,0,0,0,5.58,4.12A7.75,7.75,0,0,1,107.09,254.23Z"/><path class="cls-14" d="M107.09,254.23l1.92.59v-1a16.1,16.1,0,0,1-12.46-7.17l.5,3.89a21.1,21.1,0,0,0,5.58,4.12A7.75,7.75,0,0,1,107.09,254.23Z"/><path class="cls-15" d="M96,256.72l.5,3.22a17.18,17.18,0,0,1,1.25-1.61A20.21,20.21,0,0,1,96,256.72Z"/><path class="cls-14" d="M96,256.72l.5,3.22a17.18,17.18,0,0,1,1.25-1.61A20.21,20.21,0,0,1,96,256.72Z"/><path class="cls-14" d="M96,256.72l.5,3.22a17.18,17.18,0,0,1,1.25-1.61A20.21,20.21,0,0,1,96,256.72Z"/><path class="cls-15" d="M101.19,233.43c-2.93-1.9-3.3,3.11-1.67,8,1.71,3.31,5.19,5.44,9.54,6.39v-2.16C102.22,244.11,99.34,239.05,101.19,233.43Z"/><path class="cls-14" d="M101.19,233.43c-2.93-1.9-3.3,3.11-1.67,8,1.71,3.31,5.19,5.44,9.54,6.39v-2.16C102.22,244.11,99.34,239.05,101.19,233.43Z"/><path class="cls-14" d="M101.19,233.43c-2.93-1.9-3.3,3.11-1.67,8,1.71,3.31,5.19,5.44,9.54,6.39v-2.16C102.22,244.11,99.34,239.05,101.19,233.43Z"/><path class="cls-15" d="M108.93,265.7l0-3a17.68,17.68,0,0,1-11.2-4.34,17.18,17.18,0,0,0-1.25,1.61l.15,1A25.84,25.84,0,0,0,108.93,265.7Z"/><path class="cls-14" d="M108.93,265.7l0-3a17.68,17.68,0,0,1-11.2-4.34,17.18,17.18,0,0,0-1.25,1.61l.15,1A25.84,25.84,0,0,0,108.93,265.7Z"/><path class="cls-14" d="M108.93,265.7l0-3a17.68,17.68,0,0,1-11.2-4.34,17.18,17.18,0,0,0-1.25,1.61l.15,1A25.84,25.84,0,0,0,108.93,265.7Z"/><path class="cls-15" d="M105.37,274.21a1.3,1.3,0,0,1-1.47-1.67,1,1,0,0,1,.25-.5c-2.43-1-5-3-7.85-6.36l.55,3.58a19.53,19.53,0,0,0,4.24,4c1.23.46,2.32.84,3.28,1.13A8.92,8.92,0,0,1,105.37,274.21Z"/><path class="cls-14" d="M105.37,274.21a1.3,1.3,0,0,1-1.47-1.67,1,1,0,0,1,.25-.5c-2.43-1-5-3-7.85-6.36l.55,3.58a19.53,19.53,0,0,0,4.24,4c1.23.46,2.32.84,3.28,1.13A8.92,8.92,0,0,1,105.37,274.21Z"/><path class="cls-14" d="M105.37,274.21a1.3,1.3,0,0,1-1.47-1.67,1,1,0,0,1,.25-.5c-2.43-1-5-3-7.85-6.36l.55,3.58a19.53,19.53,0,0,0,4.24,4c1.23.46,2.32.84,3.28,1.13A8.92,8.92,0,0,1,105.37,274.21Z"/><path class="cls-15" d="M109,254.82l-1.92-.59a7.75,7.75,0,0,0-4.45.47,18.83,18.83,0,0,0,6.36,1.89Z"/><path class="cls-14" d="M109,254.82l-1.92-.59a7.75,7.75,0,0,0-4.45.47,18.83,18.83,0,0,0,6.36,1.89Z"/><path class="cls-14" d="M109,254.82l-1.92-.59a7.75,7.75,0,0,0-4.45.47,18.83,18.83,0,0,0,6.36,1.89Z"/><path class="cls-3" d="M122.53,274.47c-1,1.46-2,2.94-3,4.46a8.52,8.52,0,0,1,2.74.79,8.52,8.52,0,0,0-2.74-.79c-.7,1.11-1.39,2.25-2.06,3.4l1.78.19s3.84.61,4.74,1.64c-.9-1-4.74-1.64-4.74-1.64l-1.86,0c-.59,1-1.17,2-1.72,3.11,3.63.6,8.79,1.31,9,1.35a30.66,30.66,0,0,0,9.69-.34,32.64,32.64,0,0,0,3.78-1.13,82.69,82.69,0,0,0-9.54-11.28C126.56,274.38,124.59,274.27,122.53,274.47Z"/><path class="cls-3" d="M112.77,285l.16,0a13.2,13.2,0,0,0,.66-1.68C113.33,283.93,113.06,284.48,112.77,285Z"/><path class="cls-3" d="M119.41,266.68a5.8,5.8,0,0,0,.65.49l1.17-.89a16.41,16.41,0,0,1-.33-2.39c-.32,0-.61,0-.88,0C119.85,264.74,119.65,265.66,119.41,266.68Z"/><path class="cls-3" d="M150.48,283.1l-.43,0a10.87,10.87,0,0,1-1.08.54l1.51,0h0Z"/><path class="cls-3" d="M130.45,268.1a13.87,13.87,0,0,1,1.57,0,13.87,13.87,0,0,0-1.57,0c3.1,2.19,7.33,4.53,11.34,4.68a11.55,11.55,0,0,0,.08-2.56c1.33.14,2.45.22,3.25.22l3.15-.07.15-.14-5.51,0s-8.09-6.1-13.32-6.12c-.68,0-1.36,0-2,0,.1.73.19,1.49.3,2C128.58,266.72,129.46,267.4,130.45,268.1Z"/><path class="cls-3" d="M140.89,277.46a7.66,7.66,0,0,0-.45-.66,10.74,10.74,0,0,0,.74-1.57,25.07,25.07,0,0,1-7.63-2.56l.61,3.12a12.32,12.32,0,0,0,9.69,6.28A9.43,9.43,0,0,0,140.89,277.46Z"/><path class="cls-3" d="M140.56,284.58l.91-.29c-.35-.07-.7-.16-1.05-.26A3.7,3.7,0,0,0,140.56,284.58Z"/><path class="cls-3" d="M118.6,264.28c-.38.41-.22,1.45.81,2.4.24-1,.44-1.94.61-2.76A2.42,2.42,0,0,0,118.6,264.28Z"/><path class="cls-3" d="M113.93,274.09l2.43,0c0-.46-.1-.88-.14-1.16A22,22,0,0,1,113.93,274.09Z"/><path class="cls-3" d="M113.68,283a20.31,20.31,0,0,1-2.64.91A1.88,1.88,0,0,0,112.4,285l.37.09c.29-.56.56-1.11.82-1.64A1.8,1.8,0,0,0,113.68,283Z"/><path class="cls-3" d="M116.87,269.52c-3,.29-5.74.55-8,.91l0,2.4A16.58,16.58,0,0,0,116.87,269.52Z"/><path class="cls-3" d="M112.05,278.12s1.29.08,3,.23a21.56,21.56,0,0,0,1.61-1.9c-.06-.52-.17-1.48-.27-2.32l-2.43,0a15.82,15.82,0,0,1-5.07,1.27v.07l-.35-.05a12.07,12.07,0,0,1-4.91-.83c-.92.28-1.83.79-1.75,1.69.15,1.79,1.11,1.48,3.92,1.44a67.65,67.65,0,0,1,7.35.57s-7.41-.81-8.07,0a1.56,1.56,0,0,0,.67,2.58c.44.12,2.25.37,4.41.63a10.91,10.91,0,0,0,4.89-3.15C113.34,278.2,112.05,278.12,112.05,278.12Z"/><path class="cls-3" d="M108.86,275.43v-.07l-.35,0Z"/><path class="cls-3" d="M108.88,272.83l0-2.4c-2.37.38-4.11.86-4.75,1.61A10.53,10.53,0,0,0,108.88,272.83Z"/><path class="cls-3" d="M148.27,270.37l-3.15.07c-.8,0-1.92-.08-3.25-.22a11.55,11.55,0,0,1-.08,2.56A8.46,8.46,0,0,0,148.27,270.37Z"/><path class="cls-3" d="M141.18,275.23a10.74,10.74,0,0,1-.74,1.57,7.66,7.66,0,0,1,.45.66,9.43,9.43,0,0,1,3,4.61,8.08,8.08,0,0,0,6.63-2.46V271.8A10.35,10.35,0,0,1,141.18,275.23Z"/><path class="cls-3" d="M150.48,283.1v-.31l-.43.27Z"/><path class="cls-3" d="M117.52,282.33c.67-1.15,1.36-2.29,2.06-3.4-1.14-.2-2.45-.37-3.66-.49-.46,1.06-1,2.25-1.63,3.54Z"/><path class="cls-3" d="M148.27,270.37l2.21-.08v-.08h-2.06Z"/><path class="cls-3" d="M144.91,282.6a4.26,4.26,0,0,0-.86.13c-.05-.23-.14-.44-.2-.66a12.32,12.32,0,0,1-9.69-6.28l-.61-3.12a25.07,25.07,0,0,0,7.63,2.56,11.41,11.41,0,0,0,.61-2.45c-4-.15-8.24-2.49-11.34-4.68-2.14.09-5.2.42-5.2.42s3.06-.33,5.2-.42c-1-.7-1.87-1.38-2.58-2-.11-.51-.2-1.27-.3-2-2.6-.08-5-.25-6.67-.24a16.41,16.41,0,0,0,.33,2.39l-1.17.89a9.79,9.79,0,0,0,5.48,1.31c-2.17.35-4.49.61-6.77.85-.36,1.45-.79,3.07-1.29,4.84,1.32.05,2.51.13,3.4.26-.89-.13-2.08-.21-3.4-.26l-.15.53a31.83,31.83,0,0,1-1.41,3.74c1.21.12,2.52.29,3.66.49,1-1.52,2-3,3-4.46,2.06-.2,4-.09,6.1-.29a82.69,82.69,0,0,1,9.54,11.28c.86-.32,1.62-.61,2.39-.88a3.7,3.7,0,0,1-.14-.55c.35.1.7.19,1.05.26.52-.15,1.08-.29,1.7-.41.84-.15,3.4-.24,5.8-.28a10.87,10.87,0,0,0,1.08-.54C147.26,282.75,145.42,282.58,144.91,282.6Z"/><path class="cls-3" d="M114.06,282.45l-.47.95a13.2,13.2,0,0,1-.66,1.68c.64.14,1.63.32,2.79.5.55-1.06,1.13-2.09,1.72-3.11C116.43,282.44,115.17,282.43,114.06,282.45Z"/><path class="cls-3" d="M115.92,278.44l-.9-.09a10.91,10.91,0,0,1-4.89,3.15l4.16.48C114.91,280.69,115.46,279.5,115.92,278.44Z"/><path class="cls-3" d="M113.59,283.4l.47-.95a8.32,8.32,0,0,0-2.64.29,1,1,0,0,0-.38,1.13,20.31,20.31,0,0,0,2.64-.91A1.8,1.8,0,0,1,113.59,283.4Z"/><path class="cls-3" d="M108.88,272.83v1.29c1.48,0,3.27,0,5.06,0a22,22,0,0,0,2.29-1.12c0,.28.09.7.14,1.16l1.12,0c.5-1.77.93-3.39,1.29-4.84l-1.9.19A16.58,16.58,0,0,1,108.88,272.83Z"/><path class="cls-3" d="M116.63,276.45a21.56,21.56,0,0,1-1.61,1.9l.9.09a31.83,31.83,0,0,0,1.41-3.74l.15-.53-1.12,0C116.46,275,116.57,275.93,116.63,276.45Z"/><path class="cls-3" d="M108.51,275.38a33.67,33.67,0,0,1-4.14-1,6.26,6.26,0,0,0-.77.2A12.07,12.07,0,0,0,108.51,275.38Z"/><path class="cls-3" d="M108.87,274.12v1.24a15.82,15.82,0,0,0,5.07-1.27C112.14,274.08,110.35,274.1,108.87,274.12Z"/><path class="cls-3" d="M105.37,274.21a8.92,8.92,0,0,0-1,.14,33.67,33.67,0,0,0,4.14,1l.35,0v-1.24C106.82,274.16,105.37,274.21,105.37,274.21Z"/><path class="cls-3" d="M105.37,274.21s1.45,0,3.5-.09v-1.29a10.53,10.53,0,0,1-4.73-.79,1,1,0,0,0-.25.5A1.3,1.3,0,0,0,105.37,274.21Z"/><path class="cls-3" d="M148.27,270.37a8.46,8.46,0,0,1-6.48,2.41,11.41,11.41,0,0,1-.61,2.45,10.35,10.35,0,0,0,9.3-3.43v-1.51Z"/><path class="cls-3" d="M143.85,282.07c.06.22.15.43.2.66a4.26,4.26,0,0,1,.86-.13c.51,0,2.35.15,5.14.46l.43-.27v-3.18A8.08,8.08,0,0,1,143.85,282.07Z"/><path class="cls-3" d="M162.51,284.58l3.26.26-3.28-.37Z"/><polygon class="cls-3" points="162.52 284.67 162.53 284.67 162.52 284.67 162.52 284.67"/><path class="cls-3" d="M162.49,284.47l3.28.37,6,.47-2.24-16.51-.09.69-9.06.34v0Z"/><path class="cls-3" d="M155.88,270h0Z"/><path class="cls-3" d="M162.05,284.55l.46,0,0-.11-4.15-.48c0,.1,0,.21.07.31l4.11.37h0Z"/><path class="cls-3" d="M160.42,269.83l-4.54.18h-.13c.87,5.64,1.73,10.11,2.59,14l4.15.48-2.06-14.61Z"/><path class="cls-3" d="M152.59,270.2l3.16-.18h0l-3.94.15,0,0Z"/><path class="cls-3" d="M154.06,283.5a.53.53,0,0,1-.17,0l-3.41,0,7.93.73c0-.1,0-.21-.07-.31Z"/><polygon class="cls-3" points="160.43 269.87 160.43 269.83 160.42 269.83 160.43 269.87"/><path class="cls-3" d="M152.59,270.2h.15c3.12-.33,4.28,12.51,1.32,13.3l4.28.49c-.86-3.86-1.72-8.33-2.59-14Z"/><path class="cls-3" d="M151.78,270.2l0,0-1.33,0Z"/><path class="cls-3" d="M151.76,270.24l.83,0h-.81Z"/><path class="cls-3" d="M150.48,283.57h0l3.41,0a.53.53,0,0,0,.17,0l-3.58-.4Z"/><path class="cls-3" d="M152.74,270.2h-.15l-.83,0a17.51,17.51,0,0,1-1.28,1.56v7.81a10.41,10.41,0,0,0,2.4-4.83l.59,4a6.82,6.82,0,0,1-3,4v.31l3.58.4C157,282.71,155.86,269.87,152.74,270.2Z"/><path class="cls-3" d="M150.48,270.21h0v.08l1.28-.05,0,0Z"/><path class="cls-3" d="M150.48,271.8a17.51,17.51,0,0,0,1.28-1.56l-1.28.05Z"/><path class="cls-3" d="M153.47,278.82l-.59-4a10.41,10.41,0,0,1-2.4,4.83v3.18A6.82,6.82,0,0,0,153.47,278.82Z"/><path class="cls-1" d="M202.88,288.77v-.22h0Z"/><path class="cls-16" d="M202.88,288.77v-.22h0Z"/><path class="cls-2" d="M202.88,288.55v.22q.33,3.08.72,6.56a48,48,0,0,0,8.12,1.11,156.1,156.1,0,0,0,15.63-7.39c0-.16.06-.26.06-.26l-.24-4.41c-1.33,2.8-8,4.65-8,4.65l-.93-.07A110.66,110.66,0,0,1,202.88,288.55Z"/><path class="cls-16" d="M202.88,288.55v.22q.33,3.08.72,6.56a48,48,0,0,0,8.12,1.11,156.1,156.1,0,0,0,15.63-7.39c0-.16.06-.26.06-.26l-.24-4.41c-1.33,2.8-8,4.65-8,4.65l-.93-.07A110.66,110.66,0,0,1,202.88,288.55Z"/><path class="cls-10" d="M171.85,285.52h0l-9.32-.85,40.2,10.44.15-6.34,0-.22C193.61,287.87,182.15,286.67,171.85,285.52Z"/><path class="cls-16" d="M171.85,285.52h0l-9.32-.85,40.2,10.44.15-6.34,0-.22C193.61,287.87,182.15,286.67,171.85,285.52Z"/><path class="cls-10" d="M203.56,295.32h0q-.39-3.48-.72-6.56l-.15,6.34Z"/><path class="cls-16" d="M203.56,295.32h0q-.39-3.48-.72-6.56l-.15,6.34Z"/><path class="cls-3" d="M202.88,288.55l0-.8h-.14l.09.81Z"/><path class="cls-16" d="M202.88,288.55l0-.8h-.14l.09.81Z"/><path class="cls-3" d="M202.88,288.55a110.66,110.66,0,0,0,15.38.41l-15.36-1.21Z"/><path class="cls-16" d="M202.88,288.55a110.66,110.66,0,0,0,15.38.41l-15.36-1.21Z"/><path class="cls-3" d="M171.82,285.31l0,.21c10.3,1.15,21.76,2.35,31,3l-.09-.81Z"/><path class="cls-16" d="M171.82,285.31l0,.21c10.3,1.15,21.76,2.35,31,3l-.09-.81Z"/><path class="cls-3" d="M171.85,285.52h0l-6.08-.68-3.26-.26v.09h0Z"/><path class="cls-16" d="M171.85,285.52h0l-6.08-.68-3.26-.26v.09h0Z"/><path class="cls-3" d="M165.77,284.84l6.08.68,0-.21Z"/><path class="cls-16" d="M165.77,284.84l6.08.68,0-.21Z"/><polygon class="cls-3" points="162.52 284.67 162.51 284.58 162.05 284.55 162.52 284.67"/><polygon class="cls-16" points="162.52 284.67 162.51 284.58 162.05 284.55 162.52 284.67"/></g></g></svg>