<svg xmlns="http://www.w3.org/2000/svg" viewBox="0 0 70.7 60.1"><defs><style>.cls-1,.cls-2{fill:#247455;}.cls-1{opacity:0.2;}</style></defs><title>Asset 40</title><g id="Layer_2" data-name="Layer 2"><g id="Layer_1-2" data-name="Layer 1"><path class="cls-1" d="M35.35,30.05a3.31,3.31,0,0,1-.6,1.94L17.07,58.51a3.5,3.5,0,0,1-2.93,1.59H3.53A3.54,3.54,0,0,1,0,56.56a3.31,3.31,0,0,1,.6-1.94L17,30.05.6,5.48A3.33,3.33,0,0,1,0,3.54,3.54,3.54,0,0,1,3.53,0H14.14a3.5,3.5,0,0,1,2.93,1.59L34.75,28.1A3.34,3.34,0,0,1,35.35,30.05Z"/><path class="cls-2" d="M70.7,30.05A3.31,3.31,0,0,1,70.1,32L52.43,58.51a3.53,3.53,0,0,1-2.94,1.59H38.89a3.55,3.55,0,0,1-3.54-3.54,3.31,3.31,0,0,1,.6-1.94L52.32,30.05,36,5.48a3.33,3.33,0,0,1-.6-1.94A3.55,3.55,0,0,1,38.89,0h10.6a3.53,3.53,0,0,1,2.94,1.59L70.1,28.1A3.34,3.34,0,0,1,70.7,30.05Z"/></g></g></svg>