<svg xmlns="http://www.w3.org/2000/svg" viewBox="0 0 771.72 398"><defs><style>.cls-1{isolation:isolate;}.cls-2{fill:#fafafa;mix-blend-mode:multiply;}.cls-3{fill:#638f8e;}.cls-4{fill:#bbbdbf;}.cls-5{fill:#6d6e70;}.cls-6{fill:#58595b;}.cls-7{fill:#404041;}.cls-11,.cls-7,.cls-8{fill-rule:evenodd;}.cls-8{fill:#d29b71;}.cls-9{fill:#bfbfbf;}.cls-10{fill:#fff;}.cls-11{fill:#9e7455;}</style></defs><title>table chair0</title><g class="cls-1"><g id="Layer_2" data-name="Layer 2"><g id="Layer_1-2" data-name="Layer 1"><ellipse id="shadow" class="cls-2" cx="385.86" cy="384.32" rx="385.86" ry="13.68"/><rect class="cls-3" x="277.27" y="60.25" width="123.09" height="26.63"/><rect class="cls-3" x="277.27" y="30.76" width="123.09" height="26.63"/><rect class="cls-4" x="273.61" y="43.96" width="3.65" height="31.54"/><rect class="cls-4" x="400.16" y="43.96" width="3.65" height="31.54"/><rect class="cls-5" x="160.86" y="276.33" width="17.97" height="72.26"/><rect class="cls-6" x="153.79" y="344.76" width="32.12" height="18.35"/><rect class="cls-6" x="95.87" y="353.94" width="147.96" height="14.15"/><path class="cls-7" d="M95.49,383.76c6.63,0,12-5.15,12-11.47s-5.41-11.47-12-11.47-12,5.15-12,11.47S88.85,383.76,95.49,383.76Z"/><path class="cls-7" d="M243.07,383.76c6.64,0,12.05-5.15,12.05-11.47s-5.41-11.47-12.05-11.47-12,5.15-12,11.47S236.44,383.76,243.07,383.76Z"/><rect class="cls-6" x="156.47" y="255.3" width="26.76" height="28.67"/><path class="cls-8" d="M77.89,221.74c-26.69,60.42,187,46.75,190.77,30.13,7.91-35.06-77.51-17.35-156.2-33.33.33-3.32.51-7,.51-11.16,0-33.57-5.5-255.28-68.92-198C32.27,20.06,77.62,79.16,77.89,221.74Z"/><rect class="cls-9" x="254" y="99.94" width="277.14" height="283.82"/><rect class="cls-10" x="215.4" y="86.88" width="366.21" height="20.85"/><path class="cls-11" d="M200.06,133.14c37.49,3.78,43.78,41.79,33.1,100.55-1.63,8.93-20.07,10.86-17.36-3.07,14.73-75.66,9.12-84.78-84.11-87.41-13.22-.37-34.91-1.09-46.67-1.44-6.31-.19-11.67-17.08-2.91-17C88.2,124.77,189.89,132.12,200.06,133.14Z"/><rect class="cls-5" x="623.29" y="276.33" width="17.97" height="72.26"/><rect class="cls-6" x="616.22" y="344.76" width="32.12" height="18.35"/><rect class="cls-6" x="558.3" y="353.94" width="147.96" height="14.15"/><path class="cls-7" d="M706.64,383.76c6.63,0,12-5.15,12-11.47s-5.41-11.47-12-11.47-12,5.15-12,11.47S700,383.76,706.64,383.76Z"/><path class="cls-7" d="M559.05,383.76c6.63,0,12-5.15,12-11.47s-5.41-11.47-12-11.47-12,5.15-12,11.47S552.42,383.76,559.05,383.76Z"/><rect class="cls-6" x="618.89" y="255.3" width="26.76" height="28.67"/><path class="cls-8" d="M724.23,221.74c26.7,60.42-187,46.75-190.77,30.13-7.91-35.06,77.51-17.35,156.2-33.33-.33-3.32-.51-7-.51-11.16,0-33.57,5.5-255.28,68.92-198C769.85,20.06,724.5,79.16,724.23,221.74Z"/><path class="cls-11" d="M602.07,133.14c-37.5,3.78-43.79,41.79-33.1,100.55,1.62,8.93,20.06,10.86,17.35-3.07-14.73-75.66-9.12-84.78,84.12-87.41,13.21-.37,34.9-1.09,46.66-1.44,6.31-.19,11.68-17.08,2.91-17C713.93,124.77,612.23,132.12,602.07,133.14Z"/></g></g></g></svg>