<svg xmlns="http://www.w3.org/2000/svg" viewBox="0 0 586.24 371.93"><defs><style>.cls-1{fill:#cfcfd5;}.cls-2{fill:#b7aeb0;}.cls-3{fill:#d29b71;}.cls-4{fill:#c78350;}.cls-5{fill:#bfbfbf;}.cls-6{fill:#929292;}.cls-7{fill:#7c7c7c;}.cls-8{fill:#dbdbdb;}.cls-9{fill:#fff;}</style></defs><title>Asset 10</title><g id="Layer_2" data-name="Layer 2"><g id="Layer_1-2" data-name="Layer 1"><rect class="cls-1" x="372.65" y="213.74" width="14.44" height="158.2"/><rect class="cls-1" x="198.21" y="213.74" width="14.44" height="158.2"/><rect class="cls-2" x="372.65" y="213.74" width="14.44" height="35.49"/><rect class="cls-2" x="198.21" y="213.74" width="14.44" height="35.49"/><rect class="cls-3" x="191.8" width="202.91" height="186.87" rx="6.26" ry="6.26"/><rect class="cls-4" x="186.98" y="185.26" width="212.53" height="37.69" rx="3.76" ry="3.76"/><rect class="cls-1" x="186.65" y="222.16" width="212.93" height="15.64"/><rect class="cls-2" x="186.65" y="222.16" width="212.93" height="6.01"/><rect class="cls-5" x="558.13" y="115.22" width="17.16" height="256.28"/><rect class="cls-5" x="556.35" y="362.5" width="20.73" height="9"/><rect class="cls-5" x="557.51" y="115.33" width="17.16" height="9.64"/><rect class="cls-5" x="10.95" y="115.22" width="17.16" height="256.28"/><rect class="cls-5" x="9.16" y="362.93" width="20.73" height="9"/><rect class="cls-5" x="10.95" y="115.33" width="17.16" height="9.64"/><rect class="cls-6" x="28.42" y="115.22" width="120.82" height="238.02"/><rect class="cls-7" x="28.42" y="263.08" width="120.82" height="28.45"/><rect class="cls-6" x="437" y="115.22" width="120.82" height="238.02"/><rect class="cls-7" x="437" y="263.08" width="120.82" height="28.45"/><rect class="cls-8" x="20.7" y="115.22" width="544.84" height="245.3"/><rect class="cls-8" x="20.7" y="115.22" width="544.84" height="28.65"/><rect class="cls-9" y="96.36" width="586.24" height="18.86"/></g></g></svg>