<svg xmlns="http://www.w3.org/2000/svg" viewBox="0 0 57.19 55.65"><defs><style>.cls-1{fill:#231f20;}</style></defs><title>solid</title><g id="Layer_2" data-name="Layer 2"><g id="Layer_1-2" data-name="Layer 1"><g id="solid"><path class="cls-1" d="M21.75,55.65V45.1a1,1,0,0,1,.16-.53l.71-1.07A6.18,6.18,0,0,0,23.67,40v-.48a9.57,9.57,0,0,1-1.73-1.37L21.75,38v.38a4.8,4.8,0,0,1-4.8,4.8,1,1,0,0,1,0-1.92,2.88,2.88,0,0,0,2.88-2.88V31.67a1,1,0,0,0-1-1,1,1,0,0,0-.44.1l-.08.05a1,1,0,0,0-.44.81v2.87a1,1,0,0,1-.16.54L15.83,38a1,1,0,0,1-1.6-1.07L16,34.25v-2l-3.4-3.4-.77,2.7a7.3,7.3,0,0,0,0,4.09L13.08,40a1.09,1.09,0,0,1,0,.26V55.65Z"/><path class="cls-1" d="M28.73,20.55,20.18,29.1a2.88,2.88,0,0,1,1.57,2.57v3.61l1.55,1.55a7.68,7.68,0,0,0,12.81-3.3l0-.1V31.67a3,3,0,0,1,.22-1.1A7.56,7.56,0,0,0,34.16,26l-5.43-5.43Z"/><path class="cls-1" d="M11.09,13.76a7.68,7.68,0,0,0,0,10.86L16.5,30c.22-.31,10.87-10.84,10.87-10.84l-5.43-5.43A7.68,7.68,0,0,0,11.09,13.76Z"/><path class="cls-1" d="M35.51,38.19a9.47,9.47,0,0,1-1.29,1.08V40a6.26,6.26,0,0,0,1.05,3.46L36,44.57a.9.9,0,0,1,.16.53V55.65h8.64V40.3a.75.75,0,0,1,0-.26l1.26-4.41a7.48,7.48,0,0,0,0-4.09l-.87-3L41.9,31.8v2.45l1.76,2.64A1,1,0,0,1,42.06,38l-1.92-2.88a1,1,0,0,1-.16-.54V31.67a1,1,0,0,0-1.92,0v6.71a2.88,2.88,0,0,0,2.88,2.88,1,1,0,0,1,0,1.92,4.81,4.81,0,0,1-4.8-4.8v-.89A8.47,8.47,0,0,1,35.51,38.19Z"/><path class="cls-1" d="M35.51,13.76l-5.43,5.43,5.43,5.43A9.63,9.63,0,0,1,38,29a2.87,2.87,0,0,1,3.19.82l5.17-5.17A7.68,7.68,0,0,0,35.51,13.76Z"/><path class="cls-1" d="M5.12,3.84a1,1,0,0,0,1-1V1A1,1,0,0,0,4.16,1V2.88A1,1,0,0,0,5.12,3.84Z"/><path class="cls-1" d="M.49,4.19l1.66,1a1,1,0,0,0,1-1.66l-1.66-1a1,1,0,0,0-1,1.66Z"/><path class="cls-1" d="M3.46,6.72a1,1,0,0,0-1.31-.35l-1.66,1a.93.93,0,0,0-.36,1.3A.94.94,0,0,0,1.43,9h0L3.11,8A1,1,0,0,0,3.46,6.72Z"/><path class="cls-1" d="M4.16,10.56a1,1,0,0,0,1.92,0V8.64a1,1,0,1,0-1.92,0Z"/><path class="cls-1" d="M7.13,8,8.8,9a1,1,0,0,0,1-1.66h0l-1.67-1A1,1,0,0,0,7.12,8Z"/><path class="cls-1" d="M7.61,5.28a1,1,0,0,0,.48-.13l1.67-1a1,1,0,1,0-.95-1.67h0l-1.67,1A1,1,0,0,0,6.78,4.8,1,1,0,0,0,7.61,5.28Z"/><path class="cls-1" d="M52.9,9.6a1,1,0,0,0-1,1v.95a1,1,0,1,0,1.92,0v-.95A1,1,0,0,0,52.9,9.6Z"/><path class="cls-1" d="M48.75,10.08a1,1,0,0,0,1.31.35l.83-.48a1,1,0,0,0-1-1.67h0l-.83.48A1,1,0,0,0,48.75,10.08Z"/><path class="cls-1" d="M49.1,6.59l.83.48a1,1,0,0,0,1-1.66l-.83-.48a1,1,0,1,0-1,1.65Z"/><path class="cls-1" d="M52.9,2.88a1,1,0,0,0-1,1v1a1,1,0,1,0,1.92,0v-1A1,1,0,0,0,52.9,2.88Z"/><path class="cls-1" d="M55.75,4.93l-.84.48a1,1,0,1,0,1,1.66h0l.84-.48a1,1,0,0,0-1-1.67Z"/><path class="cls-1" d="M56.71,8.76l-.84-.48a1,1,0,0,0-1,1.66h0l.84.48a1,1,0,0,0,1.3-.36A1,1,0,0,0,56.71,8.76Z"/></g></g></g></svg>