<svg xmlns="http://www.w3.org/2000/svg" viewBox="0 0 100.6 105.43"><defs><style>.cls-1{fill:#247455;}</style></defs><title>Asset 34</title><g id="Layer_2" data-name="Layer 2"><g id="Layer_1-2" data-name="Layer 1"><path class="cls-1" d="M50.3,41.7A10.87,10.87,0,1,0,61.17,52.56,10.88,10.88,0,0,0,50.3,41.7Z"/><path d="M50.3,29.48A23.09,23.09,0,1,0,73.38,52.56,23.11,23.11,0,0,0,50.3,29.48Zm0,39.85A16.77,16.77,0,1,1,67.06,52.56,16.78,16.78,0,0,1,50.3,69.33Z"/><path d="M99.12,50.72A90,90,0,0,0,85,37.21,73.92,73.92,0,0,0,69.59,27.9,48.49,48.49,0,0,0,51.1,23.59a29,29,0,0,1,0,57.94,48.47,48.47,0,0,0,18.49-4.3A74,74,0,0,0,85,67.91,90,90,0,0,0,99.12,54.4l1.48-1.84Z"/><path d="M21.32,52.56a29,29,0,0,1,28.18-29A48.49,48.49,0,0,0,31,27.9,73.92,73.92,0,0,0,15.6,37.21,90.35,90.35,0,0,0,1.47,50.72L0,52.56,1.47,54.4A90.35,90.35,0,0,0,15.6,67.91,74,74,0,0,0,31,77.23a48.47,48.47,0,0,0,18.49,4.3A29,29,0,0,1,21.32,52.56Z"/><path class="cls-1" d="M93.59,21.74l-6.53,9.79c-.46-.33-.93-.66-1.39-1a84.74,84.74,0,0,0-13.76-7.73,58.81,58.81,0,0,0-21.49-5.16l.56,0-.68,0h0l-.68,0,.56,0a58.76,58.76,0,0,0-21.49,5.16,79.65,79.65,0,0,0-9,4.7c-2,1.22-4.09,2.56-6.11,4L7,21.74,19.33,9.43l12,8a39.76,39.76,0,0,1,7.48-3.11L41.59,0H59l2.81,14.29a39.85,39.85,0,0,1,7.49,3.11l12-8Z"/><path class="cls-1" d="M93.59,83.68,81.27,96l-12-8a39.2,39.2,0,0,1-7.49,3.11L59,105.43H41.59l-2.82-14.3A38.85,38.85,0,0,1,31.29,88l-12,8L7,83.68l6.66-10q4,2.82,8,5.11c2.32,1.3,4.65,2.47,7,3.48a58.78,58.78,0,0,0,21.49,5.17l-.56,0,.68,0h0l.68,0-.56,0a58.83,58.83,0,0,0,21.49-5.17,82.12,82.12,0,0,0,12-6.57c1-.64,2-1.32,3-2Z"/></g></g></svg>