<svg xmlns="http://www.w3.org/2000/svg" viewBox="0 0 285.56 265.01"><defs><style>.cls-1{isolation:isolate;}.cls-2{opacity:0.3;}.cls-3{opacity:0.1;mix-blend-mode:multiply;}.cls-4{fill:#82a09f;}.cls-5{fill:#aac8c8;}.cls-6{fill:#fff;}.cls-7{fill:#f43b22;}.cls-8{fill:#c0dddc;}.cls-9{fill:#ffb000;}.cls-10{fill:#2956c5;}</style></defs><title>Asset 60</title><g class="cls-1"><g id="Layer_2" data-name="Layer 2"><g id="Layer_1-2" data-name="Layer 1"><g class="cls-2"><rect class="cls-3" x="15.88" y="62.53" width="241.53" height="202.48"/><rect class="cls-4" x="22.02" y="56.95" width="241.53" height="202.48"/><rect class="cls-5" x="29" y="62.8" width="227.57" height="190.78"/><rect class="cls-3" x="48.35" y="86.15" width="47.05" height="66.57"/><rect class="cls-6" x="52.26" y="82.89" width="47.05" height="66.57"/><path class="cls-7" d="M79.91,83.61a4.13,4.13,0,1,1-4.13-4.12A4.13,4.13,0,0,1,79.91,83.61Z"/><rect class="cls-8" x="58.38" y="98.63" width="34.8" height="1.5"/><rect class="cls-8" x="58.38" y="103.43" width="34.8" height="1.5"/><rect class="cls-8" x="58.38" y="108.23" width="34.8" height="1.5"/><rect class="cls-8" x="58.38" y="113.03" width="34.8" height="1.5"/><rect class="cls-8" x="58.38" y="117.83" width="34.8" height="1.5"/><rect class="cls-8" x="58.38" y="122.63" width="34.8" height="1.5"/><rect class="cls-8" x="58.38" y="127.43" width="34.8" height="1.5"/><rect class="cls-8" x="58.38" y="132.23" width="34.8" height="1.5"/><rect class="cls-3" x="114.58" y="107.19" width="47.05" height="66.57"/><rect class="cls-6" x="118.15" y="103.98" width="47.05" height="66.57"/><path class="cls-9" d="M145.8,104.7a4.13,4.13,0,1,1-4.13-4.13A4.12,4.12,0,0,1,145.8,104.7Z"/><rect class="cls-8" x="124.27" y="119.71" width="34.8" height="1.5"/><rect class="cls-8" x="124.27" y="124.51" width="34.8" height="1.5"/><rect class="cls-8" x="124.27" y="129.31" width="34.8" height="1.5"/><rect class="cls-8" x="124.27" y="134.11" width="34.8" height="1.5"/><rect class="cls-8" x="124.27" y="138.91" width="34.8" height="1.5"/><rect class="cls-8" x="124.27" y="143.71" width="34.8" height="1.5"/><rect class="cls-8" x="124.27" y="148.51" width="34.8" height="1.5"/><rect class="cls-8" x="124.27" y="153.31" width="34.8" height="1.5"/><rect class="cls-3" x="178.19" y="85.75" width="47.05" height="66.57"/><rect class="cls-6" x="181.4" y="82.89" width="47.05" height="66.57"/><path class="cls-10" d="M209.05,83.61a4.13,4.13,0,1,1-4.13-4.12A4.13,4.13,0,0,1,209.05,83.61Z"/><rect class="cls-8" x="187.52" y="98.63" width="34.8" height="1.5"/><rect class="cls-8" x="187.52" y="103.43" width="34.8" height="1.5"/><rect class="cls-8" x="187.52" y="108.23" width="34.8" height="1.5"/><rect class="cls-8" x="187.52" y="113.03" width="34.8" height="1.5"/><rect class="cls-8" x="187.52" y="117.83" width="34.8" height="1.5"/><rect class="cls-8" x="187.52" y="122.63" width="34.8" height="1.5"/><rect class="cls-8" x="187.52" y="127.43" width="34.8" height="1.5"/><rect class="cls-8" x="187.52" y="132.23" width="34.8" height="1.5"/><rect class="cls-3" x="47.73" y="185.87" width="113.13" height="56.91"/><rect class="cls-6" x="51.3" y="181.95" width="113.13" height="56.91"/><circle class="cls-7" cx="104.74" cy="181.95" r="4.13"/><rect class="cls-8" x="62.04" y="195.3" width="91.65" height="1.5"/><rect class="cls-8" x="62.04" y="199.61" width="91.65" height="1.5"/><rect class="cls-8" x="62.04" y="203.92" width="91.65" height="1.5"/><rect class="cls-8" x="62.04" y="208.23" width="91.65" height="1.5"/><rect class="cls-8" x="62.04" y="212.54" width="91.65" height="1.5"/><rect class="cls-8" x="62.04" y="216.85" width="91.65" height="1.5"/><rect class="cls-8" x="62.04" y="221.16" width="91.65" height="1.5"/><rect class="cls-8" x="62.04" y="225.48" width="91.65" height="1.5"/><rect class="cls-8" x="62.04" y="229.79" width="91.65" height="1.5"/><path class="cls-4" d="M3.55,13.31h0A3.55,3.55,0,0,1,0,9.76V3.55A3.55,3.55,0,0,1,3.55,0h0A3.55,3.55,0,0,1,7.1,3.55V9.76A3.55,3.55,0,0,1,3.55,13.31Z"/><path class="cls-4" d="M282,13.31h0a3.55,3.55,0,0,1-3.55-3.55V3.55A3.55,3.55,0,0,1,282,0h0a3.55,3.55,0,0,1,3.55,3.55V9.76A3.55,3.55,0,0,1,282,13.31Z"/><rect class="cls-4" x="2.96" y="4.95" width="279.06" height="3.41"/><rect class="cls-4" x="57.19" y="6.31" width="2.47" height="51.21"/><rect class="cls-4" x="225.31" y="6.93" width="2.47" height="51.21"/></g></g></g></g></svg>