<svg xmlns="http://www.w3.org/2000/svg" viewBox="0 0 378.67 324.68"><defs><style>.cls-1{isolation:isolate;}.cls-2,.cls-3,.cls-4{fill:#daeef7;}.cls-3{opacity:0.6;}.cls-4{opacity:0.8;mix-blend-mode:overlay;}.cls-5{fill:#fff;}.cls-6{fill:#b5d6ea;}.cls-7{fill:none;}</style></defs><title>Asset 2</title><g class="cls-1"><g id="Layer_2" data-name="Layer 2"><g id="Layer_1-2" data-name="Layer 1"><rect class="cls-2" x="17.27" y="10.92" width="176.87" height="306.35"/><rect class="cls-3" x="17.1" y="12.41" width="173.07" height="68.76"/><polygon class="cls-4" points="63.26 9.52 25.39 78.58 59.59 78.58 98.97 10.86 63.26 9.52"/><polygon class="cls-4" points="137.35 9.52 99.49 78.58 133.69 78.58 173.07 10.86 137.35 9.52"/><rect class="cls-5" x="5.7" width="372.97" height="16.03" rx="5.08"/><rect class="cls-5" x="7.25" y="77.03" width="191.72" height="9.82" rx="3.11"/><rect class="cls-5" x="25.21" y="45.76" width="76.53" height="3.63" transform="translate(15.9 111.05) rotate(-90)"/><rect class="cls-5" x="102.94" y="45.77" width="76.53" height="3.63" transform="translate(93.62 188.78) rotate(-90)"/><rect class="cls-2" x="195.11" y="10.92" width="176.87" height="306.35"/><rect class="cls-3" x="196.94" y="12.41" width="173.07" height="68.76"/><polygon class="cls-4" points="243.09 9.52 205.23 78.58 239.43 78.58 278.81 10.86 243.09 9.52"/><polygon class="cls-4" points="317.19 9.52 279.33 78.58 313.53 78.58 352.91 10.86 317.19 9.52"/><rect class="cls-5" x="187.09" y="77.03" width="187.9" height="9.82" rx="3.11"/><rect class="cls-5" x="205.05" y="45.76" width="76.53" height="3.63" transform="translate(195.74 290.89) rotate(-90)"/><rect class="cls-5" x="282.78" y="45.77" width="76.53" height="3.63" transform="translate(273.46 368.62) rotate(-90)"/><polygon class="cls-6" points="375.15 193.55 375.15 316.84 192.32 316.84 192.32 219.73 194.93 219.73 194.93 209.53 200.53 209.62 258.31 210.51 256.74 235.65 292.82 235.65 289.52 160.06 336.39 166.95 336.39 191.36 366.94 193.09 371.8 193.36 375.15 193.55"/><rect class="cls-7" x="194.93" y="12.62" width="176.87" height="304.65"/><path class="cls-5" d="M192.32,7.8V323.6H375.15V7.8ZM366.94,315.42H200.53V16H366.94Z"/><rect class="cls-5" y="308.65" width="378.4" height="16.03" rx="5.08"/><polygon class="cls-6" points="195.15 193.55 195.15 316.84 12.32 316.84 12.32 219.73 14.93 219.73 14.93 209.53 20.53 209.62 78.31 210.51 76.74 235.65 112.82 235.65 109.52 160.06 156.39 166.95 156.39 191.36 186.94 193.09 191.8 193.36 195.15 193.55"/><path class="cls-5" d="M195.31,323.6H12.48V7.8H195.31ZM20.68,315.42H187.1V16H20.68Z"/></g></g></g></svg>