<svg xmlns="http://www.w3.org/2000/svg" viewBox="0 0 34.82 25.71"><defs><style>.cls-1{fill:#231f20;}.cls-2{fill:none;stroke:#231f20;stroke-linecap:round;stroke-miterlimit:10;stroke-width:2px;}</style></defs><title>mute_1</title><g id="Layer_2" data-name="Layer 2"><g id="Layer_1-2" data-name="Layer 1"><path class="cls-1" d="M15.56,3.06a1.27,1.27,0,0,0-1.25,0L5.89,7.87H1.24A1.25,1.25,0,0,0,0,9.12v7.46a1.25,1.25,0,0,0,1.24,1.25H5.89l8.43,4.81A1.24,1.24,0,0,0,16,22.18a1.23,1.23,0,0,0,.17-.62V4.14A1.25,1.25,0,0,0,15.56,3.06Z"/><path class="cls-1" d="M20.88,8.33A1.25,1.25,0,0,0,18.94,9.9h0a5,5,0,0,1,0,5.9,1.25,1.25,0,0,0,.18,1.75,1.23,1.23,0,0,0,1.75-.18h0A7.43,7.43,0,0,0,20.88,8.33Z"/><path class="cls-1" d="M25.86,4.6a1.24,1.24,0,1,0-1.94,1.56h0a11.16,11.16,0,0,1,0,13.38,1.24,1.24,0,0,0,1.93,1.57h0A13.77,13.77,0,0,0,25.86,4.6Z"/><path class="cls-1" d="M30.84.87A1.24,1.24,0,0,0,28.9,2.43a17.4,17.4,0,0,1,0,20.84,1.24,1.24,0,0,0,1.93,1.57h0A20,20,0,0,0,30.84.87Z"/><line class="cls-2" x1="31.09" y1="1" x2="6.37" y2="24.71"/></g></g></svg>