<svg xmlns="http://www.w3.org/2000/svg" viewBox="0 0 34.48 24.65"><defs><style>.cls-1{fill:#231f20;}</style></defs><title>unmute</title><g id="Layer_2" data-name="Layer 2"><g id="Layer_1-2" data-name="Layer 1"><path class="cls-1" d="M15.4,2.63a1.23,1.23,0,0,0-1.23,0L5.83,7.39H1.23A1.23,1.23,0,0,0,0,8.62V16a1.24,1.24,0,0,0,1.23,1.24h4.6L14.18,22a1.23,1.23,0,0,0,1.68-.46,1.26,1.26,0,0,0,.16-.61V3.69A1.23,1.23,0,0,0,15.4,2.63Z"/><path class="cls-1" d="M20.68,7.85a1.24,1.24,0,0,0-1.74-.19,1.23,1.23,0,0,0-.18,1.73h0a5,5,0,0,1,0,5.85A1.23,1.23,0,0,0,18.93,17a1.25,1.25,0,0,0,1.74-.17h0A7.38,7.38,0,0,0,20.68,7.85Z"/><path class="cls-1" d="M25.6,4.15A1.24,1.24,0,0,0,23.87,4a1.25,1.25,0,0,0-.19,1.74h0a11,11,0,0,1,0,13.24,1.23,1.23,0,0,0,1.92,1.55h0A13.61,13.61,0,0,0,25.6,4.15Z"/><path class="cls-1" d="M30.53.45A1.23,1.23,0,0,0,28.61,2a17.21,17.21,0,0,1,0,20.63,1.24,1.24,0,1,0,1.92,1.56h0A19.82,19.82,0,0,0,30.53.45Z"/></g></g></svg>